G04*
G04 #@! TF.GenerationSoftware,Altium Limited,Altium Designer,20.0.13 (296)*
G04*
G04 Layer_Color=255*
%FSLAX25Y25*%
%MOIN*%
G70*
G01*
G75*
%ADD102C,0.02559*%
%ADD103O,0.03937X0.06299*%
%ADD104O,0.03937X0.08268*%
%ADD105C,0.03150*%
%ADD106R,0.06600X0.06600*%
%ADD107C,0.06600*%
%ADD108C,0.20000*%
D102*
X846256Y364500D02*
D03*
X823500D02*
D03*
D103*
X817850Y378280D02*
D03*
X851906D02*
D03*
D104*
X817850Y362532D02*
D03*
X851906D02*
D03*
D105*
X669000Y352311D02*
D03*
Y340500D02*
D03*
D106*
X700500Y193000D02*
D03*
D107*
X710500D02*
D03*
X720500D02*
D03*
X730500D02*
D03*
X740500D02*
D03*
X750500D02*
D03*
X760500D02*
D03*
X770500D02*
D03*
X780500D02*
D03*
X790500D02*
D03*
X800500D02*
D03*
X810500D02*
D03*
X820500D02*
D03*
X830500D02*
D03*
X840500D02*
D03*
X850500D02*
D03*
X860500D02*
D03*
X870500D02*
D03*
X880500D02*
D03*
X890500D02*
D03*
X900500D02*
D03*
X910500D02*
D03*
X920500D02*
D03*
X930500D02*
D03*
X700500Y253000D02*
D03*
X710500D02*
D03*
X720500D02*
D03*
X730500D02*
D03*
X740500D02*
D03*
X750500D02*
D03*
X760500D02*
D03*
X770500D02*
D03*
X780500D02*
D03*
X790500D02*
D03*
X800500D02*
D03*
X810500D02*
D03*
X820500D02*
D03*
X830500D02*
D03*
X840500D02*
D03*
X850500D02*
D03*
X860500D02*
D03*
X870500D02*
D03*
X880500D02*
D03*
X890500D02*
D03*
X900500D02*
D03*
X910500D02*
D03*
X920500D02*
D03*
X930500D02*
D03*
D108*
X673336Y376804D02*
D03*
Y155336D02*
D03*
X996171D02*
D03*
Y376804D02*
D03*
M02*
