G04*
G04 #@! TF.GenerationSoftware,Altium Limited,Altium Designer,20.0.13 (296)*
G04*
G04 Layer_Physical_Order=2*
G04 Layer_Color=16711680*
%FSLAX25Y25*%
%MOIN*%
G70*
G01*
G75*
%ADD10C,0.01000*%
%ADD11C,0.00800*%
%ADD13C,0.01500*%
%ADD17C,0.00600*%
%ADD18C,0.00500*%
%ADD96C,0.02000*%
%ADD98C,0.00400*%
%ADD100C,0.00900*%
%ADD102C,0.02559*%
%ADD103O,0.03937X0.06299*%
%ADD104O,0.03937X0.08268*%
%ADD105C,0.03150*%
%ADD106R,0.06600X0.06600*%
%ADD107C,0.06600*%
%ADD108C,0.20000*%
%ADD109C,0.05000*%
G36*
X996223Y388993D02*
X996723Y388993D01*
X997215Y388977D01*
X997484Y388968D01*
X998960Y388727D01*
X1000394Y388300D01*
X1001761Y387693D01*
X1003039Y386916D01*
X1004208Y385982D01*
X1005248Y384907D01*
X1006142Y383708D01*
X1006875Y382404D01*
X1007436Y381017D01*
X1007815Y379571D01*
X1008006Y378087D01*
Y377290D01*
X1008006Y377193D01*
X1008004Y377096D01*
X1008002Y376999D01*
X1008000Y376950D01*
Y155510D01*
X1008000Y155506D01*
X1008000Y155505D01*
X1008000Y155497D01*
Y154705D01*
X1007794Y153137D01*
X1007384Y151610D01*
X1006779Y150148D01*
X1005989Y148778D01*
X1005027Y147523D01*
X1003909Y146405D01*
X1002654Y145441D01*
X1001285Y144650D01*
X999824Y144044D01*
X998296Y143634D01*
X996728Y143426D01*
X995938Y143426D01*
X672312D01*
X670745Y143632D01*
X669217Y144042D01*
X667756Y144647D01*
X666387Y145437D01*
X665132Y146400D01*
X664014Y147518D01*
X663052Y148772D01*
X662261Y150142D01*
X661656Y151603D01*
X661247Y153130D01*
X661040Y154698D01*
Y155488D01*
Y376957D01*
Y377747D01*
X661247Y379315D01*
X661656Y380842D01*
X662260Y382302D01*
X663051Y383671D01*
X664013Y384926D01*
X665130Y386044D01*
X666384Y387006D01*
X667753Y387797D01*
X669213Y388403D01*
X670740Y388812D01*
X672307Y389019D01*
X673101Y389019D01*
X673603Y389019D01*
X996223Y388993D01*
D02*
G37*
%LPC*%
G36*
X800000Y387416D02*
X799267Y387270D01*
X798645Y386855D01*
X798230Y386233D01*
X798084Y385500D01*
X798230Y384767D01*
X798645Y384145D01*
X799267Y383730D01*
X800000Y383584D01*
X800733Y383730D01*
X801355Y384145D01*
X801812Y384190D01*
X802251Y383751D01*
X802549Y383552D01*
X802450Y383063D01*
X802180Y383116D01*
X801446Y382970D01*
X800825Y382555D01*
X800409Y381933D01*
X800263Y381200D01*
X800409Y380467D01*
X800825Y379845D01*
X801446Y379430D01*
X802180Y379284D01*
X802913Y379430D01*
X803535Y379845D01*
X803950Y380467D01*
X804096Y381200D01*
X804449Y381582D01*
X815106D01*
X815353Y381082D01*
X815257Y380958D01*
X814958Y380236D01*
X814856Y379461D01*
Y378780D01*
X817850D01*
X820844D01*
Y379461D01*
X820743Y380236D01*
X820443Y380958D01*
X820348Y381082D01*
X820594Y381582D01*
X849162D01*
X849408Y381082D01*
X849313Y380958D01*
X849014Y380236D01*
X848911Y379461D01*
Y378780D01*
X851906D01*
X854900D01*
Y379461D01*
X854798Y380236D01*
X854654Y380582D01*
X854988Y381082D01*
X969423D01*
X992082Y358423D01*
Y356147D01*
X991645Y355855D01*
X991230Y355233D01*
X991084Y354500D01*
X991230Y353767D01*
X991645Y353145D01*
X992267Y352730D01*
X992799Y352624D01*
X992993Y352111D01*
X992351Y351469D01*
X992152Y351171D01*
X992082Y350820D01*
Y349647D01*
X991645Y349355D01*
X991230Y348733D01*
X991199Y348582D01*
X990657Y348417D01*
X968425Y370649D01*
X968127Y370848D01*
X967776Y370918D01*
X959713D01*
X959678Y370958D01*
X959647Y371011D01*
X959548Y371418D01*
X960121Y371991D01*
X960155Y372072D01*
X960225Y372126D01*
X960691Y372934D01*
X960703Y373021D01*
X960756Y373090D01*
X960998Y373991D01*
X960986Y374078D01*
X961020Y374160D01*
X961020Y374626D01*
X961020Y375093D01*
X960986Y375173D01*
X960998Y375261D01*
X960756Y376162D01*
X960703Y376231D01*
X960691Y376318D01*
X960225Y377127D01*
X960155Y377180D01*
X960122Y377261D01*
X959462Y377921D01*
X959381Y377954D01*
X959328Y378024D01*
X958519Y378491D01*
X958432Y378502D01*
X958363Y378555D01*
X957462Y378797D01*
X957375Y378785D01*
X957294Y378819D01*
X956361Y378819D01*
X956279Y378786D01*
X956192Y378797D01*
X955291Y378556D01*
X955222Y378502D01*
X955135Y378491D01*
X954327Y378024D01*
X954273Y377955D01*
X954192Y377921D01*
X953532Y377261D01*
X953499Y377180D01*
X953429Y377127D01*
X952962Y376319D01*
X952951Y376232D01*
X952898Y376162D01*
X952656Y375261D01*
X952668Y375174D01*
X952634Y375093D01*
X952634Y374626D01*
X952634Y374160D01*
X952667Y374079D01*
X952656Y373992D01*
X952897Y373091D01*
X952951Y373021D01*
X952962Y372934D01*
X953429Y372126D01*
X953498Y372073D01*
X953532Y371991D01*
X954106Y371418D01*
X954007Y371013D01*
X953975Y370957D01*
X953941Y370918D01*
X904386D01*
X904351Y370958D01*
X904320Y371011D01*
X904221Y371418D01*
X904794Y371991D01*
X904828Y372072D01*
X904898Y372126D01*
X905364Y372934D01*
X905376Y373021D01*
X905429Y373090D01*
X905671Y373991D01*
X905659Y374078D01*
X905693Y374160D01*
X905693Y374626D01*
X905693Y375093D01*
X905659Y375173D01*
X905671Y375261D01*
X905429Y376162D01*
X905376Y376231D01*
X905364Y376318D01*
X904898Y377127D01*
X904828Y377180D01*
X904795Y377261D01*
X904135Y377921D01*
X904054Y377954D01*
X904000Y378024D01*
X903193Y378491D01*
X903106Y378502D01*
X903036Y378555D01*
X902135Y378797D01*
X902048Y378785D01*
X901967Y378819D01*
X901034Y378819D01*
X900953Y378786D01*
X900865Y378797D01*
X899964Y378556D01*
X899895Y378502D01*
X899808Y378491D01*
X899000Y378024D01*
X898946Y377955D01*
X898865Y377921D01*
X898205Y377261D01*
X898172Y377180D01*
X898102Y377127D01*
X897635Y376319D01*
X897624Y376232D01*
X897571Y376162D01*
X897329Y375261D01*
X897340Y375174D01*
X897307Y375093D01*
X897307Y374626D01*
X897307Y374160D01*
X897340Y374079D01*
X897329Y373992D01*
X897570Y373091D01*
X897624Y373021D01*
X897635Y372934D01*
X898102Y372126D01*
X898171Y372073D01*
X898205Y371991D01*
X898779Y371418D01*
X898680Y371013D01*
X898648Y370957D01*
X898614Y370918D01*
X816380D01*
X809914Y377384D01*
X810016Y377900D01*
X809871Y378633D01*
X809455Y379255D01*
X808833Y379671D01*
X808100Y379816D01*
X807367Y379671D01*
X806745Y379255D01*
X806330Y378633D01*
X806184Y377900D01*
X806330Y377167D01*
X806745Y376545D01*
X807367Y376130D01*
X808100Y375984D01*
X808616Y376086D01*
X814823Y369880D01*
X814631Y369418D01*
X812380D01*
X806949Y374849D01*
X806729Y374996D01*
X806355Y375555D01*
X805733Y375971D01*
X805000Y376116D01*
X804267Y375971D01*
X803645Y375555D01*
X803230Y374933D01*
X803084Y374200D01*
X803230Y373467D01*
X803645Y372845D01*
X804267Y372429D01*
X805000Y372284D01*
X805733Y372429D01*
X806355Y372845D01*
X806357Y372845D01*
X811351Y367851D01*
X811649Y367652D01*
X812000Y367582D01*
X815913D01*
X816083Y367082D01*
X815733Y366814D01*
X815257Y366194D01*
X814958Y365472D01*
X814856Y364697D01*
Y363032D01*
X817850D01*
X820844D01*
Y364697D01*
X820743Y365472D01*
X820443Y366194D01*
X819968Y366814D01*
X819618Y367082D01*
X819788Y367582D01*
X849968D01*
X850138Y367082D01*
X849788Y366814D01*
X849313Y366194D01*
X849014Y365472D01*
X848911Y364697D01*
Y363032D01*
X851906D01*
X854900D01*
Y364697D01*
X854798Y365472D01*
X854499Y366194D01*
X854023Y366814D01*
X853673Y367082D01*
X853843Y367582D01*
X966120D01*
X991186Y342516D01*
X991084Y342000D01*
X991230Y341267D01*
X991645Y340645D01*
X992267Y340230D01*
X993000Y340084D01*
X993733Y340230D01*
X993862Y340315D01*
X994362Y340048D01*
Y338160D01*
X993516Y337314D01*
X993000Y337416D01*
X992267Y337270D01*
X991645Y336855D01*
X991230Y336233D01*
X991084Y335500D01*
X991230Y334767D01*
X991645Y334145D01*
X992267Y333730D01*
X993000Y333584D01*
X993733Y333730D01*
X994355Y334145D01*
X994771Y334767D01*
X994916Y335500D01*
X994814Y336016D01*
X995928Y337131D01*
X996127Y337428D01*
X996197Y337779D01*
Y343721D01*
X996127Y344072D01*
X995928Y344369D01*
X994213Y346085D01*
X994262Y346583D01*
X994355Y346645D01*
X994771Y347267D01*
X994916Y348000D01*
X994771Y348733D01*
X994355Y349355D01*
X993918Y349647D01*
Y350440D01*
X995928Y352451D01*
X996127Y352749D01*
X996197Y353100D01*
Y358221D01*
X996127Y358572D01*
X995928Y358869D01*
X969749Y385049D01*
X969451Y385248D01*
X969100Y385318D01*
X803280D01*
X802477Y386121D01*
X802179Y386320D01*
X801828Y386390D01*
X801666D01*
X801355Y386855D01*
X800733Y387270D01*
X800000Y387416D01*
D02*
G37*
G36*
X767034Y378870D02*
X766953Y378837D01*
X766865Y378848D01*
X765964Y378607D01*
X765895Y378553D01*
X765808Y378542D01*
X765000Y378075D01*
X764946Y378006D01*
X764865Y377972D01*
X764205Y377312D01*
X764172Y377231D01*
X764102Y377178D01*
X763635Y376370D01*
X763624Y376283D01*
X763571Y376213D01*
X763329Y375312D01*
X763341Y375225D01*
X763307Y375144D01*
X763307Y374678D01*
X763307Y374211D01*
X763340Y374130D01*
X763329Y374043D01*
X763570Y373142D01*
X763624Y373072D01*
X763635Y372985D01*
X764102Y372177D01*
X764171Y372124D01*
X764205Y372042D01*
X764865Y371383D01*
X764946Y371349D01*
X764999Y371280D01*
X765807Y370813D01*
X765894Y370801D01*
X765964Y370748D01*
X766865Y370507D01*
X766952Y370518D01*
X767033Y370484D01*
X767966Y370484D01*
X768047Y370518D01*
X768134Y370506D01*
X769035Y370748D01*
X769105Y370801D01*
X769192Y370813D01*
X770000Y371279D01*
X770053Y371349D01*
X770135Y371382D01*
X770794Y372042D01*
X770828Y372123D01*
X770898Y372177D01*
X771364Y372985D01*
X771376Y373072D01*
X771429Y373141D01*
X771671Y374042D01*
X771659Y374129D01*
X771693Y374210D01*
X771693Y374677D01*
X771693Y375143D01*
X771659Y375224D01*
X771671Y375311D01*
X771429Y376213D01*
X771376Y376282D01*
X771364Y376369D01*
X770898Y377178D01*
X770828Y377231D01*
X770795Y377312D01*
X770135Y377972D01*
X770054Y378005D01*
X770001Y378075D01*
X769193Y378542D01*
X769105Y378553D01*
X769036Y378606D01*
X768135Y378848D01*
X768048Y378836D01*
X767967Y378870D01*
X767034Y378870D01*
D02*
G37*
G36*
X712534D02*
X712453Y378837D01*
X712365Y378848D01*
X711464Y378607D01*
X711395Y378553D01*
X711308Y378542D01*
X710500Y378075D01*
X710446Y378006D01*
X710365Y377972D01*
X709705Y377312D01*
X709672Y377231D01*
X709602Y377178D01*
X709135Y376370D01*
X709124Y376283D01*
X709071Y376213D01*
X708829Y375312D01*
X708841Y375225D01*
X708807Y375144D01*
X708807Y374678D01*
X708807Y374211D01*
X708840Y374130D01*
X708829Y374043D01*
X709070Y373142D01*
X709124Y373072D01*
X709135Y372985D01*
X709602Y372177D01*
X709671Y372124D01*
X709705Y372042D01*
X710365Y371383D01*
X710446Y371349D01*
X710499Y371280D01*
X711307Y370813D01*
X711394Y370801D01*
X711464Y370748D01*
X712365Y370507D01*
X712452Y370518D01*
X712533Y370484D01*
X713466Y370484D01*
X713547Y370518D01*
X713634Y370506D01*
X714535Y370748D01*
X714605Y370801D01*
X714692Y370813D01*
X715500Y371279D01*
X715554Y371349D01*
X715635Y371382D01*
X716294Y372042D01*
X716328Y372123D01*
X716398Y372177D01*
X716864Y372985D01*
X716876Y373072D01*
X716929Y373141D01*
X717171Y374042D01*
X717159Y374129D01*
X717193Y374210D01*
X717193Y374677D01*
X717193Y375143D01*
X717159Y375224D01*
X717171Y375311D01*
X716929Y376213D01*
X716876Y376282D01*
X716864Y376369D01*
X716398Y377178D01*
X716328Y377231D01*
X716295Y377312D01*
X715635Y377972D01*
X715554Y378005D01*
X715500Y378075D01*
X714693Y378542D01*
X714606Y378553D01*
X714536Y378606D01*
X713635Y378848D01*
X713548Y378836D01*
X713467Y378870D01*
X712534Y378870D01*
D02*
G37*
G36*
X854900Y377780D02*
X852406D01*
Y374170D01*
X852680Y374206D01*
X853403Y374505D01*
X854023Y374981D01*
X854499Y375601D01*
X854798Y376324D01*
X854900Y377098D01*
Y377780D01*
D02*
G37*
G36*
X820844D02*
X818350D01*
Y374170D01*
X818625Y374206D01*
X819347Y374505D01*
X819968Y374981D01*
X820443Y375601D01*
X820743Y376324D01*
X820844Y377098D01*
Y377780D01*
D02*
G37*
G36*
X851406D02*
X848911D01*
Y377098D01*
X849014Y376324D01*
X849313Y375601D01*
X849788Y374981D01*
X850408Y374505D01*
X851131Y374206D01*
X851406Y374170D01*
Y377780D01*
D02*
G37*
G36*
X817350D02*
X814856D01*
Y377098D01*
X814958Y376324D01*
X815257Y375601D01*
X815733Y374981D01*
X816353Y374505D01*
X817076Y374206D01*
X817350Y374170D01*
Y377780D01*
D02*
G37*
G36*
X996171Y387437D02*
X994507Y387306D01*
X992885Y386917D01*
X991343Y386278D01*
X989921Y385407D01*
X988652Y384323D01*
X987569Y383054D01*
X986697Y381632D01*
X986058Y380090D01*
X985669Y378468D01*
X985538Y376804D01*
X985669Y375141D01*
X986058Y373519D01*
X986697Y371977D01*
X987569Y370555D01*
X988652Y369286D01*
X989921Y368202D01*
X991343Y367331D01*
X992885Y366692D01*
X994507Y366303D01*
X996171Y366172D01*
X997834Y366303D01*
X999456Y366692D01*
X1000998Y367331D01*
X1002421Y368202D01*
X1003689Y369286D01*
X1004773Y370555D01*
X1005645Y371977D01*
X1006283Y373519D01*
X1006672Y375141D01*
X1006803Y376804D01*
X1006672Y378468D01*
X1006283Y380090D01*
X1005645Y381632D01*
X1004773Y383054D01*
X1003689Y384323D01*
X1002421Y385407D01*
X1000998Y386278D01*
X999456Y386917D01*
X997834Y387306D01*
X996171Y387437D01*
D02*
G37*
G36*
X673336D02*
X671673Y387306D01*
X670050Y386917D01*
X668509Y386278D01*
X667086Y385407D01*
X665817Y384323D01*
X664734Y383054D01*
X663862Y381632D01*
X663224Y380090D01*
X662834Y378468D01*
X662703Y376804D01*
X662834Y375141D01*
X663224Y373519D01*
X663862Y371977D01*
X664734Y370555D01*
X665817Y369286D01*
X667086Y368202D01*
X668509Y367331D01*
X670050Y366692D01*
X671673Y366303D01*
X673336Y366172D01*
X674999Y366303D01*
X676622Y366692D01*
X678163Y367331D01*
X679586Y368202D01*
X680855Y369286D01*
X681938Y370555D01*
X682810Y371977D01*
X683448Y373519D01*
X683838Y375141D01*
X683969Y376804D01*
X683838Y378468D01*
X683448Y380090D01*
X682810Y381632D01*
X681938Y383054D01*
X680855Y384323D01*
X679586Y385407D01*
X678163Y386278D01*
X676622Y386917D01*
X674999Y387306D01*
X673336Y387437D01*
D02*
G37*
G36*
X846256Y366416D02*
X845523Y366270D01*
X844901Y365855D01*
X844485Y365233D01*
X844340Y364500D01*
X844485Y363767D01*
X844901Y363145D01*
X845523Y362730D01*
X846256Y362584D01*
X846989Y362730D01*
X847611Y363145D01*
X848026Y363767D01*
X848172Y364500D01*
X848026Y365233D01*
X847611Y365855D01*
X846989Y366270D01*
X846256Y366416D01*
D02*
G37*
G36*
X823500D02*
X822767Y366270D01*
X822145Y365855D01*
X821729Y365233D01*
X821584Y364500D01*
X821729Y363767D01*
X822145Y363145D01*
X822767Y362730D01*
X823500Y362584D01*
X824233Y362730D01*
X824855Y363145D01*
X825270Y363767D01*
X825416Y364500D01*
X825270Y365233D01*
X824855Y365855D01*
X824233Y366270D01*
X823500Y366416D01*
D02*
G37*
G36*
X780207Y358609D02*
X780207Y358609D01*
X696879D01*
X696879Y358609D01*
X696566Y358546D01*
X696302Y358370D01*
X696302Y358370D01*
X671796Y333864D01*
X671619Y333599D01*
X671557Y333287D01*
X671557Y333287D01*
Y184613D01*
X671557Y184613D01*
X671619Y184301D01*
X671796Y184036D01*
X701616Y154216D01*
X701616Y154216D01*
X708366Y147467D01*
X708365Y147456D01*
X708213Y146967D01*
X702759D01*
X666867Y182859D01*
Y338878D01*
X667367Y339030D01*
X667432Y338932D01*
X668151Y338451D01*
X669000Y338283D01*
X669849Y338451D01*
X670568Y338932D01*
X671049Y339651D01*
X671217Y340500D01*
X671049Y341349D01*
X670568Y342068D01*
X669849Y342549D01*
X669000Y342717D01*
X668151Y342549D01*
X667432Y342068D01*
X667367Y341970D01*
X666867Y342122D01*
Y343141D01*
X678217Y354492D01*
X681771D01*
X682098Y354003D01*
X682719Y353588D01*
X683453Y353442D01*
X684186Y353588D01*
X684808Y354003D01*
X685223Y354625D01*
X685369Y355358D01*
X685223Y356092D01*
X684808Y356713D01*
X684186Y357129D01*
X683453Y357275D01*
X682719Y357129D01*
X682098Y356713D01*
X681771Y356225D01*
X677858D01*
X677527Y356159D01*
X677246Y355971D01*
X665387Y344113D01*
X665199Y343832D01*
X665133Y343500D01*
Y182500D01*
X665199Y182168D01*
X665387Y181887D01*
X701787Y145487D01*
X702068Y145299D01*
X702400Y145233D01*
X784501D01*
X784832Y145299D01*
X785113Y145487D01*
X789058Y149432D01*
X789300Y149384D01*
X790033Y149530D01*
X790655Y149945D01*
X791071Y150567D01*
X791216Y151300D01*
X791071Y152033D01*
X790655Y152655D01*
X790513Y152750D01*
X790619Y153281D01*
X790933Y153343D01*
X791555Y153759D01*
X791970Y154381D01*
X792116Y155114D01*
X791970Y155847D01*
X791555Y156469D01*
X790933Y156884D01*
X790200Y157030D01*
X789467Y156884D01*
X789348Y156805D01*
X787997Y158156D01*
X787733Y158333D01*
X787421Y158395D01*
X787420Y158395D01*
X784680D01*
X784680Y158395D01*
X784367Y158333D01*
X784103Y158156D01*
X784103Y158156D01*
X783044Y157097D01*
X782867Y156833D01*
X782805Y156520D01*
X782805Y156520D01*
Y153192D01*
X782805Y153192D01*
X782867Y152880D01*
X783044Y152615D01*
X784077Y151582D01*
Y150545D01*
X783389Y149857D01*
X709697D01*
X704184Y155370D01*
X704184Y155370D01*
X704184Y155370D01*
X674189Y185365D01*
Y332535D01*
X697631Y355977D01*
X779455D01*
X782809Y352623D01*
X782809Y352623D01*
X783074Y352446D01*
X783386Y352384D01*
X829562D01*
X835884Y346062D01*
Y340714D01*
X835498Y340397D01*
X835400Y340416D01*
X834667Y340270D01*
X834045Y339855D01*
X833630Y339233D01*
X833484Y338500D01*
X833630Y337767D01*
X834045Y337145D01*
X834667Y336730D01*
X835400Y336584D01*
X836133Y336730D01*
X836755Y337145D01*
X837245D01*
X837867Y336730D01*
X838600Y336584D01*
X839333Y336730D01*
X839955Y337145D01*
X840370Y337767D01*
X840516Y338500D01*
X840370Y339233D01*
X839955Y339855D01*
X839333Y340270D01*
X838600Y340416D01*
X838516Y340486D01*
Y346814D01*
X838454Y347126D01*
X838277Y347391D01*
X838277Y347391D01*
X830891Y354777D01*
X830626Y354954D01*
X830314Y355016D01*
X830314Y355016D01*
X784138D01*
X781077Y358077D01*
X780784Y358370D01*
X780519Y358546D01*
X780207Y358609D01*
D02*
G37*
G36*
X854900Y362032D02*
X852406D01*
Y357438D01*
X852680Y357474D01*
X853403Y357773D01*
X854023Y358249D01*
X854499Y358869D01*
X854798Y359591D01*
X854900Y360366D01*
Y362032D01*
D02*
G37*
G36*
X820844D02*
X818350D01*
Y357438D01*
X818625Y357474D01*
X819347Y357773D01*
X819968Y358249D01*
X820443Y358869D01*
X820743Y359591D01*
X820844Y360366D01*
Y362032D01*
D02*
G37*
G36*
X851406D02*
X848911D01*
Y360366D01*
X849014Y359591D01*
X849313Y358869D01*
X849788Y358249D01*
X850408Y357773D01*
X851131Y357474D01*
X851406Y357438D01*
Y362032D01*
D02*
G37*
G36*
X817350D02*
X814856D01*
Y360366D01*
X814958Y359591D01*
X815257Y358869D01*
X815733Y358249D01*
X816353Y357773D01*
X817076Y357474D01*
X817350Y357438D01*
Y362032D01*
D02*
G37*
G36*
X767034Y351311D02*
X766953Y351278D01*
X766865Y351289D01*
X765964Y351048D01*
X765895Y350994D01*
X765808Y350983D01*
X765000Y350516D01*
X764946Y350447D01*
X764865Y350413D01*
X764205Y349753D01*
X764172Y349672D01*
X764102Y349619D01*
X763635Y348811D01*
X763624Y348724D01*
X763571Y348654D01*
X763329Y347753D01*
X763341Y347666D01*
X763307Y347585D01*
X763307Y347119D01*
X763307Y346652D01*
X763340Y346571D01*
X763329Y346484D01*
X763570Y345583D01*
X763624Y345513D01*
X763635Y345426D01*
X764102Y344618D01*
X764171Y344565D01*
X764205Y344483D01*
X764865Y343824D01*
X764946Y343790D01*
X764999Y343721D01*
X765807Y343254D01*
X765894Y343243D01*
X765964Y343189D01*
X766865Y342948D01*
X766952Y342959D01*
X767033Y342925D01*
X767966Y342925D01*
X768047Y342959D01*
X768134Y342947D01*
X769035Y343189D01*
X769105Y343242D01*
X769192Y343254D01*
X770000Y343720D01*
X770053Y343790D01*
X770135Y343823D01*
X770794Y344483D01*
X770828Y344564D01*
X770898Y344618D01*
X771364Y345426D01*
X771376Y345513D01*
X771429Y345582D01*
X771671Y346483D01*
X771659Y346570D01*
X771693Y346652D01*
X771693Y347118D01*
X771693Y347585D01*
X771659Y347666D01*
X771671Y347753D01*
X771429Y348654D01*
X771376Y348723D01*
X771364Y348810D01*
X770898Y349619D01*
X770828Y349672D01*
X770795Y349753D01*
X770135Y350413D01*
X770054Y350446D01*
X770001Y350516D01*
X769193Y350983D01*
X769105Y350994D01*
X769036Y351047D01*
X768135Y351289D01*
X768048Y351277D01*
X767967Y351311D01*
X767034Y351311D01*
D02*
G37*
G36*
X712534D02*
X712453Y351278D01*
X712365Y351289D01*
X711464Y351048D01*
X711395Y350994D01*
X711308Y350983D01*
X710500Y350516D01*
X710446Y350447D01*
X710365Y350413D01*
X709705Y349753D01*
X709672Y349672D01*
X709602Y349619D01*
X709135Y348811D01*
X709124Y348724D01*
X709071Y348654D01*
X708829Y347753D01*
X708841Y347666D01*
X708807Y347585D01*
X708807Y347119D01*
X708807Y346652D01*
X708840Y346571D01*
X708829Y346484D01*
X709070Y345583D01*
X709124Y345513D01*
X709135Y345426D01*
X709602Y344618D01*
X709671Y344565D01*
X709705Y344483D01*
X710365Y343824D01*
X710446Y343790D01*
X710499Y343721D01*
X711307Y343254D01*
X711394Y343243D01*
X711464Y343189D01*
X712365Y342948D01*
X712452Y342959D01*
X712533Y342925D01*
X713466Y342925D01*
X713547Y342959D01*
X713634Y342947D01*
X714535Y343189D01*
X714605Y343242D01*
X714692Y343254D01*
X715500Y343720D01*
X715554Y343790D01*
X715635Y343823D01*
X716294Y344483D01*
X716328Y344564D01*
X716398Y344618D01*
X716864Y345426D01*
X716876Y345513D01*
X716929Y345582D01*
X717171Y346483D01*
X717159Y346570D01*
X717193Y346652D01*
X717193Y347118D01*
X717193Y347585D01*
X717159Y347666D01*
X717171Y347753D01*
X716929Y348654D01*
X716876Y348723D01*
X716864Y348810D01*
X716398Y349619D01*
X716328Y349672D01*
X716295Y349753D01*
X715635Y350413D01*
X715554Y350446D01*
X715500Y350516D01*
X714693Y350983D01*
X714606Y350994D01*
X714536Y351047D01*
X713635Y351289D01*
X713548Y351277D01*
X713467Y351311D01*
X712534Y351311D01*
D02*
G37*
G36*
X956361Y351260D02*
X956279Y351227D01*
X956192Y351238D01*
X955291Y350997D01*
X955222Y350943D01*
X955135Y350932D01*
X954327Y350465D01*
X954273Y350396D01*
X954192Y350362D01*
X953532Y349702D01*
X953499Y349621D01*
X953429Y349568D01*
X952962Y348760D01*
X952951Y348673D01*
X952898Y348603D01*
X952656Y347702D01*
X952668Y347615D01*
X952634Y347534D01*
X952634Y347067D01*
X952634Y346601D01*
X952667Y346520D01*
X952656Y346433D01*
X952897Y345532D01*
X952951Y345462D01*
X952962Y345375D01*
X953429Y344567D01*
X953498Y344514D01*
X953532Y344432D01*
X954192Y343773D01*
X954273Y343739D01*
X954326Y343670D01*
X955134Y343203D01*
X955221Y343192D01*
X955291Y343138D01*
X956192Y342897D01*
X956279Y342908D01*
X956360Y342874D01*
X957293Y342874D01*
X957374Y342908D01*
X957461Y342896D01*
X958362Y343138D01*
X958432Y343191D01*
X958519Y343203D01*
X959327Y343669D01*
X959381Y343739D01*
X959462Y343772D01*
X960121Y344432D01*
X960155Y344513D01*
X960225Y344566D01*
X960691Y345374D01*
X960703Y345462D01*
X960756Y345531D01*
X960998Y346432D01*
X960986Y346519D01*
X961020Y346601D01*
X961020Y347067D01*
X961020Y347533D01*
X960986Y347615D01*
X960998Y347702D01*
X960756Y348603D01*
X960703Y348672D01*
X960691Y348759D01*
X960225Y349568D01*
X960155Y349621D01*
X960122Y349702D01*
X959462Y350362D01*
X959381Y350395D01*
X959328Y350465D01*
X958519Y350932D01*
X958432Y350943D01*
X958363Y350996D01*
X957462Y351238D01*
X957375Y351226D01*
X957294Y351260D01*
X956361Y351260D01*
D02*
G37*
G36*
X901034D02*
X900953Y351227D01*
X900865Y351238D01*
X899964Y350997D01*
X899895Y350943D01*
X899808Y350932D01*
X899000Y350465D01*
X898946Y350396D01*
X898865Y350362D01*
X898205Y349702D01*
X898172Y349621D01*
X898102Y349568D01*
X897635Y348760D01*
X897624Y348673D01*
X897571Y348603D01*
X897329Y347702D01*
X897340Y347615D01*
X897307Y347534D01*
X897307Y347067D01*
X897307Y346601D01*
X897340Y346520D01*
X897329Y346433D01*
X897570Y345532D01*
X897624Y345462D01*
X897635Y345375D01*
X898102Y344567D01*
X898171Y344514D01*
X898205Y344432D01*
X898865Y343773D01*
X898946Y343739D01*
X898999Y343670D01*
X899807Y343203D01*
X899894Y343192D01*
X899964Y343138D01*
X900865Y342897D01*
X900952Y342908D01*
X901033Y342874D01*
X901966Y342874D01*
X902047Y342908D01*
X902134Y342896D01*
X903035Y343138D01*
X903105Y343191D01*
X903192Y343203D01*
X904000Y343669D01*
X904053Y343739D01*
X904135Y343772D01*
X904794Y344432D01*
X904828Y344513D01*
X904898Y344566D01*
X905364Y345374D01*
X905376Y345462D01*
X905429Y345531D01*
X905671Y346432D01*
X905659Y346519D01*
X905693Y346601D01*
X905693Y347067D01*
X905693Y347533D01*
X905659Y347615D01*
X905671Y347702D01*
X905429Y348603D01*
X905376Y348672D01*
X905364Y348759D01*
X904898Y349568D01*
X904828Y349621D01*
X904795Y349702D01*
X904135Y350362D01*
X904054Y350395D01*
X904000Y350465D01*
X903193Y350932D01*
X903106Y350943D01*
X903036Y350996D01*
X902135Y351238D01*
X902048Y351226D01*
X901967Y351260D01*
X901034Y351260D01*
D02*
G37*
G36*
X669000Y354528D02*
X668151Y354360D01*
X667432Y353879D01*
X666951Y353160D01*
X666783Y352311D01*
X666951Y351462D01*
X667432Y350743D01*
X668151Y350262D01*
X669000Y350094D01*
X669849Y350262D01*
X670568Y350743D01*
X671049Y351462D01*
X671217Y352311D01*
X671049Y353160D01*
X670568Y353879D01*
X669849Y354360D01*
X669000Y354528D01*
D02*
G37*
G36*
X844800Y323816D02*
X844067Y323671D01*
X843445Y323255D01*
X843029Y322633D01*
X842884Y321900D01*
X843029Y321167D01*
X843445Y320545D01*
X843795Y320311D01*
X843799Y320301D01*
X843760Y319733D01*
X843345Y319455D01*
X842929Y318833D01*
X842784Y318100D01*
X842929Y317367D01*
X843345Y316745D01*
X843967Y316330D01*
X844700Y316184D01*
X845433Y316330D01*
X846055Y316745D01*
X846249Y317036D01*
X846851D01*
X847045Y316745D01*
X847667Y316330D01*
X848400Y316184D01*
X849133Y316330D01*
X849755Y316745D01*
X850171Y317367D01*
X850316Y318100D01*
X850171Y318833D01*
X849755Y319455D01*
X849133Y319870D01*
X848400Y320016D01*
X847667Y319870D01*
X847045Y319455D01*
X846851Y319164D01*
X846249D01*
X846055Y319455D01*
X845705Y319689D01*
X845701Y319699D01*
X845739Y320267D01*
X846155Y320545D01*
X846570Y321167D01*
X846716Y321900D01*
X846570Y322633D01*
X846155Y323255D01*
X845533Y323671D01*
X844800Y323816D01*
D02*
G37*
G36*
X781500Y318716D02*
X780767Y318570D01*
X780145Y318155D01*
X780123Y318122D01*
X740100D01*
X739671Y318036D01*
X739307Y317793D01*
X739307Y317793D01*
X736913Y315399D01*
X736267Y315270D01*
X735645Y314855D01*
X735229Y314233D01*
X735084Y313500D01*
X735229Y312767D01*
X735645Y312145D01*
X735878Y311989D01*
Y289000D01*
X735878Y289000D01*
X735964Y288571D01*
X736207Y288207D01*
X745378Y279035D01*
Y270293D01*
X745267Y270270D01*
X744645Y269855D01*
X744230Y269233D01*
X744084Y268500D01*
X744230Y267767D01*
X744645Y267145D01*
X745267Y266729D01*
X746000Y266584D01*
X746733Y266729D01*
X747355Y267145D01*
X747771Y267767D01*
X747916Y268500D01*
X747771Y269233D01*
X747559Y269550D01*
X747622Y269865D01*
Y279500D01*
X747622Y279500D01*
X747536Y279929D01*
X747293Y280293D01*
X747293Y280293D01*
X738122Y289465D01*
Y311989D01*
X738355Y312145D01*
X738770Y312767D01*
X738916Y313500D01*
X738795Y314109D01*
X740565Y315879D01*
X779855D01*
X780145Y315445D01*
X780767Y315030D01*
X781500Y314884D01*
X782233Y315030D01*
X782855Y315445D01*
X783271Y316067D01*
X783416Y316800D01*
X783271Y317533D01*
X782855Y318155D01*
X782233Y318570D01*
X781500Y318716D01*
D02*
G37*
G36*
X816800Y340316D02*
X816067Y340171D01*
X815445Y339755D01*
X815030Y339133D01*
X814884Y338400D01*
X815030Y337667D01*
X815445Y337045D01*
X816067Y336630D01*
X816800Y336484D01*
X817075Y336538D01*
X822278Y331335D01*
Y317111D01*
X822045Y316955D01*
X821630Y316333D01*
X821484Y315600D01*
X821630Y314867D01*
X822045Y314245D01*
X822667Y313829D01*
X823400Y313684D01*
X824133Y313829D01*
X824755Y314245D01*
X825171Y314867D01*
X825316Y315600D01*
X825171Y316333D01*
X824755Y316955D01*
X824522Y317111D01*
Y331800D01*
X824522Y331800D01*
X824436Y332229D01*
X824193Y332593D01*
X818662Y338125D01*
X818716Y338400D01*
X818571Y339133D01*
X818155Y339755D01*
X817533Y340171D01*
X816800Y340316D01*
D02*
G37*
G36*
X817600Y308416D02*
X816867Y308271D01*
X816245Y307855D01*
X816200Y307788D01*
X815700D01*
X815655Y307855D01*
X815033Y308271D01*
X814300Y308416D01*
X813567Y308271D01*
X812945Y307855D01*
X812529Y307233D01*
X812398Y306570D01*
X812328Y306451D01*
X811950Y306120D01*
X778179D01*
X777955Y306455D01*
X777333Y306871D01*
X776600Y307016D01*
X775867Y306871D01*
X775245Y306455D01*
X774829Y305833D01*
X774684Y305100D01*
X774829Y304367D01*
X775245Y303745D01*
X775867Y303329D01*
X776600Y303184D01*
X777333Y303329D01*
X777955Y303745D01*
X778179Y304080D01*
X811678D01*
X812462Y303296D01*
X812384Y302900D01*
X812529Y302167D01*
X812669Y301958D01*
Y280000D01*
X812793Y279376D01*
X813146Y278847D01*
X827446Y264546D01*
X827976Y264193D01*
X828600Y264069D01*
X896000D01*
X896624Y264193D01*
X897153Y264546D01*
X919376Y286769D01*
X923817D01*
X923971Y286292D01*
X923971Y286269D01*
X900620Y262918D01*
X869500D01*
X869149Y262848D01*
X868851Y262649D01*
X862547Y256345D01*
X862467Y256407D01*
X861518Y256800D01*
X860500Y256934D01*
X859482Y256800D01*
X858533Y256407D01*
X857718Y255782D01*
X857093Y254967D01*
X856700Y254018D01*
X856566Y253000D01*
X856700Y251982D01*
X857093Y251033D01*
X857718Y250219D01*
X858533Y249593D01*
X859482Y249200D01*
X860500Y249066D01*
X861147Y249151D01*
X861380Y248678D01*
X860620Y247918D01*
X856880D01*
X853845Y250953D01*
X853907Y251033D01*
X854300Y251982D01*
X854434Y253000D01*
X854300Y254018D01*
X853907Y254967D01*
X853281Y255782D01*
X852467Y256407D01*
X851518Y256800D01*
X850500Y256934D01*
X849482Y256800D01*
X848533Y256407D01*
X847719Y255782D01*
X847093Y254967D01*
X846700Y254018D01*
X846566Y253000D01*
X846700Y251982D01*
X847093Y251033D01*
X847719Y250219D01*
X848533Y249593D01*
X849482Y249200D01*
X850500Y249066D01*
X851518Y249200D01*
X852467Y249593D01*
X852547Y249655D01*
X855851Y246351D01*
X856149Y246152D01*
X856500Y246082D01*
X861000D01*
X861351Y246152D01*
X861649Y246351D01*
X866149Y250851D01*
X866348Y251149D01*
X866399Y251404D01*
X866672Y251489D01*
X866909Y251479D01*
X867093Y251033D01*
X867719Y250219D01*
X868533Y249593D01*
X869482Y249200D01*
X870500Y249066D01*
X871518Y249200D01*
X872467Y249593D01*
X873281Y250219D01*
X873907Y251033D01*
X874300Y251982D01*
X874434Y253000D01*
X874300Y254018D01*
X873907Y254967D01*
X873281Y255782D01*
X873274Y255891D01*
X875466Y258082D01*
X903000D01*
X903351Y258152D01*
X903649Y258351D01*
X920836Y275538D01*
X924171D01*
X924463Y275101D01*
X925084Y274685D01*
X925818Y274539D01*
X926551Y274685D01*
X927173Y275101D01*
X927588Y275722D01*
X927734Y276456D01*
X927588Y277189D01*
X927173Y277811D01*
X926551Y278226D01*
X925818Y278372D01*
X925084Y278226D01*
X924463Y277811D01*
X924171Y277373D01*
X920863D01*
X920656Y277873D01*
X922865Y280082D01*
X924353D01*
X924645Y279645D01*
X925267Y279229D01*
X926000Y279084D01*
X926733Y279229D01*
X927355Y279645D01*
X927771Y280267D01*
X927916Y281000D01*
X927771Y281733D01*
X927355Y282355D01*
X926768Y282747D01*
X926739Y283010D01*
X926768Y283273D01*
X927355Y283665D01*
X927771Y284287D01*
X927916Y285020D01*
X927771Y285754D01*
X927427Y286269D01*
X927598Y286769D01*
X932224D01*
X936469Y282524D01*
Y187047D01*
X932753Y183331D01*
X913600D01*
X912976Y183207D01*
X912446Y182853D01*
X905724Y176131D01*
X804882D01*
X804257Y176007D01*
X803728Y175654D01*
X800803Y172728D01*
X800558Y172680D01*
X799936Y172264D01*
X799520Y171642D01*
X799374Y170909D01*
X799520Y170176D01*
X799660Y169967D01*
Y163709D01*
X799784Y163085D01*
X800137Y162556D01*
X801969Y160724D01*
Y157242D01*
X801830Y157033D01*
X801770Y156735D01*
X801228Y156570D01*
X800814Y156984D01*
X800916Y157500D01*
X800770Y158233D01*
X800355Y158855D01*
X799733Y159271D01*
X799000Y159416D01*
X798267Y159271D01*
X797645Y158855D01*
X797229Y158233D01*
X797084Y157500D01*
X797229Y156767D01*
X797645Y156145D01*
X798267Y155729D01*
X799000Y155584D01*
X799516Y155686D01*
X802902Y152300D01*
X802711Y151838D01*
X799960D01*
X796314Y155484D01*
X796416Y156000D01*
X796271Y156733D01*
X795855Y157355D01*
X795233Y157771D01*
X794500Y157916D01*
X793767Y157771D01*
X793145Y157355D01*
X792730Y156733D01*
X792584Y156000D01*
X792730Y155267D01*
X793145Y154645D01*
X793767Y154229D01*
X794500Y154084D01*
X795016Y154186D01*
X798931Y150272D01*
X799228Y150073D01*
X799579Y150003D01*
X959420D01*
X959564Y150031D01*
X959567Y150030D01*
X960300Y149884D01*
X961033Y150030D01*
X961655Y150445D01*
X962070Y151067D01*
X962216Y151800D01*
X962070Y152533D01*
X962012Y152621D01*
X962248Y153062D01*
X963179D01*
X963531Y153132D01*
X963828Y153331D01*
X964884Y154386D01*
X965400Y154284D01*
X966133Y154429D01*
X966755Y154845D01*
X967171Y155467D01*
X967316Y156200D01*
X967171Y156933D01*
X966755Y157555D01*
X966133Y157970D01*
X965400Y158116D01*
X964667Y157970D01*
X964045Y157555D01*
X963630Y156933D01*
X963484Y156200D01*
X963586Y155684D01*
X962799Y154897D01*
X957880D01*
X957528Y154827D01*
X957231Y154628D01*
X955640Y153038D01*
X804760D01*
X803870Y153928D01*
X804035Y154470D01*
X804333Y154530D01*
X804955Y154945D01*
X805371Y155567D01*
X805516Y156300D01*
X805371Y157033D01*
X805231Y157242D01*
Y161400D01*
X805107Y162024D01*
X804753Y162554D01*
X802922Y164385D01*
Y169967D01*
X803061Y170176D01*
X803110Y170421D01*
X805558Y172869D01*
X906553D01*
X906820Y172369D01*
X906730Y172233D01*
X906584Y171500D01*
X906730Y170767D01*
X906818Y170634D01*
X906551Y170134D01*
X819436D01*
X819259Y170559D01*
X818800Y170749D01*
X810100D01*
X809878Y170657D01*
X809653Y170571D01*
X809649Y170563D01*
X809641Y170559D01*
X809549Y170337D01*
X809451Y170117D01*
X809260Y162775D01*
X809262Y162771D01*
X809260Y162767D01*
X809351Y162539D01*
X809438Y162311D01*
X809443Y162309D01*
X809444Y162305D01*
X809793Y161947D01*
X809797Y161945D01*
X809799Y161941D01*
X810025Y161847D01*
X810250Y161751D01*
X810254Y161752D01*
X810258Y161751D01*
X817600D01*
X818059Y161941D01*
X819259Y163141D01*
X819449Y163600D01*
Y163880D01*
X916107D01*
X916641Y163951D01*
X921500D01*
X921959Y164141D01*
X922149Y164600D01*
Y180069D01*
X933428D01*
X934053Y180193D01*
X934582Y180546D01*
X939254Y185218D01*
X939607Y185747D01*
X939731Y186372D01*
Y283200D01*
X939607Y283824D01*
X939254Y284353D01*
X934054Y289553D01*
X933524Y289907D01*
X932900Y290031D01*
X918700D01*
X918076Y289907D01*
X917546Y289553D01*
X895324Y267331D01*
X829276D01*
X815931Y280676D01*
Y301183D01*
X816431Y301420D01*
X816867Y301130D01*
X817600Y300984D01*
X818333Y301130D01*
X818955Y301545D01*
X819370Y302167D01*
X819516Y302900D01*
X819370Y303633D01*
X818955Y304255D01*
X818739Y304399D01*
Y305001D01*
X818955Y305145D01*
X819370Y305767D01*
X819516Y306500D01*
X819370Y307233D01*
X818955Y307855D01*
X818333Y308271D01*
X817600Y308416D01*
D02*
G37*
G36*
X905500Y314149D02*
X878500D01*
X878041Y313959D01*
X871731Y307649D01*
X862500D01*
X862041Y307459D01*
X861851Y307000D01*
Y286000D01*
X862041Y285541D01*
X862500Y285351D01*
X871971D01*
Y283985D01*
X867336Y279350D01*
X867000Y279416D01*
X866267Y279271D01*
X865645Y278855D01*
X865230Y278233D01*
X865084Y277500D01*
X865230Y276767D01*
X865645Y276145D01*
X866267Y275729D01*
X867000Y275584D01*
X867733Y275729D01*
X868355Y276145D01*
X868771Y276767D01*
X868916Y277500D01*
X868850Y277836D01*
X873798Y282784D01*
X874030Y283132D01*
X874112Y283541D01*
Y285351D01*
X900500D01*
X900959Y285541D01*
X905959Y290541D01*
X906149Y291000D01*
Y313500D01*
X905959Y313959D01*
X905500Y314149D01*
D02*
G37*
G36*
X982054Y285516D02*
X981320Y285370D01*
X980698Y284955D01*
X980283Y284333D01*
X980137Y283600D01*
X980283Y282867D01*
X980698Y282245D01*
X981320Y281830D01*
X982054Y281684D01*
X982570Y281786D01*
X983982Y280374D01*
Y275701D01*
X983482Y275652D01*
X983449Y275820D01*
X983367Y276233D01*
X982951Y276855D01*
X982330Y277271D01*
X981596Y277416D01*
X980863Y277271D01*
X980241Y276855D01*
X979826Y276233D01*
X979680Y275500D01*
X979820Y274798D01*
X978379Y273357D01*
X978158Y273026D01*
X978080Y272636D01*
Y267300D01*
X978158Y266910D01*
X978379Y266579D01*
X978710Y266358D01*
X978983Y266304D01*
X979698Y265589D01*
X979680Y265500D01*
X979826Y264767D01*
X980241Y264145D01*
X980863Y263730D01*
X981596Y263584D01*
X982330Y263730D01*
X982951Y264145D01*
X983367Y264767D01*
X983513Y265500D01*
X983367Y266233D01*
X982951Y266855D01*
X982330Y267270D01*
X981596Y267416D01*
X980894Y267277D01*
X980149Y268021D01*
X980120Y268041D01*
Y272214D01*
X981507Y273601D01*
X981596Y273584D01*
X982330Y273729D01*
X982951Y274145D01*
X983367Y274767D01*
X983449Y275180D01*
X983482Y275348D01*
X983982Y275299D01*
Y270047D01*
X983545Y269755D01*
X983130Y269133D01*
X982984Y268400D01*
X983130Y267667D01*
X983545Y267045D01*
X984167Y266630D01*
X984900Y266484D01*
X985633Y266630D01*
X986255Y267045D01*
X986670Y267667D01*
X986816Y268400D01*
X986670Y269133D01*
X986255Y269755D01*
X985818Y270047D01*
Y280754D01*
X985748Y281105D01*
X985549Y281402D01*
X983867Y283084D01*
X983970Y283600D01*
X983824Y284333D01*
X983409Y284955D01*
X982787Y285370D01*
X982054Y285516D01*
D02*
G37*
G36*
X976600Y319249D02*
X925000D01*
X924541Y319059D01*
X924351Y318600D01*
Y305859D01*
X924045Y305655D01*
X923629Y305033D01*
X923484Y304300D01*
X923629Y303567D01*
X924045Y302945D01*
X924351Y302741D01*
Y299992D01*
X924145Y299855D01*
X923730Y299233D01*
X923584Y298500D01*
X923730Y297767D01*
X924145Y297145D01*
X924351Y297007D01*
Y296700D01*
X924541Y296241D01*
X926143Y294638D01*
X925952Y294177D01*
X913000D01*
X912473Y294072D01*
X912027Y293773D01*
X912027Y293773D01*
X893030Y274777D01*
X849170D01*
X832149Y291797D01*
Y294900D01*
X831959Y295359D01*
X831500Y295549D01*
X826556D01*
X826554Y295549D01*
X826552Y295549D01*
X826325Y295454D01*
X826097Y295359D01*
X826096Y295357D01*
X826094Y295356D01*
X825743Y295000D01*
X825742Y294998D01*
X825739Y294997D01*
X825648Y294768D01*
X825556Y294539D01*
X825556Y294537D01*
X825556Y294535D01*
X825651Y287691D01*
X825747Y287466D01*
X825841Y287241D01*
X825845Y287239D01*
X825847Y287234D01*
X826074Y287144D01*
X826300Y287051D01*
X831100D01*
X831559Y287241D01*
X831832Y287514D01*
X832446Y287608D01*
X847627Y272427D01*
X847627Y272427D01*
X848073Y272128D01*
X848600Y272024D01*
X893600D01*
X894127Y272128D01*
X894573Y272427D01*
X913570Y291424D01*
X944130D01*
X951091Y284462D01*
X951229Y283767D01*
X951645Y283145D01*
X952082Y282853D01*
Y281747D01*
X951645Y281455D01*
X951229Y280833D01*
X951084Y280100D01*
X951186Y279584D01*
X949051Y277449D01*
X948852Y277151D01*
X948782Y276800D01*
Y252113D01*
X948567Y252070D01*
X947945Y251655D01*
X947530Y251033D01*
X947384Y250300D01*
X947530Y249567D01*
X947945Y248945D01*
X948567Y248530D01*
X948782Y248487D01*
Y236452D01*
X948852Y236100D01*
X949051Y235803D01*
X951903Y232951D01*
X952200Y232752D01*
X952551Y232682D01*
X957100D01*
X957451Y232752D01*
X957749Y232951D01*
X962180Y237382D01*
X964296D01*
X964345Y237309D01*
X964967Y236894D01*
X965700Y236748D01*
X966433Y236894D01*
X967055Y237309D01*
X967470Y237931D01*
X967616Y238664D01*
X967470Y239397D01*
X967055Y240019D01*
X966433Y240435D01*
X965700Y240580D01*
X964967Y240435D01*
X964345Y240019D01*
X963929Y239397D01*
X963894Y239218D01*
X961800D01*
X961449Y239148D01*
X961151Y238949D01*
X958580Y236377D01*
X958150Y236576D01*
X958066Y237068D01*
X964580Y243582D01*
X979483D01*
X979635Y243082D01*
X979145Y242755D01*
X978730Y242133D01*
X978584Y241400D01*
X978716Y240732D01*
X972302Y234318D01*
X965200D01*
X964849Y234248D01*
X964551Y234049D01*
X963551Y233049D01*
X963352Y232751D01*
X963282Y232400D01*
Y231147D01*
X962845Y230855D01*
X962430Y230233D01*
X962284Y229500D01*
X962430Y228767D01*
X962845Y228145D01*
X963467Y227730D01*
X964200Y227584D01*
X964933Y227730D01*
X965555Y228145D01*
X965971Y228767D01*
X966116Y229500D01*
X965971Y230233D01*
X965555Y230855D01*
X965118Y231147D01*
Y232020D01*
X965580Y232482D01*
X972682D01*
X973034Y232552D01*
X973331Y232751D01*
X980136Y239556D01*
X980500Y239484D01*
X981233Y239630D01*
X981855Y240045D01*
X982271Y240667D01*
X982416Y241400D01*
X982271Y242133D01*
X982220Y242209D01*
X982520Y242659D01*
X982900Y242584D01*
X983633Y242729D01*
X984255Y243145D01*
X984671Y243767D01*
X984816Y244500D01*
X984671Y245233D01*
X984255Y245855D01*
X983633Y246270D01*
X982900Y246416D01*
X982167Y246270D01*
X981545Y245855D01*
X981253Y245418D01*
X964200D01*
X963849Y245348D01*
X963551Y245149D01*
X958508Y240106D01*
X958047Y240352D01*
X958116Y240700D01*
X957981Y241383D01*
X968769Y252172D01*
X968968Y252469D01*
X969038Y252820D01*
Y278040D01*
X976884Y285886D01*
X977400Y285784D01*
X978133Y285929D01*
X978755Y286345D01*
X979171Y286967D01*
X979316Y287700D01*
X979171Y288433D01*
X978755Y289055D01*
X978133Y289471D01*
X977400Y289616D01*
X977249Y289740D01*
Y318600D01*
X977059Y319059D01*
X976600Y319249D01*
D02*
G37*
G36*
X925000Y273716D02*
X924267Y273570D01*
X923645Y273155D01*
X923353Y272718D01*
X921400D01*
X921049Y272648D01*
X920751Y272449D01*
X913831Y265528D01*
X913632Y265231D01*
X913562Y264879D01*
Y262777D01*
X910202Y259418D01*
X906000D01*
X905649Y259348D01*
X905351Y259149D01*
X902547Y256345D01*
X902467Y256407D01*
X901518Y256800D01*
X900500Y256934D01*
X899482Y256800D01*
X898533Y256407D01*
X897719Y255782D01*
X897093Y254967D01*
X896700Y254018D01*
X896566Y253000D01*
X896700Y251982D01*
X897093Y251033D01*
X897719Y250219D01*
X898533Y249593D01*
X899482Y249200D01*
X900500Y249066D01*
X901518Y249200D01*
X902467Y249593D01*
X903281Y250219D01*
X903907Y251033D01*
X904300Y251982D01*
X904434Y253000D01*
X904300Y254018D01*
X903907Y254967D01*
X903845Y255047D01*
X906380Y257582D01*
X910582D01*
X910933Y257652D01*
X911231Y257851D01*
X915128Y261748D01*
X915327Y262046D01*
X915397Y262397D01*
Y264499D01*
X921780Y270882D01*
X923353D01*
X923645Y270445D01*
X924267Y270029D01*
X925000Y269884D01*
X925733Y270029D01*
X926355Y270445D01*
X926770Y271067D01*
X926916Y271800D01*
X926770Y272533D01*
X926355Y273155D01*
X925733Y273570D01*
X925000Y273716D01*
D02*
G37*
G36*
X931000Y257271D02*
Y253500D01*
X934771D01*
X934689Y254122D01*
X934256Y255169D01*
X933567Y256067D01*
X932668Y256756D01*
X931623Y257189D01*
X931000Y257271D01*
D02*
G37*
G36*
X930000D02*
X929377Y257189D01*
X928331Y256756D01*
X927433Y256067D01*
X926744Y255169D01*
X926311Y254122D01*
X926229Y253500D01*
X930000D01*
Y257271D01*
D02*
G37*
G36*
X920500Y256934D02*
X919482Y256800D01*
X918533Y256407D01*
X917719Y255782D01*
X917093Y254967D01*
X916700Y254018D01*
X916566Y253000D01*
X916700Y251982D01*
X917093Y251033D01*
X917719Y250219D01*
X918533Y249593D01*
X919482Y249200D01*
X920500Y249066D01*
X921518Y249200D01*
X922467Y249593D01*
X923281Y250219D01*
X923907Y251033D01*
X924300Y251982D01*
X924434Y253000D01*
X924300Y254018D01*
X923907Y254967D01*
X923281Y255782D01*
X922467Y256407D01*
X921518Y256800D01*
X920500Y256934D01*
D02*
G37*
G36*
X910500D02*
X909482Y256800D01*
X908533Y256407D01*
X907718Y255782D01*
X907093Y254967D01*
X906700Y254018D01*
X906566Y253000D01*
X906700Y251982D01*
X907093Y251033D01*
X907718Y250219D01*
X908533Y249593D01*
X909482Y249200D01*
X910500Y249066D01*
X911518Y249200D01*
X912467Y249593D01*
X913282Y250219D01*
X913907Y251033D01*
X914300Y251982D01*
X914434Y253000D01*
X914300Y254018D01*
X913907Y254967D01*
X913282Y255782D01*
X912467Y256407D01*
X911518Y256800D01*
X910500Y256934D01*
D02*
G37*
G36*
X890500D02*
X889482Y256800D01*
X888533Y256407D01*
X887718Y255782D01*
X887093Y254967D01*
X886700Y254018D01*
X886566Y253000D01*
X886700Y251982D01*
X887093Y251033D01*
X887718Y250219D01*
X888533Y249593D01*
X889482Y249200D01*
X890500Y249066D01*
X891518Y249200D01*
X892467Y249593D01*
X893281Y250219D01*
X893907Y251033D01*
X894300Y251982D01*
X894434Y253000D01*
X894300Y254018D01*
X893907Y254967D01*
X893281Y255782D01*
X892467Y256407D01*
X891518Y256800D01*
X890500Y256934D01*
D02*
G37*
G36*
X880500D02*
X879482Y256800D01*
X878533Y256407D01*
X877719Y255782D01*
X877093Y254967D01*
X876700Y254018D01*
X876566Y253000D01*
X876700Y251982D01*
X877093Y251033D01*
X877719Y250219D01*
X878533Y249593D01*
X879482Y249200D01*
X880500Y249066D01*
X881518Y249200D01*
X882467Y249593D01*
X883282Y250219D01*
X883907Y251033D01*
X884300Y251982D01*
X884434Y253000D01*
X884300Y254018D01*
X883907Y254967D01*
X883282Y255782D01*
X882467Y256407D01*
X881518Y256800D01*
X880500Y256934D01*
D02*
G37*
G36*
X840500D02*
X839482Y256800D01*
X838533Y256407D01*
X837718Y255782D01*
X837093Y254967D01*
X836700Y254018D01*
X836566Y253000D01*
X836700Y251982D01*
X837093Y251033D01*
X837718Y250219D01*
X838533Y249593D01*
X839482Y249200D01*
X840500Y249066D01*
X841518Y249200D01*
X842467Y249593D01*
X843281Y250219D01*
X843907Y251033D01*
X844300Y251982D01*
X844434Y253000D01*
X844300Y254018D01*
X843907Y254967D01*
X843281Y255782D01*
X842467Y256407D01*
X841518Y256800D01*
X840500Y256934D01*
D02*
G37*
G36*
X830500D02*
X829482Y256800D01*
X828533Y256407D01*
X827719Y255782D01*
X827093Y254967D01*
X826700Y254018D01*
X826566Y253000D01*
X826700Y251982D01*
X827093Y251033D01*
X827719Y250219D01*
X828533Y249593D01*
X829482Y249200D01*
X830500Y249066D01*
X831518Y249200D01*
X832467Y249593D01*
X833282Y250219D01*
X833907Y251033D01*
X834300Y251982D01*
X834434Y253000D01*
X834300Y254018D01*
X833907Y254967D01*
X833282Y255782D01*
X832467Y256407D01*
X831518Y256800D01*
X830500Y256934D01*
D02*
G37*
G36*
X813100Y261318D02*
X778200D01*
X777849Y261248D01*
X777551Y261049D01*
X774051Y257549D01*
X773852Y257251D01*
X773782Y256900D01*
Y255907D01*
X773309Y255746D01*
X773281Y255782D01*
X772467Y256407D01*
X771518Y256800D01*
X770500Y256934D01*
X769482Y256800D01*
X768533Y256407D01*
X767719Y255782D01*
X767093Y254967D01*
X766700Y254018D01*
X766566Y253000D01*
X766700Y251982D01*
X767093Y251033D01*
X767719Y250219D01*
X768533Y249593D01*
X769482Y249200D01*
X770500Y249066D01*
X771518Y249200D01*
X772467Y249593D01*
X773281Y250219D01*
X773309Y250254D01*
X773782Y250094D01*
Y195906D01*
X773309Y195746D01*
X773281Y195782D01*
X772467Y196407D01*
X771518Y196800D01*
X770500Y196934D01*
X769482Y196800D01*
X768533Y196407D01*
X767719Y195782D01*
X767418Y195389D01*
X766918Y195559D01*
Y226100D01*
X766848Y226451D01*
X766649Y226749D01*
X750818Y242580D01*
Y249108D01*
X751518Y249200D01*
X752467Y249593D01*
X753281Y250219D01*
X753907Y251033D01*
X754300Y251982D01*
X754434Y253000D01*
X754300Y254018D01*
X753907Y254967D01*
X753281Y255782D01*
X752467Y256407D01*
X751518Y256800D01*
X750500Y256934D01*
X749482Y256800D01*
X748533Y256407D01*
X747718Y255782D01*
X747093Y254967D01*
X746700Y254018D01*
X746566Y253000D01*
X746700Y251982D01*
X747093Y251033D01*
X747718Y250219D01*
X748533Y249593D01*
X748982Y249407D01*
Y242322D01*
X748686Y242143D01*
X748492Y242105D01*
X747449Y243149D01*
X747151Y243348D01*
X746800Y243418D01*
X737080D01*
X731745Y248753D01*
X731862Y249343D01*
X732467Y249593D01*
X733282Y250219D01*
X733907Y251033D01*
X734300Y251982D01*
X734434Y253000D01*
X734300Y254018D01*
X733907Y254967D01*
X733282Y255782D01*
X732467Y256407D01*
X731518Y256800D01*
X730500Y256934D01*
X729482Y256800D01*
X728533Y256407D01*
X727718Y255782D01*
X727093Y254967D01*
X726700Y254018D01*
X726566Y253000D01*
X726700Y251982D01*
X727093Y251033D01*
X727718Y250219D01*
X728533Y249593D01*
X729482Y249200D01*
X729582Y249187D01*
Y248700D01*
X729652Y248349D01*
X729851Y248051D01*
X735523Y242380D01*
X735331Y241918D01*
X727280D01*
X721418Y247780D01*
Y249187D01*
X721518Y249200D01*
X722467Y249593D01*
X723281Y250219D01*
X723907Y251033D01*
X724300Y251982D01*
X724434Y253000D01*
X724300Y254018D01*
X723907Y254967D01*
X723281Y255782D01*
X722467Y256407D01*
X721518Y256800D01*
X720500Y256934D01*
X719482Y256800D01*
X718533Y256407D01*
X717719Y255782D01*
X717093Y254967D01*
X716700Y254018D01*
X716566Y253000D01*
X716700Y251982D01*
X717093Y251033D01*
X717719Y250219D01*
X718533Y249593D01*
X719482Y249200D01*
X719582Y249187D01*
Y247400D01*
X719652Y247049D01*
X719851Y246751D01*
X726251Y240351D01*
X726549Y240152D01*
X726900Y240082D01*
X744920D01*
X754182Y230820D01*
Y195429D01*
X753682Y195259D01*
X753281Y195782D01*
X752467Y196407D01*
X751518Y196800D01*
X750500Y196934D01*
X749482Y196800D01*
X748533Y196407D01*
X747718Y195782D01*
X747093Y194967D01*
X746700Y194018D01*
X746566Y193000D01*
X746700Y191982D01*
X747093Y191033D01*
X747718Y190218D01*
X748533Y189593D01*
X749482Y189200D01*
X750500Y189066D01*
X751518Y189200D01*
X752467Y189593D01*
X753281Y190218D01*
X753682Y190741D01*
X754182Y190571D01*
Y162400D01*
X754252Y162049D01*
X754451Y161751D01*
X755186Y161016D01*
X755084Y160500D01*
X755230Y159767D01*
X755645Y159145D01*
X756267Y158730D01*
X756621Y158659D01*
X757023Y158449D01*
X757082Y158096D01*
Y157647D01*
X756645Y157355D01*
X756229Y156733D01*
X756084Y156000D01*
X756229Y155267D01*
X756645Y154645D01*
X757267Y154229D01*
X758000Y154084D01*
X758733Y154229D01*
X759355Y154645D01*
X759770Y155267D01*
X759916Y156000D01*
X759844Y156366D01*
X759821Y156477D01*
X760292Y156673D01*
X760368Y156560D01*
X760645Y156145D01*
X761267Y155729D01*
X762000Y155584D01*
X762733Y155729D01*
X763355Y156145D01*
X763770Y156767D01*
X763916Y157500D01*
X763770Y158233D01*
X763355Y158855D01*
X762918Y159147D01*
Y179120D01*
X766649Y182851D01*
X766848Y183149D01*
X766918Y183500D01*
Y190441D01*
X767418Y190611D01*
X767719Y190218D01*
X768533Y189593D01*
X769482Y189200D01*
X770500Y189066D01*
X771518Y189200D01*
X772467Y189593D01*
X773281Y190218D01*
X773309Y190254D01*
X773782Y190094D01*
Y177580D01*
X769016Y172814D01*
X768500Y172916D01*
X767767Y172771D01*
X767145Y172355D01*
X766729Y171733D01*
X766584Y171000D01*
X766729Y170267D01*
X767145Y169645D01*
X767767Y169229D01*
X768500Y169084D01*
X769082Y169200D01*
X769582Y168907D01*
Y159147D01*
X769145Y158855D01*
X768729Y158233D01*
X768584Y157500D01*
X768729Y156767D01*
X769145Y156145D01*
X769767Y155729D01*
X770500Y155584D01*
X770860Y155655D01*
X771418Y155298D01*
X771419Y155295D01*
X771439Y155158D01*
X770675Y154393D01*
X770159Y154496D01*
X769425Y154350D01*
X768804Y153935D01*
X768388Y153313D01*
X768242Y152579D01*
X768388Y151846D01*
X768804Y151225D01*
X769425Y150809D01*
X770159Y150663D01*
X770892Y150809D01*
X771514Y151225D01*
X771929Y151846D01*
X772075Y152579D01*
X772041Y152750D01*
X772195Y152890D01*
X772689Y152776D01*
X772758Y152725D01*
X773145Y152145D01*
X773767Y151730D01*
X774500Y151584D01*
X775233Y151730D01*
X775855Y152145D01*
X776270Y152767D01*
X776416Y153500D01*
X776270Y154233D01*
X775855Y154855D01*
X775418Y155147D01*
Y156354D01*
X775918Y156506D01*
X776186Y156104D01*
X776808Y155688D01*
X777541Y155543D01*
X778274Y155688D01*
X778896Y156104D01*
X779312Y156726D01*
X779458Y157459D01*
X779312Y158192D01*
X778896Y158814D01*
X778459Y159106D01*
Y159377D01*
X778389Y159728D01*
X778190Y160025D01*
X777738Y160477D01*
Y161523D01*
X795649Y179434D01*
X795848Y179731D01*
X795918Y180082D01*
Y236720D01*
X808716Y249518D01*
X809482Y249200D01*
X810500Y249066D01*
X811518Y249200D01*
X812467Y249593D01*
X813282Y250219D01*
X813907Y251033D01*
X814300Y251982D01*
X814434Y253000D01*
X814300Y254018D01*
X813907Y254967D01*
X813282Y255782D01*
X812467Y256407D01*
X811518Y256800D01*
X810500Y256934D01*
X809482Y256800D01*
X808533Y256407D01*
X807718Y255782D01*
X807093Y254967D01*
X806700Y254018D01*
X806566Y253000D01*
X806700Y251982D01*
X807093Y251033D01*
X807329Y250726D01*
X794351Y237749D01*
X794152Y237451D01*
X794082Y237100D01*
Y195559D01*
X793582Y195389D01*
X793282Y195782D01*
X792467Y196407D01*
X791518Y196800D01*
X790500Y196934D01*
X789482Y196800D01*
X788533Y196407D01*
X787718Y195782D01*
X787591Y195615D01*
X787118Y195776D01*
Y244220D01*
X788780Y245882D01*
X794300D01*
X794651Y245952D01*
X794949Y246151D01*
X798453Y249655D01*
X798533Y249593D01*
X799482Y249200D01*
X800500Y249066D01*
X801518Y249200D01*
X802467Y249593D01*
X803281Y250219D01*
X803907Y251033D01*
X804300Y251982D01*
X804434Y253000D01*
X804300Y254018D01*
X803907Y254967D01*
X803281Y255782D01*
X802467Y256407D01*
X801518Y256800D01*
X800500Y256934D01*
X799482Y256800D01*
X798533Y256407D01*
X797718Y255782D01*
X797093Y254967D01*
X796700Y254018D01*
X796566Y253000D01*
X796700Y251982D01*
X797093Y251033D01*
X797155Y250953D01*
X793920Y247718D01*
X788400D01*
X788049Y247648D01*
X787751Y247449D01*
X786380Y246077D01*
X785918Y246269D01*
Y247120D01*
X788453Y249655D01*
X788533Y249593D01*
X789482Y249200D01*
X790500Y249066D01*
X791518Y249200D01*
X792467Y249593D01*
X793282Y250219D01*
X793907Y251033D01*
X794300Y251982D01*
X794434Y253000D01*
X794300Y254018D01*
X793907Y254967D01*
X793282Y255782D01*
X792467Y256407D01*
X791518Y256800D01*
X790500Y256934D01*
X789482Y256800D01*
X788533Y256407D01*
X787718Y255782D01*
X787093Y254967D01*
X786700Y254018D01*
X786566Y253000D01*
X786700Y251982D01*
X787093Y251033D01*
X787155Y250953D01*
X784351Y248149D01*
X784152Y247851D01*
X784082Y247500D01*
Y195559D01*
X783582Y195389D01*
X783282Y195782D01*
X782467Y196407D01*
X781518Y196800D01*
X780500Y196934D01*
X779482Y196800D01*
X778533Y196407D01*
X777718Y195782D01*
X777318Y195259D01*
X776818Y195429D01*
Y248020D01*
X778453Y249655D01*
X778533Y249593D01*
X779482Y249200D01*
X780500Y249066D01*
X781518Y249200D01*
X782467Y249593D01*
X783282Y250219D01*
X783907Y251033D01*
X784300Y251982D01*
X784434Y253000D01*
X784300Y254018D01*
X783907Y254967D01*
X783282Y255782D01*
X782467Y256407D01*
X781518Y256800D01*
X780500Y256934D01*
X779482Y256800D01*
X778533Y256407D01*
X777718Y255782D01*
X777093Y254967D01*
X776700Y254018D01*
X776566Y253000D01*
X776700Y251982D01*
X777093Y251033D01*
X777155Y250953D01*
X776080Y249877D01*
X775618Y250069D01*
Y256520D01*
X778580Y259482D01*
X812720D01*
X817155Y255047D01*
X817093Y254967D01*
X816700Y254018D01*
X816566Y253000D01*
X816700Y251982D01*
X817093Y251033D01*
X817719Y250219D01*
X818533Y249593D01*
X819482Y249200D01*
X820500Y249066D01*
X821518Y249200D01*
X822467Y249593D01*
X823281Y250219D01*
X823907Y251033D01*
X824300Y251982D01*
X824434Y253000D01*
X824300Y254018D01*
X823907Y254967D01*
X823281Y255782D01*
X822467Y256407D01*
X821518Y256800D01*
X820500Y256934D01*
X819482Y256800D01*
X818533Y256407D01*
X818453Y256345D01*
X813749Y261049D01*
X813451Y261248D01*
X813100Y261318D01*
D02*
G37*
G36*
X760500Y256934D02*
X759482Y256800D01*
X758533Y256407D01*
X757719Y255782D01*
X757093Y254967D01*
X756700Y254018D01*
X756566Y253000D01*
X756700Y251982D01*
X757093Y251033D01*
X757719Y250219D01*
X758533Y249593D01*
X759482Y249200D01*
X760500Y249066D01*
X761518Y249200D01*
X762467Y249593D01*
X763281Y250219D01*
X763907Y251033D01*
X764300Y251982D01*
X764434Y253000D01*
X764300Y254018D01*
X763907Y254967D01*
X763281Y255782D01*
X762467Y256407D01*
X761518Y256800D01*
X760500Y256934D01*
D02*
G37*
G36*
X740500D02*
X739482Y256800D01*
X738533Y256407D01*
X737718Y255782D01*
X737093Y254967D01*
X736700Y254018D01*
X736566Y253000D01*
X736700Y251982D01*
X737093Y251033D01*
X737718Y250219D01*
X738533Y249593D01*
X739482Y249200D01*
X740500Y249066D01*
X741518Y249200D01*
X742467Y249593D01*
X743282Y250219D01*
X743907Y251033D01*
X744300Y251982D01*
X744434Y253000D01*
X744300Y254018D01*
X743907Y254967D01*
X743282Y255782D01*
X742467Y256407D01*
X741518Y256800D01*
X740500Y256934D01*
D02*
G37*
G36*
X710500D02*
X709482Y256800D01*
X708533Y256407D01*
X707719Y255782D01*
X707093Y254967D01*
X706700Y254018D01*
X706566Y253000D01*
X706700Y251982D01*
X707093Y251033D01*
X707719Y250219D01*
X708533Y249593D01*
X709482Y249200D01*
X710500Y249066D01*
X711518Y249200D01*
X712467Y249593D01*
X713281Y250219D01*
X713907Y251033D01*
X714300Y251982D01*
X714434Y253000D01*
X714300Y254018D01*
X713907Y254967D01*
X713281Y255782D01*
X712467Y256407D01*
X711518Y256800D01*
X710500Y256934D01*
D02*
G37*
G36*
X700500D02*
X699482Y256800D01*
X698533Y256407D01*
X697718Y255782D01*
X697093Y254967D01*
X696700Y254018D01*
X696566Y253000D01*
X696700Y251982D01*
X697093Y251033D01*
X697718Y250219D01*
X698533Y249593D01*
X699482Y249200D01*
X700500Y249066D01*
X701518Y249200D01*
X702467Y249593D01*
X703281Y250219D01*
X703907Y251033D01*
X704300Y251982D01*
X704434Y253000D01*
X704300Y254018D01*
X703907Y254967D01*
X703281Y255782D01*
X702467Y256407D01*
X701518Y256800D01*
X700500Y256934D01*
D02*
G37*
G36*
X934771Y252500D02*
X931000D01*
Y248729D01*
X931623Y248811D01*
X932668Y249244D01*
X933567Y249933D01*
X934256Y250831D01*
X934689Y251877D01*
X934771Y252500D01*
D02*
G37*
G36*
X930000D02*
X926229D01*
X926311Y251877D01*
X926744Y250831D01*
X927433Y249933D01*
X928331Y249244D01*
X929377Y248811D01*
X930000Y248729D01*
Y252500D01*
D02*
G37*
G36*
X984500Y251916D02*
X983767Y251770D01*
X983145Y251355D01*
X982730Y250733D01*
X982584Y250000D01*
X982730Y249267D01*
X983145Y248645D01*
X983767Y248230D01*
X984500Y248084D01*
X985233Y248230D01*
X985855Y248645D01*
X986271Y249267D01*
X986416Y250000D01*
X986271Y250733D01*
X985855Y251355D01*
X985233Y251770D01*
X984500Y251916D01*
D02*
G37*
G36*
X704400Y196900D02*
X696600D01*
Y189100D01*
X704400D01*
Y196900D01*
D02*
G37*
G36*
X930500Y196934D02*
X929482Y196800D01*
X928533Y196407D01*
X927719Y195782D01*
X927093Y194967D01*
X926700Y194018D01*
X926566Y193000D01*
X926700Y191982D01*
X927093Y191033D01*
X927719Y190218D01*
X928533Y189593D01*
X929482Y189200D01*
X930500Y189066D01*
X931518Y189200D01*
X932467Y189593D01*
X933282Y190218D01*
X933907Y191033D01*
X934300Y191982D01*
X934434Y193000D01*
X934300Y194018D01*
X933907Y194967D01*
X933282Y195782D01*
X932467Y196407D01*
X931518Y196800D01*
X930500Y196934D01*
D02*
G37*
G36*
X920500D02*
X919482Y196800D01*
X918533Y196407D01*
X917719Y195782D01*
X917093Y194967D01*
X916700Y194018D01*
X916566Y193000D01*
X916700Y191982D01*
X917093Y191033D01*
X917719Y190218D01*
X918533Y189593D01*
X919482Y189200D01*
X920500Y189066D01*
X921518Y189200D01*
X922467Y189593D01*
X923281Y190218D01*
X923907Y191033D01*
X924300Y191982D01*
X924434Y193000D01*
X924300Y194018D01*
X923907Y194967D01*
X923281Y195782D01*
X922467Y196407D01*
X921518Y196800D01*
X920500Y196934D01*
D02*
G37*
G36*
X910500D02*
X909482Y196800D01*
X908533Y196407D01*
X907718Y195782D01*
X907093Y194967D01*
X906700Y194018D01*
X906566Y193000D01*
X906700Y191982D01*
X907093Y191033D01*
X907718Y190218D01*
X908533Y189593D01*
X909482Y189200D01*
X910500Y189066D01*
X911518Y189200D01*
X912467Y189593D01*
X913282Y190218D01*
X913907Y191033D01*
X914300Y191982D01*
X914434Y193000D01*
X914300Y194018D01*
X913907Y194967D01*
X913282Y195782D01*
X912467Y196407D01*
X911518Y196800D01*
X910500Y196934D01*
D02*
G37*
G36*
X900500D02*
X899482Y196800D01*
X898533Y196407D01*
X897719Y195782D01*
X897093Y194967D01*
X896700Y194018D01*
X896566Y193000D01*
X896700Y191982D01*
X897093Y191033D01*
X897719Y190218D01*
X898533Y189593D01*
X899482Y189200D01*
X900500Y189066D01*
X901518Y189200D01*
X902467Y189593D01*
X903281Y190218D01*
X903907Y191033D01*
X904300Y191982D01*
X904434Y193000D01*
X904300Y194018D01*
X903907Y194967D01*
X903281Y195782D01*
X902467Y196407D01*
X901518Y196800D01*
X900500Y196934D01*
D02*
G37*
G36*
X890500D02*
X889482Y196800D01*
X888533Y196407D01*
X887718Y195782D01*
X887093Y194967D01*
X886700Y194018D01*
X886566Y193000D01*
X886700Y191982D01*
X887093Y191033D01*
X887718Y190218D01*
X888533Y189593D01*
X889482Y189200D01*
X890500Y189066D01*
X891518Y189200D01*
X892467Y189593D01*
X893281Y190218D01*
X893907Y191033D01*
X894300Y191982D01*
X894434Y193000D01*
X894300Y194018D01*
X893907Y194967D01*
X893281Y195782D01*
X892467Y196407D01*
X891518Y196800D01*
X890500Y196934D01*
D02*
G37*
G36*
X880500D02*
X879482Y196800D01*
X878533Y196407D01*
X877719Y195782D01*
X877093Y194967D01*
X876700Y194018D01*
X876566Y193000D01*
X876700Y191982D01*
X877093Y191033D01*
X877719Y190218D01*
X878533Y189593D01*
X879482Y189200D01*
X880500Y189066D01*
X881518Y189200D01*
X882467Y189593D01*
X883282Y190218D01*
X883907Y191033D01*
X884300Y191982D01*
X884434Y193000D01*
X884300Y194018D01*
X883907Y194967D01*
X883282Y195782D01*
X882467Y196407D01*
X881518Y196800D01*
X880500Y196934D01*
D02*
G37*
G36*
X870500D02*
X869482Y196800D01*
X868533Y196407D01*
X867719Y195782D01*
X867093Y194967D01*
X866700Y194018D01*
X866566Y193000D01*
X866700Y191982D01*
X867093Y191033D01*
X867719Y190218D01*
X868533Y189593D01*
X869482Y189200D01*
X870500Y189066D01*
X871518Y189200D01*
X872467Y189593D01*
X873281Y190218D01*
X873907Y191033D01*
X874300Y191982D01*
X874434Y193000D01*
X874300Y194018D01*
X873907Y194967D01*
X873281Y195782D01*
X872467Y196407D01*
X871518Y196800D01*
X870500Y196934D01*
D02*
G37*
G36*
X860500D02*
X859482Y196800D01*
X858533Y196407D01*
X857718Y195782D01*
X857093Y194967D01*
X856700Y194018D01*
X856566Y193000D01*
X856700Y191982D01*
X857093Y191033D01*
X857718Y190218D01*
X858533Y189593D01*
X859482Y189200D01*
X860500Y189066D01*
X861518Y189200D01*
X862467Y189593D01*
X863282Y190218D01*
X863907Y191033D01*
X864300Y191982D01*
X864434Y193000D01*
X864300Y194018D01*
X863907Y194967D01*
X863282Y195782D01*
X862467Y196407D01*
X861518Y196800D01*
X860500Y196934D01*
D02*
G37*
G36*
X850500D02*
X849482Y196800D01*
X848533Y196407D01*
X847719Y195782D01*
X847093Y194967D01*
X846700Y194018D01*
X846566Y193000D01*
X846700Y191982D01*
X847093Y191033D01*
X847719Y190218D01*
X848533Y189593D01*
X849482Y189200D01*
X850500Y189066D01*
X851518Y189200D01*
X852467Y189593D01*
X853281Y190218D01*
X853907Y191033D01*
X854300Y191982D01*
X854434Y193000D01*
X854300Y194018D01*
X853907Y194967D01*
X853281Y195782D01*
X852467Y196407D01*
X851518Y196800D01*
X850500Y196934D01*
D02*
G37*
G36*
X840500D02*
X839482Y196800D01*
X838533Y196407D01*
X837718Y195782D01*
X837093Y194967D01*
X836700Y194018D01*
X836566Y193000D01*
X836700Y191982D01*
X837093Y191033D01*
X837718Y190218D01*
X838533Y189593D01*
X839482Y189200D01*
X840500Y189066D01*
X841518Y189200D01*
X842467Y189593D01*
X843281Y190218D01*
X843907Y191033D01*
X844300Y191982D01*
X844434Y193000D01*
X844300Y194018D01*
X843907Y194967D01*
X843281Y195782D01*
X842467Y196407D01*
X841518Y196800D01*
X840500Y196934D01*
D02*
G37*
G36*
X830500D02*
X829482Y196800D01*
X828533Y196407D01*
X827719Y195782D01*
X827093Y194967D01*
X826700Y194018D01*
X826566Y193000D01*
X826700Y191982D01*
X827093Y191033D01*
X827719Y190218D01*
X828533Y189593D01*
X829482Y189200D01*
X830500Y189066D01*
X831518Y189200D01*
X832467Y189593D01*
X833282Y190218D01*
X833907Y191033D01*
X834300Y191982D01*
X834434Y193000D01*
X834300Y194018D01*
X833907Y194967D01*
X833282Y195782D01*
X832467Y196407D01*
X831518Y196800D01*
X830500Y196934D01*
D02*
G37*
G36*
X820500D02*
X819482Y196800D01*
X818533Y196407D01*
X817719Y195782D01*
X817093Y194967D01*
X816700Y194018D01*
X816566Y193000D01*
X816700Y191982D01*
X817093Y191033D01*
X817719Y190218D01*
X818533Y189593D01*
X819482Y189200D01*
X820500Y189066D01*
X821518Y189200D01*
X822467Y189593D01*
X823281Y190218D01*
X823907Y191033D01*
X824300Y191982D01*
X824434Y193000D01*
X824300Y194018D01*
X823907Y194967D01*
X823281Y195782D01*
X822467Y196407D01*
X821518Y196800D01*
X820500Y196934D01*
D02*
G37*
G36*
X810500D02*
X809482Y196800D01*
X808533Y196407D01*
X807718Y195782D01*
X807093Y194967D01*
X806700Y194018D01*
X806566Y193000D01*
X806700Y191982D01*
X807093Y191033D01*
X807718Y190218D01*
X808533Y189593D01*
X809482Y189200D01*
X810500Y189066D01*
X811518Y189200D01*
X812467Y189593D01*
X813282Y190218D01*
X813907Y191033D01*
X814300Y191982D01*
X814434Y193000D01*
X814300Y194018D01*
X813907Y194967D01*
X813282Y195782D01*
X812467Y196407D01*
X811518Y196800D01*
X810500Y196934D01*
D02*
G37*
G36*
X800500D02*
X799482Y196800D01*
X798533Y196407D01*
X797718Y195782D01*
X797093Y194967D01*
X796700Y194018D01*
X796566Y193000D01*
X796700Y191982D01*
X797093Y191033D01*
X797718Y190218D01*
X798533Y189593D01*
X799482Y189200D01*
X800500Y189066D01*
X801518Y189200D01*
X802467Y189593D01*
X803281Y190218D01*
X803907Y191033D01*
X804300Y191982D01*
X804434Y193000D01*
X804300Y194018D01*
X803907Y194967D01*
X803281Y195782D01*
X802467Y196407D01*
X801518Y196800D01*
X800500Y196934D01*
D02*
G37*
G36*
X740500D02*
X739482Y196800D01*
X738533Y196407D01*
X737718Y195782D01*
X737093Y194967D01*
X736700Y194018D01*
X736566Y193000D01*
X736700Y191982D01*
X737093Y191033D01*
X737718Y190218D01*
X738533Y189593D01*
X739482Y189200D01*
X740500Y189066D01*
X741518Y189200D01*
X742467Y189593D01*
X743282Y190218D01*
X743907Y191033D01*
X744300Y191982D01*
X744434Y193000D01*
X744300Y194018D01*
X743907Y194967D01*
X743282Y195782D01*
X742467Y196407D01*
X741518Y196800D01*
X740500Y196934D01*
D02*
G37*
G36*
X730500D02*
X729482Y196800D01*
X728533Y196407D01*
X727718Y195782D01*
X727093Y194967D01*
X726700Y194018D01*
X726566Y193000D01*
X726700Y191982D01*
X727093Y191033D01*
X727718Y190218D01*
X728533Y189593D01*
X729482Y189200D01*
X730500Y189066D01*
X731518Y189200D01*
X732467Y189593D01*
X733282Y190218D01*
X733907Y191033D01*
X734300Y191982D01*
X734434Y193000D01*
X734300Y194018D01*
X733907Y194967D01*
X733282Y195782D01*
X732467Y196407D01*
X731518Y196800D01*
X730500Y196934D01*
D02*
G37*
G36*
X720500D02*
X719482Y196800D01*
X718533Y196407D01*
X717719Y195782D01*
X717093Y194967D01*
X716700Y194018D01*
X716566Y193000D01*
X716700Y191982D01*
X717093Y191033D01*
X717719Y190218D01*
X718533Y189593D01*
X719482Y189200D01*
X720500Y189066D01*
X721518Y189200D01*
X722467Y189593D01*
X723281Y190218D01*
X723907Y191033D01*
X724300Y191982D01*
X724434Y193000D01*
X724300Y194018D01*
X723907Y194967D01*
X723281Y195782D01*
X722467Y196407D01*
X721518Y196800D01*
X720500Y196934D01*
D02*
G37*
G36*
X710500D02*
X709482Y196800D01*
X708533Y196407D01*
X707719Y195782D01*
X707093Y194967D01*
X706700Y194018D01*
X706566Y193000D01*
X706700Y191982D01*
X707093Y191033D01*
X707719Y190218D01*
X708533Y189593D01*
X709482Y189200D01*
X710500Y189066D01*
X711518Y189200D01*
X712467Y189593D01*
X713281Y190218D01*
X713907Y191033D01*
X714300Y191982D01*
X714434Y193000D01*
X714300Y194018D01*
X713907Y194967D01*
X713281Y195782D01*
X712467Y196407D01*
X711518Y196800D01*
X710500Y196934D01*
D02*
G37*
G36*
X996171Y165969D02*
X994507Y165838D01*
X992885Y165448D01*
X991343Y164810D01*
X989921Y163938D01*
X988652Y162855D01*
X987569Y161586D01*
X986697Y160163D01*
X986058Y158622D01*
X985669Y156999D01*
X985538Y155336D01*
X985669Y153673D01*
X986058Y152050D01*
X986697Y150509D01*
X987569Y149086D01*
X988652Y147818D01*
X989921Y146734D01*
X991343Y145862D01*
X992885Y145224D01*
X994507Y144834D01*
X996171Y144703D01*
X997834Y144834D01*
X999456Y145224D01*
X1000998Y145862D01*
X1002421Y146734D01*
X1003689Y147818D01*
X1004773Y149086D01*
X1005645Y150509D01*
X1006283Y152050D01*
X1006672Y153673D01*
X1006803Y155336D01*
X1006672Y156999D01*
X1006283Y158622D01*
X1005645Y160163D01*
X1004773Y161586D01*
X1003689Y162855D01*
X1002421Y163938D01*
X1000998Y164810D01*
X999456Y165448D01*
X997834Y165838D01*
X996171Y165969D01*
D02*
G37*
G36*
X673336D02*
X671673Y165838D01*
X670050Y165448D01*
X668509Y164810D01*
X667086Y163938D01*
X665817Y162855D01*
X664734Y161586D01*
X663862Y160163D01*
X663224Y158622D01*
X662834Y156999D01*
X662703Y155336D01*
X662834Y153673D01*
X663224Y152050D01*
X663862Y150509D01*
X664734Y149086D01*
X665817Y147818D01*
X667086Y146734D01*
X668509Y145862D01*
X670050Y145224D01*
X671673Y144834D01*
X673336Y144703D01*
X674999Y144834D01*
X676622Y145224D01*
X678163Y145862D01*
X679586Y146734D01*
X680855Y147818D01*
X681938Y149086D01*
X682810Y150509D01*
X683448Y152050D01*
X683838Y153673D01*
X683969Y155336D01*
X683838Y156999D01*
X683448Y158622D01*
X682810Y160163D01*
X681938Y161586D01*
X680855Y162855D01*
X679586Y163938D01*
X678163Y164810D01*
X676622Y165448D01*
X674999Y165838D01*
X673336Y165969D01*
D02*
G37*
%LPD*%
G36*
X818080Y307659D02*
X818487Y307387D01*
X818759Y306980D01*
X818854Y306500D01*
X818759Y306020D01*
X818487Y305613D01*
X818378Y305541D01*
X818341Y305485D01*
X818280Y305460D01*
X818207Y305285D01*
X818102Y305127D01*
X818115Y305062D01*
X818090Y305001D01*
Y304399D01*
X818115Y304338D01*
X818102Y304273D01*
X818207Y304115D01*
X818280Y303940D01*
X818341Y303915D01*
X818378Y303859D01*
X818487Y303787D01*
X818759Y303380D01*
X818854Y302900D01*
X818759Y302420D01*
X818487Y302013D01*
X818080Y301741D01*
X817600Y301646D01*
X817120Y301741D01*
X816792Y301960D01*
X816711Y301977D01*
X816649Y302032D01*
X816475Y302023D01*
X816305Y302057D01*
X816236Y302011D01*
X816153Y302007D01*
X815653Y301769D01*
X815577Y301685D01*
X815472Y301642D01*
X815417Y301508D01*
X815320Y301400D01*
X815325Y301287D01*
X815282Y301183D01*
Y298400D01*
X813318D01*
Y301958D01*
X813246Y302133D01*
X813209Y302319D01*
X813141Y302420D01*
X813046Y302900D01*
X813099Y303169D01*
X813086Y303234D01*
X813112Y303296D01*
X813039Y303471D01*
X813002Y303657D01*
X812947Y303694D01*
X812922Y303755D01*
X812137Y304540D01*
X811678Y304730D01*
X810277D01*
X809935Y305156D01*
X810037Y305470D01*
X811950D01*
X812161Y305558D01*
X812377Y305631D01*
X812756Y305963D01*
X812803Y306059D01*
X812889Y306124D01*
X812958Y306242D01*
X812973Y306352D01*
X813035Y306444D01*
X813141Y306980D01*
X813413Y307387D01*
X813820Y307659D01*
X814300Y307754D01*
X814780Y307659D01*
X815228Y307359D01*
X815241Y307329D01*
X815416Y307256D01*
X815573Y307151D01*
X815639Y307164D01*
X815700Y307138D01*
X816200D01*
X816261Y307164D01*
X816327Y307151D01*
X816484Y307256D01*
X816659Y307329D01*
X816672Y307359D01*
X817120Y307659D01*
X817600Y307754D01*
X818080Y307659D01*
D02*
G37*
G36*
X913536Y182343D02*
X913600Y182291D01*
Y178518D01*
X913041Y177959D01*
X912851Y177500D01*
Y170134D01*
X907811D01*
X907767Y170165D01*
X907455Y170507D01*
X907424Y170663D01*
X907440Y170822D01*
X907378Y170898D01*
X907358Y170994D01*
X907341Y171020D01*
X907246Y171500D01*
X907341Y171980D01*
X907360Y172008D01*
X907379Y172104D01*
X907441Y172180D01*
X907426Y172339D01*
X907457Y172495D01*
X907402Y172577D01*
X907393Y172675D01*
X907125Y173175D01*
X907049Y173237D01*
X907012Y173328D01*
X906864Y173389D01*
X906741Y173490D01*
X906551Y173955D01*
Y176040D01*
X912860Y182349D01*
X913100Y182509D01*
X913536Y182343D01*
D02*
G37*
G36*
X921500Y164600D02*
X913500D01*
Y177500D01*
X916069Y180069D01*
X921500D01*
Y164600D01*
D02*
G37*
G36*
X818800Y163600D02*
X817600Y162400D01*
X810258D01*
X809909Y162758D01*
X810100Y170100D01*
X818800D01*
Y163600D01*
D02*
G37*
G36*
X905500Y291000D02*
X900500Y286000D01*
X862500D01*
Y307000D01*
X872000D01*
X878500Y313500D01*
X905500D01*
Y291000D01*
D02*
G37*
G36*
X831500Y288100D02*
X831100Y287700D01*
X826300D01*
X826205Y294544D01*
X826556Y294900D01*
X831500D01*
Y288100D01*
D02*
G37*
G36*
X976600Y289426D02*
X976045Y289055D01*
X975630Y288433D01*
X975484Y287700D01*
X975586Y287184D01*
X967472Y279069D01*
X967273Y278772D01*
X967203Y278420D01*
Y267603D01*
X966300Y266700D01*
X950618D01*
Y276420D01*
X952484Y278286D01*
X953000Y278184D01*
X953733Y278329D01*
X954355Y278745D01*
X954770Y279367D01*
X954916Y280100D01*
X954770Y280833D01*
X954355Y281455D01*
X953918Y281747D01*
Y282853D01*
X954355Y283145D01*
X954770Y283767D01*
X954916Y284500D01*
X954770Y285233D01*
X954355Y285855D01*
X953733Y286270D01*
X953038Y286409D01*
X945673Y293773D01*
X945227Y294072D01*
X944700Y294177D01*
X927524D01*
X925000Y296700D01*
Y318600D01*
X976600D01*
Y289426D01*
D02*
G37*
G36*
X967203Y266031D02*
Y253201D01*
X956549Y242547D01*
X956200Y242616D01*
X955467Y242471D01*
X954845Y242055D01*
X954430Y241433D01*
X954284Y240700D01*
X954430Y239967D01*
X954845Y239345D01*
X955467Y238930D01*
X955842Y238855D01*
Y238345D01*
X955467Y238270D01*
X954845Y237855D01*
X954430Y237233D01*
X954284Y236500D01*
X954430Y235767D01*
X954845Y235145D01*
X955035Y235018D01*
X954884Y234518D01*
X952932D01*
X950618Y236832D01*
Y248920D01*
X950655Y248945D01*
X951070Y249567D01*
X951216Y250300D01*
X951070Y251033D01*
X950655Y251655D01*
X950618Y251680D01*
Y266051D01*
X966300D01*
X966703Y266217D01*
X967203Y266031D01*
D02*
G37*
G36*
X763782Y224220D02*
Y195906D01*
X763309Y195746D01*
X763281Y195782D01*
X762467Y196407D01*
X761518Y196800D01*
X760500Y196934D01*
X759482Y196800D01*
X758533Y196407D01*
X757719Y195782D01*
X757093Y194967D01*
X756700Y194018D01*
X756566Y193000D01*
X756700Y191982D01*
X757093Y191033D01*
X757719Y190218D01*
X758533Y189593D01*
X759482Y189200D01*
X760500Y189066D01*
X761518Y189200D01*
X762467Y189593D01*
X763281Y190218D01*
X763309Y190254D01*
X763782Y190094D01*
Y184280D01*
X760151Y180649D01*
X759952Y180351D01*
X759882Y180000D01*
Y161598D01*
X759270Y160985D01*
X758791Y161130D01*
X758771Y161233D01*
X758355Y161855D01*
X757733Y162270D01*
X757000Y162416D01*
X756484Y162314D01*
X756018Y162780D01*
Y231200D01*
X755998Y231297D01*
X756459Y231543D01*
X763782Y224220D01*
D02*
G37*
G36*
X794082Y190441D02*
Y180462D01*
X776172Y162552D01*
X775973Y162254D01*
X775918Y161977D01*
X775418Y162026D01*
Y168923D01*
X786849Y180354D01*
X787048Y180652D01*
X787118Y181003D01*
Y190224D01*
X787591Y190384D01*
X787718Y190218D01*
X788533Y189593D01*
X789482Y189200D01*
X790500Y189066D01*
X791518Y189200D01*
X792467Y189593D01*
X793282Y190218D01*
X793582Y190611D01*
X794082Y190441D01*
D02*
G37*
D10*
X781300Y317000D02*
X781500Y316800D01*
X740100Y317000D02*
X781300D01*
X737000Y313500D02*
Y313900D01*
X740100Y317000D01*
X816800Y338400D02*
X823400Y331800D01*
Y315600D02*
Y331800D01*
X746000Y268500D02*
X746298Y268798D01*
Y269664D01*
X746500Y269865D01*
Y279500D01*
X737000Y289000D02*
X746500Y279500D01*
X737000Y289000D02*
Y313500D01*
D11*
X981229Y265500D02*
X981596D01*
X979428Y267300D02*
X981229Y265500D01*
X979100Y267300D02*
X979428D01*
X981596Y275132D02*
Y275500D01*
X979100Y272636D02*
X981596Y275132D01*
X979100Y267300D02*
Y272636D01*
X776600Y305100D02*
X812100D01*
X814300Y302900D01*
D13*
X848600Y273400D02*
X893600D01*
X913000Y292800D01*
X829200D02*
X848600Y273400D01*
X944700Y292800D02*
X953000Y284500D01*
X913000Y292800D02*
X944700D01*
X829200D02*
Y293000D01*
D17*
X853240Y382000D02*
G03*
X851213Y382500I-2026J-3857D01*
G01*
X755100Y162400D02*
Y231200D01*
X726900Y241000D02*
X745300D01*
X755100Y231200D01*
X764700Y183900D02*
Y224600D01*
X746800Y242500D02*
X764700Y224600D01*
X736700Y242500D02*
X746800D01*
X968120Y252820D02*
Y278420D01*
X977400Y287700D01*
X900500Y253000D02*
X906000Y258500D01*
X910582D01*
X920456Y276456D02*
X925818D01*
X875086Y259000D02*
X903000D01*
X920456Y276456D01*
X914480Y262397D02*
Y264879D01*
X910582Y258500D02*
X914480Y262397D01*
Y264879D02*
X921400Y271800D01*
X925000D01*
X804379Y152120D02*
X956021D01*
X957880Y153980D02*
X963179D01*
X956021Y152120D02*
X957880Y153980D01*
X963179D02*
X965400Y156200D01*
X799579Y150920D02*
X959420D01*
X794500Y156000D02*
X799579Y150920D01*
X959420D02*
X960300Y151800D01*
X799000Y157500D02*
X804379Y152120D01*
X949700Y236452D02*
X952551Y233600D01*
X925625Y285395D02*
X926000Y285020D01*
X925625Y285395D02*
Y285625D01*
X922485Y281000D02*
X926000D01*
X924625Y285625D02*
X925625D01*
X901000Y262000D02*
X924625Y285625D01*
X869500Y262000D02*
X901000D01*
X776821Y160097D02*
X777541Y159377D01*
Y157459D02*
Y159377D01*
X774500Y153500D02*
Y169303D01*
X770500Y157500D02*
Y169900D01*
X770159Y152579D02*
X772680Y155101D01*
Y169179D01*
X964200Y229500D02*
Y232400D01*
X953000Y280100D02*
Y284500D01*
X949700Y276800D02*
X953000Y280100D01*
X949700Y236452D02*
Y276800D01*
X952551Y233600D02*
X957100D01*
X961800Y238300D01*
X965336D02*
X965700Y238664D01*
X961800Y238300D02*
X965336D01*
X956200Y236500D02*
X964200Y244500D01*
X956200Y240900D02*
X968120Y252820D01*
X956200Y240700D02*
Y240900D01*
X980500Y241218D02*
Y241400D01*
X972682Y233400D02*
X980500Y241218D01*
X965200Y233400D02*
X972682D01*
X964200Y232400D02*
X965200Y233400D01*
X964200Y244500D02*
X982900D01*
X984900Y268400D02*
Y280754D01*
X982054Y283600D02*
X984900Y280754D01*
X730500Y248700D02*
X736700Y242500D01*
X720500Y247400D02*
X726900Y241000D01*
X766000Y183500D02*
Y226100D01*
X749900Y242200D02*
Y252400D01*
Y242200D02*
X766000Y226100D01*
X749900Y252400D02*
X750500Y253000D01*
X813100Y260400D02*
X820500Y253000D01*
X778200Y260400D02*
X813100D01*
X774700Y256900D02*
X778200Y260400D01*
X795000Y180082D02*
Y237100D01*
X810500Y252600D01*
Y253000D01*
X794300Y246800D02*
X800500Y253000D01*
X788400Y246800D02*
X794300D01*
X786200Y181003D02*
Y244600D01*
X788400Y246800D01*
X785000Y247500D02*
X790500Y253000D01*
X785000Y191500D02*
Y247500D01*
X720500Y247400D02*
Y253000D01*
X730500Y248700D02*
Y253000D01*
X760800Y161218D02*
Y180000D01*
X764700Y183900D01*
X762000Y179500D02*
X766000Y183500D01*
X775900Y248400D02*
X780500Y253000D01*
X775900Y175300D02*
Y248400D01*
X774500Y169303D02*
X786200Y181003D01*
X770500Y169900D02*
X775900Y175300D01*
X777346Y173846D02*
Y183846D01*
X772680Y169179D02*
X777346Y173846D01*
Y183846D02*
X785000Y191500D01*
X774700Y177200D02*
Y256900D01*
X768500Y171000D02*
X774700Y177200D01*
X762000Y157500D02*
Y179500D01*
X758000Y156000D02*
Y158418D01*
X760800Y161218D01*
X755100Y162400D02*
X757000Y160500D01*
X802900Y384400D02*
X969100D01*
X800000Y385500D02*
X800028Y385472D01*
X801828D01*
X802900Y384400D01*
X803962Y382500D02*
X851213D01*
X802180Y381200D02*
X802662D01*
X803962Y382500D01*
X808100Y377900D02*
X816000Y370000D01*
X969100Y384400D02*
X995280Y358221D01*
X853240Y382000D02*
X969803D01*
X816000Y370000D02*
X967776D01*
X806300Y374200D02*
X812000Y368500D01*
X805000Y374200D02*
X806300D01*
X861000Y247000D02*
X865500Y251500D01*
Y254500D02*
X871300Y260300D01*
X865500Y251500D02*
Y254500D01*
X871300Y260300D02*
X901785D01*
X922485Y281000D01*
X860500Y253000D02*
X869500Y262000D01*
X870500Y254414D02*
X875086Y259000D01*
X870500Y253000D02*
Y254414D01*
X850500Y253000D02*
X856500Y247000D01*
X861000D01*
X995280Y353100D02*
Y358221D01*
X993000Y354500D02*
Y358803D01*
X969803Y382000D02*
X993000Y358803D01*
X967776Y370000D02*
X992056Y345721D01*
X812000Y368500D02*
X966500D01*
X993000Y350820D02*
X995280Y353100D01*
X992056Y345721D02*
X993279D01*
X995280Y337779D02*
Y343721D01*
X993000Y348000D02*
Y350820D01*
X966500Y368500D02*
X993000Y342000D01*
X993279Y345721D02*
X995280Y343721D01*
X993000Y335500D02*
X995280Y337779D01*
X776821Y161903D02*
X795000Y180082D01*
X776821Y160097D02*
Y161903D01*
D18*
X784501Y146100D02*
X789300Y150899D01*
X666000Y182500D02*
X702400Y146100D01*
X784501D01*
X666000Y182500D02*
Y343500D01*
X677858Y355358D01*
X789300Y150899D02*
Y151300D01*
X677858Y355358D02*
X683453D01*
D96*
X814300Y280000D02*
X828600Y265700D01*
X896000D02*
X918700Y288400D01*
X828600Y265700D02*
X896000D01*
X932900Y288400D02*
X938100Y283200D01*
X918700Y288400D02*
X932900D01*
X814300Y280000D02*
Y302900D01*
X906400Y174500D02*
X911500D01*
X804882D02*
X906400D01*
X938100Y186372D02*
Y283200D01*
X933428Y181700D02*
X938100Y186372D01*
X913600Y181700D02*
X933428D01*
X906400Y174500D02*
X913600Y181700D01*
X801291Y170909D02*
X804882Y174500D01*
X803600Y156300D02*
Y161400D01*
X801291Y163709D02*
X803600Y161400D01*
X801291Y163709D02*
Y170909D01*
X918893Y171393D02*
X919000Y171500D01*
X918893Y169793D02*
Y171393D01*
X916107Y167007D02*
X918893Y169793D01*
X916107Y167007D02*
Y171393D01*
X916000Y171500D02*
X916107Y171393D01*
D98*
X783621Y153192D02*
Y156520D01*
X784680Y157580D02*
X787421D01*
X783621Y156520D02*
X784680Y157580D01*
X786000Y154900D02*
Y155000D01*
X786381Y155382D01*
X789886Y155114D02*
X790200D01*
X787421Y157580D02*
X789886Y155114D01*
X835400Y338500D02*
X836700Y339800D01*
X838600Y338500D02*
Y338900D01*
X837700Y339800D02*
X838600Y338900D01*
X836700Y339800D02*
Y346400D01*
X784621Y155147D02*
X784855Y155382D01*
X784621Y153606D02*
Y155147D01*
Y153606D02*
X785893Y152334D01*
X783621Y153192D02*
X784893Y151920D01*
X784855Y155382D02*
X786381D01*
X703607Y154793D02*
X709359Y149041D01*
X784141Y148041D02*
X785893Y149793D01*
X702193Y154793D02*
X708945Y148041D01*
X709359Y149041D02*
X783727D01*
X708945Y148041D02*
X784141D01*
X783727Y149041D02*
X784893Y150207D01*
X703607Y154793D02*
Y154793D01*
X673373Y185027D02*
X703607Y154793D01*
X785893Y149793D02*
Y152334D01*
X784893Y150207D02*
Y151920D01*
X696879Y357793D02*
X780207D01*
X697293Y356793D02*
X779793D01*
X780500Y357500D02*
X783800Y354200D01*
X702193Y154793D02*
Y154793D01*
X672373Y184613D02*
Y333287D01*
X696879Y357793D01*
X672373Y184613D02*
X702193Y154793D01*
X673373Y185027D02*
Y332873D01*
X697293Y356793D01*
X780207Y357793D02*
X780500Y357500D01*
X779793Y356793D02*
X783386Y353200D01*
X829900D01*
X783800Y354200D02*
X830314D01*
X829900Y353200D02*
X836700Y346400D01*
X837700Y339800D02*
Y346814D01*
X830314Y354200D02*
X837700Y346814D01*
D100*
X873041Y283541D02*
Y289541D01*
X867000Y277500D02*
X873041Y283541D01*
D102*
X846256Y364500D02*
D03*
X823500D02*
D03*
X815500Y267800D02*
D03*
X766600Y236500D02*
D03*
X780000Y212000D02*
D03*
Y236500D02*
D03*
X666300Y365400D02*
D03*
X1003800Y314500D02*
D03*
X869637Y341790D02*
D03*
X824300Y224300D02*
D03*
X851850D02*
D03*
X877475D02*
D03*
X903100D02*
D03*
X720100Y221400D02*
D03*
X878100Y146500D02*
D03*
X856800D02*
D03*
X833100D02*
D03*
X1003800Y241100D02*
D03*
X958700Y221700D02*
D03*
X975100D02*
D03*
X1003800Y214800D02*
D03*
X985500Y215800D02*
D03*
X756300Y322500D02*
D03*
X739800Y329500D02*
D03*
X739900Y349100D02*
D03*
X740048Y361270D02*
D03*
X838600Y330200D02*
D03*
X855800Y319700D02*
D03*
Y325300D02*
D03*
Y330100D02*
D03*
X949300Y250300D02*
D03*
X925000Y271800D02*
D03*
Y268400D02*
D03*
X912000Y263400D02*
D03*
X786000Y155114D02*
D03*
X790200D02*
D03*
X894700Y291200D02*
D03*
X850800Y356000D02*
D03*
X817100Y356600D02*
D03*
X835400Y338500D02*
D03*
X838600D02*
D03*
X965400Y156200D02*
D03*
X960300Y151800D02*
D03*
X719300Y276800D02*
D03*
X772800Y300600D02*
D03*
X773200Y265600D02*
D03*
X832000Y278200D02*
D03*
X1003800Y227000D02*
D03*
Y254500D02*
D03*
Y270200D02*
D03*
X954400Y299700D02*
D03*
X994300Y292700D02*
D03*
X992800Y300500D02*
D03*
X990800Y314500D02*
D03*
X1003800Y327800D02*
D03*
X963300Y359100D02*
D03*
X894700Y322900D02*
D03*
X916400Y301200D02*
D03*
X924400Y341700D02*
D03*
Y359100D02*
D03*
X953300Y157800D02*
D03*
X952200Y201000D02*
D03*
X966100Y177100D02*
D03*
X978200Y154700D02*
D03*
X997100Y182100D02*
D03*
X998000Y197100D02*
D03*
X995400Y221700D02*
D03*
X985500Y227000D02*
D03*
X915600Y212000D02*
D03*
X889975D02*
D03*
X864350D02*
D03*
X926200Y224300D02*
D03*
X915600Y236500D02*
D03*
X889975D02*
D03*
X838725Y212000D02*
D03*
X864350Y236500D02*
D03*
X838725D02*
D03*
X813100Y212000D02*
D03*
Y236500D02*
D03*
X881000Y157400D02*
D03*
X867400D02*
D03*
X833100D02*
D03*
X732000Y154900D02*
D03*
X719400Y165000D02*
D03*
X695600Y172100D02*
D03*
X688900Y146500D02*
D03*
X666700Y172100D02*
D03*
X680000Y199900D02*
D03*
X680800Y241300D02*
D03*
X698800Y209000D02*
D03*
X720100D02*
D03*
X742000D02*
D03*
Y221600D02*
D03*
X698800Y221400D02*
D03*
X734400Y261300D02*
D03*
X755000D02*
D03*
X756500Y298100D02*
D03*
X719300Y290900D02*
D03*
X703400Y287700D02*
D03*
X692800Y295300D02*
D03*
X701900Y319800D02*
D03*
X697100Y330500D02*
D03*
X687800Y366500D02*
D03*
X688000Y384000D02*
D03*
X982100Y384700D02*
D03*
X1003600Y362300D02*
D03*
X963500Y341700D02*
D03*
X949800Y359100D02*
D03*
X909200D02*
D03*
X894700D02*
D03*
X869637D02*
D03*
X830300Y377100D02*
D03*
X805600Y362600D02*
D03*
X770000Y364500D02*
D03*
X759800Y364100D02*
D03*
X718800Y365200D02*
D03*
X706200Y365800D02*
D03*
X892700Y185500D02*
D03*
X883500D02*
D03*
X926000Y285020D02*
D03*
Y281000D02*
D03*
X933800Y297000D02*
D03*
X925818Y276456D02*
D03*
X916000Y174500D02*
D03*
X811800Y164500D02*
D03*
Y167800D02*
D03*
X777541Y157459D02*
D03*
X774500Y153500D02*
D03*
X770500Y157500D02*
D03*
X911500Y174500D02*
D03*
X799000Y157500D02*
D03*
X911700Y160100D02*
D03*
X907000Y162200D02*
D03*
X930600Y158000D02*
D03*
X911500Y171500D02*
D03*
X908500D02*
D03*
X806800Y159900D02*
D03*
X797300Y171200D02*
D03*
X856261Y302000D02*
D03*
X852600Y303286D02*
D03*
X816800Y334100D02*
D03*
X814700Y318500D02*
D03*
X780000Y171100D02*
D03*
X791400D02*
D03*
X760100Y212000D02*
D03*
X954200Y246500D02*
D03*
X829200Y293000D02*
D03*
X829100Y290100D02*
D03*
X826700Y284900D02*
D03*
X823800D02*
D03*
Y281800D02*
D03*
X826700D02*
D03*
X797100Y283700D02*
D03*
X794200D02*
D03*
Y286800D02*
D03*
X797100D02*
D03*
X739700Y272100D02*
D03*
X957500Y231000D02*
D03*
X964200Y229500D02*
D03*
X984500Y250000D02*
D03*
X888000Y293000D02*
D03*
X952900Y276900D02*
D03*
X953000Y280100D02*
D03*
Y284500D02*
D03*
X944400Y264500D02*
D03*
X942600Y267300D02*
D03*
X952700Y269100D02*
D03*
X966800Y287800D02*
D03*
X925500Y298500D02*
D03*
X925400Y304300D02*
D03*
X963500Y306900D02*
D03*
Y303200D02*
D03*
X961200Y269100D02*
D03*
X956500D02*
D03*
X944100Y308900D02*
D03*
X947500D02*
D03*
Y312300D02*
D03*
X944100D02*
D03*
X929100Y297000D02*
D03*
X977400Y287700D02*
D03*
X965700Y238664D02*
D03*
X980500Y241400D02*
D03*
X973200Y237000D02*
D03*
X956200Y236500D02*
D03*
Y240700D02*
D03*
X970300Y254200D02*
D03*
X967800Y229400D02*
D03*
X982900Y244500D02*
D03*
X982054Y283600D02*
D03*
X984900Y268400D02*
D03*
X981596Y265500D02*
D03*
Y275500D02*
D03*
X966800Y291300D02*
D03*
X803600Y156300D02*
D03*
X801291Y170909D02*
D03*
X815000Y164500D02*
D03*
X768500Y171000D02*
D03*
X776600Y305100D02*
D03*
X781500Y316800D02*
D03*
X802180Y381200D02*
D03*
X800000Y385500D02*
D03*
X808100Y377900D02*
D03*
X805000Y374200D02*
D03*
X770159Y152579D02*
D03*
X789300Y151300D02*
D03*
X683453Y355358D02*
D03*
X816800Y338400D02*
D03*
X817600Y302900D02*
D03*
X814300D02*
D03*
X817600Y306500D02*
D03*
X814300D02*
D03*
X823400Y315600D02*
D03*
X848400Y318100D02*
D03*
X844700D02*
D03*
X844800Y321900D02*
D03*
X993000Y354500D02*
D03*
X867000Y277500D02*
D03*
X873041Y289541D02*
D03*
X993000Y348000D02*
D03*
Y335500D02*
D03*
Y342000D02*
D03*
X880000Y311500D02*
D03*
Y307000D02*
D03*
X886500Y298500D02*
D03*
X900000Y299500D02*
D03*
X874000Y295500D02*
D03*
X866500Y295000D02*
D03*
X794500Y156000D02*
D03*
X737000Y313500D02*
D03*
X746000Y268500D02*
D03*
X757000Y160500D02*
D03*
X758000Y156000D02*
D03*
X762000Y157500D02*
D03*
X919000Y171500D02*
D03*
X916000D02*
D03*
D103*
X817850Y378280D02*
D03*
X851906D02*
D03*
D104*
X817850Y362532D02*
D03*
X851906D02*
D03*
D105*
X669000Y352311D02*
D03*
Y340500D02*
D03*
D106*
X700500Y193000D02*
D03*
D107*
X710500D02*
D03*
X720500D02*
D03*
X730500D02*
D03*
X740500D02*
D03*
X750500D02*
D03*
X760500D02*
D03*
X770500D02*
D03*
X780500D02*
D03*
X790500D02*
D03*
X800500D02*
D03*
X810500D02*
D03*
X820500D02*
D03*
X830500D02*
D03*
X840500D02*
D03*
X850500D02*
D03*
X860500D02*
D03*
X870500D02*
D03*
X880500D02*
D03*
X890500D02*
D03*
X900500D02*
D03*
X910500D02*
D03*
X920500D02*
D03*
X930500D02*
D03*
X700500Y253000D02*
D03*
X710500D02*
D03*
X720500D02*
D03*
X730500D02*
D03*
X740500D02*
D03*
X750500D02*
D03*
X760500D02*
D03*
X770500D02*
D03*
X780500D02*
D03*
X790500D02*
D03*
X800500D02*
D03*
X810500D02*
D03*
X820500D02*
D03*
X830500D02*
D03*
X840500D02*
D03*
X850500D02*
D03*
X860500D02*
D03*
X870500D02*
D03*
X880500D02*
D03*
X890500D02*
D03*
X900500D02*
D03*
X910500D02*
D03*
X920500D02*
D03*
X930500D02*
D03*
D108*
X673336Y376804D02*
D03*
Y155336D02*
D03*
X996171D02*
D03*
Y376804D02*
D03*
D109*
X814600Y165800D02*
X815807Y167007D01*
X916107D01*
M02*
