G04*
G04 #@! TF.GenerationSoftware,Altium Limited,Altium Designer,20.0.13 (296)*
G04*
G04 Layer_Color=255*
%FSLAX25Y25*%
%MOIN*%
G70*
G01*
G75*
%ADD20R,0.01968X0.01575*%
%ADD21R,0.01575X0.01968*%
G04:AMPARAMS|DCode=22|XSize=19.68mil|YSize=23.62mil|CornerRadius=4.92mil|HoleSize=0mil|Usage=FLASHONLY|Rotation=0.000|XOffset=0mil|YOffset=0mil|HoleType=Round|Shape=RoundedRectangle|*
%AMROUNDEDRECTD22*
21,1,0.01968,0.01378,0,0,0.0*
21,1,0.00984,0.02362,0,0,0.0*
1,1,0.00984,0.00492,-0.00689*
1,1,0.00984,-0.00492,-0.00689*
1,1,0.00984,-0.00492,0.00689*
1,1,0.00984,0.00492,0.00689*
%
%ADD22ROUNDEDRECTD22*%
G04:AMPARAMS|DCode=23|XSize=50mil|YSize=35mil|CornerRadius=0mil|HoleSize=0mil|Usage=FLASHONLY|Rotation=90.000|XOffset=0mil|YOffset=0mil|HoleType=Round|Shape=Octagon|*
%AMOCTAGOND23*
4,1,8,0.00875,0.02500,-0.00875,0.02500,-0.01750,0.01625,-0.01750,-0.01625,-0.00875,-0.02500,0.00875,-0.02500,0.01750,-0.01625,0.01750,0.01625,0.00875,0.02500,0.0*
%
%ADD23OCTAGOND23*%

%ADD24R,0.03500X0.05000*%
%ADD25R,0.06299X0.11811*%
%ADD26R,0.04724X0.19685*%
G04:AMPARAMS|DCode=27|XSize=23.62mil|YSize=35mil|CornerRadius=5.91mil|HoleSize=0mil|Usage=FLASHONLY|Rotation=90.000|XOffset=0mil|YOffset=0mil|HoleType=Round|Shape=RoundedRectangle|*
%AMROUNDEDRECTD27*
21,1,0.02362,0.02319,0,0,90.0*
21,1,0.01181,0.03500,0,0,90.0*
1,1,0.01181,0.01159,0.00591*
1,1,0.01181,0.01159,-0.00591*
1,1,0.01181,-0.01159,-0.00591*
1,1,0.01181,-0.01159,0.00591*
%
%ADD27ROUNDEDRECTD27*%
%ADD28R,0.04921X0.02756*%
%ADD29R,0.05512X0.01200*%
%ADD30O,0.05512X0.01200*%
%ADD31R,0.03000X0.02500*%
%ADD32R,0.03000X0.03000*%
%ADD33R,0.03000X0.03000*%
%ADD34R,0.07087X0.03150*%
%ADD35O,0.07087X0.03150*%
%ADD36O,0.01378X0.06299*%
%ADD37R,0.01378X0.06299*%
%ADD38R,0.05000X0.03500*%
G04:AMPARAMS|DCode=39|XSize=50mil|YSize=35mil|CornerRadius=0mil|HoleSize=0mil|Usage=FLASHONLY|Rotation=180.000|XOffset=0mil|YOffset=0mil|HoleType=Round|Shape=Octagon|*
%AMOCTAGOND39*
4,1,8,-0.02500,0.00875,-0.02500,-0.00875,-0.01625,-0.01750,0.01625,-0.01750,0.02500,-0.00875,0.02500,0.00875,0.01625,0.01750,-0.01625,0.01750,-0.02500,0.00875,0.0*
%
%ADD39OCTAGOND39*%

%ADD40R,0.11417X0.04724*%
%ADD41R,0.11417X0.05906*%
%ADD42R,0.11417X0.07874*%
%ADD43R,0.07874X0.11811*%
G04:AMPARAMS|DCode=44|XSize=59.06mil|YSize=11.81mil|CornerRadius=2.95mil|HoleSize=0mil|Usage=FLASHONLY|Rotation=270.000|XOffset=0mil|YOffset=0mil|HoleType=Round|Shape=RoundedRectangle|*
%AMROUNDEDRECTD44*
21,1,0.05906,0.00591,0,0,270.0*
21,1,0.05315,0.01181,0,0,270.0*
1,1,0.00591,-0.00295,-0.02657*
1,1,0.00591,-0.00295,0.02657*
1,1,0.00591,0.00295,0.02657*
1,1,0.00591,0.00295,-0.02657*
%
%ADD44ROUNDEDRECTD44*%
%ADD45O,0.02362X0.08661*%
%ADD46R,0.02756X0.03150*%
G04:AMPARAMS|DCode=47|XSize=31.5mil|YSize=27.56mil|CornerRadius=0mil|HoleSize=0mil|Usage=FLASHONLY|Rotation=270.000|XOffset=0mil|YOffset=0mil|HoleType=Round|Shape=Octagon|*
%AMOCTAGOND47*
4,1,8,-0.00689,-0.01575,0.00689,-0.01575,0.01378,-0.00886,0.01378,0.00886,0.00689,0.01575,-0.00689,0.01575,-0.01378,0.00886,-0.01378,-0.00886,-0.00689,-0.01575,0.0*
%
%ADD47OCTAGOND47*%

%ADD48R,0.07008X0.05984*%
%ADD49R,0.03150X0.05512*%
%ADD50R,0.05906X0.02362*%
%ADD51R,0.01181X0.05118*%
%ADD52R,0.07087X0.08661*%
G04:AMPARAMS|DCode=53|XSize=25mil|YSize=50mil|CornerRadius=6.25mil|HoleSize=0mil|Usage=FLASHONLY|Rotation=0.000|XOffset=0mil|YOffset=0mil|HoleType=Round|Shape=RoundedRectangle|*
%AMROUNDEDRECTD53*
21,1,0.02500,0.03750,0,0,0.0*
21,1,0.01250,0.05000,0,0,0.0*
1,1,0.01250,0.00625,-0.01875*
1,1,0.01250,-0.00625,-0.01875*
1,1,0.01250,-0.00625,0.01875*
1,1,0.01250,0.00625,0.01875*
%
%ADD53ROUNDEDRECTD53*%
%ADD95C,0.04724*%
%ADD102C,0.02559*%
%ADD103O,0.03937X0.06299*%
%ADD104O,0.03937X0.08268*%
%ADD105C,0.03150*%
%ADD106R,0.06600X0.06600*%
%ADD107C,0.06600*%
%ADD108C,0.20000*%
D20*
X928200Y268527D02*
D03*
Y271873D02*
D03*
X931800Y268527D02*
D03*
Y271873D02*
D03*
X827000Y343154D02*
D03*
Y346500D02*
D03*
X835200Y346346D02*
D03*
Y343000D02*
D03*
X845000D02*
D03*
Y346346D02*
D03*
X838700Y346373D02*
D03*
Y343027D02*
D03*
X860500Y353654D02*
D03*
Y357000D02*
D03*
X820000Y332543D02*
D03*
X820000Y329000D02*
D03*
Y325000D02*
D03*
Y321654D02*
D03*
X819500Y315543D02*
D03*
X819500Y312000D02*
D03*
X814500Y315543D02*
D03*
X814500Y312000D02*
D03*
X824500Y287957D02*
D03*
X824500Y291500D02*
D03*
X820000Y287957D02*
D03*
X820000Y291500D02*
D03*
X820000Y283543D02*
D03*
X820000Y280000D02*
D03*
X872500Y299728D02*
D03*
X872500Y303271D02*
D03*
X877500Y299728D02*
D03*
X877500Y303271D02*
D03*
X891500Y289926D02*
D03*
X891500Y286383D02*
D03*
X886500Y290043D02*
D03*
X886500Y286500D02*
D03*
X887000Y306654D02*
D03*
X887000Y310197D02*
D03*
X892000Y306728D02*
D03*
X892000Y310271D02*
D03*
X897000Y306850D02*
D03*
Y310197D02*
D03*
X902500Y306728D02*
D03*
X902500Y310271D02*
D03*
X907500Y306654D02*
D03*
X907500Y310197D02*
D03*
X912500D02*
D03*
Y306850D02*
D03*
X992500Y327173D02*
D03*
Y323827D02*
D03*
X988000Y327173D02*
D03*
Y323827D02*
D03*
X983500Y327173D02*
D03*
Y323827D02*
D03*
X979000Y327173D02*
D03*
Y323827D02*
D03*
X723500Y309846D02*
D03*
Y306500D02*
D03*
X673000Y284327D02*
D03*
Y287673D02*
D03*
Y279272D02*
D03*
X673000Y275729D02*
D03*
D21*
X742457Y272000D02*
D03*
X746000Y272000D02*
D03*
X768154Y310000D02*
D03*
X771500D02*
D03*
X779846D02*
D03*
X776500D02*
D03*
X841882Y327500D02*
D03*
X845425Y327500D02*
D03*
X841882Y332500D02*
D03*
X845425Y332500D02*
D03*
X801654Y337000D02*
D03*
X805000D02*
D03*
X813000D02*
D03*
X809654D02*
D03*
X932173Y285500D02*
D03*
X928827D02*
D03*
X932173Y280750D02*
D03*
X928827D02*
D03*
X932173Y276000D02*
D03*
X928827D02*
D03*
X864000Y278500D02*
D03*
X860457Y278500D02*
D03*
X864500Y304500D02*
D03*
X860957Y304500D02*
D03*
X902327Y301500D02*
D03*
X905673D02*
D03*
X886827D02*
D03*
X890173D02*
D03*
X969728Y291500D02*
D03*
X973271Y291500D02*
D03*
X969728Y288000D02*
D03*
X973271Y288000D02*
D03*
X945982Y276000D02*
D03*
X949525Y276000D02*
D03*
X946228Y271000D02*
D03*
X949771Y271000D02*
D03*
X960575Y240500D02*
D03*
X963922D02*
D03*
X960575Y237000D02*
D03*
X963922D02*
D03*
X960500Y233500D02*
D03*
X963846D02*
D03*
X966902D02*
D03*
X970248D02*
D03*
X967032Y237000D02*
D03*
X970575Y237000D02*
D03*
X967075Y240500D02*
D03*
X970618Y240500D02*
D03*
X988500Y280500D02*
D03*
X985154D02*
D03*
X988500Y275500D02*
D03*
X985154D02*
D03*
X732000Y310000D02*
D03*
X735543Y310000D02*
D03*
X849729Y322500D02*
D03*
X853272Y322500D02*
D03*
X849729Y332500D02*
D03*
X853272Y332500D02*
D03*
X849729Y327500D02*
D03*
X853272Y327500D02*
D03*
D22*
X852500Y347968D02*
D03*
Y337500D02*
D03*
D23*
X860500Y346000D02*
D03*
D24*
Y339000D02*
D03*
D25*
X954657Y177500D02*
D03*
X1002500D02*
D03*
D26*
X978579Y194819D02*
D03*
X988421D02*
D03*
X968736D02*
D03*
D27*
X802600Y323000D02*
D03*
Y326740D02*
D03*
Y330480D02*
D03*
X814000D02*
D03*
Y323000D02*
D03*
D28*
X803276Y288740D02*
D03*
Y285000D02*
D03*
Y281260D02*
D03*
X812724D02*
D03*
Y288740D02*
D03*
D29*
X859709Y291969D02*
D03*
D30*
Y290000D02*
D03*
Y288031D02*
D03*
Y286063D02*
D03*
Y284094D02*
D03*
X879000D02*
D03*
Y286063D02*
D03*
Y288031D02*
D03*
Y290000D02*
D03*
Y291969D02*
D03*
D31*
X861500Y299500D02*
D03*
X866500D02*
D03*
X861500Y309672D02*
D03*
X866500D02*
D03*
X944000Y281500D02*
D03*
X949000D02*
D03*
X948500Y265500D02*
D03*
X943500D02*
D03*
D32*
X934700Y312759D02*
D03*
Y307641D02*
D03*
X929500Y312759D02*
D03*
Y307641D02*
D03*
X969000Y312559D02*
D03*
Y307441D02*
D03*
X974500Y312500D02*
D03*
Y307382D02*
D03*
D33*
X934759Y302500D02*
D03*
X929641D02*
D03*
X974359Y302100D02*
D03*
X969241D02*
D03*
D34*
X962933Y297000D02*
D03*
X1001366D02*
D03*
D35*
X942067D02*
D03*
X980500D02*
D03*
D36*
X960043Y277370D02*
D03*
X962602D02*
D03*
X965161D02*
D03*
X967720D02*
D03*
X970280D02*
D03*
X972839D02*
D03*
X975398D02*
D03*
X977957D02*
D03*
Y248630D02*
D03*
X975398D02*
D03*
X972839D02*
D03*
X970280D02*
D03*
X967720D02*
D03*
X965161D02*
D03*
X962602D02*
D03*
D37*
X960043D02*
D03*
D38*
X988500Y335920D02*
D03*
Y342760D02*
D03*
Y349677D02*
D03*
Y356474D02*
D03*
D39*
X981500Y335920D02*
D03*
Y342760D02*
D03*
Y349677D02*
D03*
Y356474D02*
D03*
D40*
X971000Y382500D02*
D03*
X915673D02*
D03*
X781673Y382551D02*
D03*
X727173D02*
D03*
D41*
X942654Y379351D02*
D03*
X971000Y371083D02*
D03*
X887327Y379351D02*
D03*
X915673Y371083D02*
D03*
X753327Y379402D02*
D03*
X781673Y371134D02*
D03*
X698827Y379402D02*
D03*
X727173Y371134D02*
D03*
D42*
X942654Y341949D02*
D03*
X887327D02*
D03*
X753327Y342000D02*
D03*
X698827D02*
D03*
D43*
X960567Y324626D02*
D03*
X905240D02*
D03*
X771240Y324677D02*
D03*
X716740D02*
D03*
D44*
X821689Y358437D02*
D03*
X822870D02*
D03*
X824839D02*
D03*
X826020D02*
D03*
X827988D02*
D03*
X829957D02*
D03*
X831925D02*
D03*
X833894D02*
D03*
X835862D02*
D03*
X837831D02*
D03*
X839799D02*
D03*
X841768D02*
D03*
X843736D02*
D03*
X844917D02*
D03*
X846886D02*
D03*
X848067D02*
D03*
D45*
X731500Y280500D02*
D03*
X736500D02*
D03*
X741500D02*
D03*
X746500D02*
D03*
X731500Y301398D02*
D03*
X736500D02*
D03*
X741500D02*
D03*
X746500D02*
D03*
D46*
X716500Y310346D02*
D03*
D47*
Y303654D02*
D03*
D48*
X703000Y275760D02*
D03*
X683000D02*
D03*
X693000D02*
D03*
X703000Y308240D02*
D03*
X683000D02*
D03*
X693000D02*
D03*
D49*
X673921Y360776D02*
D03*
X664079D02*
D03*
Y332035D02*
D03*
X673921D02*
D03*
D50*
X676858Y355264D02*
D03*
Y343453D02*
D03*
Y337547D02*
D03*
D51*
X859874Y166500D02*
D03*
X861843D02*
D03*
X863811D02*
D03*
X865780D02*
D03*
X867748D02*
D03*
X869717D02*
D03*
X871685D02*
D03*
X873654D02*
D03*
X875622D02*
D03*
X877591D02*
D03*
X879559D02*
D03*
X881528D02*
D03*
X883496D02*
D03*
X885465D02*
D03*
X887433D02*
D03*
X889402D02*
D03*
X891370D02*
D03*
X893339D02*
D03*
X895307D02*
D03*
X897276D02*
D03*
X899244D02*
D03*
X905150D02*
D03*
X907118D02*
D03*
X909087D02*
D03*
X911055D02*
D03*
X913024D02*
D03*
X914992D02*
D03*
X916961D02*
D03*
X903181D02*
D03*
X901213D02*
D03*
X793395Y166431D02*
D03*
X795364D02*
D03*
X809143D02*
D03*
X807175D02*
D03*
X805206D02*
D03*
X803238D02*
D03*
X801269D02*
D03*
X799301D02*
D03*
X797332D02*
D03*
X791427D02*
D03*
X789458D02*
D03*
X787490D02*
D03*
X785521D02*
D03*
X783553D02*
D03*
X781584D02*
D03*
X779616D02*
D03*
X777647D02*
D03*
X775679D02*
D03*
X773710D02*
D03*
X771742D02*
D03*
X769773D02*
D03*
X767805D02*
D03*
X765836D02*
D03*
X763868D02*
D03*
X761899D02*
D03*
X759931D02*
D03*
X757962D02*
D03*
X755994D02*
D03*
X754025D02*
D03*
X752057D02*
D03*
D52*
X853378Y156669D02*
D03*
X923457D02*
D03*
X815639Y156600D02*
D03*
X745561D02*
D03*
D53*
X802454Y314500D02*
D03*
X808546D02*
D03*
D95*
X760500Y310000D02*
D03*
X860500Y331000D02*
D03*
Y367500D02*
D03*
X808500Y305500D02*
D03*
X825000Y298200D02*
D03*
X842500Y296500D02*
D03*
X849500Y292000D02*
D03*
X842500Y287500D02*
D03*
X849500Y283000D02*
D03*
X921500Y290500D02*
D03*
Y284000D02*
D03*
Y277500D02*
D03*
X990900Y242000D02*
D03*
Y249869D02*
D03*
Y257739D02*
D03*
Y265608D02*
D03*
X686000Y339000D02*
D03*
Y329000D02*
D03*
X735900Y168400D02*
D03*
D102*
X846256Y364500D02*
D03*
X823500D02*
D03*
D103*
X817850Y378280D02*
D03*
X851906D02*
D03*
D104*
X817850Y362532D02*
D03*
X851906D02*
D03*
D105*
X669000Y352311D02*
D03*
Y340500D02*
D03*
D106*
X700500Y193000D02*
D03*
D107*
X710500D02*
D03*
X720500D02*
D03*
X730500D02*
D03*
X740500D02*
D03*
X750500D02*
D03*
X760500D02*
D03*
X770500D02*
D03*
X780500D02*
D03*
X790500D02*
D03*
X800500D02*
D03*
X810500D02*
D03*
X820500D02*
D03*
X830500D02*
D03*
X840500D02*
D03*
X850500D02*
D03*
X860500D02*
D03*
X870500D02*
D03*
X880500D02*
D03*
X890500D02*
D03*
X900500D02*
D03*
X910500D02*
D03*
X920500D02*
D03*
X930500D02*
D03*
X700500Y253000D02*
D03*
X710500D02*
D03*
X720500D02*
D03*
X730500D02*
D03*
X740500D02*
D03*
X750500D02*
D03*
X760500D02*
D03*
X770500D02*
D03*
X780500D02*
D03*
X790500D02*
D03*
X800500D02*
D03*
X810500D02*
D03*
X820500D02*
D03*
X830500D02*
D03*
X840500D02*
D03*
X850500D02*
D03*
X860500D02*
D03*
X870500D02*
D03*
X880500D02*
D03*
X890500D02*
D03*
X900500D02*
D03*
X910500D02*
D03*
X920500D02*
D03*
X930500D02*
D03*
D108*
X673336Y376804D02*
D03*
Y155336D02*
D03*
X996171D02*
D03*
Y376804D02*
D03*
M02*
