G04*
G04 #@! TF.GenerationSoftware,Altium Limited,Altium Designer,20.0.13 (296)*
G04*
G04 Layer_Physical_Order=1*
G04 Layer_Color=255*
%FSLAX25Y25*%
%MOIN*%
G70*
G01*
G75*
%ADD10C,0.01000*%
%ADD11C,0.00800*%
%ADD13C,0.01500*%
%ADD17C,0.00600*%
%ADD18C,0.00500*%
%ADD20R,0.01968X0.01575*%
%ADD21R,0.01575X0.01968*%
G04:AMPARAMS|DCode=22|XSize=19.68mil|YSize=23.62mil|CornerRadius=4.92mil|HoleSize=0mil|Usage=FLASHONLY|Rotation=0.000|XOffset=0mil|YOffset=0mil|HoleType=Round|Shape=RoundedRectangle|*
%AMROUNDEDRECTD22*
21,1,0.01968,0.01378,0,0,0.0*
21,1,0.00984,0.02362,0,0,0.0*
1,1,0.00984,0.00492,-0.00689*
1,1,0.00984,-0.00492,-0.00689*
1,1,0.00984,-0.00492,0.00689*
1,1,0.00984,0.00492,0.00689*
%
%ADD22ROUNDEDRECTD22*%
G04:AMPARAMS|DCode=23|XSize=50mil|YSize=35mil|CornerRadius=0mil|HoleSize=0mil|Usage=FLASHONLY|Rotation=90.000|XOffset=0mil|YOffset=0mil|HoleType=Round|Shape=Octagon|*
%AMOCTAGOND23*
4,1,8,0.00875,0.02500,-0.00875,0.02500,-0.01750,0.01625,-0.01750,-0.01625,-0.00875,-0.02500,0.00875,-0.02500,0.01750,-0.01625,0.01750,0.01625,0.00875,0.02500,0.0*
%
%ADD23OCTAGOND23*%

%ADD24R,0.03500X0.05000*%
%ADD25R,0.06299X0.11811*%
%ADD26R,0.04724X0.19685*%
G04:AMPARAMS|DCode=27|XSize=23.62mil|YSize=35mil|CornerRadius=5.91mil|HoleSize=0mil|Usage=FLASHONLY|Rotation=90.000|XOffset=0mil|YOffset=0mil|HoleType=Round|Shape=RoundedRectangle|*
%AMROUNDEDRECTD27*
21,1,0.02362,0.02319,0,0,90.0*
21,1,0.01181,0.03500,0,0,90.0*
1,1,0.01181,0.01159,0.00591*
1,1,0.01181,0.01159,-0.00591*
1,1,0.01181,-0.01159,-0.00591*
1,1,0.01181,-0.01159,0.00591*
%
%ADD27ROUNDEDRECTD27*%
%ADD28R,0.04921X0.02756*%
%ADD29R,0.05512X0.01200*%
%ADD30O,0.05512X0.01200*%
%ADD31R,0.03000X0.02500*%
%ADD32R,0.03000X0.03000*%
%ADD33R,0.03000X0.03000*%
%ADD34R,0.07087X0.03150*%
%ADD35O,0.07087X0.03150*%
%ADD36O,0.01378X0.06299*%
%ADD37R,0.01378X0.06299*%
%ADD38R,0.05000X0.03500*%
G04:AMPARAMS|DCode=39|XSize=50mil|YSize=35mil|CornerRadius=0mil|HoleSize=0mil|Usage=FLASHONLY|Rotation=180.000|XOffset=0mil|YOffset=0mil|HoleType=Round|Shape=Octagon|*
%AMOCTAGOND39*
4,1,8,-0.02500,0.00875,-0.02500,-0.00875,-0.01625,-0.01750,0.01625,-0.01750,0.02500,-0.00875,0.02500,0.00875,0.01625,0.01750,-0.01625,0.01750,-0.02500,0.00875,0.0*
%
%ADD39OCTAGOND39*%

%ADD40R,0.11417X0.04724*%
%ADD41R,0.11417X0.05906*%
%ADD42R,0.11417X0.07874*%
%ADD43R,0.07874X0.11811*%
G04:AMPARAMS|DCode=44|XSize=59.06mil|YSize=11.81mil|CornerRadius=2.95mil|HoleSize=0mil|Usage=FLASHONLY|Rotation=270.000|XOffset=0mil|YOffset=0mil|HoleType=Round|Shape=RoundedRectangle|*
%AMROUNDEDRECTD44*
21,1,0.05906,0.00591,0,0,270.0*
21,1,0.05315,0.01181,0,0,270.0*
1,1,0.00591,-0.00295,-0.02657*
1,1,0.00591,-0.00295,0.02657*
1,1,0.00591,0.00295,0.02657*
1,1,0.00591,0.00295,-0.02657*
%
%ADD44ROUNDEDRECTD44*%
%ADD45O,0.02362X0.08661*%
%ADD46R,0.02756X0.03150*%
G04:AMPARAMS|DCode=47|XSize=31.5mil|YSize=27.56mil|CornerRadius=0mil|HoleSize=0mil|Usage=FLASHONLY|Rotation=270.000|XOffset=0mil|YOffset=0mil|HoleType=Round|Shape=Octagon|*
%AMOCTAGOND47*
4,1,8,-0.00689,-0.01575,0.00689,-0.01575,0.01378,-0.00886,0.01378,0.00886,0.00689,0.01575,-0.00689,0.01575,-0.01378,0.00886,-0.01378,-0.00886,-0.00689,-0.01575,0.0*
%
%ADD47OCTAGOND47*%

%ADD48R,0.07008X0.05984*%
%ADD49R,0.03150X0.05512*%
%ADD50R,0.05906X0.02362*%
%ADD51R,0.01181X0.05118*%
%ADD52R,0.07087X0.08661*%
G04:AMPARAMS|DCode=53|XSize=25mil|YSize=50mil|CornerRadius=6.25mil|HoleSize=0mil|Usage=FLASHONLY|Rotation=0.000|XOffset=0mil|YOffset=0mil|HoleType=Round|Shape=RoundedRectangle|*
%AMROUNDEDRECTD53*
21,1,0.02500,0.03750,0,0,0.0*
21,1,0.01250,0.05000,0,0,0.0*
1,1,0.01250,0.00625,-0.01875*
1,1,0.01250,-0.00625,-0.01875*
1,1,0.01250,-0.00625,0.01875*
1,1,0.01250,0.00625,0.01875*
%
%ADD53ROUNDEDRECTD53*%
%ADD95C,0.04724*%
%ADD96C,0.02000*%
%ADD97C,0.01600*%
%ADD98C,0.00400*%
%ADD99C,0.01200*%
%ADD100C,0.00900*%
%ADD101C,0.01400*%
%ADD102C,0.02559*%
%ADD103O,0.03937X0.06299*%
%ADD104O,0.03937X0.08268*%
%ADD105C,0.03150*%
%ADD106R,0.06600X0.06600*%
%ADD107C,0.06600*%
%ADD108C,0.20000*%
G36*
X996223Y388986D02*
X996723Y388986D01*
X997215Y388970D01*
X997484Y388961D01*
X998960Y388720D01*
X1000394Y388293D01*
X1001761Y387686D01*
X1003039Y386909D01*
X1004208Y385976D01*
X1005248Y384900D01*
X1006142Y383701D01*
X1006875Y382397D01*
X1007436Y381011D01*
X1007815Y379563D01*
X1008006Y378080D01*
Y377283D01*
X1008006Y377186D01*
X1008004Y377089D01*
X1008002Y376992D01*
X1008000Y376943D01*
Y155503D01*
X1008000Y155499D01*
X1008000Y155498D01*
X1008000Y155490D01*
Y154698D01*
X1007794Y153130D01*
X1007384Y151602D01*
X1006779Y150141D01*
X1005989Y148771D01*
X1005027Y147516D01*
X1003909Y146398D01*
X1002654Y145434D01*
X1001285Y144643D01*
X999824Y144037D01*
X998296Y143627D01*
X996729Y143419D01*
X995938Y143419D01*
X672312D01*
X670745Y143625D01*
X669217Y144035D01*
X667756Y144640D01*
X666387Y145430D01*
X665132Y146393D01*
X664014Y147511D01*
X663052Y148765D01*
X662261Y150135D01*
X661656Y151596D01*
X661247Y153123D01*
X661040Y154691D01*
Y155481D01*
Y376950D01*
Y377740D01*
X661247Y379308D01*
X661656Y380835D01*
X662260Y382295D01*
X663051Y383664D01*
X664013Y384919D01*
X665130Y386037D01*
X666384Y386999D01*
X667753Y387790D01*
X669213Y388395D01*
X670740Y388805D01*
X672307Y389012D01*
X673101Y389012D01*
X673603Y389012D01*
X996223Y388986D01*
D02*
G37*
%LPC*%
G36*
X760036Y383355D02*
X753827D01*
Y379902D01*
X760036D01*
Y383355D01*
D02*
G37*
G36*
X752827D02*
X746618D01*
Y379902D01*
X752827D01*
Y383355D01*
D02*
G37*
G36*
X767034Y378870D02*
X766953Y378837D01*
X766865Y378848D01*
X765964Y378607D01*
X765895Y378553D01*
X765808Y378542D01*
X765000Y378075D01*
X764946Y378006D01*
X764865Y377972D01*
X764205Y377312D01*
X764172Y377231D01*
X764102Y377178D01*
X763635Y376370D01*
X763624Y376283D01*
X763571Y376213D01*
X763329Y375312D01*
X763341Y375225D01*
X763307Y375144D01*
X763307Y374678D01*
X763307Y374211D01*
X763340Y374130D01*
X763329Y374043D01*
X763570Y373142D01*
X763624Y373072D01*
X763635Y372985D01*
X764102Y372177D01*
X764171Y372124D01*
X764205Y372042D01*
X764865Y371383D01*
X764946Y371349D01*
X764999Y371280D01*
X765807Y370813D01*
X765894Y370801D01*
X765964Y370748D01*
X766865Y370507D01*
X766952Y370518D01*
X767033Y370484D01*
X767966Y370484D01*
X768047Y370518D01*
X768134Y370506D01*
X769035Y370748D01*
X769105Y370801D01*
X769192Y370813D01*
X770000Y371279D01*
X770053Y371349D01*
X770135Y371382D01*
X770794Y372042D01*
X770828Y372123D01*
X770898Y372177D01*
X771364Y372985D01*
X771376Y373072D01*
X771429Y373141D01*
X771671Y374042D01*
X771659Y374129D01*
X771693Y374210D01*
X771693Y374677D01*
X771693Y375143D01*
X771659Y375224D01*
X771671Y375311D01*
X771429Y376213D01*
X771376Y376282D01*
X771364Y376369D01*
X770898Y377178D01*
X770828Y377231D01*
X770795Y377312D01*
X770135Y377972D01*
X770054Y378005D01*
X770001Y378075D01*
X769193Y378542D01*
X769105Y378553D01*
X769036Y378606D01*
X768135Y378848D01*
X768048Y378836D01*
X767967Y378870D01*
X767034Y378870D01*
D02*
G37*
G36*
X712534D02*
X712453Y378837D01*
X712365Y378848D01*
X711464Y378607D01*
X711395Y378553D01*
X711308Y378542D01*
X710500Y378075D01*
X710446Y378006D01*
X710365Y377972D01*
X709705Y377312D01*
X709672Y377231D01*
X709602Y377178D01*
X709135Y376370D01*
X709124Y376283D01*
X709071Y376213D01*
X708829Y375312D01*
X708841Y375225D01*
X708807Y375144D01*
X708807Y374678D01*
X708807Y374211D01*
X708840Y374130D01*
X708829Y374043D01*
X709070Y373142D01*
X709124Y373072D01*
X709135Y372985D01*
X709602Y372177D01*
X709671Y372124D01*
X709705Y372042D01*
X710365Y371383D01*
X710446Y371349D01*
X710499Y371280D01*
X711307Y370813D01*
X711394Y370801D01*
X711464Y370748D01*
X712365Y370507D01*
X712452Y370518D01*
X712533Y370484D01*
X713466Y370484D01*
X713547Y370518D01*
X713634Y370506D01*
X714535Y370748D01*
X714605Y370801D01*
X714692Y370813D01*
X715500Y371279D01*
X715554Y371349D01*
X715635Y371382D01*
X716294Y372042D01*
X716328Y372123D01*
X716398Y372177D01*
X716864Y372985D01*
X716876Y373072D01*
X716929Y373141D01*
X717171Y374042D01*
X717159Y374129D01*
X717193Y374210D01*
X717193Y374677D01*
X717193Y375143D01*
X717159Y375224D01*
X717171Y375311D01*
X716929Y376213D01*
X716876Y376282D01*
X716864Y376369D01*
X716398Y377178D01*
X716328Y377231D01*
X716295Y377312D01*
X715635Y377972D01*
X715554Y378005D01*
X715500Y378075D01*
X714693Y378542D01*
X714606Y378553D01*
X714536Y378606D01*
X713635Y378848D01*
X713548Y378836D01*
X713467Y378870D01*
X712534Y378870D01*
D02*
G37*
G36*
X956361Y378819D02*
X956279Y378786D01*
X956192Y378797D01*
X955291Y378556D01*
X955222Y378502D01*
X955135Y378491D01*
X954327Y378024D01*
X954273Y377955D01*
X954192Y377921D01*
X953532Y377261D01*
X953499Y377180D01*
X953429Y377127D01*
X952962Y376319D01*
X952951Y376232D01*
X952898Y376162D01*
X952656Y375261D01*
X952668Y375174D01*
X952634Y375093D01*
X952634Y374626D01*
X952634Y374160D01*
X952667Y374079D01*
X952656Y373992D01*
X952897Y373091D01*
X952951Y373021D01*
X952962Y372934D01*
X953429Y372126D01*
X953498Y372073D01*
X953532Y371991D01*
X954192Y371332D01*
X954273Y371298D01*
X954326Y371229D01*
X955134Y370762D01*
X955221Y370750D01*
X955291Y370697D01*
X956192Y370456D01*
X956279Y370467D01*
X956360Y370433D01*
X957293Y370433D01*
X957374Y370467D01*
X957461Y370455D01*
X958362Y370697D01*
X958432Y370750D01*
X958519Y370762D01*
X959327Y371228D01*
X959381Y371298D01*
X959462Y371331D01*
X960121Y371991D01*
X960155Y372072D01*
X960225Y372126D01*
X960691Y372934D01*
X960703Y373021D01*
X960756Y373090D01*
X960998Y373991D01*
X960986Y374078D01*
X961020Y374160D01*
X961020Y374626D01*
X961020Y375093D01*
X960986Y375173D01*
X960998Y375261D01*
X960756Y376162D01*
X960703Y376231D01*
X960691Y376318D01*
X960225Y377127D01*
X960155Y377180D01*
X960122Y377261D01*
X959462Y377921D01*
X959381Y377954D01*
X959328Y378024D01*
X958519Y378491D01*
X958432Y378502D01*
X958363Y378555D01*
X957462Y378797D01*
X957375Y378785D01*
X957294Y378819D01*
X956361Y378819D01*
D02*
G37*
G36*
X901034D02*
X900953Y378786D01*
X900865Y378797D01*
X899964Y378556D01*
X899895Y378502D01*
X899808Y378491D01*
X899000Y378024D01*
X898946Y377955D01*
X898865Y377921D01*
X898205Y377261D01*
X898172Y377180D01*
X898102Y377127D01*
X897635Y376319D01*
X897624Y376232D01*
X897571Y376162D01*
X897329Y375261D01*
X897340Y375174D01*
X897307Y375093D01*
X897307Y374626D01*
X897307Y374160D01*
X897340Y374079D01*
X897329Y373992D01*
X897570Y373091D01*
X897624Y373021D01*
X897635Y372934D01*
X898102Y372126D01*
X898171Y372073D01*
X898205Y371991D01*
X898865Y371332D01*
X898946Y371298D01*
X898999Y371229D01*
X899807Y370762D01*
X899894Y370750D01*
X899964Y370697D01*
X900865Y370456D01*
X900952Y370467D01*
X901033Y370433D01*
X901966Y370433D01*
X902047Y370467D01*
X902134Y370455D01*
X903035Y370697D01*
X903105Y370750D01*
X903192Y370762D01*
X904000Y371228D01*
X904053Y371298D01*
X904135Y371331D01*
X904794Y371991D01*
X904828Y372072D01*
X904898Y372126D01*
X905364Y372934D01*
X905376Y373021D01*
X905429Y373090D01*
X905671Y373991D01*
X905659Y374078D01*
X905693Y374160D01*
X905693Y374626D01*
X905693Y375093D01*
X905659Y375173D01*
X905671Y375261D01*
X905429Y376162D01*
X905376Y376231D01*
X905364Y376318D01*
X904898Y377127D01*
X904828Y377180D01*
X904795Y377261D01*
X904135Y377921D01*
X904054Y377954D01*
X904000Y378024D01*
X903193Y378491D01*
X903106Y378502D01*
X903036Y378555D01*
X902135Y378797D01*
X902048Y378785D01*
X901967Y378819D01*
X901034Y378819D01*
D02*
G37*
G36*
X852406Y382389D02*
Y378780D01*
X854900D01*
Y379461D01*
X854798Y380236D01*
X854499Y380958D01*
X854023Y381578D01*
X853403Y382054D01*
X852680Y382353D01*
X852406Y382389D01*
D02*
G37*
G36*
X818350D02*
Y378780D01*
X820844D01*
Y379461D01*
X820743Y380236D01*
X820443Y380958D01*
X819968Y381578D01*
X819347Y382054D01*
X818625Y382353D01*
X818350Y382389D01*
D02*
G37*
G36*
X851406D02*
X851131Y382353D01*
X850408Y382054D01*
X849788Y381578D01*
X849313Y380958D01*
X849014Y380236D01*
X848911Y379461D01*
Y378780D01*
X851406D01*
Y382389D01*
D02*
G37*
G36*
X817350D02*
X817076Y382353D01*
X816353Y382054D01*
X815733Y381578D01*
X815257Y380958D01*
X814958Y380236D01*
X814856Y379461D01*
Y378780D01*
X817350D01*
Y382389D01*
D02*
G37*
G36*
X800000Y387416D02*
X799267Y387270D01*
X798645Y386855D01*
X798230Y386233D01*
X798084Y385500D01*
X798230Y384767D01*
X798373Y384552D01*
X798352Y384521D01*
X798282Y384170D01*
Y376580D01*
X791851Y370149D01*
X791652Y369851D01*
X791582Y369500D01*
Y363680D01*
X784351Y356449D01*
X784152Y356151D01*
X784082Y355800D01*
Y308468D01*
X780851Y305237D01*
X780652Y304939D01*
X780582Y304588D01*
Y257006D01*
X780500Y256934D01*
X779482Y256800D01*
X778533Y256407D01*
X777718Y255782D01*
X777093Y254967D01*
X776700Y254018D01*
X776566Y253000D01*
X776700Y251982D01*
X777093Y251033D01*
X777718Y250219D01*
X778533Y249593D01*
X779482Y249200D01*
X780500Y249066D01*
X781518Y249200D01*
X782467Y249593D01*
X783282Y250219D01*
X783907Y251033D01*
X784300Y251982D01*
X784434Y253000D01*
X784300Y254018D01*
X783907Y254967D01*
X783282Y255782D01*
X782467Y256407D01*
X782418Y256427D01*
Y258631D01*
X782880Y258823D01*
X786988Y254714D01*
X786700Y254018D01*
X786566Y253000D01*
X786700Y251982D01*
X787093Y251033D01*
X787718Y250219D01*
X788533Y249593D01*
X789482Y249200D01*
X790500Y249066D01*
X791518Y249200D01*
X792467Y249593D01*
X793282Y250219D01*
X793907Y251033D01*
X794300Y251982D01*
X794434Y253000D01*
X794328Y253806D01*
X794801Y254039D01*
X795651Y253189D01*
X795949Y252990D01*
X796300Y252921D01*
X796577D01*
X796700Y251982D01*
X797093Y251033D01*
X797718Y250219D01*
X798533Y249593D01*
X799482Y249200D01*
X800500Y249066D01*
X801518Y249200D01*
X802467Y249593D01*
X803281Y250219D01*
X803907Y251033D01*
X804300Y251982D01*
X804434Y253000D01*
X804428Y253045D01*
X804876Y253266D01*
X805651Y252491D01*
X805949Y252292D01*
X806300Y252222D01*
X806669D01*
X806700Y251982D01*
X807093Y251033D01*
X807718Y250219D01*
X808533Y249593D01*
X809482Y249200D01*
X810500Y249066D01*
X811518Y249200D01*
X812467Y249593D01*
X813269Y250209D01*
X813722Y250066D01*
X813739Y249616D01*
X813647Y249553D01*
X811724Y247631D01*
X768100D01*
X767476Y247507D01*
X766947Y247153D01*
X755324Y235531D01*
X691800D01*
X691176Y235407D01*
X690647Y235053D01*
X683947Y228354D01*
X683593Y227824D01*
X683469Y227200D01*
Y174000D01*
X683593Y173376D01*
X683947Y172846D01*
X709747Y147046D01*
X710276Y146693D01*
X710900Y146569D01*
X822428D01*
X823053Y146693D01*
X823582Y147046D01*
X824753Y148218D01*
X825107Y148747D01*
X825231Y149372D01*
Y164000D01*
X825107Y164624D01*
X824753Y165154D01*
X822554Y167353D01*
X822024Y167707D01*
X821400Y167831D01*
X818149D01*
Y170800D01*
X817959Y171259D01*
X817500Y171449D01*
X806800D01*
X806341Y171259D01*
X805993Y170911D01*
X805943Y170792D01*
X805852Y170700D01*
Y170571D01*
X805802Y170452D01*
X805706Y170282D01*
Y166431D01*
X804706D01*
Y169990D01*
X803616D01*
Y169873D01*
X803430Y169827D01*
X803251Y169996D01*
X803077Y170254D01*
X803207Y170909D01*
X803061Y171642D01*
X802767Y172082D01*
X803001Y172582D01*
X860255D01*
X860925Y171913D01*
Y170059D01*
X860374D01*
Y166500D01*
Y162941D01*
X861465D01*
Y163341D01*
X886515D01*
Y157385D01*
X886585Y157034D01*
X886784Y156736D01*
X897669Y145851D01*
X897966Y145652D01*
X898318Y145582D01*
X937682D01*
X938033Y145652D01*
X938331Y145851D01*
X944349Y151869D01*
X944548Y152166D01*
X944618Y152518D01*
Y200300D01*
X944548Y200651D01*
X944349Y200949D01*
X938149Y207149D01*
X937851Y207348D01*
X937500Y207418D01*
X844000D01*
X843649Y207348D01*
X843351Y207149D01*
X832547Y196345D01*
X832467Y196407D01*
X831518Y196800D01*
X830500Y196934D01*
X829482Y196800D01*
X828533Y196407D01*
X827719Y195782D01*
X827093Y194967D01*
X826700Y194018D01*
X826566Y193000D01*
X826700Y191982D01*
X827093Y191033D01*
X827719Y190218D01*
X828111Y189918D01*
X827941Y189418D01*
X825380D01*
X823845Y190953D01*
X823907Y191033D01*
X824300Y191982D01*
X824434Y193000D01*
X824300Y194018D01*
X823907Y194967D01*
X823281Y195782D01*
X822467Y196407D01*
X821518Y196800D01*
X820500Y196934D01*
X819482Y196800D01*
X818533Y196407D01*
X817719Y195782D01*
X817093Y194967D01*
X816700Y194018D01*
X816566Y193000D01*
X816700Y191982D01*
X817093Y191033D01*
X817719Y190218D01*
X818533Y189593D01*
X819482Y189200D01*
X820500Y189066D01*
X821518Y189200D01*
X822467Y189593D01*
X822547Y189655D01*
X823723Y188480D01*
X823531Y188018D01*
X816780D01*
X813845Y190953D01*
X813907Y191033D01*
X814300Y191982D01*
X814434Y193000D01*
X814300Y194018D01*
X813907Y194967D01*
X813282Y195782D01*
X812467Y196407D01*
X811518Y196800D01*
X810500Y196934D01*
X809482Y196800D01*
X808533Y196407D01*
X807718Y195782D01*
X807093Y194967D01*
X806700Y194018D01*
X806566Y193000D01*
X806700Y191982D01*
X807093Y191033D01*
X807718Y190218D01*
X808533Y189593D01*
X809482Y189200D01*
X810500Y189066D01*
X811518Y189200D01*
X812467Y189593D01*
X812547Y189655D01*
X814923Y187280D01*
X814731Y186818D01*
X807980D01*
X803845Y190953D01*
X803907Y191033D01*
X804300Y191982D01*
X804434Y193000D01*
X804300Y194018D01*
X803907Y194967D01*
X803281Y195782D01*
X802467Y196407D01*
X801518Y196800D01*
X800500Y196934D01*
X799482Y196800D01*
X798533Y196407D01*
X797718Y195782D01*
X797093Y194967D01*
X796700Y194018D01*
X796566Y193000D01*
X796700Y191982D01*
X797093Y191033D01*
X797718Y190218D01*
X798533Y189593D01*
X799482Y189200D01*
X800500Y189066D01*
X801518Y189200D01*
X802467Y189593D01*
X802547Y189655D01*
X806123Y186080D01*
X805931Y185618D01*
X799180D01*
X793845Y190953D01*
X793907Y191033D01*
X794300Y191982D01*
X794434Y193000D01*
X794300Y194018D01*
X793907Y194967D01*
X793282Y195782D01*
X792467Y196407D01*
X791518Y196800D01*
X790500Y196934D01*
X789482Y196800D01*
X788533Y196407D01*
X787718Y195782D01*
X787093Y194967D01*
X786700Y194018D01*
X786566Y193000D01*
X786700Y191982D01*
X787093Y191033D01*
X787718Y190218D01*
X788533Y189593D01*
X789482Y189200D01*
X790500Y189066D01*
X791518Y189200D01*
X792467Y189593D01*
X792547Y189655D01*
X797323Y184880D01*
X797131Y184418D01*
X790380D01*
X783845Y190953D01*
X783907Y191033D01*
X784300Y191982D01*
X784434Y193000D01*
X784300Y194018D01*
X783907Y194967D01*
X783282Y195782D01*
X782467Y196407D01*
X781518Y196800D01*
X780500Y196934D01*
X779482Y196800D01*
X778533Y196407D01*
X777718Y195782D01*
X777093Y194967D01*
X776700Y194018D01*
X776566Y193000D01*
X776700Y191982D01*
X776763Y191831D01*
X776339Y191547D01*
X775049Y192838D01*
X774751Y193037D01*
X774420Y193103D01*
X774300Y194018D01*
X773907Y194967D01*
X773281Y195782D01*
X772467Y196407D01*
X771518Y196800D01*
X770500Y196934D01*
X769482Y196800D01*
X768533Y196407D01*
X767719Y195782D01*
X767093Y194967D01*
X766700Y194018D01*
X766566Y193000D01*
X766700Y191982D01*
X767093Y191033D01*
X767719Y190218D01*
X768533Y189593D01*
X769482Y189200D01*
X770500Y189066D01*
X771518Y189200D01*
X772467Y189593D01*
X773281Y190218D01*
X773752Y190832D01*
X774302Y190924D01*
X774392Y190899D01*
X782812Y182480D01*
X782620Y182018D01*
X772780D01*
X763845Y190953D01*
X763907Y191033D01*
X764300Y191982D01*
X764434Y193000D01*
X764300Y194018D01*
X763907Y194967D01*
X763281Y195782D01*
X762467Y196407D01*
X761518Y196800D01*
X760500Y196934D01*
X759482Y196800D01*
X758533Y196407D01*
X757719Y195782D01*
X757093Y194967D01*
X756700Y194018D01*
X756566Y193000D01*
X756700Y191982D01*
X757093Y191033D01*
X757719Y190218D01*
X758533Y189593D01*
X759482Y189200D01*
X760500Y189066D01*
X761518Y189200D01*
X762467Y189593D01*
X762547Y189655D01*
X770923Y181280D01*
X770731Y180818D01*
X764480D01*
X754011Y191286D01*
X754300Y191982D01*
X754434Y193000D01*
X754300Y194018D01*
X753907Y194967D01*
X753281Y195782D01*
X752467Y196407D01*
X751518Y196800D01*
X750500Y196934D01*
X749482Y196800D01*
X748533Y196407D01*
X747718Y195782D01*
X747093Y194967D01*
X746700Y194018D01*
X746566Y193000D01*
X746700Y191982D01*
X747093Y191033D01*
X747718Y190218D01*
X748533Y189593D01*
X749482Y189200D01*
X750500Y189066D01*
X751518Y189200D01*
X752467Y189593D01*
X752830Y189872D01*
X762623Y180080D01*
X762431Y179618D01*
X755180D01*
X743845Y190953D01*
X743907Y191033D01*
X744300Y191982D01*
X744434Y193000D01*
X744300Y194018D01*
X743907Y194967D01*
X743282Y195782D01*
X742467Y196407D01*
X741518Y196800D01*
X740500Y196934D01*
X739482Y196800D01*
X738533Y196407D01*
X737718Y195782D01*
X737093Y194967D01*
X736700Y194018D01*
X736566Y193000D01*
X736700Y191982D01*
X737093Y191033D01*
X737718Y190218D01*
X738533Y189593D01*
X739482Y189200D01*
X740500Y189066D01*
X741518Y189200D01*
X742467Y189593D01*
X742547Y189655D01*
X753323Y178880D01*
X753131Y178418D01*
X746380D01*
X733845Y190953D01*
X733907Y191033D01*
X734300Y191982D01*
X734434Y193000D01*
X734300Y194018D01*
X733907Y194967D01*
X733282Y195782D01*
X732467Y196407D01*
X731518Y196800D01*
X730500Y196934D01*
X729482Y196800D01*
X728533Y196407D01*
X727718Y195782D01*
X727093Y194967D01*
X726700Y194018D01*
X726566Y193000D01*
X726700Y191982D01*
X727093Y191033D01*
X727718Y190218D01*
X728533Y189593D01*
X729482Y189200D01*
X730500Y189066D01*
X731518Y189200D01*
X732467Y189593D01*
X732547Y189655D01*
X744523Y177680D01*
X744331Y177218D01*
X737580D01*
X723845Y190953D01*
X723907Y191033D01*
X724300Y191982D01*
X724434Y193000D01*
X724300Y194018D01*
X723907Y194967D01*
X723281Y195782D01*
X722467Y196407D01*
X721518Y196800D01*
X720500Y196934D01*
X719482Y196800D01*
X718533Y196407D01*
X717719Y195782D01*
X717093Y194967D01*
X716700Y194018D01*
X716566Y193000D01*
X716700Y191982D01*
X717093Y191033D01*
X717719Y190218D01*
X718533Y189593D01*
X719482Y189200D01*
X720500Y189066D01*
X721518Y189200D01*
X722467Y189593D01*
X722547Y189655D01*
X735823Y176380D01*
X735631Y175918D01*
X728880D01*
X713845Y190953D01*
X713907Y191033D01*
X714300Y191982D01*
X714434Y193000D01*
X714300Y194018D01*
X713907Y194967D01*
X713281Y195782D01*
X712467Y196407D01*
X711518Y196800D01*
X710500Y196934D01*
X709482Y196800D01*
X708533Y196407D01*
X707719Y195782D01*
X707093Y194967D01*
X706700Y194018D01*
X706566Y193000D01*
X706700Y191982D01*
X707093Y191033D01*
X707719Y190218D01*
X708533Y189593D01*
X709482Y189200D01*
X710500Y189066D01*
X711518Y189200D01*
X712467Y189593D01*
X712547Y189655D01*
X727323Y174880D01*
X727131Y174418D01*
X720380D01*
X704400Y190398D01*
Y196900D01*
X696600D01*
Y189100D01*
X703102D01*
X719351Y172851D01*
X719649Y172652D01*
X720000Y172582D01*
X766695D01*
X766963Y172082D01*
X766729Y171733D01*
X766584Y171000D01*
X766729Y170267D01*
X766848Y170090D01*
X766580Y169590D01*
X750866D01*
Y163272D01*
X759455D01*
X759647Y162810D01*
X758662Y161825D01*
X758355Y161855D01*
X757733Y162270D01*
X757000Y162416D01*
X756267Y162270D01*
X755645Y161855D01*
X755230Y161233D01*
X755084Y160500D01*
X755230Y159767D01*
X755645Y159145D01*
X756267Y158730D01*
X757000Y158584D01*
X757733Y158730D01*
X758026Y158324D01*
X757524Y157822D01*
X757267Y157771D01*
X756645Y157355D01*
X756229Y156733D01*
X756084Y156000D01*
X756229Y155267D01*
X756645Y154645D01*
X757267Y154229D01*
X758000Y154084D01*
X758733Y154229D01*
X759355Y154645D01*
X759770Y155267D01*
X759916Y156000D01*
X759821Y156477D01*
X760292Y156673D01*
X760645Y156145D01*
X761267Y155729D01*
X762000Y155584D01*
X762733Y155729D01*
X763355Y156145D01*
X763770Y156767D01*
X763822Y157024D01*
X765149Y158351D01*
X765348Y158649D01*
X765418Y159000D01*
Y161397D01*
X766307Y162286D01*
X766506Y162584D01*
X766576Y162935D01*
Y163272D01*
X768183D01*
Y162872D01*
X769273D01*
Y166431D01*
X770273D01*
Y162872D01*
X770937D01*
Y160234D01*
X770024Y159322D01*
X769767Y159271D01*
X769145Y158855D01*
X768729Y158233D01*
X768584Y157500D01*
X768729Y156767D01*
X769145Y156145D01*
X769767Y155729D01*
X770149Y155654D01*
X770313Y155111D01*
X769851Y154649D01*
X769686Y154402D01*
X769425Y154350D01*
X768804Y153935D01*
X768388Y153313D01*
X768242Y152579D01*
X768388Y151846D01*
X768804Y151225D01*
X769425Y150809D01*
X770159Y150663D01*
X770892Y150809D01*
X771514Y151225D01*
X771929Y151846D01*
X772075Y152579D01*
X771929Y153313D01*
X771601Y153804D01*
X772324Y154526D01*
X772729Y154233D01*
X772584Y153500D01*
X772729Y152767D01*
X773145Y152145D01*
X773767Y151730D01*
X774500Y151584D01*
X775233Y151730D01*
X775855Y152145D01*
X776270Y152767D01*
X776416Y153500D01*
X776270Y154233D01*
X775855Y154855D01*
X775622Y155011D01*
X775578Y155587D01*
X775672Y155680D01*
X775770Y155827D01*
X775838Y155872D01*
X776256Y155975D01*
X776380Y155974D01*
X776808Y155688D01*
X777541Y155543D01*
X778274Y155688D01*
X778896Y156104D01*
X779312Y156726D01*
X779458Y157459D01*
X779312Y158192D01*
X778896Y158814D01*
X778274Y159229D01*
X777738Y159336D01*
Y161523D01*
X778409Y162193D01*
X778608Y162491D01*
X778677Y162842D01*
Y162872D01*
X779116D01*
Y166431D01*
Y169990D01*
X778025D01*
Y169590D01*
X771364D01*
Y169990D01*
X770641D01*
X770315Y170490D01*
X770416Y171000D01*
X770270Y171733D01*
X770037Y172082D01*
X770304Y172582D01*
X799581D01*
X799814Y172082D01*
X799520Y171642D01*
X799374Y170909D01*
X799458Y170490D01*
X799089Y169990D01*
X797710D01*
Y169590D01*
X794986D01*
Y169990D01*
X793895D01*
Y166431D01*
Y162872D01*
X794559D01*
Y161524D01*
X794629Y161172D01*
X794828Y160875D01*
X796082Y159620D01*
Y158962D01*
X794947Y157827D01*
X794500Y157916D01*
X793767Y157771D01*
X793145Y157355D01*
X792730Y156733D01*
X792584Y156000D01*
X792730Y155267D01*
X793145Y154645D01*
X793767Y154229D01*
X794500Y154084D01*
X795233Y154229D01*
X795855Y154645D01*
X796271Y155267D01*
X796416Y156000D01*
X796300Y156585D01*
X796731Y157015D01*
X797209Y156870D01*
X797229Y156767D01*
X797645Y156145D01*
X798267Y155729D01*
X799000Y155584D01*
X799733Y155729D01*
X800355Y156145D01*
X800770Y156767D01*
X800916Y157500D01*
X800770Y158233D01*
X800355Y158855D01*
X799918Y159147D01*
Y160500D01*
X799848Y160851D01*
X799649Y161149D01*
X798426Y162372D01*
X798516Y162872D01*
X798801D01*
Y166431D01*
X799801D01*
Y162872D01*
X800891D01*
Y163272D01*
X802331D01*
Y157712D01*
X802245Y157655D01*
X801830Y157033D01*
X801684Y156300D01*
X801830Y155567D01*
X802245Y154945D01*
X802867Y154530D01*
X803600Y154384D01*
X804333Y154530D01*
X804955Y154945D01*
X805371Y155567D01*
X805516Y156300D01*
X805371Y157033D01*
X804955Y157655D01*
X804370Y158046D01*
Y162872D01*
X805587D01*
Y161944D01*
X805777Y161485D01*
X806236Y161294D01*
X811096D01*
Y157100D01*
X815639D01*
X820183D01*
Y161931D01*
X818202D01*
X817997Y162431D01*
X818149Y162800D01*
Y164569D01*
X820724D01*
X821969Y163324D01*
Y150047D01*
X821753Y149831D01*
X791181D01*
X790913Y150331D01*
X791071Y150567D01*
X791216Y151300D01*
X791071Y152033D01*
X790655Y152655D01*
X790513Y152750D01*
X790619Y153281D01*
X790933Y153343D01*
X791555Y153759D01*
X791970Y154381D01*
X792116Y155114D01*
X791970Y155847D01*
X791555Y156469D01*
X790933Y156884D01*
X790200Y157030D01*
X789726Y156936D01*
X789316Y157293D01*
Y160103D01*
X789777Y160564D01*
X789954Y160829D01*
X790016Y161141D01*
X790016Y161141D01*
Y162872D01*
X790927D01*
Y166431D01*
Y169990D01*
X789836D01*
Y169590D01*
X787112D01*
Y169990D01*
X786021D01*
Y166431D01*
Y162872D01*
X787112D01*
X787177Y162399D01*
Y161686D01*
X786923Y161432D01*
X786746Y161167D01*
X786684Y160855D01*
X786684Y160855D01*
Y157349D01*
X786256Y156979D01*
X786000Y157030D01*
X785267Y156884D01*
X784645Y156469D01*
X784230Y155847D01*
X784139Y155394D01*
X783597Y155229D01*
X782590Y156236D01*
Y162872D01*
X783053D01*
Y166431D01*
Y169990D01*
X781962D01*
Y169590D01*
X781206D01*
Y169990D01*
X780116D01*
Y166431D01*
Y162872D01*
X780857D01*
Y155877D01*
X780923Y155545D01*
X781111Y155264D01*
X785287Y151087D01*
X785568Y150899D01*
X785900Y150833D01*
X787476D01*
X787530Y150567D01*
X787687Y150331D01*
X787420Y149831D01*
X711576D01*
X686731Y174676D01*
Y226524D01*
X692476Y232269D01*
X756000D01*
X756624Y232393D01*
X757154Y232747D01*
X768776Y244369D01*
X812400D01*
X813024Y244493D01*
X813554Y244847D01*
X815954Y247247D01*
X816307Y247776D01*
X816353Y248006D01*
X816519Y248254D01*
X816627Y248800D01*
X816627Y248800D01*
Y250851D01*
X816978Y250988D01*
X817127Y250989D01*
X817719Y250219D01*
X818533Y249593D01*
X819482Y249200D01*
X820500Y249066D01*
X821518Y249200D01*
X822467Y249593D01*
X823281Y250219D01*
X823907Y251033D01*
X824300Y251982D01*
X824434Y253000D01*
X824300Y254018D01*
X823907Y254967D01*
X823281Y255782D01*
X822467Y256407D01*
X821518Y256800D01*
X820500Y256934D01*
X819482Y256800D01*
X818533Y256407D01*
X817719Y255782D01*
X817127Y255011D01*
X816978Y255012D01*
X816627Y255149D01*
Y256956D01*
X816707Y257076D01*
X816831Y257700D01*
X816707Y258324D01*
X816354Y258854D01*
X804753Y270454D01*
X804224Y270807D01*
X803600Y270931D01*
X801847D01*
X795658Y277120D01*
X795850Y277582D01*
X799433D01*
X799784Y277652D01*
X800082Y277851D01*
X801513Y279282D01*
X806336D01*
Y282622D01*
X806736D01*
Y284500D01*
X803276D01*
X799815D01*
Y282622D01*
X800215D01*
Y280580D01*
X799053Y279418D01*
X793361D01*
X793125Y279654D01*
X791131Y281647D01*
Y293224D01*
X793267Y295359D01*
X800215Y288411D01*
Y287378D01*
X799815D01*
Y285500D01*
X803276D01*
X806736D01*
Y287378D01*
X806336D01*
Y290718D01*
X802522D01*
X794852Y298388D01*
Y335045D01*
X804043Y344236D01*
X815953D01*
X827878Y332311D01*
X827686Y331849D01*
X822900D01*
X822485Y331677D01*
X821985Y331856D01*
Y332043D01*
X820000D01*
X818016D01*
Y330756D01*
X818097D01*
X818416Y330387D01*
X818416Y330256D01*
Y327613D01*
X821584D01*
Y327624D01*
X822251D01*
Y323030D01*
X821584D01*
Y323041D01*
X818416D01*
Y323030D01*
X816486D01*
X816373Y323142D01*
Y323590D01*
X816281Y324055D01*
X816128Y324284D01*
X816255Y324770D01*
X816309Y324844D01*
X816429Y324873D01*
X816951Y324351D01*
X817249Y324152D01*
X817600Y324082D01*
X818416D01*
Y323613D01*
X821584D01*
Y326387D01*
X818416D01*
Y326073D01*
X817916Y325982D01*
X817249Y326649D01*
X816951Y326848D01*
X816600Y326918D01*
X811780D01*
X807568Y331129D01*
X807271Y331328D01*
X806920Y331398D01*
X804908D01*
X804881Y331536D01*
X804618Y331929D01*
X804224Y332192D01*
X803759Y332285D01*
X803770Y332780D01*
X808300D01*
X808690Y332858D01*
X809021Y333079D01*
X810375Y334433D01*
X810596Y334763D01*
X810673Y335154D01*
Y335416D01*
X811041D01*
Y338584D01*
X808266D01*
Y335416D01*
X808266Y335416D01*
X808266D01*
X808059Y335001D01*
X807878Y334820D01*
X803907D01*
X803813Y334916D01*
X803858Y335121D01*
X804132Y335416D01*
X806387D01*
Y338584D01*
X805918D01*
Y339268D01*
X805932Y339282D01*
X812082D01*
Y338584D01*
X811613D01*
Y335416D01*
X813082D01*
Y332285D01*
X812840D01*
X812376Y332192D01*
X811982Y331929D01*
X811719Y331536D01*
X811627Y331071D01*
Y329890D01*
X811719Y329425D01*
X811982Y329031D01*
X812376Y328768D01*
X812840Y328676D01*
X815160D01*
X815624Y328768D01*
X816018Y329031D01*
X816281Y329425D01*
X816373Y329890D01*
Y331071D01*
X816281Y331536D01*
X816018Y331929D01*
X815624Y332192D01*
X815160Y332285D01*
X814918D01*
Y335803D01*
X815362Y336131D01*
X815469Y336152D01*
X815767Y336351D01*
X816054Y336638D01*
X816067Y336630D01*
X816800Y336484D01*
X817533Y336630D01*
X818155Y337045D01*
X818571Y337667D01*
X818716Y338400D01*
X818571Y339133D01*
X818155Y339755D01*
X817533Y340171D01*
X816800Y340316D01*
X816067Y340171D01*
X815445Y339755D01*
X815030Y339133D01*
X814962Y338795D01*
X814588Y338575D01*
X814387Y338584D01*
Y338584D01*
X813918D01*
Y339700D01*
X813848Y340051D01*
X813649Y340349D01*
X813149Y340849D01*
X812851Y341048D01*
X812500Y341118D01*
X805552D01*
X805200Y341048D01*
X804903Y340849D01*
X804351Y340297D01*
X804152Y340000D01*
X804082Y339649D01*
Y338938D01*
X804029Y338885D01*
X803527Y338842D01*
X803441Y338984D01*
X803371Y338984D01*
X803371Y338984D01*
X802154D01*
Y337000D01*
X801654D01*
Y336500D01*
X799866D01*
Y335016D01*
X799447Y334820D01*
X799169D01*
X798778Y334742D01*
X798448Y334521D01*
X797979Y334052D01*
X797758Y333721D01*
X797680Y333331D01*
Y308900D01*
X797758Y308510D01*
X797979Y308179D01*
X798879Y307279D01*
X799210Y307058D01*
X799600Y306980D01*
X804200D01*
X804590Y307058D01*
X804921Y307279D01*
X805095Y307453D01*
X805179Y307418D01*
X805291Y307320D01*
X805502Y307248D01*
X805512Y307242D01*
X805778Y306701D01*
X805777Y306667D01*
X805614Y306273D01*
X805512Y305500D01*
X805614Y304727D01*
X805777Y304333D01*
X805778Y304299D01*
X805512Y303758D01*
X805502Y303752D01*
X805291Y303680D01*
X805179Y303582D01*
X805041Y303524D01*
X804999Y303424D01*
X804918Y303353D01*
X804908Y303203D01*
X804851Y303065D01*
Y301300D01*
X805041Y300841D01*
X805500Y300651D01*
X818700D01*
X819159Y300841D01*
X828359Y310041D01*
X828549Y310500D01*
X828549Y318700D01*
X828359Y319159D01*
X828139Y319251D01*
X828238Y319751D01*
X839431D01*
X841951Y317231D01*
Y315800D01*
X842141Y315341D01*
X842600Y315151D01*
X849300D01*
X849759Y315341D01*
X851575Y317157D01*
X851765Y317616D01*
Y320516D01*
X852772D01*
Y322500D01*
X853272D01*
D01*
X852772D01*
Y324484D01*
X851766D01*
X851765Y324485D01*
Y325516D01*
X852772D01*
Y327500D01*
Y329484D01*
X851766D01*
X851765Y329485D01*
Y330516D01*
X852772D01*
Y332500D01*
X853272D01*
Y333000D01*
X855059D01*
Y333835D01*
X857469D01*
X857485Y333818D01*
X857584Y333705D01*
X857641Y333567D01*
X857741Y333526D01*
X857813Y333444D01*
X857957Y333373D01*
X858108Y332748D01*
X857913Y332494D01*
X857614Y331773D01*
X857512Y331000D01*
X857614Y330227D01*
X857913Y329506D01*
X858108Y329252D01*
X857957Y328627D01*
X857813Y328556D01*
X857741Y328474D01*
X857641Y328433D01*
X857584Y328294D01*
X857485Y328182D01*
X857492Y328074D01*
X857451Y327973D01*
Y325900D01*
X857641Y325441D01*
X858100Y325251D01*
X868100D01*
X868559Y325441D01*
X870759Y327641D01*
X870949Y328100D01*
Y339611D01*
X870936Y339643D01*
X870946Y339675D01*
X870843Y339868D01*
X870759Y340071D01*
X870728Y340084D01*
X870712Y340113D01*
X870325Y340431D01*
X870293Y340441D01*
X870274Y340469D01*
X870059Y340511D01*
X869850Y340575D01*
X869820Y340559D01*
X869787Y340566D01*
X869637Y340536D01*
X869158Y340631D01*
X868751Y340903D01*
X868479Y341310D01*
X868358Y341917D01*
X868300Y342004D01*
X868266Y342174D01*
X868238Y342193D01*
X868228Y342226D01*
X867911Y342612D01*
X867881Y342628D01*
X867868Y342659D01*
X867665Y342743D01*
X867472Y342846D01*
X867440Y342836D01*
X867409Y342849D01*
X863250D01*
X862791Y342659D01*
X862601Y342200D01*
Y342100D01*
X858399D01*
Y342200D01*
X858209Y342659D01*
X857750Y342849D01*
X848300D01*
X848280Y342841D01*
X848259Y342848D01*
X848053Y342747D01*
X847841Y342659D01*
X847832Y342639D01*
X847812Y342629D01*
X847452Y342219D01*
X846984Y342396D01*
Y342500D01*
X845500D01*
Y341213D01*
X845959D01*
X846165Y340757D01*
X845613Y340129D01*
X845562Y339980D01*
X843210Y337629D01*
X843020Y337170D01*
Y334485D01*
X842382D01*
Y332500D01*
Y330516D01*
X843020D01*
X843020Y330516D01*
Y329485D01*
X842382D01*
Y327500D01*
X841882D01*
Y327000D01*
X840095D01*
Y325516D01*
X841615D01*
X841883Y325016D01*
X841838Y324949D01*
X835969D01*
X834549Y326369D01*
Y331200D01*
X834359Y331659D01*
X833900Y331849D01*
X832954D01*
X817782Y347021D01*
X817253Y347375D01*
X816628Y347499D01*
X803368D01*
X802744Y347375D01*
X802214Y347021D01*
X792067Y336875D01*
X791714Y336345D01*
X791590Y335721D01*
Y298297D01*
X788346Y295054D01*
X787993Y294524D01*
X787869Y293900D01*
Y280972D01*
X787993Y280347D01*
X788346Y279818D01*
X790818Y277346D01*
X800018Y268146D01*
X800547Y267793D01*
X801172Y267669D01*
X802924D01*
X813773Y256820D01*
Y255919D01*
X813461Y255813D01*
X813273Y255788D01*
X812467Y256407D01*
X811518Y256800D01*
X810500Y256934D01*
X809482Y256800D01*
X808533Y256407D01*
X807718Y255782D01*
X807093Y254967D01*
X806913Y254532D01*
X806323Y254414D01*
X798515Y262223D01*
X798217Y262422D01*
X797866Y262492D01*
X793606D01*
X786718Y269380D01*
Y303417D01*
X789349Y306048D01*
X789548Y306346D01*
X789618Y306697D01*
Y354020D01*
X796749Y361151D01*
X796948Y361449D01*
X797018Y361800D01*
Y366020D01*
X803763Y372766D01*
X804267Y372429D01*
X805000Y372284D01*
X805733Y372429D01*
X806355Y372845D01*
X806771Y373467D01*
X806916Y374200D01*
X806771Y374933D01*
X806732Y374991D01*
X806873Y375476D01*
X806946Y375570D01*
X807187Y375731D01*
X807549Y376093D01*
X808100Y375984D01*
X808833Y376130D01*
X809455Y376545D01*
X809871Y377167D01*
X810016Y377900D01*
X809871Y378633D01*
X809455Y379255D01*
X808833Y379671D01*
X808100Y379816D01*
X807367Y379671D01*
X806745Y379255D01*
X806330Y378633D01*
X806184Y377900D01*
X806208Y377776D01*
X805805Y377297D01*
X804097D01*
X803746Y377227D01*
X803528Y377081D01*
X803271Y377186D01*
X803074Y377361D01*
X803097Y377480D01*
Y379553D01*
X803535Y379845D01*
X803950Y380467D01*
X804096Y381200D01*
X803950Y381933D01*
X803535Y382555D01*
X802913Y382970D01*
X802180Y383116D01*
X801446Y382970D01*
X800825Y382555D01*
X800618Y382245D01*
X800118Y382397D01*
Y383607D01*
X800733Y383730D01*
X801355Y384145D01*
X801770Y384767D01*
X801916Y385500D01*
X801770Y386233D01*
X801355Y386855D01*
X800733Y387270D01*
X800000Y387416D01*
D02*
G37*
G36*
X705136Y382955D02*
X692518D01*
Y375849D01*
X705136D01*
Y382955D01*
D02*
G37*
G36*
X760036Y378902D02*
X753827D01*
Y375449D01*
X760036D01*
Y378902D01*
D02*
G37*
G36*
X752827D02*
X746618D01*
Y375449D01*
X752827D01*
Y378902D01*
D02*
G37*
G36*
X854900Y377780D02*
X852406D01*
Y374170D01*
X852680Y374206D01*
X853403Y374505D01*
X854023Y374981D01*
X854499Y375601D01*
X854798Y376324D01*
X854900Y377098D01*
Y377780D01*
D02*
G37*
G36*
X820844D02*
X818350D01*
Y374170D01*
X818625Y374206D01*
X819347Y374505D01*
X819968Y374981D01*
X820443Y375601D01*
X820743Y376324D01*
X820844Y377098D01*
Y377780D01*
D02*
G37*
G36*
X851406D02*
X848911D01*
Y377098D01*
X849014Y376324D01*
X849313Y375601D01*
X849788Y374981D01*
X850408Y374505D01*
X851131Y374206D01*
X851406Y374170D01*
Y377780D01*
D02*
G37*
G36*
X817350D02*
X814856D01*
Y377098D01*
X814958Y376324D01*
X815257Y375601D01*
X815733Y374981D01*
X816353Y374505D01*
X817076Y374206D01*
X817350Y374170D01*
Y377780D01*
D02*
G37*
G36*
X861000Y370825D02*
Y368000D01*
X863825D01*
X863776Y368378D01*
X863437Y369196D01*
X862898Y369898D01*
X862196Y370437D01*
X861378Y370776D01*
X861000Y370825D01*
D02*
G37*
G36*
X860000D02*
X859622Y370776D01*
X858804Y370437D01*
X858102Y369898D01*
X857563Y369196D01*
X857224Y368378D01*
X857175Y368000D01*
X860000D01*
Y370825D01*
D02*
G37*
G36*
X996171Y387437D02*
X994507Y387306D01*
X992885Y386917D01*
X991343Y386278D01*
X989921Y385407D01*
X988652Y384323D01*
X987569Y383054D01*
X986697Y381632D01*
X986058Y380090D01*
X985669Y378468D01*
X985538Y376804D01*
X985669Y375141D01*
X986058Y373519D01*
X986697Y371977D01*
X987569Y370555D01*
X988652Y369286D01*
X989921Y368202D01*
X991343Y367331D01*
X992885Y366692D01*
X994507Y366303D01*
X996171Y366172D01*
X997834Y366303D01*
X999456Y366692D01*
X1000998Y367331D01*
X1002421Y368202D01*
X1003689Y369286D01*
X1004773Y370555D01*
X1005645Y371977D01*
X1006283Y373519D01*
X1006672Y375141D01*
X1006803Y376804D01*
X1006672Y378468D01*
X1006283Y380090D01*
X1005645Y381632D01*
X1004773Y383054D01*
X1003689Y384323D01*
X1002421Y385407D01*
X1000998Y386278D01*
X999456Y386917D01*
X997834Y387306D01*
X996171Y387437D01*
D02*
G37*
G36*
X673336D02*
X671673Y387306D01*
X670050Y386917D01*
X668509Y386278D01*
X667086Y385407D01*
X665817Y384323D01*
X664734Y383054D01*
X663862Y381632D01*
X663224Y380090D01*
X662834Y378468D01*
X662703Y376804D01*
X662834Y375141D01*
X663224Y373519D01*
X663862Y371977D01*
X664734Y370555D01*
X665817Y369286D01*
X667086Y368202D01*
X668509Y367331D01*
X670050Y366692D01*
X671673Y366303D01*
X673336Y366172D01*
X674999Y366303D01*
X676622Y366692D01*
X678163Y367331D01*
X679586Y368202D01*
X680855Y369286D01*
X681938Y370555D01*
X682810Y371977D01*
X683448Y373519D01*
X683838Y375141D01*
X683969Y376804D01*
X683838Y378468D01*
X683448Y380090D01*
X682810Y381632D01*
X681938Y383054D01*
X680855Y384323D01*
X679586Y385407D01*
X678163Y386278D01*
X676622Y386917D01*
X674999Y387306D01*
X673336Y387437D01*
D02*
G37*
G36*
X863825Y367000D02*
X861000D01*
Y364175D01*
X861378Y364224D01*
X862196Y364563D01*
X862898Y365102D01*
X863437Y365804D01*
X863776Y366622D01*
X863825Y367000D01*
D02*
G37*
G36*
X860000D02*
X857175D01*
X857224Y366622D01*
X857563Y365804D01*
X858102Y365102D01*
X858804Y364563D01*
X859622Y364224D01*
X860000Y364175D01*
Y367000D01*
D02*
G37*
G36*
X852406Y367625D02*
Y363032D01*
X854900D01*
Y364697D01*
X854798Y365472D01*
X854499Y366194D01*
X854023Y366814D01*
X853403Y367290D01*
X852680Y367589D01*
X852406Y367625D01*
D02*
G37*
G36*
X817350D02*
X817076Y367589D01*
X816353Y367290D01*
X815733Y366814D01*
X815257Y366194D01*
X814958Y365472D01*
X814856Y364697D01*
Y363032D01*
X817350D01*
Y367625D01*
D02*
G37*
G36*
X851406D02*
X851131Y367589D01*
X850408Y367290D01*
X849788Y366814D01*
X849313Y366194D01*
X849014Y365472D01*
X848911Y364697D01*
Y362816D01*
X848567Y362533D01*
Y358437D01*
X847567D01*
Y362374D01*
X847476Y362356D01*
X847364Y362379D01*
X847242Y362898D01*
X847611Y363145D01*
X848026Y363767D01*
X848172Y364500D01*
X848026Y365233D01*
X847611Y365855D01*
X846989Y366270D01*
X846256Y366416D01*
X845523Y366270D01*
X844901Y365855D01*
X844485Y365233D01*
X844389Y364749D01*
X825400D01*
X825363Y364769D01*
X825270Y365233D01*
X824855Y365855D01*
X824233Y366270D01*
X823500Y366416D01*
X822767Y366270D01*
X822145Y365855D01*
X821729Y365233D01*
X821584Y364500D01*
X821729Y363767D01*
X822145Y363145D01*
X822514Y362898D01*
X822392Y362379D01*
X822279Y362356D01*
X822189Y362374D01*
Y358437D01*
Y354500D01*
X822279Y354518D01*
X822370Y354500D01*
Y358437D01*
X823370D01*
Y354500D01*
X823671Y354559D01*
X824099Y354846D01*
X824154Y354928D01*
X824194Y354936D01*
X824543Y354867D01*
X825134D01*
X825429Y354925D01*
X825724Y354867D01*
X826315D01*
X826622Y354928D01*
X826690Y354920D01*
X827122Y354640D01*
Y352397D01*
X826387Y351663D01*
X826199Y351381D01*
X826133Y351050D01*
Y347887D01*
X825416D01*
X825416Y345182D01*
X825016Y344941D01*
X825016Y344871D01*
X825016Y344871D01*
Y343654D01*
X827000D01*
X828984D01*
Y344871D01*
X828984Y344871D01*
Y344941D01*
X828584Y345182D01*
X828584Y345441D01*
Y347887D01*
X827867D01*
Y350691D01*
X828601Y351425D01*
X828789Y351706D01*
X828855Y352038D01*
Y354640D01*
X829286Y354920D01*
X829355Y354928D01*
X829661Y354867D01*
X830252D01*
X830601Y354936D01*
X830941Y355112D01*
X831281Y354936D01*
X831630Y354867D01*
X831809D01*
X832568Y354107D01*
X832568Y354107D01*
X832833Y353931D01*
X833145Y353869D01*
X833145Y353869D01*
X834643D01*
X834643Y353869D01*
X834955Y353931D01*
X835094Y354024D01*
X835198Y354035D01*
X835499Y353985D01*
X835679Y353860D01*
Y347734D01*
X833616D01*
Y344959D01*
X836627D01*
X836784Y344959D01*
Y344959D01*
X837116Y344986D01*
Y344986D01*
X840284D01*
Y347761D01*
X838310D01*
Y354448D01*
X838433Y354526D01*
X838933Y354251D01*
Y353001D01*
X838999Y352669D01*
X839186Y352388D01*
X843360Y348214D01*
X843416Y347734D01*
X843416D01*
X843416Y347734D01*
X843416Y345029D01*
X843016Y344787D01*
X843016Y344718D01*
X843016Y344718D01*
Y343500D01*
X845000D01*
X846984D01*
Y344718D01*
X846984Y344718D01*
Y344787D01*
X846584Y345029D01*
X846584Y345287D01*
Y347734D01*
X845867D01*
Y347800D01*
X845801Y348132D01*
X845613Y348413D01*
X845175Y348851D01*
X845382Y349351D01*
X847051D01*
Y348300D01*
X847241Y347841D01*
X850141Y344941D01*
X850600Y344751D01*
X851074D01*
X851133Y344775D01*
X851196Y344762D01*
X851356Y344867D01*
X851534Y344941D01*
X851558Y345000D01*
X851612Y345035D01*
X851666Y345115D01*
X851666Y345116D01*
X851667Y345116D01*
X851717Y345361D01*
X851767Y345602D01*
X851766Y345603D01*
X851766Y345603D01*
X851732Y345779D01*
X852167Y346165D01*
X852992D01*
X853418Y346250D01*
X853780Y346491D01*
X854021Y346853D01*
X854106Y347279D01*
Y348657D01*
X854021Y349083D01*
X854242Y349652D01*
X854406Y349740D01*
X854469Y349816D01*
X854559Y349853D01*
X854620Y350001D01*
X854722Y350124D01*
X854712Y350222D01*
X854749Y350312D01*
Y351700D01*
X854559Y352159D01*
X852259Y354459D01*
X851800Y354649D01*
X849766D01*
X849499Y355149D01*
X849582Y355274D01*
X849683Y355780D01*
Y357700D01*
X850183Y357946D01*
X850408Y357773D01*
X851131Y357474D01*
X851406Y357438D01*
Y362532D01*
Y367625D01*
D02*
G37*
G36*
X862484Y358787D02*
X861000D01*
Y357500D01*
X862484D01*
Y358787D01*
D02*
G37*
G36*
X860000D02*
X858516D01*
Y357500D01*
X860000D01*
Y358787D01*
D02*
G37*
G36*
X854900Y362032D02*
X852406D01*
Y357438D01*
X852680Y357474D01*
X853403Y357773D01*
X854023Y358249D01*
X854499Y358869D01*
X854798Y359591D01*
X854900Y360366D01*
Y362032D01*
D02*
G37*
G36*
X817350D02*
X814856D01*
Y360366D01*
X814958Y359591D01*
X815257Y358869D01*
X815733Y358249D01*
X816353Y357773D01*
X817076Y357474D01*
X817350Y357438D01*
Y362032D01*
D02*
G37*
G36*
X666254Y364131D02*
X661904D01*
Y357420D01*
X666254D01*
Y364131D01*
D02*
G37*
G36*
X818350Y367625D02*
Y362532D01*
Y357438D01*
X818625Y357474D01*
X819347Y357773D01*
X819573Y357946D01*
X820073Y357700D01*
Y355780D01*
X820174Y355274D01*
X820460Y354846D01*
X820888Y354559D01*
X821189Y354500D01*
Y358437D01*
Y362533D01*
X820844Y362816D01*
Y364697D01*
X820743Y365472D01*
X820443Y366194D01*
X819968Y366814D01*
X819347Y367290D01*
X818625Y367589D01*
X818350Y367625D01*
D02*
G37*
G36*
X676096Y364131D02*
X671746D01*
Y357420D01*
X673003D01*
X673305Y357045D01*
X673306Y356920D01*
Y353483D01*
X680411D01*
Y354492D01*
X681771D01*
X682098Y354003D01*
X682719Y353588D01*
X683453Y353442D01*
X684186Y353588D01*
X684808Y354003D01*
X685223Y354625D01*
X685369Y355358D01*
X685223Y356092D01*
X684808Y356713D01*
X684186Y357129D01*
X683453Y357275D01*
X682719Y357129D01*
X682098Y356713D01*
X681771Y356225D01*
X680411D01*
Y357045D01*
X676398D01*
X676096Y357420D01*
X676096Y357545D01*
Y364131D01*
D02*
G37*
G36*
X991600Y358824D02*
X985400D01*
Y354124D01*
X989861D01*
X989950Y354107D01*
X991162D01*
X991230Y353767D01*
X991645Y353145D01*
X992267Y352730D01*
X993000Y352584D01*
X993733Y352730D01*
X994355Y353145D01*
X994771Y353767D01*
X994916Y354500D01*
X994771Y355233D01*
X994355Y355855D01*
X993733Y356271D01*
X993000Y356416D01*
X992267Y356271D01*
X992100Y356159D01*
X991600Y356426D01*
Y358824D01*
D02*
G37*
G36*
X767034Y351311D02*
X766953Y351278D01*
X766865Y351289D01*
X765964Y351048D01*
X765895Y350994D01*
X765808Y350983D01*
X765000Y350516D01*
X764946Y350447D01*
X764865Y350413D01*
X764205Y349753D01*
X764172Y349672D01*
X764102Y349619D01*
X763635Y348811D01*
X763624Y348724D01*
X763571Y348654D01*
X763329Y347753D01*
X763341Y347666D01*
X763307Y347585D01*
X763307Y347119D01*
X763307Y346652D01*
X763340Y346571D01*
X763329Y346484D01*
X763570Y345583D01*
X763624Y345513D01*
X763635Y345426D01*
X764102Y344618D01*
X764171Y344565D01*
X764205Y344483D01*
X764812Y343877D01*
X764775Y343629D01*
X764659Y343376D01*
X759636D01*
Y346537D01*
X747018D01*
Y337463D01*
X759636D01*
Y340623D01*
X766430D01*
X770623Y336430D01*
Y331183D01*
X766703D01*
Y318172D01*
X770123D01*
Y311584D01*
X770113D01*
Y308416D01*
X772887D01*
Y311584D01*
X772877D01*
Y318172D01*
X775777D01*
Y331183D01*
X773377D01*
Y337000D01*
X773377Y337000D01*
X773272Y337527D01*
X772973Y337973D01*
X768436Y342511D01*
X768585Y343068D01*
X769035Y343189D01*
X769105Y343242D01*
X769192Y343254D01*
X770000Y343720D01*
X770053Y343790D01*
X770135Y343823D01*
X770794Y344483D01*
X770828Y344564D01*
X770898Y344618D01*
X771364Y345426D01*
X771376Y345513D01*
X771429Y345582D01*
X771671Y346483D01*
X771659Y346570D01*
X771693Y346652D01*
X771693Y347118D01*
X771693Y347585D01*
X771659Y347666D01*
X771671Y347753D01*
X771429Y348654D01*
X771376Y348723D01*
X771364Y348810D01*
X770898Y349619D01*
X770828Y349672D01*
X770795Y349753D01*
X770135Y350413D01*
X770054Y350446D01*
X770001Y350516D01*
X769193Y350983D01*
X769105Y350994D01*
X769036Y351047D01*
X768135Y351289D01*
X768048Y351277D01*
X767967Y351311D01*
X767034Y351311D01*
D02*
G37*
G36*
X712534D02*
X712453Y351278D01*
X712365Y351289D01*
X711464Y351048D01*
X711395Y350994D01*
X711308Y350983D01*
X710500Y350516D01*
X710446Y350447D01*
X710365Y350413D01*
X709705Y349753D01*
X709672Y349672D01*
X709602Y349619D01*
X709135Y348811D01*
X709124Y348724D01*
X709071Y348654D01*
X708829Y347753D01*
X708841Y347666D01*
X708807Y347585D01*
X708807Y347119D01*
X708807Y346652D01*
X708840Y346571D01*
X708829Y346484D01*
X709070Y345583D01*
X709124Y345513D01*
X709135Y345426D01*
X709602Y344618D01*
X709671Y344565D01*
X709705Y344483D01*
X710365Y343824D01*
X710446Y343790D01*
X710499Y343721D01*
X711307Y343254D01*
X711394Y343243D01*
X711464Y343189D01*
X712365Y342948D01*
X712452Y342959D01*
X712533Y342925D01*
X713466Y342925D01*
X713547Y342959D01*
X713634Y342947D01*
X714535Y343189D01*
X714605Y343242D01*
X714692Y343254D01*
X715500Y343720D01*
X715554Y343790D01*
X715635Y343823D01*
X716294Y344483D01*
X716328Y344564D01*
X716398Y344618D01*
X716864Y345426D01*
X716876Y345513D01*
X716929Y345582D01*
X717171Y346483D01*
X717159Y346570D01*
X717193Y346652D01*
X717193Y347118D01*
X717193Y347585D01*
X717159Y347666D01*
X717171Y347753D01*
X716929Y348654D01*
X716876Y348723D01*
X716864Y348810D01*
X716398Y349619D01*
X716328Y349672D01*
X716295Y349753D01*
X715635Y350413D01*
X715554Y350446D01*
X715500Y350516D01*
X714693Y350983D01*
X714606Y350994D01*
X714536Y351047D01*
X713635Y351289D01*
X713548Y351277D01*
X713467Y351311D01*
X712534Y351311D01*
D02*
G37*
G36*
X956361Y351260D02*
X956279Y351227D01*
X956192Y351238D01*
X955291Y350997D01*
X955222Y350943D01*
X955135Y350932D01*
X954327Y350465D01*
X954273Y350396D01*
X954192Y350362D01*
X953532Y349702D01*
X953499Y349621D01*
X953429Y349568D01*
X952962Y348760D01*
X952951Y348673D01*
X952898Y348603D01*
X952656Y347702D01*
X952668Y347615D01*
X952634Y347534D01*
X952634Y347067D01*
X952634Y346601D01*
X952667Y346520D01*
X952656Y346433D01*
X952897Y345532D01*
X952951Y345462D01*
X952962Y345375D01*
X953429Y344567D01*
X953498Y344514D01*
X953532Y344432D01*
X954192Y343773D01*
X954273Y343739D01*
X954326Y343670D01*
X955134Y343203D01*
X955221Y343192D01*
X955291Y343138D01*
X956192Y342897D01*
X956279Y342908D01*
X956360Y342874D01*
X957293Y342874D01*
X957374Y342908D01*
X957461Y342896D01*
X958362Y343138D01*
X958432Y343191D01*
X958519Y343203D01*
X959327Y343669D01*
X959381Y343739D01*
X959462Y343772D01*
X960121Y344432D01*
X960155Y344513D01*
X960225Y344566D01*
X960691Y345374D01*
X960703Y345462D01*
X960756Y345531D01*
X960998Y346432D01*
X960986Y346519D01*
X961020Y346601D01*
X961020Y347067D01*
X961020Y347533D01*
X960986Y347615D01*
X960998Y347702D01*
X960756Y348603D01*
X960703Y348672D01*
X960691Y348759D01*
X960225Y349568D01*
X960155Y349621D01*
X960122Y349702D01*
X959462Y350362D01*
X959381Y350395D01*
X959328Y350465D01*
X958519Y350932D01*
X958432Y350943D01*
X958363Y350996D01*
X957462Y351238D01*
X957375Y351226D01*
X957294Y351260D01*
X956361Y351260D01*
D02*
G37*
G36*
X901034D02*
X900953Y351227D01*
X900865Y351238D01*
X899964Y350997D01*
X899895Y350943D01*
X899808Y350932D01*
X899000Y350465D01*
X898946Y350396D01*
X898865Y350362D01*
X898205Y349702D01*
X898172Y349621D01*
X898102Y349568D01*
X897635Y348760D01*
X897624Y348673D01*
X897571Y348603D01*
X897329Y347702D01*
X897340Y347615D01*
X897307Y347534D01*
X897307Y347067D01*
X897307Y346601D01*
X897340Y346520D01*
X897329Y346433D01*
X897570Y345532D01*
X897624Y345462D01*
X897635Y345375D01*
X898102Y344567D01*
X898171Y344514D01*
X898205Y344432D01*
X898865Y343773D01*
X898946Y343739D01*
X898999Y343670D01*
X899807Y343203D01*
X899894Y343192D01*
X899964Y343138D01*
X900865Y342897D01*
X900952Y342908D01*
X901033Y342874D01*
X901966Y342874D01*
X902047Y342908D01*
X902134Y342896D01*
X903035Y343138D01*
X903105Y343191D01*
X903192Y343203D01*
X904000Y343669D01*
X904053Y343739D01*
X904135Y343772D01*
X904794Y344432D01*
X904828Y344513D01*
X904898Y344566D01*
X905364Y345374D01*
X905376Y345462D01*
X905429Y345531D01*
X905671Y346432D01*
X905659Y346519D01*
X905693Y346601D01*
X905693Y347067D01*
X905693Y347533D01*
X905659Y347615D01*
X905671Y347702D01*
X905429Y348603D01*
X905376Y348672D01*
X905364Y348759D01*
X904898Y349568D01*
X904828Y349621D01*
X904795Y349702D01*
X904135Y350362D01*
X904054Y350395D01*
X904000Y350465D01*
X903193Y350932D01*
X903106Y350943D01*
X903036Y350996D01*
X902135Y351238D01*
X902048Y351226D01*
X901967Y351260D01*
X901034Y351260D01*
D02*
G37*
G36*
X669000Y354528D02*
X668151Y354360D01*
X667432Y353879D01*
X666951Y353160D01*
X666783Y352311D01*
X666951Y351462D01*
X667432Y350743D01*
X668151Y350262D01*
X669000Y350094D01*
X669849Y350262D01*
X670568Y350743D01*
X671049Y351462D01*
X671217Y352311D01*
X671049Y353160D01*
X670568Y353879D01*
X669849Y354360D01*
X669000Y354528D01*
D02*
G37*
G36*
X983425Y358824D02*
X979575D01*
X978400Y357649D01*
Y355299D01*
X978641Y355058D01*
X972279Y348696D01*
X972058Y348365D01*
X971980Y347975D01*
Y331389D01*
X972058Y330999D01*
X972279Y330668D01*
X974061Y328886D01*
X974391Y328665D01*
X974782Y328588D01*
X975947D01*
X977416Y327119D01*
X977416Y325856D01*
X977016Y325614D01*
X977016Y325544D01*
X977016Y325544D01*
Y324327D01*
X979000D01*
X980984D01*
Y325544D01*
X980984Y325544D01*
Y325614D01*
X980584Y325856D01*
X980584Y326114D01*
Y327797D01*
X981046Y327988D01*
X981916Y327119D01*
X981916Y325856D01*
X981516Y325614D01*
X981516Y325544D01*
X981516Y325544D01*
Y324327D01*
X983500D01*
X985484D01*
Y325544D01*
X985484Y325544D01*
Y325614D01*
X985084Y325856D01*
X985084Y326114D01*
Y327940D01*
X985584Y328147D01*
X986416Y327315D01*
X986416Y325856D01*
X986016Y325614D01*
X986016Y325544D01*
X986016Y325544D01*
Y324327D01*
X988000D01*
X989984D01*
Y325544D01*
X989984Y325544D01*
Y325614D01*
X989584Y325856D01*
X989584Y326114D01*
Y327940D01*
X990084Y328147D01*
X990916Y327315D01*
X990916Y325856D01*
X990516Y325614D01*
X990516Y325544D01*
X990516Y325544D01*
Y324327D01*
X992500D01*
X994484D01*
Y325544D01*
X994484Y325544D01*
Y325614D01*
X994084Y325856D01*
X994084Y326114D01*
Y328561D01*
X992554D01*
X988008Y333108D01*
X988199Y333570D01*
X991600D01*
Y333574D01*
X992100Y333841D01*
X992267Y333730D01*
X993000Y333584D01*
X993733Y333730D01*
X994355Y334145D01*
X994771Y334767D01*
X994916Y335500D01*
X994771Y336233D01*
X994355Y336855D01*
X993733Y337270D01*
X993000Y337416D01*
X992267Y337270D01*
X992100Y337159D01*
X991600Y337426D01*
Y338270D01*
X985400D01*
Y334865D01*
X984938Y334674D01*
X984600Y335012D01*
Y337095D01*
X983425Y338270D01*
X979575D01*
X978400Y337095D01*
Y334745D01*
X979125Y334020D01*
X978918Y333520D01*
X976820D01*
Y340378D01*
X977937Y341495D01*
X978400Y341585D01*
X979575Y340410D01*
X983425D01*
X984600Y341585D01*
Y343935D01*
X983425Y345110D01*
X979575D01*
X978400Y343935D01*
Y343779D01*
X977760D01*
X977369Y343702D01*
X977039Y343481D01*
X975881Y342323D01*
X975420Y342515D01*
Y345978D01*
X977913Y348471D01*
X978400Y348502D01*
X979575Y347327D01*
X983425D01*
X984600Y348502D01*
Y350852D01*
X983425Y352027D01*
X979575D01*
X978400Y350852D01*
Y350697D01*
X977871D01*
X977654Y351187D01*
X980591Y354124D01*
X983425D01*
X984600Y355299D01*
Y357649D01*
X983425Y358824D01*
D02*
G37*
G36*
X991600Y352027D02*
X985400D01*
Y347327D01*
X989751D01*
X989850Y347307D01*
X991221D01*
X991230Y347267D01*
X991645Y346645D01*
X992267Y346230D01*
X993000Y346084D01*
X993733Y346230D01*
X994355Y346645D01*
X994771Y347267D01*
X994916Y348000D01*
X994771Y348733D01*
X994355Y349355D01*
X993733Y349770D01*
X993000Y349916D01*
X992267Y349770D01*
X992100Y349659D01*
X991600Y349926D01*
Y352027D01*
D02*
G37*
G36*
X860500Y357000D02*
D01*
Y356500D01*
X858516D01*
Y355282D01*
X858516Y355282D01*
Y355213D01*
X858916Y354971D01*
X858916Y354713D01*
Y352266D01*
X859684D01*
Y349100D01*
X859325D01*
X858150Y347925D01*
Y344075D01*
X859325Y342900D01*
X861675D01*
X862850Y344075D01*
Y347925D01*
X861675Y349100D01*
X861316D01*
Y352266D01*
X862084D01*
X862084Y354971D01*
X862484Y355213D01*
X862484Y355282D01*
X862484Y355282D01*
Y356500D01*
X860500D01*
Y357000D01*
D02*
G37*
G36*
X680411Y345234D02*
X673306D01*
Y343743D01*
X673113Y343615D01*
X671328Y341830D01*
X670753Y341791D01*
X670568Y342068D01*
X669849Y342549D01*
X669000Y342717D01*
X668151Y342549D01*
X667432Y342068D01*
X666951Y341349D01*
X666783Y340500D01*
X666951Y339651D01*
X667432Y338932D01*
X668151Y338451D01*
X668940Y338295D01*
X669118Y338047D01*
X669228Y337827D01*
X669124Y337300D01*
Y303070D01*
X664027Y297973D01*
X663728Y297527D01*
X663624Y297000D01*
Y272500D01*
X663728Y271973D01*
X664027Y271527D01*
X694027Y241527D01*
X694027Y241527D01*
X694473Y241228D01*
X695000Y241124D01*
X695000Y241124D01*
X750000D01*
X750527Y241228D01*
X750973Y241527D01*
X758891Y249445D01*
X759482Y249200D01*
X760500Y249066D01*
X761518Y249200D01*
X762467Y249593D01*
X763281Y250219D01*
X763907Y251033D01*
X764300Y251982D01*
X764434Y253000D01*
X764300Y254018D01*
X763907Y254967D01*
X763281Y255782D01*
X762467Y256407D01*
X761518Y256800D01*
X760500Y256934D01*
X759482Y256800D01*
X758533Y256407D01*
X757719Y255782D01*
X757093Y254967D01*
X756700Y254018D01*
X756566Y253000D01*
X756700Y251982D01*
X756945Y251392D01*
X749430Y243877D01*
X695570D01*
X666376Y273070D01*
Y296430D01*
X671473Y301527D01*
X671473Y301527D01*
X671772Y301973D01*
X671876Y302500D01*
Y328679D01*
X676096D01*
Y334382D01*
X676596Y334432D01*
X676652Y334149D01*
X676851Y333851D01*
X682239Y328463D01*
X682537Y328264D01*
X682888Y328195D01*
X683127D01*
X683413Y327506D01*
X683887Y326887D01*
X684506Y326413D01*
X685227Y326114D01*
X686000Y326012D01*
X686773Y326114D01*
X687350Y326353D01*
X692082Y321620D01*
Y311832D01*
X688896D01*
Y304648D01*
X692082D01*
Y302880D01*
X677793Y288591D01*
X674584D01*
Y289061D01*
X671416D01*
Y286286D01*
X674584D01*
Y286756D01*
X678173D01*
X678524Y286825D01*
X678822Y287024D01*
X693649Y301851D01*
X693848Y302149D01*
X693918Y302500D01*
Y304648D01*
X697104D01*
Y311832D01*
X693918D01*
Y322000D01*
X693848Y322351D01*
X693649Y322649D01*
X688647Y327650D01*
X688886Y328227D01*
X688988Y329000D01*
X688886Y329773D01*
X688588Y330494D01*
X688113Y331113D01*
X687494Y331588D01*
X686773Y331886D01*
X686000Y331988D01*
X685227Y331886D01*
X684506Y331588D01*
X683887Y331113D01*
X683455Y330550D01*
X683250Y330448D01*
X682916Y330382D01*
X678418Y334880D01*
Y335766D01*
X680411D01*
Y338781D01*
X680500Y338854D01*
X683032D01*
X683114Y338227D01*
X683413Y337506D01*
X683887Y336887D01*
X684506Y336413D01*
X685227Y336114D01*
X686000Y336012D01*
X686773Y336114D01*
X687494Y336413D01*
X688113Y336887D01*
X688588Y337506D01*
X688886Y338227D01*
X688988Y339000D01*
X688886Y339773D01*
X688588Y340494D01*
X688113Y341113D01*
X687494Y341587D01*
X686773Y341886D01*
X686000Y341988D01*
X685227Y341886D01*
X684506Y341587D01*
X683887Y341113D01*
X683563Y340689D01*
X680880D01*
X680261Y341309D01*
X680411Y341672D01*
X680411D01*
Y345234D01*
D02*
G37*
G36*
X828984Y342654D02*
X827500D01*
Y341366D01*
X828984D01*
Y342654D01*
D02*
G37*
G36*
X826500D02*
X825016D01*
Y341366D01*
X826500D01*
Y342654D01*
D02*
G37*
G36*
X844500Y342500D02*
X843016D01*
Y341213D01*
X844500D01*
Y342500D01*
D02*
G37*
G36*
X991600Y345110D02*
X985400D01*
Y340410D01*
X991600D01*
X991600Y340410D01*
Y340410D01*
X992077Y340356D01*
X992267Y340230D01*
X993000Y340084D01*
X993733Y340230D01*
X994355Y340645D01*
X994771Y341267D01*
X994916Y342000D01*
X994771Y342733D01*
X994355Y343355D01*
X993733Y343771D01*
X993000Y343916D01*
X992267Y343771D01*
X992127Y343677D01*
X991600D01*
Y345110D01*
D02*
G37*
G36*
X801154Y338984D02*
X799866D01*
Y337500D01*
X801154D01*
Y338984D01*
D02*
G37*
G36*
X977309Y385462D02*
X964691D01*
Y379538D01*
X969777D01*
Y374636D01*
X964691D01*
Y367530D01*
X967777D01*
Y319249D01*
X965104D01*
Y331132D01*
X956030D01*
Y327324D01*
X948547D01*
X943878Y331993D01*
Y337412D01*
X947644D01*
X947763Y337388D01*
X947881Y337412D01*
X948963D01*
Y338494D01*
X948986Y338612D01*
X948963Y338730D01*
Y346486D01*
X936345D01*
Y337412D01*
X941430D01*
Y331486D01*
X941524Y331018D01*
X941789Y330621D01*
X946310Y326100D01*
X939127Y318917D01*
X938616Y319059D01*
X938497Y319109D01*
X938405Y319200D01*
X938276D01*
X938157Y319249D01*
X926223D01*
Y322993D01*
X934065Y330835D01*
X934330Y331232D01*
X934424Y331700D01*
Y372146D01*
X938076Y375798D01*
X948963D01*
Y382904D01*
X936345D01*
Y377529D01*
X932335Y373518D01*
X932070Y373121D01*
X931977Y372653D01*
Y332207D01*
X924135Y324365D01*
X923870Y323968D01*
X923777Y323500D01*
Y319249D01*
X923200D01*
X922741Y319059D01*
X922551Y318600D01*
X922551Y296200D01*
X922662Y295931D01*
X922741Y295741D01*
X925041Y293441D01*
X925500Y293251D01*
X939200Y293251D01*
Y273300D01*
Y266700D01*
X939390Y266241D01*
X939849Y266051D01*
X940409D01*
X940440Y266063D01*
X940473Y266054D01*
X940500Y266068D01*
X940647Y266000D01*
X943500D01*
Y265500D01*
X944000D01*
Y263250D01*
X946000D01*
Y263409D01*
X946400Y263650D01*
X950600D01*
Y265620D01*
X950636Y265656D01*
X950902Y266053D01*
X950942Y266075D01*
X951000Y266051D01*
X966949D01*
X967409Y266241D01*
X969923Y268755D01*
X969973Y268875D01*
X970064Y268966D01*
Y269095D01*
X970113Y269215D01*
X970375Y269676D01*
X982962D01*
X983198Y269235D01*
X983130Y269133D01*
X982984Y268400D01*
X983130Y267667D01*
X983545Y267045D01*
X984167Y266630D01*
X984900Y266484D01*
X985633Y266630D01*
X986255Y267045D01*
X986343Y267177D01*
X987299D01*
X988038Y266438D01*
X988014Y266381D01*
X987912Y265608D01*
X988014Y264834D01*
X988313Y264114D01*
X988787Y263495D01*
X989406Y263020D01*
X990127Y262722D01*
X990900Y262620D01*
X991673Y262722D01*
X992394Y263020D01*
X993013Y263495D01*
X993487Y264114D01*
X993786Y264834D01*
X993888Y265608D01*
X993786Y266381D01*
X993487Y267102D01*
X993013Y267721D01*
X992394Y268195D01*
X991673Y268494D01*
X990900Y268596D01*
X990127Y268494D01*
X989643Y268293D01*
X988760Y269177D01*
X988846Y269522D01*
X988952Y269676D01*
X991000D01*
X991468Y269770D01*
X991865Y270035D01*
X1002231Y280401D01*
X1002496Y280798D01*
X1002590Y281266D01*
Y294825D01*
X1005509D01*
Y299175D01*
X997223D01*
Y294825D01*
X1000142D01*
Y281773D01*
X990493Y272124D01*
X966807D01*
X966385Y272545D01*
Y273696D01*
X966545Y273808D01*
X966885Y273917D01*
X967218Y273695D01*
X967720Y273595D01*
X968223Y273695D01*
X968650Y273980D01*
X968699Y274054D01*
X969301D01*
X969350Y273980D01*
X969777Y273695D01*
X970280Y273595D01*
X970782Y273695D01*
X971209Y273980D01*
X971258Y274054D01*
X971860D01*
X971909Y273980D01*
X972336Y273695D01*
X972839Y273595D01*
X973341Y273695D01*
X973768Y273980D01*
X973817Y274054D01*
X974419D01*
X974468Y273980D01*
X974895Y273695D01*
X975398Y273595D01*
X975900Y273695D01*
X976327Y273980D01*
X976377Y274054D01*
X976978D01*
X977028Y273980D01*
X977454Y273695D01*
X977957Y273595D01*
X978460Y273695D01*
X978886Y273980D01*
X979084Y274276D01*
X980153D01*
X980241Y274145D01*
X980863Y273729D01*
X981596Y273584D01*
X982330Y273729D01*
X982951Y274145D01*
X983039Y274276D01*
X983766D01*
Y273916D01*
X986471Y273916D01*
X986713Y273516D01*
X986782Y273516D01*
X986782Y273516D01*
X988000D01*
Y275500D01*
Y277484D01*
X986782D01*
X986782Y277484D01*
X986713D01*
X986471Y277084D01*
X986213Y277084D01*
X983766D01*
Y276724D01*
X983039D01*
X982951Y276855D01*
X982330Y277271D01*
X981596Y277416D01*
X980863Y277271D01*
X980241Y276855D01*
X980153Y276724D01*
X979271D01*
Y279831D01*
X979171Y280334D01*
X978886Y280760D01*
X978460Y281045D01*
X977957Y281145D01*
X977489Y281052D01*
X977459Y281074D01*
X977314Y281583D01*
X978107Y282377D01*
X980611D01*
X980698Y282245D01*
X981320Y281830D01*
X982054Y281684D01*
X982209Y281715D01*
X983766Y280157D01*
Y278916D01*
X986471Y278916D01*
X986713Y278516D01*
X986782Y278516D01*
X986782Y278516D01*
X988000D01*
Y280500D01*
Y282484D01*
X986782D01*
X986782Y282484D01*
X986713D01*
X986471Y282084D01*
X986213Y282084D01*
X985300D01*
X983939Y283445D01*
X983970Y283600D01*
X983824Y284333D01*
X983409Y284955D01*
X982787Y285370D01*
X982054Y285516D01*
X981320Y285370D01*
X980698Y284955D01*
X980611Y284823D01*
X978003D01*
X977796Y285324D01*
X978049Y285577D01*
X978248Y285875D01*
X978278Y286026D01*
X978755Y286345D01*
X979171Y286967D01*
X979316Y287700D01*
X979171Y288433D01*
X978755Y289055D01*
X978133Y289471D01*
X977940Y289509D01*
X977899Y289586D01*
Y294514D01*
X978285Y294831D01*
X978531Y294783D01*
X982469D01*
X983317Y294951D01*
X984036Y295432D01*
X984517Y296151D01*
X984686Y297000D01*
X984517Y297849D01*
X984036Y298568D01*
X983317Y299049D01*
X982469Y299217D01*
X981826D01*
Y300800D01*
X981725Y301307D01*
X981437Y301737D01*
X980137Y303038D01*
X979707Y303325D01*
X979200Y303426D01*
X977899D01*
Y318600D01*
X977709Y319059D01*
X977249Y319249D01*
X970224D01*
Y367530D01*
X977309D01*
Y374636D01*
X972223D01*
Y379538D01*
X977309D01*
Y385462D01*
D02*
G37*
G36*
X837116Y344414D02*
X836784Y344387D01*
X836784Y344387D01*
X833616D01*
Y341613D01*
X835640D01*
Y340613D01*
X835400Y340416D01*
X834667Y340270D01*
X834045Y339855D01*
X833630Y339233D01*
X833484Y338500D01*
X833630Y337767D01*
X834045Y337145D01*
X834667Y336730D01*
X835400Y336584D01*
X836133Y336730D01*
X836678Y337093D01*
X836981Y337145D01*
X837019D01*
X837322Y337093D01*
X837867Y336730D01*
X838600Y336584D01*
X839333Y336730D01*
X839955Y337145D01*
X840370Y337767D01*
X840516Y338500D01*
X840370Y339233D01*
X839955Y339855D01*
X839333Y340270D01*
X838614Y340414D01*
X838351Y340832D01*
X838289Y341144D01*
X838402Y341639D01*
X840284D01*
Y344414D01*
X837273D01*
X837116Y344414D01*
D02*
G37*
G36*
X821985Y334330D02*
X820500D01*
Y333043D01*
X821985D01*
Y334330D01*
D02*
G37*
G36*
X819500D02*
X818016D01*
Y333043D01*
X819500D01*
Y334330D01*
D02*
G37*
G36*
X841382Y334485D02*
X840095D01*
Y333000D01*
X841382D01*
Y334485D01*
D02*
G37*
G36*
Y332000D02*
X840095D01*
Y330516D01*
X841382D01*
Y332000D01*
D02*
G37*
G36*
X855059Y332000D02*
X853772D01*
Y330516D01*
X855059D01*
Y332000D01*
D02*
G37*
G36*
X666254Y335391D02*
X661904D01*
Y328679D01*
X666254D01*
Y335391D01*
D02*
G37*
G36*
X841382Y329485D02*
X840095D01*
Y328000D01*
X841382D01*
Y329485D01*
D02*
G37*
G36*
X855059Y329484D02*
X853772D01*
Y328000D01*
X855059D01*
Y329484D01*
D02*
G37*
G36*
Y327000D02*
X853772D01*
Y325516D01*
X855059D01*
Y327000D01*
D02*
G37*
G36*
Y324484D02*
X853772D01*
Y323000D01*
X855059D01*
Y324484D01*
D02*
G37*
G36*
X994484Y323327D02*
X993000D01*
Y322039D01*
X994484D01*
Y323327D01*
D02*
G37*
G36*
X992000D02*
X990516D01*
Y322039D01*
X992000D01*
Y323327D01*
D02*
G37*
G36*
X989984D02*
X988500D01*
Y322039D01*
X989984D01*
Y323327D01*
D02*
G37*
G36*
X987500D02*
X986016D01*
Y322039D01*
X987500D01*
Y323327D01*
D02*
G37*
G36*
X985484D02*
X984000D01*
Y322039D01*
X985484D01*
Y323327D01*
D02*
G37*
G36*
X983000D02*
X981516D01*
Y322039D01*
X983000D01*
Y323327D01*
D02*
G37*
G36*
X980984D02*
X979500D01*
Y322039D01*
X980984D01*
Y323327D01*
D02*
G37*
G36*
X978500D02*
X977016D01*
Y322039D01*
X978500D01*
Y323327D01*
D02*
G37*
G36*
X855059Y322000D02*
X853772D01*
Y320516D01*
X855059D01*
Y322000D01*
D02*
G37*
G36*
X737000Y315416D02*
X736267Y315270D01*
X735645Y314855D01*
X735229Y314233D01*
X735084Y313500D01*
X735229Y312767D01*
X735580Y312242D01*
Y311986D01*
X735178Y311584D01*
X734287D01*
X734156Y311584D01*
X733787Y311902D01*
Y311984D01*
X732500D01*
Y310000D01*
Y308016D01*
X733787D01*
Y308016D01*
X734287Y308046D01*
X734421Y307984D01*
Y305873D01*
X734421Y305873D01*
X734507Y305444D01*
X734750Y305080D01*
X734783Y305046D01*
X734684Y304547D01*
Y298248D01*
X734822Y297553D01*
X735216Y296964D01*
X735805Y296570D01*
X736500Y296432D01*
X737195Y296570D01*
X737784Y296964D01*
X738178Y297553D01*
X738316Y298248D01*
Y304547D01*
X738178Y305242D01*
X737784Y305831D01*
X737195Y306225D01*
X736673Y306329D01*
X736664Y306337D01*
Y308415D01*
X736930D01*
Y309998D01*
X737495Y310562D01*
X737495Y310562D01*
X737738Y310926D01*
X737823Y311355D01*
X737823Y311355D01*
Y311790D01*
X738355Y312145D01*
X738770Y312767D01*
X738916Y313500D01*
X738770Y314233D01*
X738355Y314855D01*
X737733Y315270D01*
X737000Y315416D01*
D02*
G37*
G36*
X731500Y311984D02*
X730213D01*
Y310500D01*
X731500D01*
Y311984D01*
D02*
G37*
G36*
X893636Y382904D02*
X881018D01*
Y381417D01*
X880618Y381149D01*
X879500D01*
X879041Y380959D01*
X876041Y377959D01*
X875850Y377500D01*
X875851Y311769D01*
X873043Y308962D01*
X872336D01*
X870977Y310320D01*
X870680Y310519D01*
X870328Y310589D01*
X868600D01*
Y311522D01*
X864400D01*
Y307972D01*
X863918Y307779D01*
X863600Y308149D01*
Y311522D01*
X859400D01*
Y311048D01*
X838072D01*
X837545Y310943D01*
X837098Y310645D01*
X829503Y303049D01*
X823200D01*
X822741Y302859D01*
X815331Y295449D01*
X810000D01*
X809541Y295259D01*
X809351Y294800D01*
Y291118D01*
X809541Y290659D01*
X809664Y290608D01*
Y286762D01*
X815785D01*
Y287114D01*
X816285Y287448D01*
X816436Y287385D01*
X816566D01*
X816685Y287336D01*
X816804Y287385D01*
X816934D01*
X817025Y287476D01*
X817144Y287526D01*
X817515Y287897D01*
X818015Y287690D01*
Y286170D01*
X819500D01*
Y287957D01*
X820000D01*
Y288457D01*
X821984D01*
Y288497D01*
X822006Y288511D01*
X822493D01*
X822515Y288497D01*
Y288457D01*
X824500D01*
Y287957D01*
X825000D01*
Y286170D01*
X826484D01*
Y288417D01*
X826534Y288451D01*
X828185D01*
X828367Y288330D01*
X829100Y288184D01*
X829833Y288330D01*
X830015Y288451D01*
X830800D01*
X831259Y288641D01*
X831450Y289100D01*
X831449Y301103D01*
X838642Y308295D01*
X859400D01*
Y307822D01*
X860582D01*
Y306085D01*
X859570D01*
Y302916D01*
X862123D01*
X862158Y302868D01*
X862658Y302558D01*
X862713Y302549D01*
X862713Y302516D01*
X862795Y302494D01*
X862858Y302499D01*
X863107Y302470D01*
X863123Y302480D01*
X863149Y302478D01*
X863201Y302516D01*
X863842D01*
X863950Y302488D01*
X864209Y302045D01*
X864000Y301778D01*
X863936Y301750D01*
X862000D01*
Y299500D01*
X861500D01*
Y299000D01*
X859000D01*
Y297250D01*
X861851D01*
Y293169D01*
X856353D01*
X856353Y293169D01*
Y293169D01*
X855932Y293366D01*
X851649Y297649D01*
X851351Y297848D01*
X851000Y297918D01*
X845119D01*
X845088Y297994D01*
X844613Y298613D01*
X843994Y299088D01*
X843273Y299386D01*
X842500Y299488D01*
X841727Y299386D01*
X841006Y299088D01*
X840387Y298613D01*
X839913Y297994D01*
X839614Y297273D01*
X839512Y296500D01*
X839614Y295727D01*
X839913Y295006D01*
X840387Y294387D01*
X841006Y293913D01*
X841727Y293614D01*
X842500Y293512D01*
X843273Y293614D01*
X843994Y293913D01*
X844613Y294387D01*
X845088Y295006D01*
X845386Y295727D01*
X845433Y296082D01*
X850620D01*
X855285Y291418D01*
X855178Y291033D01*
X855096Y290918D01*
X852799D01*
X852673Y291012D01*
X852406Y291382D01*
X852488Y292000D01*
X852386Y292773D01*
X852087Y293494D01*
X851613Y294113D01*
X850994Y294587D01*
X850273Y294886D01*
X849500Y294988D01*
X848727Y294886D01*
X848006Y294587D01*
X847387Y294113D01*
X846912Y293494D01*
X846614Y292773D01*
X846512Y292000D01*
X846614Y291227D01*
X846912Y290506D01*
X847387Y289887D01*
X848006Y289412D01*
X848727Y289114D01*
X849500Y289012D01*
X850273Y289114D01*
X850875Y289363D01*
X850978Y289310D01*
X850980Y288745D01*
X850883Y288680D01*
X850620Y288418D01*
X845326D01*
X845088Y288994D01*
X844613Y289613D01*
X843994Y290088D01*
X843273Y290386D01*
X842500Y290488D01*
X841727Y290386D01*
X841006Y290088D01*
X840387Y289613D01*
X839913Y288994D01*
X839614Y288273D01*
X839512Y287500D01*
X839614Y286727D01*
X839913Y286006D01*
X840387Y285387D01*
X841006Y284912D01*
X841727Y284614D01*
X842500Y284512D01*
X843273Y284614D01*
X843994Y284912D01*
X844613Y285387D01*
X845088Y286006D01*
X845326Y286582D01*
X851000D01*
X851097Y286602D01*
X851343Y286141D01*
X850850Y285647D01*
X850273Y285886D01*
X849500Y285988D01*
X848727Y285886D01*
X848006Y285588D01*
X847387Y285113D01*
X846912Y284494D01*
X846614Y283773D01*
X846512Y283000D01*
X846614Y282227D01*
X846912Y281506D01*
X847387Y280887D01*
X848006Y280413D01*
X848727Y280114D01*
X849500Y280012D01*
X850273Y280114D01*
X850994Y280413D01*
X851613Y280887D01*
X852087Y281506D01*
X852386Y282227D01*
X852488Y283000D01*
X852386Y283773D01*
X852147Y284349D01*
X852943Y285145D01*
X856210D01*
X856478Y284645D01*
X856422Y284563D01*
X856329Y284094D01*
X856422Y283626D01*
X856688Y283229D01*
X857084Y282964D01*
X857553Y282871D01*
X858791D01*
Y279446D01*
X858861Y279095D01*
X859060Y278797D01*
X859070Y278787D01*
Y276916D01*
X861475D01*
X861849Y276517D01*
X861851Y276419D01*
Y274000D01*
X862041Y273541D01*
X862500Y273351D01*
X872174D01*
X872376Y273434D01*
X872586Y273498D01*
X872602Y273528D01*
X872633Y273541D01*
X872717Y273743D01*
X872820Y273936D01*
X872869Y274436D01*
X872904Y274482D01*
X884129D01*
X886982Y271629D01*
Y260880D01*
X885020Y258918D01*
X877351D01*
X877000Y258848D01*
X876703Y258649D01*
X874851Y256797D01*
X874652Y256500D01*
X874582Y256149D01*
Y254642D01*
X874082Y254543D01*
X873907Y254967D01*
X873281Y255782D01*
X872467Y256407D01*
X871518Y256800D01*
X870500Y256934D01*
X869482Y256800D01*
X868533Y256407D01*
X867719Y255782D01*
X867093Y254967D01*
X866700Y254018D01*
X866566Y253000D01*
X866700Y251982D01*
X867093Y251033D01*
X867719Y250219D01*
X868533Y249593D01*
X869482Y249200D01*
X870500Y249066D01*
X871518Y249200D01*
X872467Y249593D01*
X872990Y249995D01*
X873320Y249618D01*
X871720Y248018D01*
X846780D01*
X843845Y250953D01*
X843907Y251033D01*
X844300Y251982D01*
X844434Y253000D01*
X844300Y254018D01*
X843907Y254967D01*
X843281Y255782D01*
X842467Y256407D01*
X841518Y256800D01*
X840500Y256934D01*
X839482Y256800D01*
X838533Y256407D01*
X837718Y255782D01*
X837093Y254967D01*
X836700Y254018D01*
X836566Y253000D01*
X836700Y251982D01*
X837093Y251033D01*
X837718Y250219D01*
X838533Y249593D01*
X839482Y249200D01*
X840500Y249066D01*
X841518Y249200D01*
X842467Y249593D01*
X842547Y249655D01*
X845751Y246451D01*
X846049Y246252D01*
X846400Y246182D01*
X872100D01*
X872451Y246252D01*
X872749Y246451D01*
X876149Y249851D01*
X876348Y250149D01*
X876418Y250500D01*
Y251358D01*
X876918Y251457D01*
X877093Y251033D01*
X877719Y250219D01*
X878533Y249593D01*
X879482Y249200D01*
X880500Y249066D01*
X881518Y249200D01*
X882467Y249593D01*
X883282Y250219D01*
X883907Y251033D01*
X884300Y251982D01*
X884434Y253000D01*
X884400Y253258D01*
X884471Y253272D01*
X884769Y253471D01*
X887118Y255820D01*
X887495Y255490D01*
X887093Y254967D01*
X886700Y254018D01*
X886566Y253000D01*
X886700Y251982D01*
X887093Y251033D01*
X887718Y250219D01*
X888533Y249593D01*
X889482Y249200D01*
X890500Y249066D01*
X891518Y249200D01*
X892467Y249593D01*
X893281Y250219D01*
X893907Y251033D01*
X894300Y251982D01*
X894434Y253000D01*
X894300Y254018D01*
X894174Y254321D01*
X894598Y254604D01*
X895703Y253499D01*
X896001Y253300D01*
X896352Y253230D01*
X896364D01*
X896566Y253000D01*
X896700Y251982D01*
X897093Y251033D01*
X897719Y250219D01*
X898533Y249593D01*
X899482Y249200D01*
X900500Y249066D01*
X901518Y249200D01*
X902467Y249593D01*
X903281Y250219D01*
X903907Y251033D01*
X904300Y251982D01*
X904782Y251894D01*
Y249680D01*
X900320Y245218D01*
X839580D01*
X833845Y250953D01*
X833907Y251033D01*
X834300Y251982D01*
X834434Y253000D01*
X834300Y254018D01*
X833907Y254967D01*
X833282Y255782D01*
X832467Y256407D01*
X831518Y256800D01*
X830500Y256934D01*
X829482Y256800D01*
X828533Y256407D01*
X827719Y255782D01*
X827093Y254967D01*
X826700Y254018D01*
X826566Y253000D01*
X826700Y251982D01*
X827093Y251033D01*
X827719Y250219D01*
X828533Y249593D01*
X829482Y249200D01*
X830500Y249066D01*
X831518Y249200D01*
X832467Y249593D01*
X832547Y249655D01*
X838551Y243651D01*
X838849Y243452D01*
X839200Y243382D01*
X900700D01*
X901051Y243452D01*
X901349Y243651D01*
X906349Y248651D01*
X906548Y248949D01*
X906618Y249300D01*
Y250740D01*
X907064Y251004D01*
X907118Y251002D01*
X907718Y250219D01*
X908533Y249593D01*
X909482Y249200D01*
X910500Y249066D01*
X911518Y249200D01*
X912363Y249551D01*
X951307Y210607D01*
X951307Y210607D01*
X951671Y210364D01*
X952100Y210279D01*
X971294D01*
X975595Y205977D01*
Y196681D01*
X975595Y196681D01*
X975616Y196573D01*
Y184377D01*
X977457D01*
Y179743D01*
X959507Y161793D01*
X959264Y161429D01*
X959178Y161000D01*
X959178Y161000D01*
Y153311D01*
X958945Y153155D01*
X958529Y152533D01*
X958384Y151800D01*
X958529Y151067D01*
X958945Y150445D01*
X959567Y150030D01*
X960300Y149884D01*
X961033Y150030D01*
X961655Y150445D01*
X962070Y151067D01*
X962216Y151800D01*
X962070Y152533D01*
X961655Y153155D01*
X961422Y153311D01*
Y160535D01*
X979372Y178486D01*
X979372Y178486D01*
X979615Y178849D01*
X979700Y179279D01*
Y184377D01*
X981541D01*
Y205261D01*
X977838D01*
Y206442D01*
X977838Y206442D01*
X977753Y206871D01*
X977509Y207235D01*
X977509Y207235D01*
X972551Y212193D01*
X972187Y212436D01*
X971758Y212522D01*
X971758Y212522D01*
X952565D01*
X913949Y251137D01*
X914300Y251982D01*
X914434Y253000D01*
X914300Y254018D01*
X913907Y254967D01*
X913282Y255782D01*
X912467Y256407D01*
X911518Y256800D01*
X910500Y256934D01*
X909482Y256800D01*
X908533Y256407D01*
X908010Y256005D01*
X907680Y256382D01*
X910180Y258882D01*
X929920D01*
X931061Y257741D01*
X931000Y257616D01*
Y253000D01*
Y248729D01*
X931623Y248811D01*
X932668Y249244D01*
X933567Y249933D01*
X934256Y250831D01*
X934689Y251877D01*
X934837Y253000D01*
X935306Y253267D01*
X935482Y253136D01*
Y248200D01*
X935552Y247849D01*
X935751Y247551D01*
X957051Y226251D01*
X957349Y226052D01*
X957700Y225982D01*
X969000D01*
X969351Y226052D01*
X969649Y226251D01*
X971949Y228551D01*
X972148Y228849D01*
X972218Y229200D01*
Y230900D01*
X972148Y231251D01*
X971949Y231549D01*
X971936Y231561D01*
X971636Y231916D01*
X971636D01*
X971636Y231916D01*
Y232582D01*
X991900D01*
X992251Y232652D01*
X992549Y232851D01*
X999049Y239351D01*
X999248Y239649D01*
X999318Y240000D01*
Y247500D01*
X999248Y247851D01*
X999049Y248149D01*
X996449Y250749D01*
X996151Y250948D01*
X995800Y251018D01*
X993631D01*
X993487Y251363D01*
X993013Y251982D01*
X992394Y252457D01*
X991673Y252755D01*
X990900Y252857D01*
X990127Y252755D01*
X989406Y252457D01*
X988787Y251982D01*
X988313Y251363D01*
X988200Y251093D01*
X986030D01*
X985855Y251355D01*
X985233Y251770D01*
X984500Y251916D01*
X983767Y251770D01*
X983145Y251355D01*
X982970Y251093D01*
X979271D01*
X979171Y251594D01*
X978886Y252020D01*
X978460Y252305D01*
X977957Y252405D01*
X977454Y252305D01*
X977028Y252020D01*
X976978Y251946D01*
X976377D01*
X976327Y252020D01*
X975900Y252305D01*
X975398Y252405D01*
X974895Y252305D01*
X974468Y252020D01*
X974419Y251946D01*
X973817D01*
X973768Y252020D01*
X973341Y252305D01*
X972839Y252405D01*
X972336Y252305D01*
X972173Y252196D01*
X971522Y252272D01*
X971497Y252308D01*
X970939Y252682D01*
X970780Y252713D01*
Y248630D01*
X969780D01*
Y252713D01*
X969621Y252682D01*
X969062Y252308D01*
X969037Y252271D01*
X968386Y252196D01*
X968223Y252305D01*
X967720Y252405D01*
X967218Y252305D01*
X966791Y252020D01*
X966310Y252144D01*
X966079Y252339D01*
X966009Y252690D01*
X965810Y252988D01*
X961249Y257549D01*
X960951Y257748D01*
X960600Y257818D01*
X946480D01*
X941510Y262788D01*
X941701Y263250D01*
X943000D01*
Y265000D01*
X941000D01*
Y263951D01*
X940538Y263760D01*
X937918Y266380D01*
Y283000D01*
X937848Y283351D01*
X937649Y283649D01*
X935149Y286149D01*
X934851Y286348D01*
X934500Y286418D01*
X933561D01*
Y287084D01*
X930786D01*
Y283916D01*
X933561D01*
Y284582D01*
X934120D01*
X936082Y282620D01*
Y278595D01*
X935620Y278404D01*
X933561Y280464D01*
Y282334D01*
X930786D01*
Y279166D01*
X932263D01*
X933344Y278084D01*
X933137Y277584D01*
X930786D01*
Y274416D01*
X932263D01*
X932918Y273761D01*
X932711Y273261D01*
X930216D01*
Y273261D01*
X929784D01*
Y273261D01*
X926616D01*
X926616Y273261D01*
X926133Y273303D01*
X925733Y273570D01*
X925000Y273716D01*
X924267Y273570D01*
X923645Y273155D01*
X923230Y272533D01*
X923084Y271800D01*
X923230Y271067D01*
X923645Y270445D01*
X924267Y270029D01*
X925000Y269884D01*
X925716Y270026D01*
X925735Y270028D01*
X926216Y269750D01*
Y269027D01*
X928200D01*
Y268527D01*
X928700D01*
Y266739D01*
X929974D01*
X929974Y266739D01*
X930184Y266739D01*
X930215Y266790D01*
X930726Y266842D01*
X930882Y266686D01*
Y266109D01*
X930952Y265758D01*
X931151Y265460D01*
X946960Y249651D01*
X947258Y249452D01*
X947609Y249382D01*
X947653D01*
X947945Y248945D01*
X948567Y248530D01*
X949300Y248384D01*
X950033Y248530D01*
X950655Y248945D01*
X951070Y249567D01*
X951216Y250300D01*
X951070Y251033D01*
X950655Y251655D01*
X950033Y252070D01*
X949300Y252216D01*
X948567Y252070D01*
X947945Y251655D01*
X947587Y251620D01*
X946086Y253120D01*
X946278Y253582D01*
X956105D01*
X958754Y250933D01*
Y244880D01*
X961332D01*
Y244912D01*
X961344Y244924D01*
X961832Y245134D01*
X962099Y244955D01*
X962602Y244855D01*
X963105Y244955D01*
X963532Y245240D01*
X963581Y245314D01*
X964183D01*
X964232Y245240D01*
X964659Y244955D01*
X965161Y244855D01*
X965664Y244955D01*
X966158Y244683D01*
Y242157D01*
X965688Y242084D01*
X965309D01*
Y242084D01*
X962534D01*
Y238916D01*
X962534Y238916D01*
Y238584D01*
X962534D01*
X962534Y238416D01*
Y236266D01*
X962034Y235889D01*
X961963Y235909D01*
Y238416D01*
X961963Y238916D01*
X961963Y239084D01*
Y242084D01*
X959188D01*
Y241618D01*
X957847D01*
X957555Y242055D01*
X956933Y242471D01*
X956200Y242616D01*
X955467Y242471D01*
X954845Y242055D01*
X954430Y241433D01*
X954284Y240700D01*
X954430Y239967D01*
X954845Y239345D01*
X955467Y238930D01*
X955842Y238855D01*
Y238345D01*
X955467Y238270D01*
X954845Y237855D01*
X954430Y237233D01*
X954284Y236500D01*
X954430Y235767D01*
X954845Y235145D01*
X955467Y234730D01*
X956200Y234584D01*
X956933Y234730D01*
X957555Y235145D01*
X957847Y235582D01*
X958253D01*
X958713Y235484D01*
Y234000D01*
X960500D01*
Y233500D01*
X961000D01*
Y231516D01*
X962218D01*
X962218Y231516D01*
X962287D01*
X962365Y231644D01*
X962964Y231704D01*
X963106Y231562D01*
Y231029D01*
X962845Y230855D01*
X962430Y230233D01*
X962284Y229500D01*
X962430Y228767D01*
X962730Y228318D01*
X962503Y227818D01*
X958080D01*
X937318Y248580D01*
Y253700D01*
X937248Y254051D01*
X937049Y254349D01*
X930949Y260449D01*
X930651Y260648D01*
X930300Y260718D01*
X909800D01*
X909449Y260648D01*
X909151Y260449D01*
X905051Y256349D01*
X904852Y256051D01*
X904782Y255700D01*
Y254106D01*
X904300Y254018D01*
X903907Y254967D01*
X903281Y255782D01*
X902467Y256407D01*
X901518Y256800D01*
X900500Y256934D01*
X899482Y256800D01*
X898533Y256407D01*
X897719Y255782D01*
X897210Y255119D01*
X896700Y255098D01*
X892418Y259380D01*
Y273500D01*
X892348Y273851D01*
X892149Y274149D01*
X890858Y275440D01*
X905959Y290541D01*
X906149Y291000D01*
Y299916D01*
X907061D01*
Y301642D01*
X908221Y302803D01*
X908442Y303134D01*
X908520Y303524D01*
Y305266D01*
X909084D01*
Y305732D01*
X910916D01*
Y305463D01*
X914084D01*
Y308238D01*
X910916D01*
Y307772D01*
X909084D01*
Y308041D01*
X905916D01*
Y305266D01*
X906480D01*
Y303946D01*
X905619Y303084D01*
X904286D01*
Y301039D01*
X904270Y300948D01*
X904214Y300919D01*
X903943Y301030D01*
X903714Y301313D01*
Y303084D01*
X903244D01*
Y305341D01*
X904084D01*
Y308116D01*
X901231D01*
X900770Y308555D01*
X900770Y308792D01*
X900916Y308884D01*
X904085D01*
Y309214D01*
X905916D01*
Y308809D01*
X909085D01*
Y311584D01*
X905916D01*
Y311254D01*
X904085D01*
Y311659D01*
X900916D01*
Y311291D01*
X900271D01*
X899881Y311213D01*
X899550Y310992D01*
X899084Y310526D01*
X898584Y310733D01*
Y311584D01*
X898443D01*
X898314Y312084D01*
X901007Y314776D01*
X904914D01*
X905382Y314870D01*
X905779Y315135D01*
X906365Y315721D01*
X906630Y316118D01*
X906723Y316586D01*
Y318121D01*
X909777D01*
Y331132D01*
X906464D01*
Y333260D01*
X906370Y333728D01*
X906105Y334125D01*
X897416Y342814D01*
X897019Y343079D01*
X896551Y343173D01*
X893636D01*
Y346486D01*
X881018D01*
Y337412D01*
X893636D01*
Y340725D01*
X896044D01*
X904016Y332753D01*
Y331132D01*
X900703D01*
Y318121D01*
X904276D01*
Y317224D01*
X900500D01*
X900032Y317130D01*
X899635Y316865D01*
X898158Y315389D01*
X897911Y315366D01*
X897576Y315459D01*
X897456Y315509D01*
X897365Y315600D01*
X897236D01*
X897116Y315649D01*
X880149Y315649D01*
X880149Y363731D01*
X889459Y373041D01*
X889649Y373500D01*
X889649Y375298D01*
X889824Y375659D01*
X889917Y375798D01*
X893636D01*
Y382904D01*
D02*
G37*
G36*
X921982Y385462D02*
X909364D01*
Y379538D01*
X914450D01*
Y374636D01*
X909364D01*
Y367530D01*
X911277D01*
Y311584D01*
X910916D01*
Y308809D01*
X914084D01*
Y311584D01*
X913723D01*
Y367530D01*
X921982D01*
Y374636D01*
X916897D01*
Y379538D01*
X921982D01*
Y385462D01*
D02*
G37*
G36*
X707504Y312232D02*
X703500D01*
Y308740D01*
X707504D01*
Y312232D01*
D02*
G37*
G36*
X702500D02*
X698496D01*
Y308740D01*
X702500D01*
Y312232D01*
D02*
G37*
G36*
X705136Y346537D02*
X692518D01*
Y337463D01*
X705136D01*
Y340879D01*
X706535D01*
X715619Y331795D01*
Y331183D01*
X712203D01*
Y318172D01*
X715378D01*
Y312521D01*
X714522D01*
Y309758D01*
X692207Y287443D01*
X691964Y287079D01*
X691878Y286649D01*
X691878Y286649D01*
Y279352D01*
X688896D01*
Y272168D01*
X697104D01*
Y279352D01*
X694122D01*
Y286185D01*
X716108Y308172D01*
X718378D01*
Y307315D01*
X716892Y305828D01*
X715511D01*
X714522Y304839D01*
Y303065D01*
X709707Y298250D01*
X709464Y297886D01*
X709378Y297457D01*
X709378Y297457D01*
Y273965D01*
X707604Y272190D01*
X707104Y272397D01*
X707104Y272573D01*
Y279352D01*
X698896D01*
Y272168D01*
X706680D01*
X706874Y272168D01*
X707082Y271668D01*
X705235Y269822D01*
X686465D01*
X684619Y271668D01*
X684826Y272168D01*
X687104D01*
Y279352D01*
X678896D01*
Y272168D01*
X681861D01*
X681878Y271700D01*
X681964Y271271D01*
X682207Y270907D01*
X685207Y267907D01*
X685207Y267907D01*
X685571Y267664D01*
X686000Y267579D01*
X705700D01*
X705700Y267578D01*
X706129Y267664D01*
X706493Y267907D01*
X711293Y272707D01*
X711293Y272707D01*
X711536Y273071D01*
X711622Y273500D01*
X711622Y273500D01*
Y296992D01*
X716108Y301479D01*
X717489D01*
X718478Y302468D01*
Y304242D01*
X720293Y306057D01*
X720536Y306421D01*
X720622Y306851D01*
X720622Y306851D01*
Y308535D01*
X720811Y308725D01*
X721916D01*
Y308459D01*
X725084D01*
Y311234D01*
X721916D01*
Y310968D01*
X720346D01*
X720346Y310968D01*
X719917Y310883D01*
X719553Y310640D01*
X718978Y310064D01*
X718478Y310271D01*
Y312521D01*
X717622D01*
Y318172D01*
X721277D01*
Y331183D01*
X717862D01*
Y332260D01*
X717862Y332260D01*
X717776Y332689D01*
X717533Y333053D01*
X707793Y342793D01*
X707429Y343036D01*
X707000Y343122D01*
X707000Y343122D01*
X705136D01*
Y346537D01*
D02*
G37*
G36*
X760500Y312988D02*
X759727Y312886D01*
X759006Y312587D01*
X758387Y312113D01*
X757912Y311494D01*
X757614Y310773D01*
X757512Y310000D01*
X757614Y309227D01*
X757912Y308506D01*
X758387Y307887D01*
X759006Y307413D01*
X759727Y307114D01*
X760500Y307012D01*
X760958Y307073D01*
X762123Y305907D01*
Y266500D01*
X762228Y265973D01*
X762527Y265527D01*
X768623Y259430D01*
Y256444D01*
X768533Y256407D01*
X767719Y255782D01*
X767093Y254967D01*
X766700Y254018D01*
X766566Y253000D01*
X766700Y251982D01*
X767093Y251033D01*
X767719Y250219D01*
X768533Y249593D01*
X769482Y249200D01*
X770500Y249066D01*
X771518Y249200D01*
X772467Y249593D01*
X773281Y250219D01*
X773907Y251033D01*
X774300Y251982D01*
X774434Y253000D01*
X774300Y254018D01*
X773907Y254967D01*
X773281Y255782D01*
X772467Y256407D01*
X771518Y256800D01*
X771377Y256818D01*
Y260000D01*
X771377Y260000D01*
X771272Y260527D01*
X770973Y260973D01*
X764877Y267070D01*
Y306477D01*
X764772Y307004D01*
X764473Y307451D01*
X763762Y308162D01*
X763954Y308624D01*
X766766D01*
Y308416D01*
X769541D01*
Y311584D01*
X766766D01*
Y311377D01*
X763136D01*
X763088Y311494D01*
X762613Y312113D01*
X761994Y312587D01*
X761273Y312886D01*
X760500Y312988D01*
D02*
G37*
G36*
X731500Y309500D02*
X730213D01*
Y308016D01*
X731500D01*
Y309500D01*
D02*
G37*
G36*
X733482Y385513D02*
X720864D01*
Y379589D01*
X726052D01*
Y374687D01*
X720864D01*
Y367581D01*
X725878D01*
Y307622D01*
X725084D01*
Y307887D01*
X721916D01*
Y305113D01*
X725084D01*
Y305379D01*
X726414D01*
X726414Y305378D01*
X726843Y305464D01*
X727207Y305707D01*
X727793Y306293D01*
X727793Y306293D01*
X728036Y306657D01*
X728122Y307086D01*
Y367581D01*
X733482D01*
Y374687D01*
X728295D01*
Y379589D01*
X733482D01*
Y385513D01*
D02*
G37*
G36*
X787982D02*
X775364D01*
Y381535D01*
X774132Y380303D01*
X773973Y380272D01*
X773527Y379973D01*
X773228Y379527D01*
X773124Y379000D01*
Y373379D01*
X773228Y372852D01*
X773527Y372405D01*
X774405Y371527D01*
X774852Y371228D01*
X775364Y371126D01*
Y367581D01*
X776623D01*
Y315070D01*
X775527Y313973D01*
X775228Y313527D01*
X775124Y313000D01*
Y311584D01*
X775113D01*
Y308416D01*
X777887D01*
Y311584D01*
X777877D01*
Y312430D01*
X778973Y313527D01*
X779272Y313973D01*
X779377Y314500D01*
Y315695D01*
X779877Y315847D01*
X780145Y315445D01*
X780480Y315221D01*
Y314222D01*
X779125Y312867D01*
X778904Y312537D01*
X778827Y312146D01*
Y311584D01*
X778459D01*
Y308416D01*
X778827D01*
Y307469D01*
X777870Y306512D01*
X777333Y306871D01*
X776600Y307016D01*
X775867Y306871D01*
X775245Y306455D01*
X774829Y305833D01*
X774684Y305100D01*
X774829Y304367D01*
X775245Y303745D01*
X775867Y303329D01*
X776600Y303184D01*
X777333Y303329D01*
X777955Y303745D01*
X778222Y304145D01*
X778290Y304158D01*
X778621Y304379D01*
X780567Y306325D01*
X780788Y306656D01*
X780866Y307046D01*
Y308416D01*
X781234D01*
Y311584D01*
X781234D01*
X781226Y312084D01*
X782221Y313079D01*
X782442Y313410D01*
X782520Y313800D01*
Y315221D01*
X782855Y315445D01*
X783271Y316067D01*
X783416Y316800D01*
X783271Y317533D01*
X782855Y318155D01*
X782233Y318570D01*
X781500Y318716D01*
X780767Y318570D01*
X780145Y318155D01*
X779877Y317753D01*
X779377Y317905D01*
Y367581D01*
X787982D01*
Y374687D01*
X775877D01*
Y378154D01*
X777311Y379589D01*
X787982D01*
Y385513D01*
D02*
G37*
G36*
X687104Y311832D02*
X678896D01*
Y304648D01*
X687104D01*
Y311832D01*
D02*
G37*
G36*
X707504Y307740D02*
X703500D01*
Y304248D01*
X707504D01*
Y307740D01*
D02*
G37*
G36*
X702500D02*
X698496D01*
Y304248D01*
X702500D01*
Y307740D01*
D02*
G37*
G36*
X747000Y306672D02*
Y301898D01*
X748724D01*
Y304547D01*
X748555Y305398D01*
X748072Y306120D01*
X747351Y306602D01*
X747000Y306672D01*
D02*
G37*
G36*
X746000D02*
X745649Y306602D01*
X744928Y306120D01*
X744445Y305398D01*
X744276Y304547D01*
Y301898D01*
X746000D01*
Y306672D01*
D02*
G37*
G36*
X742000D02*
Y301898D01*
X743724D01*
Y304547D01*
X743555Y305398D01*
X743073Y306120D01*
X742351Y306602D01*
X742000Y306672D01*
D02*
G37*
G36*
X741000D02*
X740649Y306602D01*
X739927Y306120D01*
X739445Y305398D01*
X739276Y304547D01*
Y301898D01*
X741000D01*
Y306672D01*
D02*
G37*
G36*
X732000D02*
Y301898D01*
X733724D01*
Y304547D01*
X733555Y305398D01*
X733073Y306120D01*
X732351Y306602D01*
X732000Y306672D01*
D02*
G37*
G36*
X731000D02*
X730649Y306602D01*
X729927Y306120D01*
X729445Y305398D01*
X729276Y304547D01*
Y301898D01*
X731000D01*
Y306672D01*
D02*
G37*
G36*
X861000Y301750D02*
X859000D01*
Y300000D01*
X861000D01*
Y301750D01*
D02*
G37*
G36*
X748724Y300898D02*
X747000D01*
Y296124D01*
X747351Y296193D01*
X748072Y296675D01*
X748555Y297397D01*
X748724Y298248D01*
Y300898D01*
D02*
G37*
G36*
X746000D02*
X744276D01*
Y298248D01*
X744445Y297397D01*
X744928Y296675D01*
X745649Y296193D01*
X746000Y296124D01*
Y300898D01*
D02*
G37*
G36*
X743724D02*
X742000D01*
Y296124D01*
X742351Y296193D01*
X743073Y296675D01*
X743555Y297397D01*
X743724Y298248D01*
Y300898D01*
D02*
G37*
G36*
X741000D02*
X739276D01*
Y298248D01*
X739445Y297397D01*
X739927Y296675D01*
X740649Y296193D01*
X741000Y296124D01*
Y300898D01*
D02*
G37*
G36*
X733724D02*
X732000D01*
Y296124D01*
X732351Y296193D01*
X733073Y296675D01*
X733555Y297397D01*
X733724Y298248D01*
Y300898D01*
D02*
G37*
G36*
X731000D02*
X729276D01*
Y298248D01*
X729445Y297397D01*
X729927Y296675D01*
X730649Y296193D01*
X731000Y296124D01*
Y300898D01*
D02*
G37*
G36*
X921500Y293488D02*
X920727Y293386D01*
X920006Y293088D01*
X919387Y292613D01*
X918913Y291994D01*
X918614Y291273D01*
X918512Y290500D01*
X918614Y289727D01*
X918913Y289006D01*
X919387Y288387D01*
X920006Y287913D01*
X920727Y287614D01*
X921500Y287512D01*
X922273Y287614D01*
X922646Y287768D01*
X923863Y286551D01*
X923533Y286174D01*
X922994Y286588D01*
X922273Y286886D01*
X921500Y286988D01*
X920727Y286886D01*
X920006Y286588D01*
X919387Y286113D01*
X918913Y285494D01*
X918614Y284773D01*
X918512Y284000D01*
X918614Y283227D01*
X918913Y282506D01*
X919387Y281887D01*
X920006Y281413D01*
X920727Y281114D01*
X921500Y281012D01*
X922273Y281114D01*
X922646Y281268D01*
X923589Y280325D01*
X923863Y280051D01*
X923541Y279683D01*
X923238Y279900D01*
X922994Y280087D01*
X922273Y280386D01*
X921500Y280488D01*
X920727Y280386D01*
X920006Y280087D01*
X919387Y279613D01*
X918913Y278994D01*
X918614Y278273D01*
X918512Y277500D01*
X918614Y276727D01*
X918913Y276006D01*
X919387Y275387D01*
X920006Y274913D01*
X920727Y274614D01*
X921500Y274512D01*
X922273Y274614D01*
X922994Y274913D01*
X923613Y275387D01*
X923643Y275427D01*
X924258Y275407D01*
X924463Y275101D01*
X925084Y274685D01*
X925818Y274539D01*
X926551Y274685D01*
X926840Y274879D01*
X927439D01*
Y274416D01*
X930214D01*
Y277584D01*
X927621Y277584D01*
X927196Y277779D01*
X927173Y277811D01*
X926551Y278226D01*
X925818Y278372D01*
X925084Y278226D01*
X924912Y278111D01*
X924388Y278255D01*
X924386Y278273D01*
X924088Y278994D01*
X923613Y279613D01*
X923623Y279625D01*
X923957Y279957D01*
X924321Y279714D01*
X924642Y279650D01*
X924645Y279645D01*
X925267Y279229D01*
X926000Y279084D01*
X926733Y279229D01*
X926939Y279367D01*
X927439Y279166D01*
Y279166D01*
X930214D01*
Y282334D01*
X927439D01*
X927036Y282568D01*
X926768Y282747D01*
X926739Y283010D01*
X926768Y283273D01*
X927355Y283665D01*
X927522Y283916D01*
X930214D01*
Y287084D01*
X927439D01*
Y286872D01*
X926715D01*
X924232Y289354D01*
X924386Y289727D01*
X924488Y290500D01*
X924386Y291273D01*
X924088Y291994D01*
X923613Y292613D01*
X922994Y293088D01*
X922273Y293386D01*
X921500Y293488D01*
D02*
G37*
G36*
X824000Y287457D02*
X822515D01*
Y286170D01*
X824000D01*
Y287457D01*
D02*
G37*
G36*
X821984D02*
X820500D01*
Y286170D01*
X821984D01*
Y287457D01*
D02*
G37*
G36*
X821985Y285330D02*
X820500D01*
Y284043D01*
X821985D01*
Y285330D01*
D02*
G37*
G36*
X819500D02*
X818016D01*
Y284043D01*
X819500D01*
Y285330D01*
D02*
G37*
G36*
X990287Y282484D02*
X989000D01*
Y281000D01*
X990287D01*
Y282484D01*
D02*
G37*
G36*
X742000Y285774D02*
Y281000D01*
X743724D01*
Y283650D01*
X743555Y284501D01*
X743073Y285222D01*
X742351Y285704D01*
X742000Y285774D01*
D02*
G37*
G36*
X741000D02*
X740649Y285704D01*
X739927Y285222D01*
X739445Y284501D01*
X739276Y283650D01*
Y281000D01*
X741000D01*
Y285774D01*
D02*
G37*
G36*
X820000Y283543D02*
D01*
Y283043D01*
X818016D01*
Y281756D01*
X818097D01*
X818416Y281387D01*
Y281365D01*
X818151Y280865D01*
X818116D01*
X817765Y280795D01*
X817467Y280596D01*
X817055Y280185D01*
X816180D01*
X815785Y280580D01*
Y283238D01*
X809664D01*
Y279282D01*
X814487D01*
X815151Y278618D01*
X815449Y278419D01*
X815800Y278349D01*
X817435D01*
X817786Y278419D01*
X817950Y278529D01*
X818416Y278613D01*
X818416Y278613D01*
X818416Y278613D01*
X821584D01*
Y281256D01*
X821584Y281387D01*
X821902Y281756D01*
X821985D01*
Y283043D01*
X820000D01*
Y283543D01*
D02*
G37*
G36*
X674984Y281059D02*
X673500D01*
Y279772D01*
X674984D01*
Y281059D01*
D02*
G37*
G36*
X990287Y280000D02*
X989000D01*
Y278516D01*
X990287D01*
Y280000D01*
D02*
G37*
G36*
Y277484D02*
X989000D01*
Y276000D01*
X990287D01*
Y277484D01*
D02*
G37*
G36*
X736500Y285466D02*
X735805Y285327D01*
X735216Y284934D01*
X734822Y284345D01*
X734684Y283650D01*
Y277350D01*
X734691Y277316D01*
X733273Y275898D01*
X732885Y276217D01*
X732953Y276319D01*
X733178Y276655D01*
X733316Y277350D01*
Y283650D01*
X733178Y284345D01*
X732784Y284934D01*
X732195Y285327D01*
X731500Y285466D01*
X730805Y285327D01*
X730216Y284934D01*
X729822Y284345D01*
X729684Y283650D01*
Y277350D01*
X729770Y276918D01*
X716269Y263418D01*
X710000D01*
X709649Y263348D01*
X709351Y263149D01*
X702547Y256345D01*
X702467Y256407D01*
X701518Y256800D01*
X700500Y256934D01*
X699482Y256800D01*
X698533Y256407D01*
X697718Y255782D01*
X697093Y254967D01*
X696700Y254018D01*
X696566Y253000D01*
X696700Y251982D01*
X697093Y251033D01*
X697718Y250219D01*
X698533Y249593D01*
X699482Y249200D01*
X700500Y249066D01*
X701518Y249200D01*
X702467Y249593D01*
X703281Y250219D01*
X703907Y251033D01*
X704300Y251982D01*
X704434Y253000D01*
X704300Y254018D01*
X703907Y254967D01*
X703845Y255047D01*
X710380Y261582D01*
X716650D01*
X717001Y261652D01*
X717299Y261851D01*
X731068Y275620D01*
X731500Y275534D01*
X732195Y275673D01*
X732531Y275897D01*
X732634Y275966D01*
X732952Y275577D01*
X713211Y255836D01*
X712467Y256407D01*
X711518Y256800D01*
X710500Y256934D01*
X709482Y256800D01*
X708533Y256407D01*
X707719Y255782D01*
X707093Y254967D01*
X706700Y254018D01*
X706566Y253000D01*
X706700Y251982D01*
X707093Y251033D01*
X707719Y250219D01*
X708533Y249593D01*
X709482Y249200D01*
X710500Y249066D01*
X711518Y249200D01*
X712467Y249593D01*
X713281Y250219D01*
X713907Y251033D01*
X714300Y251982D01*
X714434Y253000D01*
X714300Y254018D01*
X714209Y254238D01*
X735708Y275738D01*
X735805Y275673D01*
X736500Y275534D01*
X737195Y275673D01*
X737784Y276066D01*
X738178Y276655D01*
X738316Y277350D01*
Y283650D01*
X738178Y284345D01*
X737784Y284934D01*
X737195Y285327D01*
X736500Y285466D01*
D02*
G37*
G36*
X743724Y280000D02*
X742000D01*
Y275226D01*
X742351Y275296D01*
X743073Y275778D01*
X743555Y276499D01*
X743724Y277350D01*
Y280000D01*
D02*
G37*
G36*
X741000D02*
X739276D01*
Y277350D01*
X739445Y276499D01*
X739927Y275778D01*
X740649Y275296D01*
X741000Y275226D01*
Y280000D01*
D02*
G37*
G36*
X990287Y275000D02*
X989000D01*
Y273516D01*
X990287D01*
Y275000D01*
D02*
G37*
G36*
X741957Y273985D02*
X740670D01*
Y272500D01*
X741957D01*
Y273985D01*
D02*
G37*
G36*
Y271500D02*
X740670D01*
Y270016D01*
X741957D01*
Y271500D01*
D02*
G37*
G36*
X927700Y268027D02*
X926216D01*
Y266739D01*
X927700D01*
Y268027D01*
D02*
G37*
G36*
X981596Y267416D02*
X980863Y267270D01*
X980241Y266855D01*
X979826Y266233D01*
X979680Y265500D01*
X979826Y264767D01*
X980241Y264145D01*
X980863Y263730D01*
X981596Y263584D01*
X982330Y263730D01*
X982951Y264145D01*
X983174Y264167D01*
X988253Y259088D01*
X988014Y258512D01*
X987912Y257739D01*
X988014Y256965D01*
X988313Y256245D01*
X988787Y255626D01*
X989406Y255151D01*
X990127Y254853D01*
X990900Y254751D01*
X991673Y254853D01*
X992394Y255151D01*
X993013Y255626D01*
X993487Y256245D01*
X993786Y256965D01*
X993888Y257739D01*
X993786Y258512D01*
X993487Y259232D01*
X993013Y259851D01*
X992394Y260326D01*
X991673Y260625D01*
X990900Y260726D01*
X990127Y260625D01*
X989550Y260386D01*
X983788Y266149D01*
X983490Y266348D01*
X983260Y266393D01*
X982951Y266855D01*
X982330Y267270D01*
X981596Y267416D01*
D02*
G37*
G36*
X930000Y257271D02*
X929377Y257189D01*
X928331Y256756D01*
X927433Y256067D01*
X926744Y255169D01*
X926311Y254122D01*
X926229Y253500D01*
X930000D01*
Y257271D01*
D02*
G37*
G36*
X860500Y256934D02*
X859482Y256800D01*
X858533Y256407D01*
X857718Y255782D01*
X857093Y254967D01*
X856700Y254018D01*
X856566Y253000D01*
X856700Y251982D01*
X857093Y251033D01*
X857718Y250219D01*
X858533Y249593D01*
X859482Y249200D01*
X860500Y249066D01*
X861518Y249200D01*
X862467Y249593D01*
X863282Y250219D01*
X863907Y251033D01*
X864300Y251982D01*
X864434Y253000D01*
X864300Y254018D01*
X863907Y254967D01*
X863282Y255782D01*
X862467Y256407D01*
X861518Y256800D01*
X860500Y256934D01*
D02*
G37*
G36*
X850500D02*
X849482Y256800D01*
X848533Y256407D01*
X847719Y255782D01*
X847093Y254967D01*
X846700Y254018D01*
X846566Y253000D01*
X846700Y251982D01*
X847093Y251033D01*
X847719Y250219D01*
X848533Y249593D01*
X849482Y249200D01*
X850500Y249066D01*
X851518Y249200D01*
X852467Y249593D01*
X853281Y250219D01*
X853907Y251033D01*
X854300Y251982D01*
X854434Y253000D01*
X854300Y254018D01*
X853907Y254967D01*
X853281Y255782D01*
X852467Y256407D01*
X851518Y256800D01*
X850500Y256934D01*
D02*
G37*
G36*
X674584Y285714D02*
X671416D01*
Y284237D01*
X668351Y281172D01*
X668152Y280875D01*
X668082Y280524D01*
Y277000D01*
X668152Y276649D01*
X668351Y276351D01*
X669623Y275080D01*
X669920Y274881D01*
X670271Y274811D01*
X671415D01*
Y274341D01*
X672564D01*
Y270316D01*
X672642Y269926D01*
X672863Y269595D01*
X695679Y246779D01*
X696010Y246558D01*
X696400Y246480D01*
X744031D01*
X744422Y246558D01*
X744752Y246779D01*
X746721Y248748D01*
X746942Y249078D01*
X747020Y249469D01*
Y250308D01*
X747520Y250478D01*
X747718Y250219D01*
X748533Y249593D01*
X749482Y249200D01*
X750500Y249066D01*
X751518Y249200D01*
X752467Y249593D01*
X753281Y250219D01*
X753907Y251033D01*
X754300Y251982D01*
X754434Y253000D01*
X754300Y254018D01*
X753907Y254967D01*
X753281Y255782D01*
X752467Y256407D01*
X751518Y256800D01*
X750500Y256934D01*
X749482Y256800D01*
X748533Y256407D01*
X747718Y255782D01*
X747520Y255522D01*
X747020Y255692D01*
Y266921D01*
X747355Y267145D01*
X747771Y267767D01*
X747916Y268500D01*
X747771Y269233D01*
X747355Y269855D01*
X747264Y269916D01*
X747387Y270416D01*
X747387D01*
Y272045D01*
X747536Y272268D01*
X747622Y272697D01*
X747622Y272697D01*
Y275958D01*
X747784Y276066D01*
X748178Y276655D01*
X748316Y277350D01*
Y283650D01*
X748178Y284345D01*
X747784Y284934D01*
X747195Y285327D01*
X746500Y285466D01*
X745805Y285327D01*
X745216Y284934D01*
X744822Y284345D01*
X744684Y283650D01*
Y277350D01*
X744822Y276655D01*
X745216Y276066D01*
X745378Y275958D01*
Y273938D01*
X745025Y273584D01*
X744613Y273584D01*
X744244Y273902D01*
Y273985D01*
X742957D01*
Y272000D01*
Y270016D01*
X744151D01*
X744485Y269616D01*
X744230Y269233D01*
X744084Y268500D01*
X744230Y267767D01*
X744645Y267145D01*
X744980Y266921D01*
Y249891D01*
X743609Y248520D01*
X696822D01*
X674603Y270739D01*
Y275341D01*
X674584Y275440D01*
Y276984D01*
X674584Y277116D01*
X674902Y277484D01*
X674984D01*
Y278772D01*
X673000D01*
Y279272D01*
X672500D01*
Y281059D01*
X671540D01*
X671333Y281559D01*
X672714Y282939D01*
X674584D01*
Y285714D01*
D02*
G37*
G36*
X740500Y256934D02*
X739482Y256800D01*
X738533Y256407D01*
X737718Y255782D01*
X737093Y254967D01*
X736700Y254018D01*
X736566Y253000D01*
X736700Y251982D01*
X737093Y251033D01*
X737718Y250219D01*
X738533Y249593D01*
X739482Y249200D01*
X740500Y249066D01*
X741518Y249200D01*
X742467Y249593D01*
X743282Y250219D01*
X743907Y251033D01*
X744300Y251982D01*
X744434Y253000D01*
X744300Y254018D01*
X743907Y254967D01*
X743282Y255782D01*
X742467Y256407D01*
X741518Y256800D01*
X740500Y256934D01*
D02*
G37*
G36*
X730500D02*
X729482Y256800D01*
X728533Y256407D01*
X727718Y255782D01*
X727093Y254967D01*
X726700Y254018D01*
X726566Y253000D01*
X726700Y251982D01*
X727093Y251033D01*
X727718Y250219D01*
X728533Y249593D01*
X729482Y249200D01*
X730500Y249066D01*
X731518Y249200D01*
X732467Y249593D01*
X733282Y250219D01*
X733907Y251033D01*
X734300Y251982D01*
X734434Y253000D01*
X734300Y254018D01*
X733907Y254967D01*
X733282Y255782D01*
X732467Y256407D01*
X731518Y256800D01*
X730500Y256934D01*
D02*
G37*
G36*
X720500D02*
X719482Y256800D01*
X718533Y256407D01*
X717719Y255782D01*
X717093Y254967D01*
X716700Y254018D01*
X716566Y253000D01*
X716700Y251982D01*
X717093Y251033D01*
X717719Y250219D01*
X718533Y249593D01*
X719482Y249200D01*
X720500Y249066D01*
X721518Y249200D01*
X722467Y249593D01*
X723281Y250219D01*
X723907Y251033D01*
X724300Y251982D01*
X724434Y253000D01*
X724300Y254018D01*
X723907Y254967D01*
X723281Y255782D01*
X722467Y256407D01*
X721518Y256800D01*
X720500Y256934D01*
D02*
G37*
G36*
X930000Y252500D02*
X926229D01*
X926311Y251877D01*
X926744Y250831D01*
X927433Y249933D01*
X928331Y249244D01*
X929377Y248811D01*
X930000Y248729D01*
Y252500D01*
D02*
G37*
G36*
X960000Y233000D02*
X958713D01*
Y231516D01*
X960000D01*
Y233000D01*
D02*
G37*
G36*
X972098Y205662D02*
X969236D01*
Y195319D01*
X972098D01*
Y205662D01*
D02*
G37*
G36*
X968236D02*
X965374D01*
Y195319D01*
X968236D01*
Y205662D01*
D02*
G37*
G36*
X972098Y194319D02*
X969236D01*
Y183976D01*
X972098D01*
Y194319D01*
D02*
G37*
G36*
X968236D02*
X965374D01*
Y183976D01*
X968236D01*
Y194319D01*
D02*
G37*
G36*
X1006250Y184005D02*
X998750D01*
Y170994D01*
X1006250D01*
Y184005D01*
D02*
G37*
G36*
X958407D02*
X950908D01*
Y170994D01*
X958407D01*
Y184005D01*
D02*
G37*
G36*
X736400Y171725D02*
Y168900D01*
X739225D01*
X739176Y169278D01*
X738837Y170096D01*
X738298Y170798D01*
X737596Y171337D01*
X736778Y171676D01*
X736400Y171725D01*
D02*
G37*
G36*
X735400D02*
X735022Y171676D01*
X734204Y171337D01*
X733502Y170798D01*
X732963Y170096D01*
X732624Y169278D01*
X732575Y168900D01*
X735400D01*
Y171725D01*
D02*
G37*
G36*
X859374Y170059D02*
X858284D01*
Y167000D01*
X859374D01*
Y170059D01*
D02*
G37*
G36*
X739225Y167900D02*
X736400D01*
Y165075D01*
X736778Y165124D01*
X737596Y165463D01*
X738298Y166002D01*
X738837Y166704D01*
X739176Y167522D01*
X739225Y167900D01*
D02*
G37*
G36*
X735400D02*
X732575D01*
X732624Y167522D01*
X732963Y166704D01*
X733502Y166002D01*
X734204Y165463D01*
X735022Y165124D01*
X735400Y165075D01*
Y167900D01*
D02*
G37*
G36*
X859374Y166000D02*
X858284D01*
Y162941D01*
X859374D01*
Y166000D01*
D02*
G37*
G36*
X792895Y169990D02*
X791927D01*
Y166431D01*
Y162872D01*
X792895D01*
Y166431D01*
Y169990D01*
D02*
G37*
G36*
X785021D02*
X784053D01*
Y166431D01*
Y162872D01*
X785021D01*
Y166431D01*
Y169990D01*
D02*
G37*
G36*
X920500Y256934D02*
X919482Y256800D01*
X918533Y256407D01*
X917719Y255782D01*
X917093Y254967D01*
X916700Y254018D01*
X916566Y253000D01*
X916700Y251982D01*
X917093Y251033D01*
X917719Y250219D01*
X918533Y249593D01*
X919482Y249200D01*
X920178Y249109D01*
Y248200D01*
X920178Y248200D01*
X920264Y247771D01*
X920507Y247407D01*
X953507Y214407D01*
X953507Y214407D01*
X953871Y214164D01*
X954300Y214078D01*
X954300Y214078D01*
X979335D01*
X987300Y206114D01*
Y205261D01*
X985459D01*
Y184377D01*
X987300D01*
Y179686D01*
X965675Y158062D01*
X965400Y158116D01*
X964667Y157970D01*
X964045Y157555D01*
X963630Y156933D01*
X963484Y156200D01*
X963630Y155467D01*
X964045Y154845D01*
X964667Y154429D01*
X965400Y154284D01*
X966133Y154429D01*
X966755Y154845D01*
X967171Y155467D01*
X967316Y156200D01*
X967262Y156475D01*
X989214Y178428D01*
X989214Y178428D01*
X989457Y178792D01*
X989543Y179221D01*
Y184377D01*
X991383D01*
Y205261D01*
X989543D01*
Y206579D01*
X989543Y206579D01*
X989457Y207008D01*
X989214Y207372D01*
X989214Y207372D01*
X980593Y215993D01*
X980229Y216236D01*
X979800Y216322D01*
X979800Y216321D01*
X954765D01*
X922422Y248665D01*
Y249575D01*
X922467Y249593D01*
X923281Y250219D01*
X923907Y251033D01*
X924300Y251982D01*
X924434Y253000D01*
X924300Y254018D01*
X923907Y254967D01*
X923281Y255782D01*
X922467Y256407D01*
X921518Y256800D01*
X920500Y256934D01*
D02*
G37*
G36*
X857921Y162000D02*
X853878D01*
Y157169D01*
X857921D01*
Y162000D01*
D02*
G37*
G36*
X852878D02*
X848835D01*
Y157169D01*
X852878D01*
Y162000D01*
D02*
G37*
G36*
X750104Y161931D02*
X746061D01*
Y157100D01*
X750104D01*
Y161931D01*
D02*
G37*
G36*
X745061D02*
X741017D01*
Y157100D01*
X745061D01*
Y161931D01*
D02*
G37*
G36*
X857921Y156169D02*
X853878D01*
Y151339D01*
X857921D01*
Y156169D01*
D02*
G37*
G36*
X852878D02*
X848835D01*
Y151339D01*
X852878D01*
Y156169D01*
D02*
G37*
G36*
X820183Y156100D02*
X816139D01*
Y151269D01*
X820183D01*
Y156100D01*
D02*
G37*
G36*
X815139D02*
X811096D01*
Y151269D01*
X815139D01*
Y156100D01*
D02*
G37*
G36*
X750104Y156100D02*
X746061D01*
Y151269D01*
X750104D01*
Y156100D01*
D02*
G37*
G36*
X745061D02*
X741017D01*
Y151269D01*
X745061D01*
Y156100D01*
D02*
G37*
G36*
X996171Y165969D02*
X994507Y165838D01*
X992885Y165448D01*
X991343Y164810D01*
X989921Y163938D01*
X988652Y162855D01*
X987569Y161586D01*
X986697Y160163D01*
X986058Y158622D01*
X985669Y156999D01*
X985538Y155336D01*
X985669Y153673D01*
X986058Y152050D01*
X986697Y150509D01*
X987569Y149086D01*
X988652Y147818D01*
X989921Y146734D01*
X991343Y145862D01*
X992885Y145224D01*
X994507Y144834D01*
X996171Y144703D01*
X997834Y144834D01*
X999456Y145224D01*
X1000998Y145862D01*
X1002421Y146734D01*
X1003689Y147818D01*
X1004773Y149086D01*
X1005645Y150509D01*
X1006283Y152050D01*
X1006672Y153673D01*
X1006803Y155336D01*
X1006672Y156999D01*
X1006283Y158622D01*
X1005645Y160163D01*
X1004773Y161586D01*
X1003689Y162855D01*
X1002421Y163938D01*
X1000998Y164810D01*
X999456Y165448D01*
X997834Y165838D01*
X996171Y165969D01*
D02*
G37*
G36*
X673336D02*
X671673Y165838D01*
X670050Y165448D01*
X668509Y164810D01*
X667086Y163938D01*
X665817Y162855D01*
X664734Y161586D01*
X663862Y160163D01*
X663224Y158622D01*
X662834Y156999D01*
X662703Y155336D01*
X662834Y153673D01*
X663224Y152050D01*
X663862Y150509D01*
X664734Y149086D01*
X665817Y147818D01*
X667086Y146734D01*
X668509Y145862D01*
X670050Y145224D01*
X671673Y144834D01*
X673336Y144703D01*
X674999Y144834D01*
X676622Y145224D01*
X678163Y145862D01*
X679586Y146734D01*
X680855Y147818D01*
X681938Y149086D01*
X682810Y150509D01*
X683448Y152050D01*
X683838Y153673D01*
X683969Y155336D01*
X683838Y156999D01*
X683448Y158622D01*
X682810Y160163D01*
X681938Y161586D01*
X680855Y162855D01*
X679586Y163938D01*
X678163Y164810D01*
X676622Y165448D01*
X674999Y165838D01*
X673336Y165969D01*
D02*
G37*
%LPD*%
G36*
X867726Y341813D02*
X867721Y341790D01*
X867867Y341057D01*
X868283Y340435D01*
X868904Y340020D01*
X869637Y339874D01*
X869913Y339929D01*
X870300Y339611D01*
Y328100D01*
X868100Y325900D01*
X858100D01*
Y327973D01*
X858600Y328220D01*
X858804Y328063D01*
X859622Y327724D01*
X860000Y327675D01*
Y331000D01*
Y334325D01*
X859622Y334276D01*
X858804Y333937D01*
X858600Y333780D01*
X858100Y334027D01*
Y334484D01*
X853772D01*
X853372Y334085D01*
X851516D01*
Y334485D01*
X850229D01*
Y332500D01*
Y330516D01*
X851116D01*
Y329485D01*
X850229D01*
Y327500D01*
Y325516D01*
X851116D01*
Y324485D01*
X850229D01*
Y322500D01*
Y320516D01*
X851116D01*
Y317616D01*
X849300Y315800D01*
X842600D01*
Y317500D01*
X839700Y320400D01*
X822900D01*
Y331200D01*
X833900D01*
Y326100D01*
X835700Y324300D01*
X842600D01*
Y324400D01*
X843670Y325470D01*
Y325516D01*
X844925D01*
Y327500D01*
Y329484D01*
X843670D01*
Y330516D01*
X844925D01*
Y332500D01*
Y334484D01*
X843670D01*
Y337170D01*
X846100Y339600D01*
Y339700D01*
X848300Y342200D01*
X857750D01*
Y339500D01*
X860500D01*
X863250D01*
Y342200D01*
X867409D01*
X867726Y341813D01*
D02*
G37*
G36*
X827900Y310500D02*
X818700Y301300D01*
X805500D01*
Y303065D01*
X806000Y303235D01*
X806102Y303102D01*
X806804Y302563D01*
X807622Y302224D01*
X808000Y302175D01*
Y305500D01*
Y308825D01*
X807622Y308776D01*
X806804Y308437D01*
X806102Y307898D01*
X806000Y307765D01*
X805500Y307935D01*
Y317400D01*
X805400Y317500D01*
X805344Y318223D01*
X805809Y318700D01*
X812619D01*
X812784Y318500D01*
X812930Y317767D01*
X813154Y317430D01*
X812916Y316930D01*
X812916D01*
Y314287D01*
X812916Y314156D01*
X812598Y313787D01*
X812516D01*
Y312500D01*
X814500D01*
X816484D01*
Y313787D01*
X816403D01*
X816085Y314156D01*
X816085Y314287D01*
Y316930D01*
X816085Y316930D01*
X816211Y317378D01*
X816471Y317767D01*
X816616Y318500D01*
X816780Y318700D01*
X827900D01*
X827900Y310500D01*
D02*
G37*
G36*
X810751Y325351D02*
X811049Y325152D01*
X811400Y325082D01*
X812030D01*
X812182Y324582D01*
X811982Y324449D01*
X811719Y324055D01*
X811627Y323590D01*
Y322410D01*
X811719Y321945D01*
X811982Y321551D01*
X812376Y321288D01*
X812840Y321196D01*
X814427D01*
X814942Y320680D01*
X815389Y320382D01*
X815915Y320277D01*
X815915Y320277D01*
X818416D01*
Y320266D01*
X821584D01*
Y320277D01*
X822301D01*
X822441Y319941D01*
X822661Y319849D01*
X822562Y319349D01*
X816780D01*
X816749Y319337D01*
X816717Y319346D01*
X816524Y319243D01*
X816321Y319159D01*
X816308Y319128D01*
X816278Y319112D01*
X816114Y318912D01*
X816068Y318759D01*
X815979Y318627D01*
X815859Y318020D01*
X815671Y317739D01*
X815650Y317636D01*
X815586Y317554D01*
X815523Y317330D01*
X815000D01*
Y315543D01*
X814000D01*
Y317477D01*
X813766Y317648D01*
X813710Y317709D01*
X813694Y317791D01*
X813541Y318020D01*
X813421Y318627D01*
X813332Y318759D01*
X813286Y318912D01*
X813122Y319112D01*
X813092Y319128D01*
X813079Y319159D01*
X812876Y319243D01*
X812683Y319346D01*
X812651Y319337D01*
X812619Y319349D01*
X805809D01*
X805805Y319348D01*
X805801Y319349D01*
X805576Y319253D01*
X805350Y319159D01*
X805348Y319155D01*
X805344Y319153D01*
X804879Y318676D01*
X804871Y318656D01*
X804851Y318646D01*
X804780Y318428D01*
X804695Y318215D01*
X804704Y318194D01*
X804697Y318173D01*
X804753Y317450D01*
X804851Y317257D01*
Y310092D01*
X803778Y309020D01*
X800022D01*
X799720Y309322D01*
Y324963D01*
X800220Y325114D01*
X800294Y325003D01*
X800403Y324930D01*
X800582Y324449D01*
X800493Y324315D01*
X800319Y324055D01*
X800227Y323590D01*
Y322410D01*
X800319Y321945D01*
X800582Y321551D01*
X800976Y321288D01*
X801441Y321196D01*
X801536D01*
Y317566D01*
X801351Y317529D01*
X800945Y317258D01*
X800675Y316853D01*
X800580Y316375D01*
Y312625D01*
X800675Y312147D01*
X800945Y311742D01*
X801351Y311471D01*
X801829Y311376D01*
X803079D01*
X803557Y311471D01*
X803962Y311742D01*
X804233Y312147D01*
X804328Y312625D01*
Y316375D01*
X804233Y316853D01*
X803962Y317258D01*
X803557Y317529D01*
X803371Y317566D01*
Y321196D01*
X803759D01*
X804224Y321288D01*
X804618Y321551D01*
X804881Y321945D01*
X804973Y322410D01*
Y323590D01*
X804881Y324055D01*
X804707Y324315D01*
X804618Y324449D01*
X804797Y324930D01*
X804906Y325003D01*
X805258Y325529D01*
X805381Y326150D01*
Y326240D01*
X802600D01*
Y327240D01*
X805381D01*
Y327331D01*
X805258Y327952D01*
X804906Y328478D01*
X804797Y328550D01*
X804618Y329031D01*
X804708Y329166D01*
X804881Y329425D01*
X804908Y329563D01*
X806540D01*
X810751Y325351D01*
D02*
G37*
G36*
X877223Y201520D02*
X872214Y196511D01*
X871518Y196800D01*
X870500Y196934D01*
X869482Y196800D01*
X868533Y196407D01*
X867719Y195782D01*
X867093Y194967D01*
X866700Y194018D01*
X866566Y193000D01*
X866700Y191982D01*
X867093Y191033D01*
X867719Y190218D01*
X868533Y189593D01*
X869482Y189200D01*
X870500Y189066D01*
X871518Y189200D01*
X872467Y189593D01*
X873281Y190218D01*
X873907Y191033D01*
X874300Y191982D01*
X874434Y193000D01*
X874300Y194018D01*
X873907Y194967D01*
X873628Y195330D01*
X879080Y200782D01*
X886331D01*
X886523Y200320D01*
X882547Y196345D01*
X882467Y196407D01*
X881518Y196800D01*
X880500Y196934D01*
X879482Y196800D01*
X878533Y196407D01*
X877719Y195782D01*
X877093Y194967D01*
X876700Y194018D01*
X876566Y193000D01*
X876700Y191982D01*
X877093Y191033D01*
X877719Y190218D01*
X878533Y189593D01*
X879482Y189200D01*
X880500Y189066D01*
X881518Y189200D01*
X882467Y189593D01*
X883282Y190218D01*
X883907Y191033D01*
X884300Y191982D01*
X884434Y193000D01*
X884300Y194018D01*
X883907Y194967D01*
X883845Y195047D01*
X888380Y199582D01*
X895131D01*
X895323Y199120D01*
X892547Y196345D01*
X892467Y196407D01*
X891518Y196800D01*
X890500Y196934D01*
X889482Y196800D01*
X888533Y196407D01*
X887718Y195782D01*
X887093Y194967D01*
X886700Y194018D01*
X886566Y193000D01*
X886700Y191982D01*
X887093Y191033D01*
X887718Y190218D01*
X888533Y189593D01*
X889482Y189200D01*
X890500Y189066D01*
X891518Y189200D01*
X892467Y189593D01*
X893281Y190218D01*
X893907Y191033D01*
X894300Y191982D01*
X894434Y193000D01*
X894300Y194018D01*
X893907Y194967D01*
X893845Y195047D01*
X897180Y198382D01*
X924829D01*
X924951Y198200D01*
Y187669D01*
X919231Y181949D01*
X913100D01*
X912641Y181759D01*
X912451Y181300D01*
Y177149D01*
X906654D01*
X906447Y177649D01*
X918453Y189655D01*
X918533Y189593D01*
X919482Y189200D01*
X920500Y189066D01*
X921518Y189200D01*
X922467Y189593D01*
X923281Y190218D01*
X923907Y191033D01*
X924300Y191982D01*
X924434Y193000D01*
X924300Y194018D01*
X923907Y194967D01*
X923281Y195782D01*
X922467Y196407D01*
X921518Y196800D01*
X920500Y196934D01*
X919482Y196800D01*
X918533Y196407D01*
X917719Y195782D01*
X917093Y194967D01*
X916700Y194018D01*
X916566Y193000D01*
X916700Y191982D01*
X917093Y191033D01*
X917155Y190953D01*
X904599Y178397D01*
X904214Y178503D01*
X904099Y178586D01*
Y179301D01*
X911149Y186351D01*
X911348Y186649D01*
X911418Y187000D01*
Y189187D01*
X911518Y189200D01*
X912467Y189593D01*
X913282Y190218D01*
X913907Y191033D01*
X914300Y191982D01*
X914434Y193000D01*
X914300Y194018D01*
X913907Y194967D01*
X913282Y195782D01*
X912467Y196407D01*
X911518Y196800D01*
X910500Y196934D01*
X909482Y196800D01*
X908533Y196407D01*
X907718Y195782D01*
X907093Y194967D01*
X906700Y194018D01*
X906566Y193000D01*
X906700Y191982D01*
X907093Y191033D01*
X907718Y190218D01*
X908533Y189593D01*
X909482Y189200D01*
X909582Y189187D01*
Y187380D01*
X902532Y180330D01*
X902333Y180032D01*
X901840Y180113D01*
Y189334D01*
X902467Y189593D01*
X903281Y190218D01*
X903907Y191033D01*
X904300Y191982D01*
X904434Y193000D01*
X904300Y194018D01*
X903907Y194967D01*
X903281Y195782D01*
X902467Y196407D01*
X901518Y196800D01*
X900500Y196934D01*
X899482Y196800D01*
X898533Y196407D01*
X897719Y195782D01*
X897093Y194967D01*
X896700Y194018D01*
X896566Y193000D01*
X896700Y191982D01*
X897093Y191033D01*
X897719Y190218D01*
X898533Y189593D01*
X899482Y189200D01*
X900004Y189132D01*
Y169659D01*
X886025D01*
X886022Y169677D01*
X885823Y169975D01*
X866649Y189149D01*
X866351Y189348D01*
X866000Y189418D01*
X863059D01*
X862889Y189918D01*
X863282Y190218D01*
X863907Y191033D01*
X864300Y191982D01*
X864434Y193000D01*
X864300Y194018D01*
X863907Y194967D01*
X863628Y195330D01*
X870280Y201982D01*
X877031D01*
X877223Y201520D01*
D02*
G37*
G36*
X912451Y175488D02*
X912523Y175313D01*
X912560Y175128D01*
X912659Y174980D01*
X912754Y174500D01*
X912659Y174020D01*
X912471Y173739D01*
X912433Y173548D01*
X912362Y173367D01*
X912376Y172589D01*
X912449Y172420D01*
X912485Y172240D01*
X912659Y171980D01*
X912754Y171500D01*
X912693Y171193D01*
X911559Y170059D01*
X911555D01*
Y166500D01*
X910555D01*
Y170059D01*
X909587D01*
Y166500D01*
X908587D01*
Y170059D01*
X907496D01*
X907496Y170059D01*
Y170059D01*
X907139Y170361D01*
X906500Y171000D01*
X906067D01*
Y176500D01*
X912451D01*
Y175488D01*
D02*
G37*
G36*
X935582Y196720D02*
Y180937D01*
X923046Y168400D01*
X920500D01*
Y165854D01*
X919013Y164367D01*
X918551Y164559D01*
Y166000D01*
X916961D01*
Y166500D01*
X916461D01*
Y170059D01*
X915492D01*
Y166500D01*
X914492D01*
Y170059D01*
X913500D01*
D01*
X913402D01*
X913064Y170419D01*
X913063Y170457D01*
X913270Y170767D01*
X913416Y171500D01*
X913270Y172233D01*
X913025Y172601D01*
X913011Y173379D01*
X913270Y173767D01*
X913416Y174500D01*
X913270Y175233D01*
X913100Y175488D01*
Y181300D01*
X919500D01*
X925600Y187400D01*
Y198200D01*
X934102D01*
X935582Y196720D01*
D02*
G37*
G36*
X913524Y162941D02*
X914614D01*
Y163341D01*
X917334D01*
X917525Y162879D01*
X909264Y154618D01*
X901680D01*
X900162Y156136D01*
Y163341D01*
X905528D01*
Y162941D01*
X906618D01*
Y166500D01*
X907618D01*
Y162941D01*
X908709D01*
Y163341D01*
X911433D01*
Y162941D01*
X912524D01*
Y166500D01*
X913524D01*
Y162941D01*
D02*
G37*
G36*
X817500Y162800D02*
X816644Y161944D01*
X806236Y161944D01*
Y162872D01*
X806675D01*
Y166431D01*
Y169990D01*
X806643D01*
X806452Y170452D01*
X806800Y170800D01*
X817500D01*
Y162800D01*
D02*
G37*
G36*
X937982Y178031D02*
Y154886D01*
X935314Y152218D01*
X928000D01*
Y156169D01*
X923457D01*
X918913D01*
Y152218D01*
X911809D01*
X911618Y152680D01*
X918452Y159513D01*
X918913Y159322D01*
Y157169D01*
X922957D01*
Y162247D01*
X922853Y162500D01*
X924831Y164478D01*
X925030Y164776D01*
X925100Y165127D01*
Y165802D01*
X937520Y178223D01*
X937982Y178031D01*
D02*
G37*
%LPC*%
G36*
X853000Y339709D02*
Y338000D01*
X854513D01*
Y338189D01*
X854398Y338771D01*
X854068Y339265D01*
X853574Y339595D01*
X853000Y339709D01*
D02*
G37*
G36*
X852000D02*
X851426Y339595D01*
X850932Y339265D01*
X850602Y338771D01*
X850486Y338189D01*
Y338000D01*
X852000D01*
Y339709D01*
D02*
G37*
G36*
X863250Y338500D02*
X861000D01*
Y335500D01*
X863250D01*
Y338500D01*
D02*
G37*
G36*
X860000D02*
X857750D01*
Y335500D01*
X860000D01*
Y338500D01*
D02*
G37*
G36*
X854513Y337000D02*
X853000D01*
Y335291D01*
X853574Y335405D01*
X854068Y335735D01*
X854398Y336229D01*
X854513Y336811D01*
Y337000D01*
D02*
G37*
G36*
X852000D02*
X850486D01*
Y336811D01*
X850602Y336229D01*
X850932Y335735D01*
X851426Y335405D01*
X852000Y335291D01*
Y337000D01*
D02*
G37*
G36*
X849229Y334485D02*
X847941D01*
Y333000D01*
X849229D01*
Y334485D01*
D02*
G37*
G36*
X847213Y334484D02*
X845925D01*
Y333000D01*
X847213D01*
Y334484D01*
D02*
G37*
G36*
X861000Y334325D02*
Y331500D01*
X863825D01*
X863776Y331878D01*
X863437Y332696D01*
X862898Y333398D01*
X862196Y333937D01*
X861378Y334276D01*
X861000Y334325D01*
D02*
G37*
G36*
X849229Y332000D02*
X847941D01*
Y330516D01*
X849229D01*
Y332000D01*
D02*
G37*
G36*
X847213Y332000D02*
X845925D01*
Y330516D01*
X847213D01*
Y332000D01*
D02*
G37*
G36*
X849229Y329485D02*
X847941D01*
Y328000D01*
X849229D01*
Y329485D01*
D02*
G37*
G36*
X847213Y329484D02*
X845925D01*
Y328000D01*
X847213D01*
Y329484D01*
D02*
G37*
G36*
X863825Y330500D02*
X861000D01*
Y327675D01*
X861378Y327724D01*
X862196Y328063D01*
X862898Y328602D01*
X863437Y329304D01*
X863776Y330122D01*
X863825Y330500D01*
D02*
G37*
G36*
X849229Y327000D02*
X847941D01*
Y325516D01*
X849229D01*
Y327000D01*
D02*
G37*
G36*
X847213Y327000D02*
X845925D01*
Y325516D01*
X847213D01*
Y327000D01*
D02*
G37*
G36*
X849229Y324485D02*
X847941D01*
Y323000D01*
X849229D01*
Y324485D01*
D02*
G37*
G36*
Y322000D02*
X847941D01*
Y320516D01*
X849229D01*
Y322000D01*
D02*
G37*
G36*
X823400Y317516D02*
X822667Y317371D01*
X822045Y316955D01*
X821715Y316461D01*
X821085D01*
Y316930D01*
X817916D01*
Y314287D01*
X817916Y314156D01*
X817598Y313787D01*
X817516D01*
Y312500D01*
X819500D01*
X821484D01*
Y313787D01*
X821449D01*
X821117Y314169D01*
X821121Y314204D01*
X821346Y314496D01*
X821885Y314484D01*
X822045Y314245D01*
X822667Y313829D01*
X823400Y313684D01*
X824133Y313829D01*
X824755Y314245D01*
X825171Y314867D01*
X825316Y315600D01*
X825171Y316333D01*
X824755Y316955D01*
X824133Y317371D01*
X823400Y317516D01*
D02*
G37*
G36*
X809171Y318032D02*
X809046D01*
Y315000D01*
X810828D01*
Y316375D01*
X810702Y317009D01*
X810343Y317547D01*
X809805Y317906D01*
X809171Y318032D01*
D02*
G37*
G36*
X808046D02*
X807921D01*
X807287Y317906D01*
X806750Y317547D01*
X806391Y317009D01*
X806265Y316375D01*
Y315000D01*
X808046D01*
Y318032D01*
D02*
G37*
G36*
X810828Y314000D02*
X809046D01*
Y310968D01*
X809171D01*
X809805Y311094D01*
X810343Y311453D01*
X810702Y311991D01*
X810828Y312625D01*
Y314000D01*
D02*
G37*
G36*
X808046D02*
X806265D01*
Y312625D01*
X806391Y311991D01*
X806750Y311453D01*
X807287Y311094D01*
X807921Y310968D01*
X808046D01*
Y314000D01*
D02*
G37*
G36*
X821484Y311500D02*
X820000D01*
Y310213D01*
X821484D01*
Y311500D01*
D02*
G37*
G36*
X819000D02*
X817516D01*
Y310213D01*
X819000D01*
Y311500D01*
D02*
G37*
G36*
X816484D02*
X815000D01*
Y310213D01*
X816484D01*
Y311500D01*
D02*
G37*
G36*
X814000D02*
X812516D01*
Y310213D01*
X814000D01*
Y311500D01*
D02*
G37*
G36*
X809000Y308825D02*
Y306000D01*
X811825D01*
X811776Y306378D01*
X811437Y307196D01*
X810898Y307898D01*
X810196Y308437D01*
X809378Y308776D01*
X809000Y308825D01*
D02*
G37*
G36*
X811825Y305000D02*
X809000D01*
Y302175D01*
X809378Y302224D01*
X810196Y302563D01*
X810898Y303102D01*
X811437Y303804D01*
X811776Y304622D01*
X811825Y305000D01*
D02*
G37*
G36*
X931000Y197271D02*
Y193500D01*
X934771D01*
X934689Y194123D01*
X934256Y195169D01*
X933567Y196067D01*
X932668Y196756D01*
X931623Y197189D01*
X931000Y197271D01*
D02*
G37*
G36*
X930000D02*
X929377Y197189D01*
X928331Y196756D01*
X927433Y196067D01*
X926744Y195169D01*
X926311Y194123D01*
X926229Y193500D01*
X930000D01*
Y197271D01*
D02*
G37*
G36*
X934771Y192500D02*
X931000D01*
Y188729D01*
X931623Y188811D01*
X932668Y189244D01*
X933567Y189933D01*
X934256Y190831D01*
X934689Y191877D01*
X934771Y192500D01*
D02*
G37*
G36*
X930000D02*
X926229D01*
X926311Y191877D01*
X926744Y190831D01*
X927433Y189933D01*
X928331Y189244D01*
X929377Y188811D01*
X930000Y188729D01*
Y192500D01*
D02*
G37*
G36*
X918551Y170059D02*
X917461D01*
Y167000D01*
X918551D01*
Y168400D01*
Y170059D01*
D02*
G37*
G36*
X810734Y169990D02*
X809643D01*
Y166931D01*
X810734D01*
Y169990D01*
D02*
G37*
G36*
Y165931D02*
X809643D01*
Y162872D01*
X810734D01*
Y165931D01*
D02*
G37*
G36*
X808643Y169990D02*
X807675D01*
Y166431D01*
Y162872D01*
X808643D01*
Y166431D01*
Y169990D01*
D02*
G37*
G36*
X928000Y162000D02*
X923957D01*
Y157169D01*
X928000D01*
Y162000D01*
D02*
G37*
%LPD*%
G36*
X844485Y363767D02*
X844901Y363145D01*
X845271Y362898D01*
X845258Y362790D01*
X845093Y362415D01*
X844622D01*
X844327Y362356D01*
X844236Y362374D01*
Y358437D01*
Y354500D01*
X844327Y354518D01*
X844417Y354500D01*
Y358437D01*
X845417D01*
Y354500D01*
X845718Y354559D01*
X846146Y354846D01*
X846202Y354928D01*
X846241Y354936D01*
X846591Y354867D01*
X846886D01*
Y354100D01*
X846986Y354000D01*
X851800D01*
X854100Y351700D01*
Y350312D01*
X853600Y350045D01*
X853574Y350062D01*
X853000Y350177D01*
Y347968D01*
X852500D01*
Y347468D01*
X850486D01*
Y347279D01*
X850602Y346697D01*
X850932Y346203D01*
X850998Y346159D01*
X851129Y345480D01*
X851074Y345400D01*
X850600D01*
X847700Y348300D01*
Y350000D01*
X844800D01*
X842000Y352800D01*
Y354776D01*
X842500Y354856D01*
X842507Y354846D01*
X842935Y354559D01*
X843236Y354500D01*
Y358437D01*
Y362374D01*
X842935Y362315D01*
X842507Y362028D01*
X842452Y361946D01*
X842412Y361938D01*
X842063Y362007D01*
X841473D01*
X841123Y361938D01*
X840784Y361762D01*
X840444Y361938D01*
X840094Y362007D01*
X839504D01*
X839155Y361938D01*
X838815Y361762D01*
X838475Y361938D01*
X838126Y362007D01*
X837908D01*
X837829Y362125D01*
X837829Y362125D01*
X837188Y362767D01*
X836923Y362943D01*
X836611Y363005D01*
X836611Y363005D01*
X835113D01*
X834801Y362943D01*
X834536Y362767D01*
X834536Y362767D01*
X833777Y362007D01*
X833599D01*
X833249Y361938D01*
X832953Y361740D01*
X832866D01*
X832570Y361938D01*
X832220Y362007D01*
X831630D01*
X831281Y361938D01*
X830984Y361740D01*
X830898D01*
X830601Y361938D01*
X830252Y362007D01*
X829661D01*
X829312Y361938D01*
X829016Y361740D01*
X828929D01*
X828633Y361938D01*
X828284Y362007D01*
X827693D01*
X827344Y361938D01*
X827304Y361946D01*
X827249Y362028D01*
X826820Y362315D01*
X826520Y362374D01*
Y358437D01*
X825520D01*
Y362374D01*
X825429Y362356D01*
X825134Y362415D01*
X824663D01*
X824498Y362790D01*
X824485Y362898D01*
X824855Y363145D01*
X825270Y363767D01*
X825321Y364021D01*
X825400Y364100D01*
X844419D01*
X844485Y363767D01*
D02*
G37*
%LPC*%
G36*
X852000Y350177D02*
X851426Y350062D01*
X850932Y349732D01*
X850602Y349239D01*
X850486Y348657D01*
Y348468D01*
X852000D01*
Y350177D01*
D02*
G37*
%LPD*%
G36*
X977249Y303426D02*
X976459D01*
Y304200D01*
X975755D01*
Y305282D01*
X976600D01*
Y309482D01*
X972400D01*
Y305282D01*
X973104D01*
Y304200D01*
X972259D01*
Y300000D01*
X976459D01*
Y300775D01*
X977249D01*
Y298759D01*
X976964Y298568D01*
X976483Y297849D01*
X976314Y297000D01*
X976483Y296151D01*
X976964Y295432D01*
X977249Y295241D01*
Y289586D01*
X976667Y289471D01*
X976045Y289055D01*
X975630Y288433D01*
X975484Y287700D01*
X975630Y286967D01*
X976045Y286345D01*
X976061Y286184D01*
X974957Y285080D01*
X974495Y285272D01*
Y286415D01*
X974659D01*
Y289584D01*
X974659D01*
Y289915D01*
X974659D01*
Y293084D01*
X972016D01*
X971884Y293084D01*
X971516Y293402D01*
Y293484D01*
X970228D01*
Y291500D01*
X969728D01*
Y291000D01*
X967941D01*
Y289516D01*
Y288500D01*
X969728D01*
Y288000D01*
X970228D01*
Y286016D01*
X971516D01*
Y286016D01*
X971979Y285928D01*
X972048Y285896D01*
Y284778D01*
X969448Y282179D01*
X969291Y281943D01*
X968791Y282095D01*
Y282573D01*
X968791Y282573D01*
X968709Y282982D01*
X968477Y283330D01*
X967950Y283857D01*
X967603Y284089D01*
X967193Y284171D01*
X964200D01*
X964200Y284171D01*
X963790Y284089D01*
X963443Y283857D01*
X961845Y282259D01*
X961767Y282142D01*
X961267Y282294D01*
Y283737D01*
X963798Y286268D01*
X964063Y286665D01*
X964157Y287133D01*
Y294825D01*
X967076D01*
Y299100D01*
X967076Y299175D01*
X967202Y299473D01*
D01*
X967202Y299473D01*
X967652Y299600D01*
X968741D01*
Y301600D01*
X966741D01*
Y299675D01*
X966741Y299600D01*
X966615Y299302D01*
D01*
X966615Y299302D01*
X966166Y299175D01*
X958790D01*
Y294825D01*
X961709D01*
Y287640D01*
X959178Y285109D01*
X958913Y284712D01*
X958820Y284243D01*
Y280287D01*
X958729Y279831D01*
Y274909D01*
X958829Y274406D01*
X959114Y273980D01*
X959540Y273695D01*
X960043Y273595D01*
X960546Y273695D01*
X960671Y273779D01*
X961242Y273558D01*
X961262Y273476D01*
X960857Y273071D01*
X954945D01*
X953537Y274479D01*
X953190Y274711D01*
X952780Y274792D01*
X951313D01*
Y275500D01*
X949525D01*
Y276000D01*
X949025D01*
Y277984D01*
X947738D01*
Y277902D01*
X947370Y277584D01*
X946325D01*
X945224Y278686D01*
Y279650D01*
X946100D01*
Y283350D01*
X941900D01*
Y279650D01*
X942776D01*
Y278179D01*
X942870Y277711D01*
X943135Y277314D01*
X944595Y275854D01*
Y274416D01*
X944759D01*
Y271443D01*
X944841Y271029D01*
Y269416D01*
X947616D01*
X947984Y269098D01*
Y269015D01*
X949271D01*
Y271000D01*
X949771D01*
Y271500D01*
X951559D01*
Y272651D01*
X952337D01*
X953745Y271243D01*
X954092Y271011D01*
X954502Y270929D01*
X961300D01*
X961710Y271011D01*
X962057Y271243D01*
X963359Y272545D01*
X963438Y272663D01*
X963938Y272511D01*
Y272039D01*
X964031Y271570D01*
X964296Y271174D01*
X965435Y270035D01*
X965832Y269770D01*
X966300Y269676D01*
X969273D01*
X969464Y269215D01*
X966949Y266700D01*
X951000D01*
Y267750D01*
X949000D01*
Y265500D01*
X948000D01*
Y267750D01*
X946000D01*
Y267591D01*
X945600Y267350D01*
X944506D01*
X944370Y268033D01*
X943955Y268655D01*
X943333Y269071D01*
X942600Y269216D01*
X941867Y269071D01*
X941245Y268655D01*
X940829Y268033D01*
X940684Y267300D01*
X940726Y267087D01*
X940409Y266700D01*
X939849D01*
Y273300D01*
Y293900D01*
X925500Y293900D01*
X923200Y296200D01*
X923200Y318600D01*
X938157D01*
X938348Y318138D01*
X935069Y314859D01*
X932600D01*
Y313983D01*
X931600D01*
Y314859D01*
X927400D01*
Y310659D01*
X931600D01*
Y311536D01*
X932600D01*
Y310659D01*
X936800D01*
Y313129D01*
X942271Y318600D01*
X956030D01*
Y318121D01*
X965104D01*
Y318600D01*
X967777D01*
Y314659D01*
X966900D01*
Y310459D01*
X971100D01*
Y311306D01*
X972400D01*
Y310400D01*
X976600D01*
Y314600D01*
X972400D01*
Y313753D01*
X971100D01*
Y314659D01*
X970224D01*
Y318600D01*
X977249D01*
Y303426D01*
D02*
G37*
%LPC*%
G36*
X932000Y310141D02*
X930000D01*
Y308141D01*
X932000D01*
Y310141D01*
D02*
G37*
G36*
X929000D02*
X927000D01*
Y308141D01*
X929000D01*
Y310141D01*
D02*
G37*
G36*
X971500Y309941D02*
X969500D01*
Y307941D01*
X971500D01*
Y309941D01*
D02*
G37*
G36*
X968500D02*
X966500D01*
Y307941D01*
X968500D01*
Y309941D01*
D02*
G37*
G36*
X932000Y307141D02*
X929500D01*
X927000D01*
Y305442D01*
X927000Y305141D01*
X927141Y304699D01*
Y303000D01*
X929641D01*
X932141D01*
Y304699D01*
X932141Y305000D01*
X932000Y305442D01*
Y305500D01*
Y307141D01*
D02*
G37*
G36*
X971500Y306941D02*
X969000D01*
X966500D01*
Y305000D01*
X966500Y304941D01*
X966741Y304540D01*
X966741Y304441D01*
Y302600D01*
X969241D01*
X971741D01*
Y304540D01*
X971741Y304600D01*
X971500Y305000D01*
X971500Y305100D01*
Y306941D01*
D02*
G37*
G36*
X932141Y302000D02*
X930141D01*
Y300000D01*
X932141D01*
Y302000D01*
D02*
G37*
G36*
X929141D02*
X927141D01*
Y300000D01*
X929141D01*
Y302000D01*
D02*
G37*
G36*
X971741Y301600D02*
X969741D01*
Y299600D01*
X971741D01*
Y301600D01*
D02*
G37*
G36*
X936800Y309741D02*
X932600D01*
Y305541D01*
X933404D01*
Y304600D01*
X932659D01*
Y300400D01*
X936859D01*
Y301175D01*
X938651D01*
X939275Y300551D01*
Y299054D01*
X939250Y299049D01*
X938531Y298568D01*
X938050Y297849D01*
X937881Y297000D01*
X938050Y296151D01*
X938531Y295432D01*
X939250Y294951D01*
X940098Y294783D01*
X944036D01*
X944884Y294951D01*
X945603Y295432D01*
X946084Y296151D01*
X946253Y297000D01*
X946084Y297849D01*
X945603Y298568D01*
X944884Y299049D01*
X944036Y299217D01*
X941926D01*
Y301100D01*
X941825Y301607D01*
X941537Y302037D01*
X940137Y303438D01*
X939707Y303725D01*
X939200Y303826D01*
X936859D01*
Y304600D01*
X936055D01*
Y305541D01*
X936800D01*
Y309741D01*
D02*
G37*
G36*
X969228Y293484D02*
X967941D01*
Y292000D01*
X969228D01*
Y293484D01*
D02*
G37*
G36*
Y287500D02*
X967941D01*
Y286016D01*
X969228D01*
Y287500D01*
D02*
G37*
G36*
X953000Y286416D02*
X952267Y286270D01*
X951645Y285855D01*
X951229Y285233D01*
X951084Y284500D01*
X951200Y283918D01*
X951073Y283601D01*
X950878Y283393D01*
X950749Y283368D01*
X949950D01*
X949861Y283350D01*
X946900D01*
Y279650D01*
X951100D01*
X951206Y279447D01*
X951229Y279367D01*
X951229Y279367D01*
X951645Y278745D01*
X952267Y278329D01*
X953000Y278184D01*
X953733Y278329D01*
X954355Y278745D01*
X954770Y279367D01*
X954916Y280100D01*
X954770Y280833D01*
X954355Y281455D01*
X953733Y281871D01*
X953574Y282348D01*
X953733Y282730D01*
X954355Y283145D01*
X954770Y283767D01*
X954916Y284500D01*
X954770Y285233D01*
X954355Y285855D01*
X953733Y286270D01*
X953000Y286416D01*
D02*
G37*
G36*
X951313Y277984D02*
X950025D01*
Y276500D01*
X951313D01*
Y277984D01*
D02*
G37*
G36*
X951559Y270500D02*
X950271D01*
Y269015D01*
X951559D01*
Y270500D01*
D02*
G37*
%LPD*%
G36*
X880618Y379851D02*
X887327D01*
Y379351D01*
X887827D01*
Y375398D01*
X889000D01*
X889000Y373500D01*
X879500Y364000D01*
X879500Y314500D01*
X880000Y315000D01*
X897116Y315000D01*
X897308Y314538D01*
X896135Y313365D01*
X895870Y312968D01*
X895776Y312500D01*
Y311584D01*
X895416D01*
Y308809D01*
X898480D01*
Y308238D01*
X895416D01*
Y307809D01*
X893584D01*
Y308116D01*
X890416D01*
Y305341D01*
X891082D01*
Y303904D01*
X890263Y303084D01*
X888856Y303084D01*
X888614Y303484D01*
X888544Y303484D01*
X888544Y303484D01*
X887327D01*
Y301500D01*
Y299516D01*
X888544D01*
X888544Y299516D01*
X888614D01*
X888856Y299916D01*
X889114Y299916D01*
X891561D01*
Y301786D01*
X892649Y302875D01*
X892848Y303172D01*
X892918Y303524D01*
Y305341D01*
X893584D01*
Y305770D01*
X895416D01*
Y305463D01*
X898480D01*
Y304922D01*
X896479Y302921D01*
X896258Y302590D01*
X896180Y302200D01*
Y286122D01*
X894578Y284520D01*
X893143D01*
X893084Y284995D01*
X893084D01*
Y287638D01*
X893084Y287770D01*
X893402Y288138D01*
X893484D01*
Y289426D01*
X891500D01*
X889516D01*
Y288138D01*
X889516D01*
X889802Y287723D01*
X889774Y287619D01*
X889531Y287359D01*
X888438D01*
X888084Y287713D01*
Y287887D01*
X888402Y288256D01*
X888485D01*
Y289543D01*
X886500D01*
Y290043D01*
X886000D01*
Y291830D01*
X884520D01*
Y295000D01*
X884442Y295390D01*
X884221Y295721D01*
X884020Y295922D01*
Y307078D01*
X884553Y307611D01*
X885015Y307420D01*
Y307154D01*
X887000D01*
Y306654D01*
D01*
Y307154D01*
X888984D01*
Y308441D01*
X888984D01*
X888707Y308860D01*
X888807Y309214D01*
X890416D01*
Y308884D01*
X893585D01*
Y311659D01*
X890416D01*
Y311254D01*
X888584D01*
Y311584D01*
X885416D01*
Y310934D01*
X885414D01*
X885024Y310856D01*
X884693Y310635D01*
X882279Y308221D01*
X882058Y307890D01*
X881980Y307500D01*
Y295500D01*
X882058Y295110D01*
X882279Y294779D01*
X882480Y294578D01*
Y293046D01*
X882181Y292908D01*
X881980Y292861D01*
X881624Y293099D01*
X881156Y293192D01*
X880918D01*
Y303149D01*
X880848Y303500D01*
X880649Y303797D01*
X880297Y304149D01*
X880000Y304348D01*
X879648Y304418D01*
X879085D01*
Y304659D01*
X875916D01*
Y304189D01*
X874085D01*
Y304659D01*
X873418D01*
Y307500D01*
X873348Y307851D01*
X873149Y308149D01*
X873149Y308149D01*
X876500Y311500D01*
X876500Y377500D01*
X879500Y380500D01*
X880618D01*
Y379851D01*
D02*
G37*
G36*
X871583Y304659D02*
X870916D01*
Y302016D01*
X870916Y301884D01*
X870598Y301516D01*
X870516D01*
Y300228D01*
X872500D01*
X874484D01*
Y301516D01*
X874448D01*
X874117Y301897D01*
X874121Y301932D01*
X874445Y302354D01*
X875563D01*
X875863Y302053D01*
X875884Y301897D01*
X875552Y301516D01*
X875516D01*
Y300228D01*
X877500D01*
Y299728D01*
X878000D01*
Y297941D01*
X879082D01*
Y293192D01*
X876844D01*
X876376Y293099D01*
X875979Y292834D01*
X875714Y292437D01*
X875621Y291969D01*
X875714Y291500D01*
X875749Y291447D01*
X875691Y291154D01*
X875337Y290624D01*
X875312Y290500D01*
X879000D01*
Y289500D01*
X875312D01*
X875337Y289376D01*
X875691Y288846D01*
X875749Y288552D01*
X875714Y288500D01*
X875621Y288031D01*
X875714Y287563D01*
X875811Y287417D01*
X875979Y286928D01*
X875714Y286531D01*
X875621Y286063D01*
X875714Y285595D01*
X875979Y285198D01*
Y284960D01*
X875714Y284563D01*
X875621Y284094D01*
X875714Y283626D01*
X875979Y283229D01*
X876376Y282964D01*
X876844Y282871D01*
X881156D01*
X881624Y282964D01*
X881790Y283075D01*
X884483D01*
X884779Y282779D01*
X885110Y282558D01*
X885500Y282480D01*
X895000D01*
X895390Y282558D01*
X895721Y282779D01*
X897921Y284979D01*
X898142Y285310D01*
X898220Y285700D01*
Y301778D01*
X900119Y303678D01*
X900539Y303390D01*
Y302000D01*
X902327D01*
Y301500D01*
X902827D01*
Y299516D01*
X904044D01*
X904044Y299516D01*
X904114D01*
X904356Y299916D01*
X904614Y299916D01*
X905500D01*
Y291000D01*
X890399Y275899D01*
X886649Y279649D01*
X886351Y279848D01*
X886000Y279918D01*
X874183D01*
X872418Y281683D01*
Y287000D01*
X872348Y287351D01*
X872149Y287649D01*
X867180Y292618D01*
X866883Y292816D01*
X866531Y292886D01*
X863064D01*
Y293169D01*
X862500D01*
Y297650D01*
X863600D01*
X864000Y297409D01*
Y297250D01*
X866000D01*
Y299500D01*
Y301750D01*
X865221D01*
X864954Y302250D01*
X864964Y302265D01*
X865033Y302616D01*
Y302916D01*
X865887D01*
Y306084D01*
X863113D01*
Y303267D01*
X863001Y303111D01*
X863000Y303111D01*
X862500Y303420D01*
Y307000D01*
X871583Y307000D01*
Y304659D01*
D02*
G37*
G36*
X830800Y289100D02*
X826534D01*
X826482Y289213D01*
X826484Y289713D01*
X826484D01*
Y291000D01*
X824500D01*
X822516D01*
Y289713D01*
X822516D01*
X822517Y289213D01*
X822493Y289161D01*
X822006D01*
X821982Y289213D01*
X821984Y289713D01*
X821984D01*
Y291000D01*
X820000D01*
X818016D01*
Y289713D01*
X818016D01*
X818017Y289213D01*
X817966Y289100D01*
X817300D01*
Y288600D01*
X816685Y287985D01*
X816185Y288192D01*
Y288240D01*
X812724D01*
Y288740D01*
X812224D01*
Y291118D01*
X810000D01*
Y294800D01*
X815600D01*
X823200Y302400D01*
X830800D01*
X830800Y289100D01*
D02*
G37*
G36*
X866982Y284620D02*
Y279812D01*
X867052Y279461D01*
X867251Y279163D01*
X871663Y274751D01*
X871961Y274552D01*
X872223Y274500D01*
X872174Y274000D01*
X862500D01*
Y276516D01*
X863500D01*
Y278500D01*
Y280484D01*
X862500D01*
Y283076D01*
X862730Y283229D01*
X862995Y283626D01*
X863088Y284094D01*
X862995Y284563D01*
X862940Y284645D01*
X863207Y285145D01*
X866457D01*
X866982Y284620D01*
D02*
G37*
G36*
X997482Y247120D02*
Y240380D01*
X991520Y234418D01*
X971636D01*
Y235016D01*
X972363D01*
Y236500D01*
X970575D01*
Y237500D01*
X972363D01*
Y238515D01*
X972406D01*
Y240000D01*
X970618D01*
Y241000D01*
X972406D01*
Y241593D01*
X972867Y241784D01*
X973900Y240751D01*
X974198Y240552D01*
X974549Y240482D01*
X978853D01*
X979145Y240045D01*
X979767Y239630D01*
X980500Y239484D01*
X981233Y239630D01*
X981855Y240045D01*
X982147Y240482D01*
X988331D01*
X988787Y239887D01*
X989406Y239412D01*
X990127Y239114D01*
X990900Y239012D01*
X991673Y239114D01*
X992394Y239412D01*
X993013Y239887D01*
X993487Y240506D01*
X993786Y241227D01*
X993888Y242000D01*
X993786Y242773D01*
X993487Y243494D01*
X993013Y244113D01*
X992394Y244587D01*
X991673Y244886D01*
X990900Y244988D01*
X990127Y244886D01*
X989406Y244587D01*
X988787Y244113D01*
X988313Y243494D01*
X988014Y242773D01*
X987954Y242318D01*
X983917D01*
X983765Y242818D01*
X984255Y243145D01*
X984671Y243767D01*
X984816Y244500D01*
X984671Y245233D01*
X984255Y245855D01*
X983633Y246270D01*
X982900Y246416D01*
X982167Y246270D01*
X981545Y245855D01*
X981129Y245233D01*
X981067Y244918D01*
X979235D01*
X979005Y245418D01*
X979171Y245666D01*
X979271Y246169D01*
Y248646D01*
X983144D01*
X983145Y248645D01*
X983767Y248230D01*
X984500Y248084D01*
X985233Y248230D01*
X985855Y248645D01*
X985856Y248646D01*
X988200D01*
X988313Y248375D01*
X988787Y247757D01*
X989406Y247282D01*
X990127Y246983D01*
X990900Y246881D01*
X991673Y246983D01*
X992394Y247282D01*
X993013Y247757D01*
X993487Y248375D01*
X993786Y249096D01*
X993797Y249182D01*
X995420D01*
X997482Y247120D01*
D02*
G37*
%LPC*%
G36*
X886827Y378851D02*
X880618D01*
Y375398D01*
X886827D01*
Y378851D01*
D02*
G37*
G36*
X888984Y306154D02*
X887500D01*
Y304866D01*
X888984D01*
Y306154D01*
D02*
G37*
G36*
X886500D02*
X885015D01*
Y304866D01*
X886500D01*
Y306154D01*
D02*
G37*
G36*
X886327Y303484D02*
X885039D01*
Y302000D01*
X886327D01*
Y303484D01*
D02*
G37*
G36*
Y301000D02*
X885039D01*
Y299516D01*
X886327D01*
Y301000D01*
D02*
G37*
G36*
X888485Y291830D02*
X887000D01*
Y290543D01*
X888485D01*
Y291830D01*
D02*
G37*
G36*
X893484Y291713D02*
X892000D01*
Y290426D01*
X893484D01*
Y291713D01*
D02*
G37*
G36*
X891000D02*
X889516D01*
Y290426D01*
X891000D01*
Y291713D01*
D02*
G37*
G36*
X869000Y301750D02*
X867000D01*
Y300000D01*
X869000D01*
Y301750D01*
D02*
G37*
G36*
X901827Y301000D02*
X900539D01*
Y299516D01*
X901827D01*
Y301000D01*
D02*
G37*
G36*
X877000Y299228D02*
X875516D01*
Y297941D01*
X877000D01*
Y299228D01*
D02*
G37*
G36*
X874484D02*
X873000D01*
Y297941D01*
X874484D01*
Y299228D01*
D02*
G37*
G36*
X872000D02*
X870516D01*
Y297941D01*
X872000D01*
Y299228D01*
D02*
G37*
G36*
X869000Y299000D02*
X867000D01*
Y297250D01*
X869000D01*
Y299000D01*
D02*
G37*
G36*
X825500Y301525D02*
Y298700D01*
X828325D01*
X828276Y299078D01*
X827937Y299896D01*
X827398Y300598D01*
X826696Y301137D01*
X825878Y301476D01*
X825500Y301525D01*
D02*
G37*
G36*
X824500D02*
X824122Y301476D01*
X823304Y301137D01*
X822602Y300598D01*
X822063Y299896D01*
X821724Y299078D01*
X821675Y298700D01*
X824500D01*
Y301525D01*
D02*
G37*
G36*
X828325Y297700D02*
X825500D01*
Y294875D01*
X825878Y294924D01*
X826696Y295263D01*
X827398Y295802D01*
X827937Y296504D01*
X828276Y297322D01*
X828325Y297700D01*
D02*
G37*
G36*
X824500D02*
X821675D01*
X821724Y297322D01*
X822063Y296504D01*
X822602Y295802D01*
X823304Y295263D01*
X824122Y294924D01*
X824500Y294875D01*
Y297700D01*
D02*
G37*
G36*
X826484Y293287D02*
X825000D01*
Y292000D01*
X826484D01*
Y293287D01*
D02*
G37*
G36*
X821984D02*
X820500D01*
Y292000D01*
X821984D01*
Y293287D01*
D02*
G37*
G36*
X824000D02*
X822516D01*
Y292000D01*
X824000D01*
Y293287D01*
D02*
G37*
G36*
X819500D02*
X818016D01*
Y292000D01*
X819500D01*
Y293287D01*
D02*
G37*
G36*
X816185Y291118D02*
X813224D01*
Y289240D01*
X816185D01*
Y291118D01*
D02*
G37*
G36*
X865787Y280484D02*
X864500D01*
Y279000D01*
X865787D01*
Y280484D01*
D02*
G37*
G36*
Y278000D02*
X864500D01*
Y276516D01*
X865787D01*
Y278000D01*
D02*
G37*
%LPD*%
D10*
X686000Y268700D02*
X705700D01*
X683000Y271700D02*
Y275760D01*
Y271700D02*
X686000Y268700D01*
X705700D02*
X710500Y273500D01*
Y297457D01*
X960300Y151800D02*
Y161000D01*
X978579Y179279D02*
Y194819D01*
X960300Y161000D02*
X978579Y179279D01*
X988421Y179221D02*
Y194819D01*
X965400Y156200D02*
X988421Y179221D01*
X910500Y253000D02*
X952100Y211400D01*
X971758D02*
X976716Y206442D01*
X952100Y211400D02*
X971758D01*
X926250Y285271D02*
Y285750D01*
X926000Y285020D02*
X926250Y285271D01*
X921500Y284000D02*
X924750Y280750D01*
X928827D01*
X921500Y290500D02*
X926000Y286000D01*
X910500Y253000D02*
X910500D01*
X921300Y248200D02*
X954300Y215200D01*
X979800D01*
X988421Y206579D01*
X925818Y276456D02*
X926274Y276000D01*
X925362Y276911D02*
X925818Y276456D01*
X928577Y285750D02*
X928827Y285500D01*
X926250Y285750D02*
X928577D01*
X926000Y286000D02*
X926250Y285750D01*
X921500Y277500D02*
X922089Y276911D01*
X925362D01*
X926274Y276000D02*
X928827D01*
X976716Y196681D02*
X978579Y194819D01*
X976716Y196681D02*
Y206442D01*
X988421Y194819D02*
Y206579D01*
X920500Y253000D02*
X921300Y252200D01*
Y248200D02*
Y252200D01*
X716500Y303654D02*
Y303851D01*
X719500Y306851D01*
Y309000D01*
X720346Y309846D02*
X723500D01*
X719500Y309000D02*
X720346Y309846D01*
X716500Y303457D02*
Y303654D01*
X710500Y297457D02*
X716500Y303457D01*
Y310150D02*
Y310346D01*
X693000Y275760D02*
Y286649D01*
X716500Y310346D02*
Y324437D01*
X693000Y286649D02*
X716500Y310150D01*
Y324437D02*
X716740Y324677D01*
Y332260D01*
X707000Y342000D02*
X716740Y332260D01*
X698827Y342000D02*
X707000D01*
X727173Y371134D02*
Y382551D01*
X723500Y306500D02*
X726414D01*
X727000Y370961D02*
X727173Y371134D01*
X727000Y307086D02*
Y370961D01*
X726414Y306500D02*
X727000Y307086D01*
X735543Y310000D02*
Y310196D01*
X736702Y311355D01*
Y312702D01*
X737000Y313000D01*
X735543Y305873D02*
Y310000D01*
Y305873D02*
X736500Y304916D01*
Y301398D02*
Y304916D01*
X746000Y268500D02*
Y272000D01*
X746500Y272697D02*
Y280500D01*
X746000Y272197D02*
X746500Y272697D01*
X746000Y272000D02*
Y272197D01*
D11*
X673584Y270316D02*
Y275341D01*
X696400Y247500D02*
X744031D01*
X673584Y270316D02*
X696400Y247500D01*
X895000Y283500D02*
X897200Y285700D01*
Y302200D02*
X899500Y304500D01*
X897200Y285700D02*
Y302200D01*
X844917Y358437D02*
Y362615D01*
X826490Y363390D02*
X844143D01*
X844917Y353783D02*
Y358437D01*
X825090Y361990D02*
X826490Y363390D01*
X844143D02*
X844917Y362615D01*
X746000Y249469D02*
Y268500D01*
X744031Y247500D02*
X746000Y249469D01*
X801291Y170909D02*
X801382Y170818D01*
X801200Y171000D02*
X801291Y170909D01*
X803350Y156550D02*
Y166331D01*
Y156550D02*
X803600Y156300D01*
X801382Y166331D02*
Y170818D01*
X777900Y305100D02*
X779846Y307046D01*
X776600Y305100D02*
X777900D01*
X779846Y307046D02*
Y310000D01*
Y312146D02*
X781500Y313800D01*
Y316800D01*
X779846Y310000D02*
Y312146D01*
X799169Y333800D02*
X808300D01*
X798700Y333331D02*
X799169Y333800D01*
X798700Y308900D02*
X799600Y308000D01*
X798700Y308900D02*
Y333331D01*
X808546Y313250D02*
Y314500D01*
X806068Y310771D02*
X808546Y313250D01*
X806068Y309868D02*
Y310771D01*
X804200Y308000D02*
X806068Y309868D01*
X799600Y308000D02*
X804200D01*
X809654Y335154D02*
Y337000D01*
X808300Y333800D02*
X809654Y335154D01*
X852500Y348165D02*
Y350800D01*
X843736Y353064D02*
Y358437D01*
Y353064D02*
X844800Y352000D01*
X852500Y347968D02*
Y348165D01*
X848665Y352000D02*
X852500Y348165D01*
X844800Y352000D02*
X848665D01*
X845500Y353200D02*
X850100D01*
X852500Y350800D01*
X844917Y353783D02*
X845500Y353200D01*
X824839Y358437D02*
X825090Y358688D01*
Y361990D01*
X887000Y310197D02*
X887037Y310234D01*
X886717Y309914D02*
X887000Y310197D01*
X985312Y332857D02*
X986816D01*
X991916Y327758D01*
Y327561D02*
X992303Y327173D01*
X991916Y327561D02*
Y327758D01*
X992303Y327173D02*
X992500D01*
X981500Y335920D02*
X982250D01*
X985312Y332857D01*
X975800Y332969D02*
X976269Y332500D01*
X983303Y327173D02*
X983500D01*
X982673Y332500D02*
X987416Y327758D01*
X973000Y331389D02*
Y347975D01*
X974400Y332389D02*
X975782Y331007D01*
X976269Y332500D02*
X982673D01*
X973000Y347975D02*
X981500Y356474D01*
X974400Y332389D02*
Y346400D01*
X977677Y349677D01*
X973000Y331389D02*
X974782Y329607D01*
X975800Y332969D02*
Y340800D01*
X975782Y331007D02*
X979469D01*
X983303Y327173D01*
X974782Y329607D02*
X976369D01*
X978803Y327173D01*
X975800Y340800D02*
X977760Y342760D01*
X981500D01*
X977677Y349677D02*
X981500D01*
X978803Y327173D02*
X979000D01*
X987803D02*
X988000D01*
X987416Y327561D02*
X987803Y327173D01*
X987416Y327561D02*
Y327758D01*
X866000Y278500D02*
X867000Y277500D01*
X864000Y278500D02*
X866000D01*
X989850Y348327D02*
X992673D01*
X993000Y348000D01*
X992580Y335920D02*
X993000Y335500D01*
X988500Y335920D02*
X992580D01*
X988500Y349677D02*
X989850Y348327D01*
X673000Y275729D02*
X673197D01*
X673584Y275341D01*
X907500Y306654D02*
X907598Y306752D01*
X912402D01*
X912500Y306850D01*
X905673Y301500D02*
Y301697D01*
X907500Y303524D01*
Y306654D01*
X883000Y295500D02*
Y307500D01*
X885414Y309914D02*
X886717D01*
X883000Y307500D02*
X885414Y309914D01*
X883031Y288031D02*
X883500Y288500D01*
X879000Y288031D02*
X883031D01*
X883500Y288500D02*
Y295000D01*
X883000Y295500D02*
X883500Y295000D01*
X896939Y306789D02*
X897000Y306850D01*
X892061Y306789D02*
X896939D01*
X892000Y306728D02*
X892061Y306789D01*
X899500Y304500D02*
Y309500D01*
X891963Y310234D02*
X892000Y310271D01*
X887037Y310234D02*
X891963D01*
X900271Y310271D02*
X902500D01*
X899500Y309500D02*
X900271Y310271D01*
X902500D02*
X902538Y310234D01*
X907463D01*
X907500Y310197D01*
X885500Y283500D02*
X895000D01*
X879000Y284094D02*
X884906D01*
X885500Y283500D01*
D13*
X670500Y302500D02*
Y337300D01*
X672200Y340755D02*
X674087Y342642D01*
X670500Y337300D02*
X672200Y339000D01*
Y340755D01*
X665000Y297000D02*
X670500Y302500D01*
X750000Y242500D02*
X760500Y253000D01*
X695000Y242500D02*
X750000D01*
X665000Y272500D02*
X695000Y242500D01*
X665000Y272500D02*
Y297000D01*
X838072Y309672D02*
X861500D01*
X825000Y298200D02*
X825617Y298817D01*
X827217D01*
X838072Y309672D01*
X832346Y321900D02*
X844800D01*
X832100Y321654D02*
X832346Y321900D01*
X825800Y321654D02*
X832100D01*
X820000D02*
X825800D01*
X820000Y329000D02*
X824921D01*
X825800Y328121D01*
Y321654D02*
Y328121D01*
X815915Y321654D02*
X820000D01*
X814569Y323000D02*
X815915Y321654D01*
X814000Y323000D02*
X814569D01*
X878000Y309000D02*
Y372780D01*
X760500Y309477D02*
Y310000D01*
Y309477D02*
X763500Y306477D01*
Y266500D02*
Y306477D01*
X878000Y372780D02*
X884571Y379351D01*
X878000Y309000D02*
X880000Y307000D01*
X884571Y379351D02*
X887327D01*
X770000Y253500D02*
X770500Y253000D01*
X770000Y253500D02*
Y260000D01*
X763500Y266500D02*
X770000Y260000D01*
X768154Y309803D02*
Y310000D01*
X760500D02*
X768154D01*
X771240Y324677D02*
X772000Y325437D01*
Y337000D01*
X753327Y342000D02*
X767000D01*
X772000Y337000D01*
X776500Y313000D02*
X778000Y314500D01*
X780203Y371134D02*
X781673D01*
X778000Y314500D02*
Y368931D01*
X780203Y371134D01*
X780307Y372500D02*
X781673Y371134D01*
X774776Y379000D02*
X778327Y382551D01*
X774500Y373379D02*
Y379000D01*
X778327Y382551D02*
X781673D01*
X774500Y379000D02*
X774776D01*
X775379Y372500D02*
X780307D01*
X774500Y373379D02*
X775379Y372500D01*
X776500Y310000D02*
Y313000D01*
X771500Y310000D02*
Y324417D01*
X771240Y324677D02*
X771500Y324417D01*
D17*
X799200Y384170D02*
X800000Y384970D01*
X792500Y369500D02*
X799200Y376200D01*
X800000Y384970D02*
Y385500D01*
X799200Y376200D02*
Y384170D01*
X673000Y287673D02*
X678173D01*
X693000Y302500D02*
Y308240D01*
X678173Y287673D02*
X693000Y302500D01*
X669000Y280524D02*
X672803Y284327D01*
X669000Y277000D02*
Y280524D01*
X672803Y284327D02*
X673000D01*
X676555Y336736D02*
X676569D01*
X686000Y329000D02*
X693000Y322000D01*
Y308240D02*
Y322000D01*
X685888Y329112D02*
X686000Y329000D01*
X947609Y250300D02*
X949300D01*
X931800Y266109D02*
X947609Y250300D01*
X931800Y266109D02*
Y268527D01*
X925000Y271800D02*
X925073Y271873D01*
X928200D01*
X931800D01*
X925400Y268400D02*
X925527Y268527D01*
X928200D01*
X771854Y159854D02*
Y166331D01*
X770500Y158500D02*
X771854Y159854D01*
X893426Y289926D02*
X894700Y291200D01*
X891500Y289926D02*
X893426D01*
X879000Y286063D02*
X879063Y286000D01*
X883500Y286500D02*
X886500D01*
X883000Y286000D02*
X883500Y286500D01*
X879063Y286000D02*
X883000D01*
X776821Y158179D02*
Y161903D01*
Y158179D02*
X777541Y157459D01*
X774500Y153500D02*
Y155806D01*
X773823Y157323D02*
Y166331D01*
X770159Y152579D02*
X770500Y152921D01*
X774500Y155806D02*
X775023Y156329D01*
X770500Y154000D02*
X773823Y157323D01*
X770500Y152921D02*
Y154000D01*
X799000Y157500D02*
Y160500D01*
X907000Y162200D02*
X907118Y162318D01*
Y166500D01*
X911700Y160100D02*
Y160200D01*
X913024Y161524D01*
Y166500D01*
X929269Y156669D02*
X930600Y158000D01*
X923457Y156669D02*
X929269D01*
X797300Y171200D02*
X798000D01*
X799410Y169790D01*
Y166334D02*
X799413Y166331D01*
X799410Y166334D02*
Y169790D01*
X805319Y161381D02*
X806800Y159900D01*
X805319Y161381D02*
Y166331D01*
X872100Y247100D02*
X875500Y250500D01*
X840500Y253000D02*
X846400Y247100D01*
X872100D01*
X861500Y299500D02*
X861750D01*
X863600Y301350D01*
Y302100D01*
X864116Y304116D02*
X864500Y304500D01*
X864116Y302616D02*
Y304116D01*
X863600Y302100D02*
X864116Y302616D01*
X818357Y332543D02*
X820000D01*
X816800Y334100D02*
X818357Y332543D01*
X814500Y315543D02*
Y318300D01*
X814700Y318500D01*
X820000Y287957D02*
X824500D01*
X820000Y283543D02*
Y287956D01*
X820000Y287957D02*
X820000Y287956D01*
X819948Y279948D02*
X820000Y280000D01*
X818116Y279948D02*
X819948D01*
X817435Y279267D02*
X818116Y279948D01*
X815800Y279267D02*
X817435D01*
X812724Y281260D02*
X813807D01*
X815800Y279267D01*
X799433Y278500D02*
X802193Y281260D01*
X791972Y278500D02*
X799433D01*
X742357Y272100D02*
X742457Y272000D01*
X739700Y272100D02*
X742357D01*
X741500Y273154D02*
Y280500D01*
Y273154D02*
X742457Y272197D01*
Y272000D02*
Y272197D01*
X700500Y253000D02*
X710000Y262500D01*
X716650D01*
X731500Y277350D02*
Y280500D01*
X716650Y262500D02*
X731500Y277350D01*
X736500Y277827D02*
Y280500D01*
X710500Y253000D02*
X711673D01*
X736500Y277827D01*
X839200Y244300D02*
X900700D01*
X830500Y253000D02*
X839200Y244300D01*
X900700D02*
X905700Y249300D01*
Y255700D02*
X909800Y259800D01*
X905700Y249300D02*
Y255700D01*
X875500Y250500D02*
Y256149D01*
X930300Y259800D02*
X936400Y253700D01*
X909800Y259800D02*
X930300D01*
X936400Y248200D02*
Y253700D01*
X957700Y226900D02*
X969000D01*
X936400Y248200D02*
X957700Y226900D01*
X957500Y231000D02*
X957875Y231375D01*
X964023Y229677D02*
X964200Y229500D01*
X964023Y229677D02*
Y233323D01*
X971300Y229200D02*
Y230900D01*
X969000Y226900D02*
X971300Y229200D01*
X970248Y231952D02*
Y233500D01*
Y231952D02*
X971300Y230900D01*
X886500Y290043D02*
Y291500D01*
X888000Y293000D01*
X886500Y290043D02*
X886559Y289984D01*
X957875Y231375D02*
X958572D01*
X949000Y281500D02*
X949950Y282450D01*
X950950D01*
X951000Y282500D01*
X952274D01*
X952625Y282852D02*
Y284125D01*
X952274Y282500D02*
X952625Y282852D01*
Y284125D02*
X953000Y284500D01*
X949000Y281500D02*
X951400D01*
X952800Y280100D01*
X953000D01*
X972839Y277370D02*
Y281664D01*
X977400Y286226D01*
Y287700D01*
X965700Y238664D02*
Y238928D01*
X967075Y240303D01*
X974198Y241752D02*
Y241752D01*
X972839Y243110D02*
Y248630D01*
Y243110D02*
X974198Y241752D01*
Y241752D02*
X974549Y241400D01*
X980500D02*
X990300D01*
X974549D02*
X980500D01*
X970575Y237000D02*
X973200D01*
X960375Y240700D02*
X960575Y240500D01*
X956200Y240700D02*
X960375D01*
X960575Y236987D02*
Y237000D01*
X960088Y236500D02*
X960575Y236987D01*
X956200Y236500D02*
X960088D01*
X960500Y233303D02*
Y233500D01*
X958572Y231375D02*
X960500Y233303D01*
X963922Y237000D02*
X967032D01*
X967032Y237000D01*
X967075Y240303D02*
Y240500D01*
X963922D02*
X967075D01*
X963846Y233500D02*
X964023Y233323D01*
X966902Y230828D02*
Y233500D01*
Y230828D02*
X967800Y229930D01*
Y229400D02*
Y229930D01*
X970088Y236513D02*
X970575Y237000D01*
X970088Y235488D02*
Y236513D01*
X970000Y235400D02*
X970088Y235488D01*
X966902Y233500D02*
Y233697D01*
X968605Y235400D01*
X970000D01*
X976200Y244000D02*
X982400D01*
X982900Y244500D01*
X975398Y244802D02*
Y248630D01*
Y244802D02*
X976200Y244000D01*
X983139Y265500D02*
X990900Y257739D01*
X981900Y265500D02*
X983139D01*
X990900Y249869D02*
X991131Y250100D01*
X995800D01*
X998400Y247500D01*
Y240000D02*
Y247500D01*
X991900Y233500D02*
X998400Y240000D01*
X970248Y233500D02*
X991900D01*
X970597Y240478D02*
X970618Y240500D01*
X970597Y237021D02*
Y240478D01*
X970575Y237000D02*
X970597Y237021D01*
X967075Y240500D02*
Y245314D01*
X967720Y245959D01*
Y248630D01*
X990300Y241400D02*
X990900Y242000D01*
X988500Y275500D02*
Y280500D01*
X767917Y170417D02*
X768500Y171000D01*
X789769Y260369D02*
X796300Y253838D01*
X788031Y260369D02*
X789769D01*
X784600Y263800D02*
X788031Y260369D01*
X799662Y253838D02*
X800500Y253000D01*
X796300Y253838D02*
X799662D01*
X785800Y269000D02*
Y303797D01*
Y269000D02*
X793226Y261574D01*
X785800Y269000D02*
X785800Y269000D01*
X810360Y253140D02*
X810500Y253000D01*
X806300Y253140D02*
X810360D01*
X797866Y261574D02*
X806300Y253140D01*
X793226Y261574D02*
X797866D01*
X784600Y263800D02*
Y304294D01*
X783000Y260000D02*
X790000Y253000D01*
X790500D01*
X783000Y260000D02*
Y304391D01*
X780500Y253000D02*
X781500Y254000D01*
Y304588D02*
X785000Y308088D01*
X781500Y254000D02*
Y304588D01*
X783000Y304391D02*
X786300Y307691D01*
X785800Y303797D02*
X788700Y306697D01*
X787500Y307194D02*
Y354897D01*
X786300Y307691D02*
Y355394D01*
X785000Y308088D02*
Y355800D01*
X784600Y304294D02*
X787500Y307194D01*
X788700Y306697D02*
Y354400D01*
X785000Y355800D02*
X792500Y363300D01*
X786300Y355394D02*
X793700Y362794D01*
X787500Y354897D02*
X794900Y362297D01*
X788700Y354400D02*
X796100Y361800D01*
Y366400D01*
X793700Y362794D02*
Y369000D01*
X794900Y362297D02*
Y367182D01*
X792500Y363300D02*
Y369500D01*
X793700Y369000D02*
X802180Y377480D01*
X796100Y366400D02*
X803525Y373825D01*
X794900Y367182D02*
X804097Y376379D01*
X802180Y377480D02*
Y381200D01*
X804097Y376379D02*
X806538D01*
X804625Y373825D02*
X805000Y374200D01*
X803525Y373825D02*
X804625D01*
X808059Y377900D02*
X808100D01*
X806538Y376379D02*
X808059Y377900D01*
X880500Y193000D02*
X888000Y200500D01*
X934300Y199300D02*
X936500Y197100D01*
X888000Y200500D02*
X935015D01*
X853300Y205300D02*
X937003D01*
X896800Y199300D02*
X934300D01*
X841000Y193000D02*
X853300Y205300D01*
X935015Y200500D02*
X937700Y197815D01*
X844000Y206500D02*
X937500D01*
X830500Y193000D02*
X844000Y206500D01*
X850500Y193000D02*
X861600Y204100D01*
X936506D02*
X941300Y199306D01*
X935512Y201700D02*
X938900Y198312D01*
X869900Y202900D02*
X936009D01*
X878700Y201700D02*
X935512D01*
X937003Y205300D02*
X942500Y199803D01*
X937500Y206500D02*
X943700Y200300D01*
X936009Y202900D02*
X940100Y198809D01*
X861600Y204100D02*
X936506D01*
X860500Y193500D02*
X869900Y202900D01*
X890500Y193000D02*
X896800Y199300D01*
X870500Y193500D02*
X878700Y201700D01*
X936500Y180556D02*
Y197100D01*
X813000Y337000D02*
X815118D01*
X816518Y338400D01*
X816800D01*
X819500Y315543D02*
X823343D01*
X823400Y315600D01*
X816600Y326000D02*
X817600Y325000D01*
X811400Y326000D02*
X816600D01*
X806920Y330480D02*
X811400Y326000D01*
X802454Y314500D02*
Y322854D01*
X802600Y323000D01*
Y330480D02*
X806920D01*
X805552Y340200D02*
X812500D01*
X805000Y337000D02*
Y339649D01*
X805552Y340200D01*
X812500D02*
X813000Y339700D01*
Y337000D02*
Y339700D01*
X814000Y330480D02*
Y335803D01*
X813000Y336803D02*
X814000Y335803D01*
X813000Y336803D02*
Y337000D01*
X817600Y325000D02*
X820000D01*
X934500Y265106D02*
X945106Y254500D01*
X934500Y265106D02*
Y273476D01*
X932173Y275803D02*
X934500Y273476D01*
X935700Y265603D02*
X945603Y255700D01*
X932173Y280553D02*
X935700Y277026D01*
Y265603D02*
Y277026D01*
X945603Y255700D02*
X958300D01*
X962602Y248630D02*
Y251301D01*
X962232Y251671D02*
X962602Y251301D01*
X962232Y251671D02*
Y251768D01*
X958300Y255700D02*
X962232Y251768D01*
X945106Y254500D02*
X956485D01*
X959506Y251480D01*
X960600Y256900D02*
X965161Y252339D01*
X946100Y256900D02*
X960600D01*
X937000Y266000D02*
X946100Y256900D01*
X937000Y266000D02*
Y283000D01*
X965161Y248630D02*
Y252339D01*
X960043Y250942D02*
Y251091D01*
X959654Y251480D02*
X960043Y251091D01*
X959506Y251480D02*
X959654D01*
X932173Y275803D02*
Y276000D01*
Y280553D02*
Y280750D01*
X934500Y285500D02*
X937000Y283000D01*
X932173Y285500D02*
X934500D01*
X992476Y355024D02*
X993000Y354500D01*
X989950Y355024D02*
X992476D01*
X988500Y356474D02*
X989950Y355024D01*
X710500Y193000D02*
X728500Y175000D01*
X860833D01*
X720000Y173500D02*
X860635D01*
X700500Y193000D02*
X720000Y173500D01*
X860635D02*
X861843Y172293D01*
Y166500D02*
Y172293D01*
X737200Y176300D02*
X861230D01*
X720500Y193000D02*
X737200Y176300D01*
X730500Y193000D02*
X746000Y177500D01*
X740500Y193000D02*
X754800Y178700D01*
X800500Y193000D02*
X807600Y185900D01*
X810500Y193000D02*
X816400Y187100D01*
X825000Y188500D02*
X866000D01*
X820500Y193000D02*
X825000Y188500D01*
X866000D02*
X885174Y169326D01*
X881237Y166791D02*
Y169869D01*
X865703Y187100D02*
X883206Y169597D01*
X881237Y166791D02*
X881528Y166500D01*
X864709Y184700D02*
X879559Y169850D01*
X863218Y181100D02*
X873654Y170664D01*
X864212Y183500D02*
X877591Y170121D01*
X862721Y179900D02*
X871685Y170936D01*
X754800Y178700D02*
X862224D01*
X863811Y166500D02*
Y172021D01*
X883206Y166791D02*
Y169597D01*
X885174Y166791D02*
X885465Y166500D01*
X790000Y183500D02*
X864212D01*
X784289Y182300D02*
X863715D01*
X871685Y166500D02*
Y170936D01*
X873654Y166500D02*
Y170664D01*
X869717Y166500D02*
Y171207D01*
X772400Y181100D02*
X863218D01*
X816400Y187100D02*
X865703D01*
X883206Y166791D02*
X883496Y166500D01*
X885174Y166791D02*
Y169326D01*
X865206Y185900D02*
X881237Y169869D01*
X798800Y184700D02*
X864709D01*
X879559Y166500D02*
Y169850D01*
X764100Y179900D02*
X862721D01*
X861726Y177500D02*
X867748Y171478D01*
X807600Y185900D02*
X865206D01*
X862224Y178700D02*
X869717Y171207D01*
X865780Y166500D02*
Y171750D01*
X877591Y166500D02*
Y170121D01*
X863715Y182300D02*
X875622Y170393D01*
Y166500D02*
Y170393D01*
X867748Y166500D02*
Y171478D01*
X860833Y175000D02*
X863811Y172021D01*
X861230Y176300D02*
X865780Y171750D01*
X746000Y177500D02*
X861726D01*
X903181Y166500D02*
Y179681D01*
X910500Y187000D02*
Y193000D01*
X903181Y179681D02*
X910500Y187000D01*
X905150Y166500D02*
Y177650D01*
X920500Y193000D01*
X900922Y166791D02*
Y192578D01*
Y166791D02*
X901213Y166500D01*
X900500Y193000D02*
X900922Y192578D01*
X909643Y153700D02*
X936500Y180556D01*
X901300Y153700D02*
X909643D01*
X922058Y163004D02*
X924182Y165127D01*
X920644Y163004D02*
X922058D01*
X910141Y152500D02*
X920644Y163004D01*
X924182Y166182D02*
X937700Y179700D01*
X900803Y152500D02*
X910141D01*
X924182Y165127D02*
Y166182D01*
X937700Y179700D02*
Y197815D01*
X893339Y156570D02*
X899809Y150100D01*
X898815Y147700D02*
X937185D01*
X891370Y156842D02*
X899312Y148900D01*
X899244Y155756D02*
X901300Y153700D01*
X937185Y147700D02*
X942500Y153015D01*
X899809Y150100D02*
X936191D01*
X935694Y151300D02*
X938900Y154506D01*
X895307Y156299D02*
X900306Y151300D01*
X935694D01*
X889402Y157113D02*
X898815Y147700D01*
X898318Y146500D02*
X937682D01*
X887433Y157385D02*
X898318Y146500D01*
X937682D02*
X943700Y152518D01*
X936688Y148900D02*
X941300Y153512D01*
X899312Y148900D02*
X936688D01*
X936191Y150100D02*
X940100Y154009D01*
X897276Y156027D02*
X900803Y152500D01*
X870500Y193000D02*
Y193500D01*
X860500Y193000D02*
Y193500D01*
X850500Y193000D02*
X850500D01*
X840500D02*
X841000D01*
X942500Y153015D02*
Y199803D01*
X941300Y153512D02*
Y199306D01*
X938900Y154506D02*
Y198312D01*
X943700Y152518D02*
Y200300D01*
X940100Y154009D02*
Y198809D01*
X889402Y157113D02*
Y166500D01*
X893339Y156570D02*
Y166500D01*
X899244Y155756D02*
Y166500D01*
X897276Y156027D02*
Y166500D01*
X887433Y157385D02*
Y166500D01*
X891370Y156842D02*
Y166500D01*
X895307Y156299D02*
Y166500D01*
X886000Y279000D02*
X891500Y273500D01*
X872312Y275400D02*
X884509D01*
X889100Y259100D02*
Y272506D01*
X872809Y276600D02*
X885006D01*
X891500Y259000D02*
Y273500D01*
X873803Y279000D02*
X886000D01*
X884509Y275400D02*
X887900Y272009D01*
X885006Y276600D02*
X889100Y272506D01*
X890300Y253200D02*
Y273003D01*
X885503Y277800D02*
X890300Y273003D01*
X873306Y277800D02*
X885503D01*
X887900Y260500D02*
Y272009D01*
X875500Y256149D02*
X877351Y258000D01*
X885400D02*
X887900Y260500D01*
X877351Y258000D02*
X885400D01*
X867900Y279812D02*
Y285000D01*
Y279812D02*
X872312Y275400D01*
X871500Y281303D02*
X873803Y279000D01*
X870300Y280806D02*
Y286503D01*
X866969Y288031D02*
X869100Y285900D01*
X866531Y291969D02*
X871500Y287000D01*
X870300Y280806D02*
X873306Y277800D01*
X871500Y281303D02*
Y287000D01*
X869100Y280309D02*
X872809Y276600D01*
X869100Y280309D02*
Y285900D01*
X866803Y290000D02*
X870300Y286503D01*
X891500Y259000D02*
X896352Y254148D01*
X884120Y254120D02*
X889100Y259100D01*
X890300Y253200D02*
X890500Y253000D01*
X866837Y286063D02*
X867900Y285000D01*
X859709Y286063D02*
X866837D01*
X880500Y253000D02*
X881620Y254120D01*
X884120D01*
X852114Y290000D02*
X859709D01*
X866803D01*
X859709Y291969D02*
X866531D01*
X899352Y254148D02*
X900500Y253000D01*
X896352Y254148D02*
X899352D01*
X859709Y288031D02*
X866969D01*
X873041Y289541D02*
X873500Y290000D01*
X842500Y296500D02*
X843000Y297000D01*
X851000D01*
X856031Y291969D01*
X859709D01*
X866500Y295000D02*
Y299500D01*
X992240Y342760D02*
X993000Y342000D01*
X988500Y342760D02*
X992240D01*
X886500Y298500D02*
Y301173D01*
X886827Y301500D01*
X877729Y303500D02*
X879648D01*
X879000Y291969D02*
X879723D01*
X880000Y292246D01*
Y303149D01*
X879648Y303500D02*
X880000Y303149D01*
X877500Y303271D02*
X877729Y303500D01*
X890173Y301697D02*
X892000Y303524D01*
X890173Y301500D02*
Y301697D01*
X892000Y303524D02*
Y306728D01*
X886827Y306481D02*
X887000Y306654D01*
X886827Y301500D02*
Y306481D01*
X902327Y301303D02*
Y301500D01*
X900524Y299500D02*
X902327Y301303D01*
X900000Y299500D02*
X900524D01*
X902327Y306555D02*
X902500Y306728D01*
X902327Y301500D02*
Y306555D01*
X891441Y286441D02*
X891500Y286383D01*
X886559Y286441D02*
X891441D01*
X886500Y286500D02*
X886559Y286441D01*
X886559Y289984D02*
X891441D01*
X891500Y289926D01*
X873500Y290000D02*
X879000D01*
X872500Y297000D02*
Y299728D01*
Y297000D02*
X874000Y295500D01*
X872500Y299728D02*
X877500D01*
X872500Y303271D02*
X877500D01*
X872500D02*
Y307500D01*
X866500Y309672D02*
X870328D01*
X872500Y307500D01*
X861500Y305240D02*
Y309672D01*
X860957Y304697D02*
X861500Y305240D01*
X860957Y304500D02*
Y304697D01*
X859709Y279446D02*
Y284094D01*
Y279446D02*
X860457Y278697D01*
Y278500D02*
Y278697D01*
X852563Y286063D02*
X859709D01*
X849500Y283000D02*
X852563Y286063D01*
X842500Y287500D02*
X851000D01*
X851531Y288031D02*
X859709D01*
X851000Y287500D02*
X851531Y288031D01*
X849500Y292000D02*
X850113D01*
X852114Y290000D01*
X794500Y156082D02*
X797000Y158582D01*
X794500Y156000D02*
Y156082D01*
X795476Y161524D02*
Y165431D01*
Y161524D02*
X797000Y160000D01*
Y158582D02*
Y160000D01*
X797445Y162055D02*
Y166331D01*
Y162055D02*
X799000Y160500D01*
X780500Y193000D02*
X790000Y183500D01*
X790500Y193000D02*
X798800Y184700D01*
X774400Y192189D02*
X784289Y182300D01*
X760500Y193000D02*
X772400Y181100D01*
X751000Y193000D02*
X764100Y179900D01*
X777760Y162842D02*
Y166331D01*
X776821Y161903D02*
X777760Y162842D01*
X775023Y161802D02*
X775791Y162571D01*
X775023Y156329D02*
Y161802D01*
X775791Y162571D02*
Y166331D01*
X680500Y339772D02*
X685228D01*
X677630Y342642D02*
X680500Y339772D01*
X682888Y329112D02*
X685888D01*
X676569Y336736D02*
X677500Y335805D01*
Y334500D02*
Y335805D01*
Y334500D02*
X682888Y329112D01*
X670271Y275729D02*
X673000D01*
X669000Y277000D02*
X670271Y275729D01*
X767917Y166331D02*
Y170417D01*
X763000Y157500D02*
X764500Y159000D01*
X762000Y157500D02*
X763000D01*
X764500Y159000D02*
Y161777D01*
X765658Y166040D02*
X765949Y166331D01*
X765658Y162935D02*
Y166040D01*
X764500Y161777D02*
X765658Y162935D01*
X758000Y156000D02*
Y157000D01*
X763980Y162980D01*
Y166331D01*
X761721Y166040D02*
X762012Y166331D01*
X761721Y163586D02*
Y166040D01*
X758635Y160500D02*
X761721Y163586D01*
X757000Y160500D02*
X758635D01*
X750500Y193000D02*
X751000D01*
X770500D02*
X771311Y192189D01*
X774400D01*
D18*
X674586Y343547D02*
X678130D01*
X781723Y155877D02*
Y166304D01*
Y155877D02*
X785900Y151700D01*
X788906Y151694D02*
X789300Y151300D01*
X787984Y151694D02*
X788906D01*
X787978Y151700D02*
X787984Y151694D01*
X785900Y151700D02*
X787978D01*
X676358Y355358D02*
X683453D01*
X845000Y346346D02*
Y347800D01*
X839799Y353001D02*
X845000Y347800D01*
X839799Y353001D02*
Y358437D01*
X827000Y346500D02*
Y351050D01*
X827988Y352038D01*
Y358437D01*
X781697Y166331D02*
X781723Y166304D01*
X685228Y339772D02*
X686000Y339000D01*
D20*
X928200Y268527D02*
D03*
Y271873D02*
D03*
X931800Y268527D02*
D03*
Y271873D02*
D03*
X827000Y343154D02*
D03*
Y346500D02*
D03*
X835200Y346346D02*
D03*
Y343000D02*
D03*
X845000D02*
D03*
Y346346D02*
D03*
X838700Y346373D02*
D03*
Y343027D02*
D03*
X860500Y353654D02*
D03*
Y357000D02*
D03*
X820000Y332543D02*
D03*
X820000Y329000D02*
D03*
Y325000D02*
D03*
Y321654D02*
D03*
X819500Y315543D02*
D03*
X819500Y312000D02*
D03*
X814500Y315543D02*
D03*
X814500Y312000D02*
D03*
X824500Y287957D02*
D03*
X824500Y291500D02*
D03*
X820000Y287957D02*
D03*
X820000Y291500D02*
D03*
X820000Y283543D02*
D03*
X820000Y280000D02*
D03*
X872500Y299728D02*
D03*
X872500Y303271D02*
D03*
X877500Y299728D02*
D03*
X877500Y303271D02*
D03*
X891500Y289926D02*
D03*
X891500Y286383D02*
D03*
X886500Y290043D02*
D03*
X886500Y286500D02*
D03*
X887000Y306654D02*
D03*
X887000Y310197D02*
D03*
X892000Y306728D02*
D03*
X892000Y310271D02*
D03*
X897000Y306850D02*
D03*
Y310197D02*
D03*
X902500Y306728D02*
D03*
X902500Y310271D02*
D03*
X907500Y306654D02*
D03*
X907500Y310197D02*
D03*
X912500D02*
D03*
Y306850D02*
D03*
X992500Y327173D02*
D03*
Y323827D02*
D03*
X988000Y327173D02*
D03*
Y323827D02*
D03*
X983500Y327173D02*
D03*
Y323827D02*
D03*
X979000Y327173D02*
D03*
Y323827D02*
D03*
X723500Y309846D02*
D03*
Y306500D02*
D03*
X673000Y284327D02*
D03*
Y287673D02*
D03*
Y279272D02*
D03*
X673000Y275729D02*
D03*
D21*
X742457Y272000D02*
D03*
X746000Y272000D02*
D03*
X768154Y310000D02*
D03*
X771500D02*
D03*
X779846D02*
D03*
X776500D02*
D03*
X841882Y327500D02*
D03*
X845425Y327500D02*
D03*
X841882Y332500D02*
D03*
X845425Y332500D02*
D03*
X801654Y337000D02*
D03*
X805000D02*
D03*
X813000D02*
D03*
X809654D02*
D03*
X932173Y285500D02*
D03*
X928827D02*
D03*
X932173Y280750D02*
D03*
X928827D02*
D03*
X932173Y276000D02*
D03*
X928827D02*
D03*
X864000Y278500D02*
D03*
X860457Y278500D02*
D03*
X864500Y304500D02*
D03*
X860957Y304500D02*
D03*
X902327Y301500D02*
D03*
X905673D02*
D03*
X886827D02*
D03*
X890173D02*
D03*
X969728Y291500D02*
D03*
X973271Y291500D02*
D03*
X969728Y288000D02*
D03*
X973271Y288000D02*
D03*
X945982Y276000D02*
D03*
X949525Y276000D02*
D03*
X946228Y271000D02*
D03*
X949771Y271000D02*
D03*
X960575Y240500D02*
D03*
X963922D02*
D03*
X960575Y237000D02*
D03*
X963922D02*
D03*
X960500Y233500D02*
D03*
X963846D02*
D03*
X966902D02*
D03*
X970248D02*
D03*
X967032Y237000D02*
D03*
X970575Y237000D02*
D03*
X967075Y240500D02*
D03*
X970618Y240500D02*
D03*
X988500Y280500D02*
D03*
X985154D02*
D03*
X988500Y275500D02*
D03*
X985154D02*
D03*
X732000Y310000D02*
D03*
X735543Y310000D02*
D03*
X849729Y322500D02*
D03*
X853272Y322500D02*
D03*
X849729Y332500D02*
D03*
X853272Y332500D02*
D03*
X849729Y327500D02*
D03*
X853272Y327500D02*
D03*
D22*
X852500Y347968D02*
D03*
Y337500D02*
D03*
D23*
X860500Y346000D02*
D03*
D24*
Y339000D02*
D03*
D25*
X954657Y177500D02*
D03*
X1002500D02*
D03*
D26*
X978579Y194819D02*
D03*
X988421D02*
D03*
X968736D02*
D03*
D27*
X802600Y323000D02*
D03*
Y326740D02*
D03*
Y330480D02*
D03*
X814000D02*
D03*
Y323000D02*
D03*
D28*
X803276Y288740D02*
D03*
Y285000D02*
D03*
Y281260D02*
D03*
X812724D02*
D03*
Y288740D02*
D03*
D29*
X859709Y291969D02*
D03*
D30*
Y290000D02*
D03*
Y288031D02*
D03*
Y286063D02*
D03*
Y284094D02*
D03*
X879000D02*
D03*
Y286063D02*
D03*
Y288031D02*
D03*
Y290000D02*
D03*
Y291969D02*
D03*
D31*
X861500Y299500D02*
D03*
X866500D02*
D03*
X861500Y309672D02*
D03*
X866500D02*
D03*
X944000Y281500D02*
D03*
X949000D02*
D03*
X948500Y265500D02*
D03*
X943500D02*
D03*
D32*
X934700Y312759D02*
D03*
Y307641D02*
D03*
X929500Y312759D02*
D03*
Y307641D02*
D03*
X969000Y312559D02*
D03*
Y307441D02*
D03*
X974500Y312500D02*
D03*
Y307382D02*
D03*
D33*
X934759Y302500D02*
D03*
X929641D02*
D03*
X974359Y302100D02*
D03*
X969241D02*
D03*
D34*
X962933Y297000D02*
D03*
X1001366D02*
D03*
D35*
X942067D02*
D03*
X980500D02*
D03*
D36*
X960043Y277370D02*
D03*
X962602D02*
D03*
X965161D02*
D03*
X967720D02*
D03*
X970280D02*
D03*
X972839D02*
D03*
X975398D02*
D03*
X977957D02*
D03*
Y248630D02*
D03*
X975398D02*
D03*
X972839D02*
D03*
X970280D02*
D03*
X967720D02*
D03*
X965161D02*
D03*
X962602D02*
D03*
D37*
X960043D02*
D03*
D38*
X988500Y335920D02*
D03*
Y342760D02*
D03*
Y349677D02*
D03*
Y356474D02*
D03*
D39*
X981500Y335920D02*
D03*
Y342760D02*
D03*
Y349677D02*
D03*
Y356474D02*
D03*
D40*
X971000Y382500D02*
D03*
X915673D02*
D03*
X781673Y382551D02*
D03*
X727173D02*
D03*
D41*
X942654Y379351D02*
D03*
X971000Y371083D02*
D03*
X887327Y379351D02*
D03*
X915673Y371083D02*
D03*
X753327Y379402D02*
D03*
X781673Y371134D02*
D03*
X698827Y379402D02*
D03*
X727173Y371134D02*
D03*
D42*
X942654Y341949D02*
D03*
X887327D02*
D03*
X753327Y342000D02*
D03*
X698827D02*
D03*
D43*
X960567Y324626D02*
D03*
X905240D02*
D03*
X771240Y324677D02*
D03*
X716740D02*
D03*
D44*
X821689Y358437D02*
D03*
X822870D02*
D03*
X824839D02*
D03*
X826020D02*
D03*
X827988D02*
D03*
X829957D02*
D03*
X831925D02*
D03*
X833894D02*
D03*
X835862D02*
D03*
X837831D02*
D03*
X839799D02*
D03*
X841768D02*
D03*
X843736D02*
D03*
X844917D02*
D03*
X846886D02*
D03*
X848067D02*
D03*
D45*
X731500Y280500D02*
D03*
X736500D02*
D03*
X741500D02*
D03*
X746500D02*
D03*
X731500Y301398D02*
D03*
X736500D02*
D03*
X741500D02*
D03*
X746500D02*
D03*
D46*
X716500Y310346D02*
D03*
D47*
Y303654D02*
D03*
D48*
X703000Y275760D02*
D03*
X683000D02*
D03*
X693000D02*
D03*
X703000Y308240D02*
D03*
X683000D02*
D03*
X693000D02*
D03*
D49*
X673921Y360776D02*
D03*
X664079D02*
D03*
Y332035D02*
D03*
X673921D02*
D03*
D50*
X676858Y355264D02*
D03*
Y343453D02*
D03*
Y337547D02*
D03*
D51*
X859874Y166500D02*
D03*
X861843D02*
D03*
X863811D02*
D03*
X865780D02*
D03*
X867748D02*
D03*
X869717D02*
D03*
X871685D02*
D03*
X873654D02*
D03*
X875622D02*
D03*
X877591D02*
D03*
X879559D02*
D03*
X881528D02*
D03*
X883496D02*
D03*
X885465D02*
D03*
X887433D02*
D03*
X889402D02*
D03*
X891370D02*
D03*
X893339D02*
D03*
X895307D02*
D03*
X897276D02*
D03*
X899244D02*
D03*
X905150D02*
D03*
X907118D02*
D03*
X909087D02*
D03*
X911055D02*
D03*
X913024D02*
D03*
X914992D02*
D03*
X916961D02*
D03*
X903181D02*
D03*
X901213D02*
D03*
X793395Y166431D02*
D03*
X795364D02*
D03*
X809143D02*
D03*
X807175D02*
D03*
X805206D02*
D03*
X803238D02*
D03*
X801269D02*
D03*
X799301D02*
D03*
X797332D02*
D03*
X791427D02*
D03*
X789458D02*
D03*
X787490D02*
D03*
X785521D02*
D03*
X783553D02*
D03*
X781584D02*
D03*
X779616D02*
D03*
X777647D02*
D03*
X775679D02*
D03*
X773710D02*
D03*
X771742D02*
D03*
X769773D02*
D03*
X767805D02*
D03*
X765836D02*
D03*
X763868D02*
D03*
X761899D02*
D03*
X759931D02*
D03*
X757962D02*
D03*
X755994D02*
D03*
X754025D02*
D03*
X752057D02*
D03*
D52*
X853378Y156669D02*
D03*
X923457D02*
D03*
X815639Y156600D02*
D03*
X745561D02*
D03*
D53*
X802454Y314500D02*
D03*
X808546D02*
D03*
D95*
X760500Y310000D02*
D03*
X860500Y331000D02*
D03*
Y367500D02*
D03*
X808500Y305500D02*
D03*
X825000Y298200D02*
D03*
X842500Y296500D02*
D03*
X849500Y292000D02*
D03*
X842500Y287500D02*
D03*
X849500Y283000D02*
D03*
X921500Y290500D02*
D03*
Y284000D02*
D03*
Y277500D02*
D03*
X990900Y242000D02*
D03*
Y249869D02*
D03*
Y257739D02*
D03*
Y265608D02*
D03*
X686000Y339000D02*
D03*
Y329000D02*
D03*
X735900Y168400D02*
D03*
D96*
X803600Y269300D02*
X815200Y257700D01*
X791972Y278500D02*
X801172Y269300D01*
X803600D01*
X821689Y357010D02*
Y358437D01*
X817100Y356600D02*
X821280D01*
X821689Y357010D01*
X848067Y356894D02*
Y358437D01*
X850504Y356000D02*
X850800D01*
X848067Y356894D02*
X848476Y356484D01*
X850020D01*
X850504Y356000D01*
X691800Y233900D02*
X756000D01*
X685100Y174000D02*
Y227200D01*
X691800Y233900D01*
X816572Y166200D02*
X821400D01*
X815000Y164500D02*
Y164628D01*
X816572Y166200D01*
X823600Y149372D02*
Y164000D01*
X821400Y166200D02*
X823600Y164000D01*
X710900Y148200D02*
X822428D01*
X823600Y149372D01*
X685100Y174000D02*
X710900Y148200D01*
X756000Y233900D02*
X768100Y246000D01*
X812400D01*
X814800Y248400D01*
X789500Y280972D02*
X791972Y278500D01*
X789500Y293900D02*
X793221Y297621D01*
X789500Y280972D02*
Y293900D01*
X793312Y297621D02*
X802193Y288740D01*
X803276D01*
X793221Y297621D02*
X793312D01*
X793221D02*
Y335721D01*
X803368Y345868D01*
X816628D01*
X858750Y302000D02*
X861250Y299500D01*
X852600Y303172D02*
X853772Y302000D01*
X852600Y303172D02*
Y303400D01*
X861250Y299500D02*
X861500D01*
X853772Y302000D02*
X858750D01*
X802193Y281260D02*
X803276D01*
X816628Y345868D02*
X832100Y330396D01*
Y321654D02*
Y330396D01*
D97*
X815200Y248800D02*
Y257700D01*
X814800Y248400D02*
X815200Y248800D01*
D98*
X789200Y165960D02*
X789571Y166331D01*
X788500Y160441D02*
X789200Y161141D01*
Y165960D01*
X787500Y160855D02*
X787993Y161348D01*
Y163831D01*
X787880Y163944D02*
X787993Y163831D01*
X787602Y166331D02*
X787880Y166053D01*
Y163944D02*
Y166053D01*
X786000Y155314D02*
X787500Y156814D01*
X788500D02*
X790200Y155114D01*
X835113Y362190D02*
X836611D01*
X834225Y361302D02*
X835113Y362190D01*
X836611D02*
X837253Y361548D01*
X836456Y340103D02*
Y342178D01*
X835400Y338556D02*
X836535Y339691D01*
Y340023D01*
X836456Y340103D02*
X836535Y340023D01*
X836221Y342413D02*
X836456Y342178D01*
X835787Y342413D02*
X836221D01*
X835200Y343000D02*
X835787Y342413D01*
X835400Y338500D02*
Y338556D01*
X837535Y339762D02*
Y340832D01*
X837455Y340912D02*
X837535Y340832D01*
X837455Y340912D02*
Y342205D01*
X837690Y342439D01*
X838113D01*
X838700Y343027D01*
X838600Y338500D02*
Y338697D01*
X837535Y339762D02*
X838600Y338697D01*
X860500Y346000D02*
Y353654D01*
X787500Y156814D02*
Y160855D01*
X788500Y156814D02*
Y160441D01*
X836347Y354389D02*
X836494Y354241D01*
X837346Y354803D02*
X837494Y354656D01*
X837831Y356023D02*
Y360851D01*
X835862Y356023D02*
X836347Y355539D01*
X837346D02*
X837831Y356023D01*
X836494Y347168D02*
Y354241D01*
X836347Y354389D02*
Y355539D01*
X837346Y354803D02*
Y355539D01*
X837494Y347195D02*
Y354656D01*
X835284Y355445D02*
X835862Y356023D01*
X835284Y355326D02*
Y355445D01*
X834643Y354684D02*
X835284Y355326D01*
X832257Y355572D02*
Y358105D01*
X831925Y358437D02*
X832257Y358105D01*
X833145Y354684D02*
X834643D01*
X832257Y355572D02*
X833145Y354684D01*
X837253Y361429D02*
X837831Y360851D01*
X837253Y361429D02*
Y361548D01*
X833894Y358437D02*
X834225Y358769D01*
Y361302D01*
X837494Y347195D02*
X837729Y346961D01*
X836260Y346934D02*
X836494Y347168D01*
X835787Y346934D02*
X836260D01*
X835862Y356023D02*
Y358437D01*
X835200Y346346D02*
X835787Y346934D01*
X838213Y346961D02*
X838800Y346373D01*
X837729Y346961D02*
X838213D01*
D99*
X984500Y249869D02*
X990900D01*
X978039D02*
X984500D01*
X952000Y276000D02*
X952900Y276900D01*
X949771Y267600D02*
Y271000D01*
Y266521D02*
Y267600D01*
X948750Y265500D02*
X949771Y266521D01*
X948500Y265500D02*
X948750D01*
X949525Y276000D02*
X952000D01*
X945982Y273722D02*
Y276000D01*
Y271443D02*
Y273722D01*
Y271443D02*
X946228Y271197D01*
Y271000D02*
Y271197D01*
X944000Y278179D02*
Y281500D01*
Y278179D02*
X945982Y276197D01*
Y276000D02*
Y276197D01*
X925000Y323500D02*
X933200Y331700D01*
X925000Y318000D02*
Y323500D01*
X933200Y331700D02*
Y372653D01*
X924000Y309081D02*
Y317000D01*
X925000Y318000D01*
X933200Y372653D02*
X939898Y379351D01*
X942654D01*
X966800Y287800D02*
X967000Y288000D01*
X969728D01*
X924000Y309081D02*
X925441Y307641D01*
X990598Y265608D02*
X990900D01*
X987806Y268400D02*
X990598Y265608D01*
X984900Y268400D02*
X987806D01*
X991000Y270900D02*
X1001366Y281266D01*
X965161Y272039D02*
X966300Y270900D01*
X991000D01*
X981596Y275500D02*
X985154D01*
X978039D02*
X981596D01*
X977957Y249787D02*
X978039Y249869D01*
X977957Y248630D02*
Y249787D01*
Y275582D02*
X978039Y275500D01*
X977957Y275582D02*
Y277370D01*
X985154Y280500D02*
Y280697D01*
X984966Y280884D02*
X985154Y280697D01*
X984769Y280884D02*
X984966D01*
X982054Y283600D02*
X984769Y280884D01*
X977600Y283600D02*
X982054D01*
X975432Y281432D02*
X977600Y283600D01*
X975398Y277370D02*
X975432Y277404D01*
Y281432D01*
X1001366Y281266D02*
Y297000D01*
X965161Y272039D02*
Y277370D01*
X967000Y291500D02*
X969728D01*
X966800Y291300D02*
X967000Y291500D01*
X969728Y288000D02*
Y291500D01*
X973271Y288000D02*
Y291500D01*
Y284271D02*
Y288000D01*
X970314Y281314D02*
X973271Y284271D01*
X970280Y277370D02*
X970314Y277404D01*
Y281314D01*
X960043Y277370D02*
Y284243D01*
X962933Y287133D02*
Y297000D01*
X960043Y284243D02*
X962933Y287133D01*
X969241Y302100D02*
X969541Y301801D01*
X969121Y302221D02*
X969241Y302100D01*
X969541Y291687D02*
X969728Y291500D01*
X969541Y291687D02*
Y301801D01*
X971000Y371083D02*
Y382500D01*
X969000Y312559D02*
Y369083D01*
X971000Y371083D01*
X974471Y312529D02*
X974500Y312500D01*
X969030Y312529D02*
X974471D01*
X969000Y312559D02*
X969030Y312529D01*
X969000Y307441D02*
X969121Y307320D01*
Y302221D02*
Y307320D01*
X929500Y307641D02*
X929571Y307570D01*
Y302571D02*
Y307570D01*
Y302571D02*
X929641Y302500D01*
X925441Y307641D02*
X929500D01*
X934700Y312759D02*
X948040Y326100D01*
X942654Y331486D02*
Y341949D01*
Y331486D02*
X947763Y326378D01*
X942654Y341949D02*
X944426D01*
X947763Y338612D01*
Y326378D02*
X948040Y326100D01*
X959093D02*
X960567Y324626D01*
X948040Y326100D02*
X959093D01*
X934699Y312759D02*
X934700Y312759D01*
X929501Y312759D02*
X934699D01*
X929500Y312759D02*
X929501Y312759D01*
X915673Y371083D02*
Y382500D01*
X912500Y310197D02*
Y368630D01*
X914953Y371083D01*
X915673D01*
X887327Y341949D02*
X896551D01*
X905240Y324626D02*
Y333260D01*
X896551Y341949D02*
X905240Y333260D01*
X900500Y316000D02*
X904914D01*
X905240Y324626D02*
X905500Y324366D01*
Y316586D02*
Y324366D01*
X904914Y316000D02*
X905500Y316586D01*
X897000Y312500D02*
X900500Y316000D01*
X897000Y310197D02*
Y312500D01*
D100*
X964200Y283100D02*
X967193D01*
X967720Y277370D02*
Y282573D01*
X967193Y283100D02*
X967720Y282573D01*
X962602Y281502D02*
X964200Y283100D01*
X962602Y277370D02*
Y281502D01*
Y273302D02*
Y277370D01*
X961300Y272000D02*
X962602Y273302D01*
X954502Y272000D02*
X961300D01*
X945982Y273722D02*
X952780D01*
X954502Y272000D01*
D101*
X980500Y297000D02*
Y300800D01*
X979200Y302100D02*
X980500Y300800D01*
X974359Y302100D02*
X979200D01*
X974359D02*
X974430Y302171D01*
Y307312D01*
X974500Y307382D01*
X934729Y302530D02*
X934759Y302500D01*
X934729Y302530D02*
Y307611D01*
X934700Y307641D02*
X934729Y307611D01*
X941501Y297000D02*
X942067D01*
X940600Y297901D02*
X941501Y297000D01*
X940600Y297901D02*
Y301100D01*
X934759Y302500D02*
X939200D01*
X940600Y301100D01*
D102*
X846256Y364500D02*
D03*
X823500D02*
D03*
X815500Y267800D02*
D03*
X766600Y236500D02*
D03*
X780000Y212000D02*
D03*
Y236500D02*
D03*
X666300Y365400D02*
D03*
X1003800Y314500D02*
D03*
X869637Y341790D02*
D03*
X824300Y224300D02*
D03*
X851850D02*
D03*
X877475D02*
D03*
X903100D02*
D03*
X720100Y221400D02*
D03*
X878100Y146500D02*
D03*
X856800D02*
D03*
X833100D02*
D03*
X1003800Y241100D02*
D03*
X958700Y221700D02*
D03*
X975100D02*
D03*
X1003800Y214800D02*
D03*
X985500Y215800D02*
D03*
X756300Y322500D02*
D03*
X739800Y329500D02*
D03*
X739900Y349100D02*
D03*
X740048Y361270D02*
D03*
X838600Y330200D02*
D03*
X855800Y319700D02*
D03*
Y325300D02*
D03*
Y330100D02*
D03*
X949300Y250300D02*
D03*
X925000Y271800D02*
D03*
Y268400D02*
D03*
X912000Y263400D02*
D03*
X786000Y155114D02*
D03*
X790200D02*
D03*
X894700Y291200D02*
D03*
X850800Y356000D02*
D03*
X817100Y356600D02*
D03*
X835400Y338500D02*
D03*
X838600D02*
D03*
X965400Y156200D02*
D03*
X960300Y151800D02*
D03*
X719300Y276800D02*
D03*
X772800Y300600D02*
D03*
X773200Y265600D02*
D03*
X832000Y278200D02*
D03*
X1003800Y227000D02*
D03*
Y254500D02*
D03*
Y270200D02*
D03*
X954400Y299700D02*
D03*
X994300Y292700D02*
D03*
X992800Y300500D02*
D03*
X990800Y314500D02*
D03*
X1003800Y327800D02*
D03*
X963300Y359100D02*
D03*
X894700Y322900D02*
D03*
X916400Y301200D02*
D03*
X924400Y341700D02*
D03*
Y359100D02*
D03*
X953300Y157800D02*
D03*
X952200Y201000D02*
D03*
X966100Y177100D02*
D03*
X978200Y154700D02*
D03*
X997100Y182100D02*
D03*
X998000Y197100D02*
D03*
X995400Y221700D02*
D03*
X985500Y227000D02*
D03*
X915600Y212000D02*
D03*
X889975D02*
D03*
X864350D02*
D03*
X926200Y224300D02*
D03*
X915600Y236500D02*
D03*
X889975D02*
D03*
X838725Y212000D02*
D03*
X864350Y236500D02*
D03*
X838725D02*
D03*
X813100Y212000D02*
D03*
Y236500D02*
D03*
X881000Y157400D02*
D03*
X867400D02*
D03*
X833100D02*
D03*
X732000Y154900D02*
D03*
X719400Y165000D02*
D03*
X695600Y172100D02*
D03*
X688900Y146500D02*
D03*
X666700Y172100D02*
D03*
X680000Y199900D02*
D03*
X680800Y241300D02*
D03*
X698800Y209000D02*
D03*
X720100D02*
D03*
X742000D02*
D03*
Y221600D02*
D03*
X698800Y221400D02*
D03*
X734400Y261300D02*
D03*
X755000D02*
D03*
X756500Y298100D02*
D03*
X719300Y290900D02*
D03*
X703400Y287700D02*
D03*
X692800Y295300D02*
D03*
X701900Y319800D02*
D03*
X697100Y330500D02*
D03*
X687800Y366500D02*
D03*
X688000Y384000D02*
D03*
X982100Y384700D02*
D03*
X1003600Y362300D02*
D03*
X963500Y341700D02*
D03*
X949800Y359100D02*
D03*
X909200D02*
D03*
X894700D02*
D03*
X869637D02*
D03*
X830300Y377100D02*
D03*
X805600Y362600D02*
D03*
X770000Y364500D02*
D03*
X759800Y364100D02*
D03*
X718800Y365200D02*
D03*
X706200Y365800D02*
D03*
X892700Y185500D02*
D03*
X883500D02*
D03*
X926000Y285020D02*
D03*
Y281000D02*
D03*
X933800Y297000D02*
D03*
X925818Y276456D02*
D03*
X916000Y174500D02*
D03*
X811800Y164500D02*
D03*
Y167800D02*
D03*
X777541Y157459D02*
D03*
X774500Y153500D02*
D03*
X770500Y157500D02*
D03*
X911500Y174500D02*
D03*
X799000Y157500D02*
D03*
X911700Y160100D02*
D03*
X907000Y162200D02*
D03*
X930600Y158000D02*
D03*
X911500Y171500D02*
D03*
X908500D02*
D03*
X806800Y159900D02*
D03*
X797300Y171200D02*
D03*
X856261Y302000D02*
D03*
X852600Y303286D02*
D03*
X816800Y334100D02*
D03*
X814700Y318500D02*
D03*
X780000Y171100D02*
D03*
X791400D02*
D03*
X760100Y212000D02*
D03*
X954200Y246500D02*
D03*
X829200Y293000D02*
D03*
X829100Y290100D02*
D03*
X826700Y284900D02*
D03*
X823800D02*
D03*
Y281800D02*
D03*
X826700D02*
D03*
X797100Y283700D02*
D03*
X794200D02*
D03*
Y286800D02*
D03*
X797100D02*
D03*
X739700Y272100D02*
D03*
X957500Y231000D02*
D03*
X964200Y229500D02*
D03*
X984500Y250000D02*
D03*
X888000Y293000D02*
D03*
X952900Y276900D02*
D03*
X953000Y280100D02*
D03*
Y284500D02*
D03*
X944400Y264500D02*
D03*
X942600Y267300D02*
D03*
X952700Y269100D02*
D03*
X966800Y287800D02*
D03*
X925500Y298500D02*
D03*
X925400Y304300D02*
D03*
X963500Y306900D02*
D03*
Y303200D02*
D03*
X961200Y269100D02*
D03*
X956500D02*
D03*
X944100Y308900D02*
D03*
X947500D02*
D03*
Y312300D02*
D03*
X944100D02*
D03*
X929100Y297000D02*
D03*
X977400Y287700D02*
D03*
X965700Y238664D02*
D03*
X980500Y241400D02*
D03*
X973200Y237000D02*
D03*
X956200Y236500D02*
D03*
Y240700D02*
D03*
X970300Y254200D02*
D03*
X967800Y229400D02*
D03*
X982900Y244500D02*
D03*
X982054Y283600D02*
D03*
X984900Y268400D02*
D03*
X981596Y265500D02*
D03*
Y275500D02*
D03*
X966800Y291300D02*
D03*
X803600Y156300D02*
D03*
X801291Y170909D02*
D03*
X815000Y164500D02*
D03*
X768500Y171000D02*
D03*
X776600Y305100D02*
D03*
X781500Y316800D02*
D03*
X802180Y381200D02*
D03*
X800000Y385500D02*
D03*
X808100Y377900D02*
D03*
X805000Y374200D02*
D03*
X770159Y152579D02*
D03*
X789300Y151300D02*
D03*
X683453Y355358D02*
D03*
X816800Y338400D02*
D03*
X817600Y302900D02*
D03*
X814300D02*
D03*
X817600Y306500D02*
D03*
X814300D02*
D03*
X823400Y315600D02*
D03*
X848400Y318100D02*
D03*
X844700D02*
D03*
X844800Y321900D02*
D03*
X993000Y354500D02*
D03*
X867000Y277500D02*
D03*
X873041Y289541D02*
D03*
X993000Y348000D02*
D03*
Y335500D02*
D03*
Y342000D02*
D03*
X880000Y311500D02*
D03*
Y307000D02*
D03*
X886500Y298500D02*
D03*
X900000Y299500D02*
D03*
X874000Y295500D02*
D03*
X866500Y295000D02*
D03*
X794500Y156000D02*
D03*
X737000Y313500D02*
D03*
X746000Y268500D02*
D03*
X757000Y160500D02*
D03*
X758000Y156000D02*
D03*
X762000Y157500D02*
D03*
X919000Y171500D02*
D03*
X916000D02*
D03*
D103*
X817850Y378280D02*
D03*
X851906D02*
D03*
D104*
X817850Y362532D02*
D03*
X851906D02*
D03*
D105*
X669000Y352311D02*
D03*
Y340500D02*
D03*
D106*
X700500Y193000D02*
D03*
D107*
X710500D02*
D03*
X720500D02*
D03*
X730500D02*
D03*
X740500D02*
D03*
X750500D02*
D03*
X760500D02*
D03*
X770500D02*
D03*
X780500D02*
D03*
X790500D02*
D03*
X800500D02*
D03*
X810500D02*
D03*
X820500D02*
D03*
X830500D02*
D03*
X840500D02*
D03*
X850500D02*
D03*
X860500D02*
D03*
X870500D02*
D03*
X880500D02*
D03*
X890500D02*
D03*
X900500D02*
D03*
X910500D02*
D03*
X920500D02*
D03*
X930500D02*
D03*
X700500Y253000D02*
D03*
X710500D02*
D03*
X720500D02*
D03*
X730500D02*
D03*
X740500D02*
D03*
X750500D02*
D03*
X760500D02*
D03*
X770500D02*
D03*
X780500D02*
D03*
X790500D02*
D03*
X800500D02*
D03*
X810500D02*
D03*
X820500D02*
D03*
X830500D02*
D03*
X840500D02*
D03*
X850500D02*
D03*
X860500D02*
D03*
X870500D02*
D03*
X880500D02*
D03*
X890500D02*
D03*
X900500D02*
D03*
X910500D02*
D03*
X920500D02*
D03*
X930500D02*
D03*
D108*
X673336Y376804D02*
D03*
Y155336D02*
D03*
X996171D02*
D03*
Y376804D02*
D03*
M02*
