G04*
G04 #@! TF.GenerationSoftware,Altium Limited,Altium Designer,20.0.13 (296)*
G04*
G04 Layer_Color=32768*
%FSLAX25Y25*%
%MOIN*%
G70*
G01*
G75*
%ADD14C,0.00787*%
%ADD113C,0.00394*%
%ADD114C,0.00100*%
%ADD115C,0.00197*%
%ADD116C,0.00200*%
G36*
X719693Y321338D02*
X713787D01*
Y329212D01*
X719693D01*
Y321338D01*
D01*
D02*
G37*
G36*
X703354Y344753D02*
Y338847D01*
X695480D01*
Y344753D01*
X703354D01*
D01*
D02*
G37*
G36*
X722646Y368946D02*
Y372883D01*
X730520D01*
Y368946D01*
X722646D01*
D01*
D02*
G37*
G36*
X703354Y381171D02*
Y377234D01*
X695480D01*
Y381171D01*
X703354D01*
D01*
D02*
G37*
G36*
X730520Y383956D02*
Y380806D01*
X722646D01*
Y383956D01*
X730520D01*
D01*
D02*
G37*
G36*
X730756Y398115D02*
X730756Y398213D01*
X730618Y398352D01*
X730422Y398352D01*
X730283Y398213D01*
X730283Y398115D01*
X730283Y398018D01*
X730422Y397879D01*
X730618Y397879D01*
X730756Y398018D01*
X730756Y398115D01*
D01*
D01*
D02*
G37*
G36*
X757854Y344753D02*
Y338847D01*
X749980D01*
Y344753D01*
X757854D01*
D01*
D02*
G37*
G36*
X774193Y321338D02*
X768287D01*
Y329212D01*
X774193D01*
Y321338D01*
D01*
D02*
G37*
G36*
X777146Y368946D02*
Y372883D01*
X785020D01*
Y368946D01*
X777146D01*
D01*
D02*
G37*
G36*
X757854Y381171D02*
Y377234D01*
X749980D01*
Y381171D01*
X757854D01*
D01*
D02*
G37*
G36*
X785020Y383956D02*
Y380806D01*
X777146D01*
Y383956D01*
X785020D01*
D01*
D02*
G37*
G36*
X785256Y398115D02*
X785256Y398213D01*
X785118Y398352D01*
X784922Y398352D01*
X784783Y398213D01*
X784783Y398115D01*
X784783Y398018D01*
X784922Y397879D01*
X785118Y397879D01*
X785256Y398018D01*
X785256Y398115D01*
D01*
D01*
D02*
G37*
G36*
X891854Y344702D02*
Y338796D01*
X883980D01*
Y344702D01*
X891854D01*
D01*
D02*
G37*
G36*
X908193Y321287D02*
X902287D01*
Y329161D01*
X908193D01*
Y321287D01*
D01*
D02*
G37*
G36*
X911146Y368895D02*
Y372832D01*
X919020D01*
Y368895D01*
X911146D01*
D01*
D02*
G37*
G36*
X891854Y381119D02*
Y377183D01*
X883980D01*
Y381119D01*
X891854D01*
D01*
D02*
G37*
G36*
X919020Y383905D02*
Y380755D01*
X911146D01*
Y383905D01*
X919020D01*
D01*
D02*
G37*
G36*
X919256Y398064D02*
X919256Y398162D01*
X919118Y398301D01*
X918922Y398301D01*
X918783Y398162D01*
X918783Y398064D01*
X918783Y397967D01*
X918922Y397828D01*
X919118Y397828D01*
X919256Y397967D01*
X919256Y398064D01*
D01*
D01*
D02*
G37*
G36*
X947181Y344702D02*
Y338796D01*
X939307D01*
Y344702D01*
X947181D01*
D01*
D02*
G37*
G36*
X963520Y321287D02*
X957614D01*
Y329161D01*
X963520D01*
Y321287D01*
D01*
D02*
G37*
G36*
X966473Y368895D02*
Y372832D01*
X974347D01*
Y368895D01*
X966473D01*
D01*
D02*
G37*
G36*
X947181Y381119D02*
Y377183D01*
X939307D01*
Y381119D01*
X947181D01*
D01*
D02*
G37*
G36*
X974347Y383905D02*
Y380755D01*
X966473D01*
Y383905D01*
X974347D01*
D01*
D02*
G37*
G36*
X974583Y398064D02*
X974583Y398162D01*
X974445Y398301D01*
X974249Y398301D01*
X974110Y398162D01*
X974110Y398064D01*
X974110Y397967D01*
X974249Y397828D01*
X974445Y397828D01*
X974583Y397967D01*
X974583Y398064D01*
D01*
D01*
D02*
G37*
D14*
X799988Y318437D02*
X811012D01*
Y310563D02*
Y318437D01*
X799988Y310563D02*
X811012D01*
X799988D02*
Y318437D01*
D113*
X808506Y324772D02*
Y328709D01*
X806537Y326740D02*
X810474D01*
X799506Y319654D02*
X817506D01*
X799506Y333827D02*
X817506D01*
Y319654D02*
Y333827D01*
X799506Y319654D02*
Y333827D01*
X806032Y285000D02*
X809969D01*
X808000Y283032D02*
Y286969D01*
X859709Y293937D02*
X879000D01*
X859709Y282126D02*
Y293937D01*
Y282126D02*
X879000D01*
Y293937D01*
X737032Y290949D02*
X740969D01*
X739000Y288980D02*
Y292917D01*
X728173Y274949D02*
Y306949D01*
X749827Y274949D02*
Y306949D01*
X728173Y274949D02*
X749827D01*
X728173Y306949D02*
X749827D01*
X803532Y314500D02*
X807469D01*
X805500Y312532D02*
Y316469D01*
D114*
X928700Y270200D02*
G03*
X928700Y270200I-500J0D01*
G01*
X932300D02*
G03*
X932300Y270200I-500J0D01*
G01*
X744729Y272000D02*
G03*
X744729Y272000I-500J0D01*
G01*
X770327Y310000D02*
G03*
X770327Y310000I-500J0D01*
G01*
X778673D02*
G03*
X778673Y310000I-500J0D01*
G01*
X827500Y344827D02*
G03*
X827500Y344827I-500J0D01*
G01*
X835700Y344673D02*
G03*
X835700Y344673I-500J0D01*
G01*
X845500Y344673D02*
G03*
X845500Y344673I-500J0D01*
G01*
X839200Y344700D02*
G03*
X839200Y344700I-500J0D01*
G01*
X844154Y327500D02*
G03*
X844154Y327500I-500J0D01*
G01*
Y332500D02*
G03*
X844154Y332500I-500J0D01*
G01*
X861000Y355327D02*
G03*
X861000Y355327I-500J0D01*
G01*
X803827Y337000D02*
G03*
X803827Y337000I-500J0D01*
G01*
X811827D02*
G03*
X811827Y337000I-500J0D01*
G01*
X820500Y330771D02*
G03*
X820500Y330771I-500J0D01*
G01*
X820500Y323327D02*
G03*
X820500Y323327I-500J0D01*
G01*
X820000Y313771D02*
G03*
X820000Y313771I-500J0D01*
G01*
X815000D02*
G03*
X815000Y313771I-500J0D01*
G01*
X825000Y289729D02*
G03*
X825000Y289729I-500J0D01*
G01*
X820500D02*
G03*
X820500Y289729I-500J0D01*
G01*
X820500Y281771D02*
G03*
X820500Y281771I-500J0D01*
G01*
X931000Y285500D02*
G03*
X931000Y285500I-500J0D01*
G01*
Y280750D02*
G03*
X931000Y280750I-500J0D01*
G01*
Y276000D02*
G03*
X931000Y276000I-500J0D01*
G01*
X862728Y278500D02*
G03*
X862728Y278500I-500J0D01*
G01*
X863228Y304500D02*
G03*
X863228Y304500I-500J0D01*
G01*
X873000Y301500D02*
G03*
X873000Y301500I-500J0D01*
G01*
X878000D02*
G03*
X878000Y301500I-500J0D01*
G01*
X892000Y288154D02*
G03*
X892000Y288154I-500J0D01*
G01*
X887000Y288271D02*
G03*
X887000Y288271I-500J0D01*
G01*
X904500Y301500D02*
G03*
X904500Y301500I-500J0D01*
G01*
X889000D02*
G03*
X889000Y301500I-500J0D01*
G01*
X887500Y308425D02*
G03*
X887500Y308425I-500J0D01*
G01*
X892500Y308500D02*
G03*
X892500Y308500I-500J0D01*
G01*
X897500Y308524D02*
G03*
X897500Y308524I-500J0D01*
G01*
X903000Y308500D02*
G03*
X903000Y308500I-500J0D01*
G01*
X908000Y308425D02*
G03*
X908000Y308425I-500J0D01*
G01*
X913000Y308524D02*
G03*
X913000Y308524I-500J0D01*
G01*
X935200Y310200D02*
G03*
X935200Y310200I-500J0D01*
G01*
X930000D02*
G03*
X930000Y310200I-500J0D01*
G01*
X932700Y302500D02*
G03*
X932700Y302500I-500J0D01*
G01*
X972300Y302100D02*
G03*
X972300Y302100I-500J0D01*
G01*
X972000Y291500D02*
G03*
X972000Y291500I-500J0D01*
G01*
Y288000D02*
G03*
X972000Y288000I-500J0D01*
G01*
X948254Y276000D02*
G03*
X948254Y276000I-500J0D01*
G01*
X948500Y271000D02*
G03*
X948500Y271000I-500J0D01*
G01*
X962748Y240500D02*
G03*
X962748Y240500I-500J0D01*
G01*
Y237000D02*
G03*
X962748Y237000I-500J0D01*
G01*
X962673Y233500D02*
G03*
X962673Y233500I-500J0D01*
G01*
X969075D02*
G03*
X969075Y233500I-500J0D01*
G01*
X969304Y237000D02*
G03*
X969304Y237000I-500J0D01*
G01*
X969347Y240500D02*
G03*
X969347Y240500I-500J0D01*
G01*
X987327Y280500D02*
G03*
X987327Y280500I-500J0D01*
G01*
Y275500D02*
G03*
X987327Y275500I-500J0D01*
G01*
X969500Y310000D02*
G03*
X969500Y310000I-500J0D01*
G01*
X975000Y309941D02*
G03*
X975000Y309941I-500J0D01*
G01*
X993000Y325500D02*
G03*
X993000Y325500I-500J0D01*
G01*
X988500D02*
G03*
X988500Y325500I-500J0D01*
G01*
X984000D02*
G03*
X984000Y325500I-500J0D01*
G01*
X979500D02*
G03*
X979500Y325500I-500J0D01*
G01*
X734272Y310000D02*
G03*
X734272Y310000I-500J0D01*
G01*
X724000Y308173D02*
G03*
X724000Y308173I-500J0D01*
G01*
X673500Y286000D02*
G03*
X673500Y286000I-500J0D01*
G01*
Y277500D02*
G03*
X673500Y277500I-500J0D01*
G01*
X852000Y322500D02*
G03*
X852000Y322500I-500J0D01*
G01*
Y332500D02*
G03*
X852000Y332500I-500J0D01*
G01*
Y327500D02*
G03*
X852000Y327500I-500J0D01*
G01*
X927413Y270200D02*
X928987D01*
X928200Y269413D02*
Y270987D01*
X931013Y270200D02*
X932587D01*
X931800Y269413D02*
Y270987D01*
X744229Y271213D02*
Y272788D01*
X743441Y272000D02*
X745016D01*
X769039Y310000D02*
X770614D01*
X769827Y309213D02*
Y310787D01*
X777386Y310000D02*
X778961D01*
X778173Y309213D02*
Y310787D01*
X827000Y344039D02*
Y345614D01*
X826213Y344827D02*
X827787D01*
X835200Y343886D02*
Y345461D01*
X834413Y344673D02*
X835987D01*
X845000Y343886D02*
Y345461D01*
X844213Y344673D02*
X845787D01*
X838700Y343913D02*
Y345487D01*
X837913Y344700D02*
X839487D01*
X843654Y326713D02*
Y328288D01*
X842866Y327500D02*
X844441D01*
X843654Y331713D02*
Y333288D01*
X842866Y332500D02*
X844441D01*
X860500Y354539D02*
Y356114D01*
X859713Y355327D02*
X861287D01*
X802539Y337000D02*
X804114D01*
X803327Y336213D02*
Y337787D01*
X810539Y337000D02*
X812114D01*
X811327Y336213D02*
Y337787D01*
X819213Y330771D02*
X820788D01*
X820000Y329984D02*
Y331559D01*
X820000Y322539D02*
Y324114D01*
X819213Y323327D02*
X820787D01*
X818713Y313771D02*
X820288D01*
X819500Y312984D02*
Y314559D01*
X813713Y313771D02*
X815288D01*
X814500Y312984D02*
Y314559D01*
X823712Y289729D02*
X825287D01*
X824500Y288941D02*
Y290516D01*
X819212Y289729D02*
X820787D01*
X820000Y288941D02*
Y290516D01*
X819213Y281771D02*
X820788D01*
X820000Y280984D02*
Y282559D01*
X929713Y285500D02*
X931287D01*
X930500Y284713D02*
Y286287D01*
X929713Y280750D02*
X931287D01*
X930500Y279963D02*
Y281537D01*
X929713Y276000D02*
X931287D01*
X930500Y275213D02*
Y276787D01*
X862228Y277713D02*
Y279287D01*
X861441Y278500D02*
X863016D01*
X862728Y303713D02*
Y305287D01*
X861941Y304500D02*
X863516D01*
X871713Y301500D02*
X873287D01*
X872500Y300713D02*
Y302287D01*
X876713Y301500D02*
X878287D01*
X877500Y300713D02*
Y302287D01*
X890713Y288154D02*
X892287D01*
X891500Y287366D02*
Y288941D01*
X885713Y288271D02*
X887288D01*
X886500Y287484D02*
Y289059D01*
X903213Y301500D02*
X904787D01*
X904000Y300713D02*
Y302287D01*
X887713Y301500D02*
X889287D01*
X888500Y300713D02*
Y302287D01*
X886212Y308426D02*
X887787D01*
X887000Y307638D02*
Y309213D01*
X891213Y308500D02*
X892787D01*
X892000Y307713D02*
Y309287D01*
X897000Y307736D02*
Y309311D01*
X896213Y308524D02*
X897787D01*
X901713Y308500D02*
X903287D01*
X902500Y307713D02*
Y309287D01*
X906713Y308426D02*
X908287D01*
X907500Y307638D02*
Y309213D01*
X912500Y307736D02*
Y309311D01*
X911713Y308524D02*
X913287D01*
X933913Y310200D02*
X935487D01*
X934700Y309413D02*
Y310987D01*
X929500Y309413D02*
Y310987D01*
X928713Y310200D02*
X930287D01*
X932200Y301713D02*
Y303287D01*
X931413Y302500D02*
X932987D01*
X971800Y301313D02*
Y302887D01*
X971013Y302100D02*
X972587D01*
X971500Y290713D02*
Y292287D01*
X970713Y291500D02*
X972287D01*
X971500Y287213D02*
Y288787D01*
X970713Y288000D02*
X972287D01*
X947754Y275213D02*
Y276787D01*
X946966Y276000D02*
X948541D01*
X948000Y270213D02*
Y271787D01*
X947213Y271000D02*
X948787D01*
X961461Y240500D02*
X963036D01*
X962248Y239713D02*
Y241287D01*
X961461Y237000D02*
X963036D01*
X962248Y236213D02*
Y237787D01*
X961386Y233500D02*
X962961D01*
X962173Y232713D02*
Y234287D01*
X967788Y233500D02*
X969363D01*
X968575Y232713D02*
Y234287D01*
X968804Y236213D02*
Y237788D01*
X968016Y237000D02*
X969591D01*
X968847Y239713D02*
Y241287D01*
X968059Y240500D02*
X969634D01*
X986039Y280500D02*
X987614D01*
X986827Y279713D02*
Y281287D01*
X986039Y275500D02*
X987614D01*
X986827Y274713D02*
Y276287D01*
X969000Y309213D02*
Y310787D01*
X968213Y310000D02*
X969787D01*
X973713Y309941D02*
X975288D01*
X974500Y309153D02*
Y310728D01*
X992500Y324713D02*
Y326287D01*
X991713Y325500D02*
X993287D01*
X988000Y324713D02*
Y326287D01*
X987213Y325500D02*
X988787D01*
X983500Y324713D02*
Y326287D01*
X982713Y325500D02*
X984287D01*
X979000Y324713D02*
Y326287D01*
X978213Y325500D02*
X979787D01*
X733772Y309213D02*
Y310787D01*
X732984Y310000D02*
X734559D01*
X723500Y307386D02*
Y308961D01*
X722713Y308173D02*
X724287D01*
X673000Y285213D02*
Y286787D01*
X672213Y286000D02*
X673787D01*
X672213Y277500D02*
X673787D01*
X673000Y276713D02*
Y278287D01*
X850713Y322500D02*
X852287D01*
X851500Y321713D02*
Y323287D01*
X850713Y332500D02*
X852287D01*
X851500Y331713D02*
Y333287D01*
X850713Y327500D02*
X852287D01*
X851500Y326713D02*
Y328287D01*
D115*
X861904Y342499D02*
G03*
X861904Y342499I-1378J0D01*
G01*
X979957Y181500D02*
G03*
X979957Y181500I-1378J0D01*
G01*
X870732Y288032D02*
G03*
X870732Y288032I-1378J0D01*
G01*
X953878Y297000D02*
G03*
X953878Y297000I-1378J0D01*
G01*
X992311D02*
G03*
X992311Y297000I-1378J0D01*
G01*
X986378Y335945D02*
G03*
X986378Y335945I-1378J0D01*
G01*
Y342785D02*
G03*
X986378Y342785I-1378J0D01*
G01*
Y349703D02*
G03*
X986378Y349703I-1378J0D01*
G01*
Y356500D02*
G03*
X986378Y356500I-1378J0D01*
G01*
X717878Y307000D02*
G03*
X717878Y307000I-1378J0D01*
G01*
X670378Y346406D02*
G03*
X670378Y346406I-1378J0D01*
G01*
X889795Y156669D02*
G03*
X889795Y156669I-1378J0D01*
G01*
X781978Y156600D02*
G03*
X781978Y156600I-1378J0D01*
G01*
X860526Y340531D02*
Y344468D01*
X858557Y342500D02*
X862494D01*
X976610Y181500D02*
X980547D01*
X978579Y179532D02*
Y183469D01*
X798846Y276929D02*
Y293071D01*
X817154Y276929D02*
Y293071D01*
X798846D02*
X817154D01*
X798846Y276929D02*
X817154D01*
X869354Y286063D02*
Y290000D01*
X867386Y288031D02*
X871323D01*
X950532Y297000D02*
X954469D01*
X952500Y295032D02*
Y298969D01*
X988964Y297000D02*
X992901D01*
X990933Y295031D02*
Y298968D01*
X983032Y335945D02*
X986969D01*
X985000Y333977D02*
Y337914D01*
X983032Y342785D02*
X986969D01*
X985000Y340817D02*
Y344754D01*
X983032Y349703D02*
X986969D01*
X985000Y347734D02*
Y351671D01*
Y354532D02*
Y358469D01*
X983032Y356500D02*
X986969D01*
X714531Y307000D02*
X718468D01*
X716500Y305031D02*
Y308968D01*
X675264Y271783D02*
Y312217D01*
Y271783D02*
X710736D01*
Y312217D01*
X675264D02*
X710736D01*
X667032Y346405D02*
X670969D01*
X669000Y344437D02*
Y348374D01*
X886449Y156669D02*
X890386D01*
X888417Y154701D02*
Y158638D01*
X780600Y154632D02*
Y158569D01*
X778631Y156600D02*
X782568D01*
D116*
X863500Y299500D02*
X864500D01*
X864000Y299000D02*
Y300000D01*
X863500Y309672D02*
X864500D01*
X864000Y309172D02*
Y310172D01*
X946000Y281500D02*
X947000D01*
X946500Y281000D02*
Y282000D01*
X945500Y265500D02*
X946500D01*
X946000Y265000D02*
Y266000D01*
X945016Y330632D02*
X945027Y388201D01*
X946986Y388200D01*
X947006Y398064D01*
X966689Y398028D01*
X966664Y388201D02*
X966689Y398028D01*
X966664Y388201D02*
X968638Y388113D01*
Y330632D02*
Y388113D01*
X966509Y330697D02*
X968638Y330632D01*
X965566Y329947D02*
X966509Y330697D01*
X963536Y329924D02*
X965566Y329947D01*
X963521Y329140D02*
X963536Y329924D01*
X962506Y329100D02*
X963521Y329140D01*
X958817Y329111D02*
X962506Y329100D01*
X957612Y329105D02*
X958817Y329111D01*
X957607Y329914D02*
X957612Y329105D01*
X952197Y330003D02*
X957607Y329914D01*
X951051Y330762D02*
X952197Y330003D01*
X945016Y330632D02*
X951051Y330762D01*
X889689Y330632D02*
X889700Y388201D01*
X891659Y388200D01*
X891679Y398064D01*
X911362Y398028D01*
X911337Y388201D02*
X911362Y398028D01*
X911337Y388201D02*
X913311Y388113D01*
Y330632D02*
Y388113D01*
X911182Y330697D02*
X913311Y330632D01*
X910239Y329947D02*
X911182Y330697D01*
X908209Y329924D02*
X910239Y329947D01*
X908194Y329140D02*
X908209Y329924D01*
X907179Y329100D02*
X908194Y329140D01*
X903490Y329111D02*
X907179Y329100D01*
X902285Y329105D02*
X903490Y329111D01*
X902280Y329914D02*
X902285Y329105D01*
X896870Y330003D02*
X902280Y329914D01*
X895724Y330762D02*
X896870Y330003D01*
X889689Y330632D02*
X895724Y330762D01*
X755689Y330683D02*
X755700Y388252D01*
X757659Y388251D01*
X757679Y398115D01*
X777362Y398079D01*
X777337Y388252D02*
X777362Y398079D01*
X777337Y388252D02*
X779311Y388164D01*
Y330683D02*
Y388164D01*
X777182Y330748D02*
X779311Y330683D01*
X776239Y329998D02*
X777182Y330748D01*
X774209Y329975D02*
X776239Y329998D01*
X774194Y329191D02*
X774209Y329975D01*
X773179Y329151D02*
X774194Y329191D01*
X769490Y329162D02*
X773179Y329151D01*
X768285Y329156D02*
X769490Y329162D01*
X768280Y329965D02*
X768285Y329156D01*
X762870Y330054D02*
X768280Y329965D01*
X761724Y330813D02*
X762870Y330054D01*
X755689Y330683D02*
X761724Y330813D01*
X701189Y330683D02*
X701200Y388252D01*
X703159Y388251D01*
X703179Y398115D01*
X722862Y398079D01*
X722837Y388252D02*
X722862Y398079D01*
X722837Y388252D02*
X724811Y388164D01*
Y330683D02*
Y388164D01*
X722682Y330748D02*
X724811Y330683D01*
X721739Y329998D02*
X722682Y330748D01*
X719709Y329975D02*
X721739Y329998D01*
X719694Y329191D02*
X719709Y329975D01*
X718679Y329151D02*
X719694Y329191D01*
X714990Y329162D02*
X718679Y329151D01*
X713785Y329156D02*
X714990Y329162D01*
X713780Y329965D02*
X713785Y329156D01*
X708370Y330054D02*
X713780Y329965D01*
X707224Y330813D02*
X708370Y330054D01*
X701189Y330683D02*
X707224Y330813D01*
M02*
