G04*
G04 #@! TF.GenerationSoftware,Altium Limited,Altium Designer,20.0.13 (296)*
G04*
G04 Layer_Color=16711935*
%FSLAX25Y25*%
%MOIN*%
G70*
G01*
G75*
%ADD88C,0.03159*%
%ADD89O,0.04537X0.06899*%
%ADD90O,0.04537X0.08868*%
%ADD91C,0.03750*%
%ADD92R,0.07200X0.07200*%
%ADD93C,0.07200*%
%ADD94C,0.20600*%
D88*
X846256Y364500D02*
D03*
X823500D02*
D03*
D89*
X817850Y378280D02*
D03*
X851906D02*
D03*
D90*
X817850Y362532D02*
D03*
X851906D02*
D03*
D91*
X669000Y352311D02*
D03*
Y340500D02*
D03*
D92*
X700500Y193000D02*
D03*
D93*
X710500D02*
D03*
X720500D02*
D03*
X730500D02*
D03*
X740500D02*
D03*
X750500D02*
D03*
X760500D02*
D03*
X770500D02*
D03*
X780500D02*
D03*
X790500D02*
D03*
X800500D02*
D03*
X810500D02*
D03*
X820500D02*
D03*
X830500D02*
D03*
X840500D02*
D03*
X850500D02*
D03*
X860500D02*
D03*
X870500D02*
D03*
X880500D02*
D03*
X890500D02*
D03*
X900500D02*
D03*
X910500D02*
D03*
X920500D02*
D03*
X930500D02*
D03*
X700500Y253000D02*
D03*
X710500D02*
D03*
X720500D02*
D03*
X730500D02*
D03*
X740500D02*
D03*
X750500D02*
D03*
X760500D02*
D03*
X770500D02*
D03*
X780500D02*
D03*
X790500D02*
D03*
X800500D02*
D03*
X810500D02*
D03*
X820500D02*
D03*
X830500D02*
D03*
X840500D02*
D03*
X850500D02*
D03*
X860500D02*
D03*
X870500D02*
D03*
X880500D02*
D03*
X890500D02*
D03*
X900500D02*
D03*
X910500D02*
D03*
X920500D02*
D03*
X930500D02*
D03*
D94*
X673336Y376804D02*
D03*
Y155336D02*
D03*
X996171D02*
D03*
Y376804D02*
D03*
M02*
