G04*
G04 #@! TF.GenerationSoftware,Altium Limited,Altium Designer,20.0.13 (296)*
G04*
G04 Layer_Color=8388736*
%FSLAX25Y25*%
%MOIN*%
G70*
G01*
G75*
G04:AMPARAMS|DCode=53|XSize=25mil|YSize=50mil|CornerRadius=6.25mil|HoleSize=0mil|Usage=FLASHONLY|Rotation=0.000|XOffset=0mil|YOffset=0mil|HoleType=Round|Shape=RoundedRectangle|*
%AMROUNDEDRECTD53*
21,1,0.02500,0.03750,0,0,0.0*
21,1,0.01250,0.05000,0,0,0.0*
1,1,0.01250,0.00625,-0.01875*
1,1,0.01250,-0.00625,-0.01875*
1,1,0.01250,-0.00625,0.01875*
1,1,0.01250,0.00625,0.01875*
%
%ADD53ROUNDEDRECTD53*%
%ADD54R,0.02568X0.02175*%
%ADD55R,0.02175X0.02568*%
%ADD56C,0.05324*%
G04:AMPARAMS|DCode=57|XSize=25.68mil|YSize=29.62mil|CornerRadius=7.92mil|HoleSize=0mil|Usage=FLASHONLY|Rotation=0.000|XOffset=0mil|YOffset=0mil|HoleType=Round|Shape=RoundedRectangle|*
%AMROUNDEDRECTD57*
21,1,0.02568,0.01378,0,0,0.0*
21,1,0.00984,0.02962,0,0,0.0*
1,1,0.01584,0.00492,-0.00689*
1,1,0.01584,-0.00492,-0.00689*
1,1,0.01584,-0.00492,0.00689*
1,1,0.01584,0.00492,0.00689*
%
%ADD57ROUNDEDRECTD57*%
G04:AMPARAMS|DCode=58|XSize=56mil|YSize=41mil|CornerRadius=0mil|HoleSize=0mil|Usage=FLASHONLY|Rotation=90.000|XOffset=0mil|YOffset=0mil|HoleType=Round|Shape=Octagon|*
%AMOCTAGOND58*
4,1,8,0.01025,0.02800,-0.01025,0.02800,-0.02050,0.01775,-0.02050,-0.01775,-0.01025,-0.02800,0.01025,-0.02800,0.02050,-0.01775,0.02050,0.01775,0.01025,0.02800,0.0*
%
%ADD58OCTAGOND58*%

%ADD59R,0.04100X0.05600*%
%ADD60R,0.06899X0.12411*%
%ADD61R,0.05324X0.20285*%
G04:AMPARAMS|DCode=62|XSize=29.62mil|YSize=41mil|CornerRadius=8.91mil|HoleSize=0mil|Usage=FLASHONLY|Rotation=90.000|XOffset=0mil|YOffset=0mil|HoleType=Round|Shape=RoundedRectangle|*
%AMROUNDEDRECTD62*
21,1,0.02962,0.02319,0,0,90.0*
21,1,0.01181,0.04100,0,0,90.0*
1,1,0.01781,0.01159,0.00591*
1,1,0.01781,0.01159,-0.00591*
1,1,0.01781,-0.01159,-0.00591*
1,1,0.01781,-0.01159,0.00591*
%
%ADD62ROUNDEDRECTD62*%
%ADD63R,0.05521X0.03356*%
%ADD64R,0.06112X0.01800*%
%ADD65O,0.06112X0.01800*%
%ADD66R,0.03600X0.03100*%
%ADD67R,0.03600X0.03600*%
%ADD68R,0.03600X0.03600*%
%ADD69R,0.07687X0.03750*%
%ADD70O,0.07687X0.03750*%
%ADD71O,0.01978X0.06899*%
%ADD72R,0.01978X0.06899*%
%ADD73R,0.05600X0.04100*%
G04:AMPARAMS|DCode=74|XSize=56mil|YSize=41mil|CornerRadius=0mil|HoleSize=0mil|Usage=FLASHONLY|Rotation=180.000|XOffset=0mil|YOffset=0mil|HoleType=Round|Shape=Octagon|*
%AMOCTAGOND74*
4,1,8,-0.02800,0.01025,-0.02800,-0.01025,-0.01775,-0.02050,0.01775,-0.02050,0.02800,-0.01025,0.02800,0.01025,0.01775,0.02050,-0.01775,0.02050,-0.02800,0.01025,0.0*
%
%ADD74OCTAGOND74*%

%ADD75R,0.11817X0.05124*%
%ADD76R,0.11817X0.06306*%
%ADD77R,0.11817X0.08274*%
%ADD78R,0.08274X0.12211*%
G04:AMPARAMS|DCode=79|XSize=65.06mil|YSize=17.81mil|CornerRadius=5.95mil|HoleSize=0mil|Usage=FLASHONLY|Rotation=270.000|XOffset=0mil|YOffset=0mil|HoleType=Round|Shape=RoundedRectangle|*
%AMROUNDEDRECTD79*
21,1,0.06506,0.00591,0,0,270.0*
21,1,0.05315,0.01781,0,0,270.0*
1,1,0.01191,-0.00295,-0.02657*
1,1,0.01191,-0.00295,0.02657*
1,1,0.01191,0.00295,0.02657*
1,1,0.01191,0.00295,-0.02657*
%
%ADD79ROUNDEDRECTD79*%
%ADD80O,0.02962X0.09261*%
%ADD81R,0.03356X0.03750*%
G04:AMPARAMS|DCode=82|XSize=37.5mil|YSize=33.56mil|CornerRadius=0mil|HoleSize=0mil|Usage=FLASHONLY|Rotation=270.000|XOffset=0mil|YOffset=0mil|HoleType=Round|Shape=Octagon|*
%AMOCTAGOND82*
4,1,8,-0.00839,-0.01875,0.00839,-0.01875,0.01678,-0.01036,0.01678,0.01036,0.00839,0.01875,-0.00839,0.01875,-0.01678,0.01036,-0.01678,-0.01036,-0.00839,-0.01875,0.0*
%
%ADD82OCTAGOND82*%

%ADD83R,0.07608X0.06584*%
%ADD84R,0.03750X0.06112*%
%ADD85R,0.06506X0.02962*%
%ADD86R,0.01781X0.05718*%
%ADD87R,0.07687X0.09261*%
%ADD88C,0.03159*%
%ADD89O,0.04537X0.06899*%
%ADD90O,0.04537X0.08868*%
%ADD91C,0.03750*%
%ADD92R,0.07200X0.07200*%
%ADD93C,0.07200*%
%ADD94C,0.20600*%
D53*
X802454Y314500D02*
D03*
X808546D02*
D03*
D54*
X928200Y268527D02*
D03*
Y271873D02*
D03*
X931800Y268527D02*
D03*
Y271873D02*
D03*
X827000Y343154D02*
D03*
Y346500D02*
D03*
X835200Y346346D02*
D03*
Y343000D02*
D03*
X845000D02*
D03*
Y346346D02*
D03*
X838700Y346373D02*
D03*
Y343027D02*
D03*
X860500Y353654D02*
D03*
Y357000D02*
D03*
X820000Y332543D02*
D03*
X820000Y329000D02*
D03*
Y325000D02*
D03*
Y321654D02*
D03*
X819500Y315543D02*
D03*
X819500Y312000D02*
D03*
X814500Y315543D02*
D03*
X814500Y312000D02*
D03*
X824500Y287957D02*
D03*
X824500Y291500D02*
D03*
X820000Y287957D02*
D03*
X820000Y291500D02*
D03*
X820000Y283543D02*
D03*
X820000Y280000D02*
D03*
X872500Y299728D02*
D03*
X872500Y303271D02*
D03*
X877500Y299728D02*
D03*
X877500Y303271D02*
D03*
X891500Y289926D02*
D03*
X891500Y286383D02*
D03*
X886500Y290043D02*
D03*
X886500Y286500D02*
D03*
X887000Y306654D02*
D03*
X887000Y310197D02*
D03*
X892000Y306728D02*
D03*
X892000Y310271D02*
D03*
X897000Y306850D02*
D03*
Y310197D02*
D03*
X902500Y306728D02*
D03*
X902500Y310271D02*
D03*
X907500Y306654D02*
D03*
X907500Y310197D02*
D03*
X912500D02*
D03*
Y306850D02*
D03*
X992500Y327173D02*
D03*
Y323827D02*
D03*
X988000Y327173D02*
D03*
Y323827D02*
D03*
X983500Y327173D02*
D03*
Y323827D02*
D03*
X979000Y327173D02*
D03*
Y323827D02*
D03*
X723500Y309846D02*
D03*
Y306500D02*
D03*
X673000Y284327D02*
D03*
Y287673D02*
D03*
Y279272D02*
D03*
X673000Y275729D02*
D03*
D55*
X742457Y272000D02*
D03*
X746000Y272000D02*
D03*
X768154Y310000D02*
D03*
X771500D02*
D03*
X779846D02*
D03*
X776500D02*
D03*
X841882Y327500D02*
D03*
X845425Y327500D02*
D03*
X841882Y332500D02*
D03*
X845425Y332500D02*
D03*
X801654Y337000D02*
D03*
X805000D02*
D03*
X813000D02*
D03*
X809654D02*
D03*
X932173Y285500D02*
D03*
X928827D02*
D03*
X932173Y280750D02*
D03*
X928827D02*
D03*
X932173Y276000D02*
D03*
X928827D02*
D03*
X864000Y278500D02*
D03*
X860457Y278500D02*
D03*
X864500Y304500D02*
D03*
X860957Y304500D02*
D03*
X902327Y301500D02*
D03*
X905673D02*
D03*
X886827D02*
D03*
X890173D02*
D03*
X969728Y291500D02*
D03*
X973271Y291500D02*
D03*
X969728Y288000D02*
D03*
X973271Y288000D02*
D03*
X945982Y276000D02*
D03*
X949525Y276000D02*
D03*
X946228Y271000D02*
D03*
X949771Y271000D02*
D03*
X960575Y240500D02*
D03*
X963922D02*
D03*
X960575Y237000D02*
D03*
X963922D02*
D03*
X960500Y233500D02*
D03*
X963846D02*
D03*
X966902D02*
D03*
X970248D02*
D03*
X967032Y237000D02*
D03*
X970575Y237000D02*
D03*
X967075Y240500D02*
D03*
X970618Y240500D02*
D03*
X988500Y280500D02*
D03*
X985154D02*
D03*
X988500Y275500D02*
D03*
X985154D02*
D03*
X732000Y310000D02*
D03*
X735543Y310000D02*
D03*
X849729Y322500D02*
D03*
X853272Y322500D02*
D03*
X849729Y332500D02*
D03*
X853272Y332500D02*
D03*
X849729Y327500D02*
D03*
X853272Y327500D02*
D03*
D56*
X760500Y310000D02*
D03*
X860500Y331000D02*
D03*
Y367500D02*
D03*
X808500Y305500D02*
D03*
X825000Y298200D02*
D03*
X842500Y296500D02*
D03*
X849500Y292000D02*
D03*
X842500Y287500D02*
D03*
X849500Y283000D02*
D03*
X921500Y290500D02*
D03*
Y284000D02*
D03*
Y277500D02*
D03*
X990900Y242000D02*
D03*
Y249869D02*
D03*
Y257739D02*
D03*
Y265608D02*
D03*
X686000Y339000D02*
D03*
Y329000D02*
D03*
X735900Y168400D02*
D03*
D57*
X852500Y347968D02*
D03*
Y337500D02*
D03*
D58*
X860500Y346000D02*
D03*
D59*
Y339000D02*
D03*
D60*
X954657Y177500D02*
D03*
X1002500D02*
D03*
D61*
X978579Y194819D02*
D03*
X988421D02*
D03*
X968736D02*
D03*
D62*
X802600Y323000D02*
D03*
Y326740D02*
D03*
Y330480D02*
D03*
X814000D02*
D03*
Y323000D02*
D03*
D63*
X803276Y288740D02*
D03*
Y285000D02*
D03*
Y281260D02*
D03*
X812724D02*
D03*
Y288740D02*
D03*
D64*
X859709Y291969D02*
D03*
D65*
Y290000D02*
D03*
Y288031D02*
D03*
Y286063D02*
D03*
Y284094D02*
D03*
X879000D02*
D03*
Y286063D02*
D03*
Y288031D02*
D03*
Y290000D02*
D03*
Y291969D02*
D03*
D66*
X861500Y299500D02*
D03*
X866500D02*
D03*
X861500Y309672D02*
D03*
X866500D02*
D03*
X944000Y281500D02*
D03*
X949000D02*
D03*
X948500Y265500D02*
D03*
X943500D02*
D03*
D67*
X934700Y312759D02*
D03*
Y307641D02*
D03*
X929500Y312759D02*
D03*
Y307641D02*
D03*
X969000Y312559D02*
D03*
Y307441D02*
D03*
X974500Y312500D02*
D03*
Y307382D02*
D03*
D68*
X934759Y302500D02*
D03*
X929641D02*
D03*
X974359Y302100D02*
D03*
X969241D02*
D03*
D69*
X962933Y297000D02*
D03*
X1001366D02*
D03*
D70*
X942067D02*
D03*
X980500D02*
D03*
D71*
X960043Y277370D02*
D03*
X962602D02*
D03*
X965161D02*
D03*
X967720D02*
D03*
X970280D02*
D03*
X972839D02*
D03*
X975398D02*
D03*
X977957D02*
D03*
Y248630D02*
D03*
X975398D02*
D03*
X972839D02*
D03*
X970280D02*
D03*
X967720D02*
D03*
X965161D02*
D03*
X962602D02*
D03*
D72*
X960043D02*
D03*
D73*
X988500Y335920D02*
D03*
Y342760D02*
D03*
Y349677D02*
D03*
Y356474D02*
D03*
D74*
X981500Y335920D02*
D03*
Y342760D02*
D03*
Y349677D02*
D03*
Y356474D02*
D03*
D75*
X971000Y382500D02*
D03*
X915673D02*
D03*
X781673Y382551D02*
D03*
X727173D02*
D03*
D76*
X942654Y379351D02*
D03*
X971000Y371083D02*
D03*
X887327Y379351D02*
D03*
X915673Y371083D02*
D03*
X753327Y379402D02*
D03*
X781673Y371134D02*
D03*
X698827Y379402D02*
D03*
X727173Y371134D02*
D03*
D77*
X942654Y341949D02*
D03*
X887327D02*
D03*
X753327Y342000D02*
D03*
X698827D02*
D03*
D78*
X960567Y324626D02*
D03*
X905240D02*
D03*
X771240Y324677D02*
D03*
X716740D02*
D03*
D79*
X821689Y358437D02*
D03*
X822870D02*
D03*
X824839D02*
D03*
X826020D02*
D03*
X827988D02*
D03*
X829957D02*
D03*
X831925D02*
D03*
X833894D02*
D03*
X835862D02*
D03*
X837831D02*
D03*
X839799D02*
D03*
X841768D02*
D03*
X843736D02*
D03*
X844917D02*
D03*
X846886D02*
D03*
X848067D02*
D03*
D80*
X731500Y280500D02*
D03*
X736500D02*
D03*
X741500D02*
D03*
X746500D02*
D03*
X731500Y301398D02*
D03*
X736500D02*
D03*
X741500D02*
D03*
X746500D02*
D03*
D81*
X716500Y310346D02*
D03*
D82*
Y303654D02*
D03*
D83*
X703000Y275760D02*
D03*
X683000D02*
D03*
X693000D02*
D03*
X703000Y308240D02*
D03*
X683000D02*
D03*
X693000D02*
D03*
D84*
X673921Y360776D02*
D03*
X664079D02*
D03*
Y332035D02*
D03*
X673921D02*
D03*
D85*
X676858Y355264D02*
D03*
Y343453D02*
D03*
Y337547D02*
D03*
D86*
X859874Y166500D02*
D03*
X861843D02*
D03*
X863811D02*
D03*
X865780D02*
D03*
X867748D02*
D03*
X869717D02*
D03*
X871685D02*
D03*
X873654D02*
D03*
X875622D02*
D03*
X877591D02*
D03*
X879559D02*
D03*
X881528D02*
D03*
X883496D02*
D03*
X885465D02*
D03*
X887433D02*
D03*
X889402D02*
D03*
X891370D02*
D03*
X893339D02*
D03*
X895307D02*
D03*
X897276D02*
D03*
X899244D02*
D03*
X905150D02*
D03*
X907118D02*
D03*
X909087D02*
D03*
X911055D02*
D03*
X913024D02*
D03*
X914992D02*
D03*
X916961D02*
D03*
X903181D02*
D03*
X901213D02*
D03*
X793395Y166431D02*
D03*
X795364D02*
D03*
X809143D02*
D03*
X807175D02*
D03*
X805206D02*
D03*
X803238D02*
D03*
X801269D02*
D03*
X799301D02*
D03*
X797332D02*
D03*
X791427D02*
D03*
X789458D02*
D03*
X787490D02*
D03*
X785521D02*
D03*
X783553D02*
D03*
X781584D02*
D03*
X779616D02*
D03*
X777647D02*
D03*
X775679D02*
D03*
X773710D02*
D03*
X771742D02*
D03*
X769773D02*
D03*
X767805D02*
D03*
X765836D02*
D03*
X763868D02*
D03*
X761899D02*
D03*
X759931D02*
D03*
X757962D02*
D03*
X755994D02*
D03*
X754025D02*
D03*
X752057D02*
D03*
D87*
X853378Y156669D02*
D03*
X923457D02*
D03*
X815639Y156600D02*
D03*
X745561D02*
D03*
D88*
X846256Y364500D02*
D03*
X823500D02*
D03*
D89*
X817850Y378280D02*
D03*
X851906D02*
D03*
D90*
X817850Y362532D02*
D03*
X851906D02*
D03*
D91*
X669000Y352311D02*
D03*
Y340500D02*
D03*
D92*
X700500Y193000D02*
D03*
D93*
X710500D02*
D03*
X720500D02*
D03*
X730500D02*
D03*
X740500D02*
D03*
X750500D02*
D03*
X760500D02*
D03*
X770500D02*
D03*
X780500D02*
D03*
X790500D02*
D03*
X800500D02*
D03*
X810500D02*
D03*
X820500D02*
D03*
X830500D02*
D03*
X840500D02*
D03*
X850500D02*
D03*
X860500D02*
D03*
X870500D02*
D03*
X880500D02*
D03*
X890500D02*
D03*
X900500D02*
D03*
X910500D02*
D03*
X920500D02*
D03*
X930500D02*
D03*
X700500Y253000D02*
D03*
X710500D02*
D03*
X720500D02*
D03*
X730500D02*
D03*
X740500D02*
D03*
X750500D02*
D03*
X760500D02*
D03*
X770500D02*
D03*
X780500D02*
D03*
X790500D02*
D03*
X800500D02*
D03*
X810500D02*
D03*
X820500D02*
D03*
X830500D02*
D03*
X840500D02*
D03*
X850500D02*
D03*
X860500D02*
D03*
X870500D02*
D03*
X880500D02*
D03*
X890500D02*
D03*
X900500D02*
D03*
X910500D02*
D03*
X920500D02*
D03*
X930500D02*
D03*
D94*
X673336Y376804D02*
D03*
Y155336D02*
D03*
X996171D02*
D03*
Y376804D02*
D03*
M02*
