G04*
G04 #@! TF.GenerationSoftware,Altium Limited,Altium Designer,20.0.13 (296)*
G04*
G04 Layer_Color=16711935*
%FSLAX25Y25*%
%MOIN*%
G70*
G01*
G75*
%ADD10C,0.01000*%
%ADD17C,0.00600*%
%ADD18C,0.00500*%
%ADD110C,0.00020*%
%ADD111C,0.00050*%
D10*
X1024100Y388589D02*
X1026100Y382589D01*
X1022100D02*
X1024100Y388589D01*
X1022100Y149525D02*
X1024100Y143525D01*
X1026100Y149525D01*
X1024100Y279553D02*
Y388589D01*
Y143525D02*
Y249361D01*
X998211Y388589D02*
X1025100D01*
X997421Y143525D02*
X1025100D01*
X661525Y407100D02*
X667525Y409100D01*
X661525Y407100D02*
X667525Y405100D01*
X1001982D02*
X1007982Y407100D01*
X1001982Y409100D02*
X1007982Y407100D01*
X661525D02*
X818058D01*
X848249D02*
X1007982D01*
X661525Y378055D02*
Y408100D01*
X1007982Y378437D02*
Y408100D01*
D17*
X1021701Y254960D02*
X1022701Y252961D01*
X1024700Y250961D01*
X1026699D01*
X1027699Y251961D01*
Y253960D01*
X1026699Y254960D01*
X1025700D01*
X1024700Y253960D01*
Y250961D01*
X1027699Y260958D02*
Y256959D01*
X1023700Y260958D01*
X1022701D01*
X1021701Y259958D01*
Y257959D01*
X1022701Y256959D01*
X1027699Y262958D02*
X1026699D01*
Y263957D01*
X1027699D01*
Y262958D01*
Y271955D02*
Y267956D01*
X1023700Y271955D01*
X1022701D01*
X1021701Y270955D01*
Y268955D01*
X1022701Y267956D01*
X1021701Y277953D02*
Y273954D01*
X1024700D01*
X1023700Y275953D01*
Y276953D01*
X1024700Y277953D01*
X1026699D01*
X1027699Y276953D01*
Y274954D01*
X1026699Y273954D01*
X819658Y408499D02*
X820657Y409499D01*
X822657D01*
X823656Y408499D01*
Y407500D01*
X822657Y406500D01*
X823656Y405500D01*
Y404501D01*
X822657Y403501D01*
X820657D01*
X819658Y404501D01*
Y405500D01*
X820657Y406500D01*
X819658Y407500D01*
Y408499D01*
X820657Y406500D02*
X822657D01*
X825656Y408499D02*
X826655Y409499D01*
X828655D01*
X829654Y408499D01*
Y407500D01*
X828655Y406500D01*
X829654Y405500D01*
Y404501D01*
X828655Y403501D01*
X826655D01*
X825656Y404501D01*
Y405500D01*
X826655Y406500D01*
X825656Y407500D01*
Y408499D01*
X826655Y406500D02*
X828655D01*
X831654Y403501D02*
Y404501D01*
X832654D01*
Y403501D01*
X831654D01*
X836652Y408499D02*
X837652Y409499D01*
X839651D01*
X840651Y408499D01*
Y404501D01*
X839651Y403501D01*
X837652D01*
X836652Y404501D01*
Y408499D01*
X842650D02*
X843650Y409499D01*
X845649D01*
X846649Y408499D01*
Y404501D01*
X845649Y403501D01*
X843650D01*
X842650Y404501D01*
Y408499D01*
D18*
X661525Y155336D02*
G03*
X673336Y143525I11811J0D01*
G01*
Y388615D02*
G03*
X661525Y376804I0J-11811D01*
G01*
X1007982D02*
G03*
X996961Y388589I-11402J382D01*
G01*
X996171Y143525D02*
G03*
X1007982Y155351I-8J11819D01*
G01*
X673336Y143525D02*
X996171D01*
X1007982Y155336D02*
Y377187D01*
X673336Y388616D02*
X996961Y388589D01*
X661525Y155336D02*
Y376805D01*
D110*
X960370Y374626D02*
G03*
X960370Y374626I-3543J0D01*
G01*
Y347067D02*
G03*
X960370Y347067I-3543J0D01*
G01*
X905043Y374626D02*
G03*
X905043Y374626I-3543J0D01*
G01*
Y347067D02*
G03*
X905043Y347067I-3543J0D01*
G01*
X771043Y374677D02*
G03*
X771043Y374677I-3543J0D01*
G01*
Y347118D02*
G03*
X771043Y347118I-3543J0D01*
G01*
X716543Y374677D02*
G03*
X716543Y374677I-3543J0D01*
G01*
Y347118D02*
G03*
X716543Y347118I-3543J0D01*
G01*
D111*
X996171Y143525D02*
G03*
X1007982Y155336I0J11811D01*
G01*
Y376804D02*
G03*
X996171Y388615I-11811J0D01*
G01*
X673336D02*
G03*
X661525Y376804I0J-11811D01*
G01*
Y155336D02*
G03*
X673336Y143525I11811J0D01*
G01*
X679242Y376804D02*
G03*
X679242Y376804I-5906J0D01*
G01*
X1002076D02*
G03*
X1002076Y376804I-5906J0D01*
G01*
X679242Y155336D02*
G03*
X679242Y155336I-5906J0D01*
G01*
X1002076D02*
G03*
X1002076Y155336I-5906J0D01*
G01*
X685147Y376804D02*
G03*
X685147Y376804I-11811J0D01*
G01*
X1007982D02*
G03*
X1007982Y376804I-11811J0D01*
G01*
Y155336D02*
G03*
X1007982Y155336I-11811J0D01*
G01*
X685147D02*
G03*
X685147Y155336I-11811J0D01*
G01*
X700895Y388616D02*
X724517D01*
Y330348D02*
Y388616D01*
X700895Y330348D02*
X724517D01*
X700895D02*
Y388616D01*
X818513D02*
X850994D01*
Y358616D02*
Y388616D01*
X818513Y358616D02*
X850994D01*
X818513D02*
Y388616D01*
X756013Y330348D02*
Y388616D01*
X779635D01*
Y330348D02*
Y388616D01*
X756013Y330348D02*
X779635D01*
X968612D02*
Y388616D01*
X944990D02*
X968612D01*
X944990Y330348D02*
Y388616D01*
Y330348D02*
X968612D01*
X889871D02*
Y388616D01*
Y330348D02*
X913494D01*
Y388616D01*
X889871D02*
X913494D01*
M02*
