M48
;Layer_Color=9474304
;FILE_FORMAT=2:5
INCH,LZ
;TYPE=PLATED
T1F00S00C0.01575
T3F00S00C0.02559
T4F00S00C0.03150
T5F00S00C0.03543
T6F00S00C0.12500
%
T01
X06889Y01465
X0732Y01549
X0758Y0156
X0770159Y0152579
X07745Y01535
X0786Y0155114
X07902
X07893Y01513
X07945Y0156
X08331Y01465
X08568
X08781
X09603Y01518
X09654Y01562
X09782Y01547
X09533Y01578
X09661Y01771
X09971Y01821
X0998Y01971
X10038Y02148
Y0227
X09954Y02217
X09855Y0227
Y02158
X09751Y02217
X09678Y02294
X09642Y02295
X09575Y0231
X09562Y02365
Y02407
X09542Y02465
X09493Y02503
X09444Y02645
X09426Y02673
X09527Y02691
X09565
X09612
X09529Y02769
X0953Y02801
Y02845
X09544Y02997
X09635Y03032
Y03069
X09475Y03089
X09441
Y03123
X09475
X09668Y02913
Y02878
X09774Y02877
X0982054Y02836
X0981596Y02755
Y02655
X09849Y02684
X09845Y025
X09829Y02445
X09805Y02414
X09732Y0237
X09657Y0238664
X09703Y02542
X10038Y02545
Y02411
Y02702
X09943Y02927
X09928Y03005
X09587Y02217
X09522Y0201
X09156Y0212
X09262Y02243
X09156Y02365
X09031Y02243
X0889975Y02365
Y0212
X0877475Y02243
X086435Y02365
Y0212
X085185Y02243
X0838725Y02365
Y0212
X08131
X08243Y02243
X08131Y02365
X08155Y02678
X08238Y02818
X08267
Y02849
X08238
X08291Y02901
X08292Y0293
X0832Y02782
X0867Y02775
X08665Y0295
X0874Y02955
X0873041Y0289541
X0888Y0293
X08865Y02985
X09Y02995
X08947Y02912
X088Y0307
Y03115
X0856261Y0302
X08526Y0303286
X08176Y03029
X08143
Y03065
X08176
X07971Y02868
X07942
Y02837
X07971
X07973Y01712
X0801291Y0170909
X07914Y01711
X0799Y01575
X08036Y01563
X08068Y01599
X08118Y01645
X0815
X08118Y01678
X08331Y01574
X08674
X0881
X08835Y01855
X08927
X09115Y01745
Y01715
X09085
X0916
Y01745
X0919Y01715
X09117Y01601
X0907Y01622
X09306Y0158
X0925Y02684
Y02718
X0925818Y0276456
X0926Y0281
Y028502
X09255Y02985
X09291Y0297
X09338
X09254Y03043
X09164Y03012
X0912Y02634
X07732Y02656
X0755Y02613
X0746Y02685
X07397Y02721
X07344Y02613
X07193Y02768
Y02909
X07034Y02877
X06928Y02953
X06808Y02413
X06988Y02214
Y0209
X07201
Y02214
X0742Y02216
Y0209
X07601Y0212
X078
Y02365
X07666
X07685Y0171
X078Y01711
X0777541Y0157459
X07705Y01575
X0762
X0757Y01605
X07194Y0165
X06956Y01721
X06667
X068Y01999
X07565Y02981
X07728Y03006
X07766Y03051
X07563Y03225
X07398Y03295
X0737Y03135
X07399Y03491
X0740048Y036127
X07598Y03641
X077Y03645
X07188Y03652
X07062Y03658
X06878Y03665
X0683453Y0355358
X06663Y03654
X0688Y0384
X06971Y03305
X07019Y03198
X07815Y03168
X08147Y03185
X08234Y03156
X08447Y03181
X08484
X08448Y03219
X08558Y03197
Y03253
Y03301
X08386Y03302
Y03385
X08354
X08168Y03384
Y03341
X08171Y03566
X08056Y03626
X0805Y03742
X08081Y03779
X080218Y03812
X08Y03855
X08303Y03771
X08508Y0356
X0869637Y03591
Y034179
X08947Y03591
X09092
X09244
Y03417
X08947Y03229
X09635Y03417
X09633Y03591
X09498
X0993Y03545
Y0348
Y0342
Y03355
X10038Y03278
Y03145
X09908
X10036Y03623
X09821Y03847
T03
X08235Y03645
X0846256
T04
X0669Y03405
Y0352311
T05
X07905Y0193
X08005
X08105
X08205
X08305
X08405
X08505
X08605
X08705
X08805
X08905
X09005
X09105
X09205
X09305
Y0253
X09205
X09105
X09005
X08905
X08805
X08705
X08605
X08505
X08405
X08305
X08205
X08105
X08005
X07905
X07805
X07705
X07605
X07505
X07405
X07305
X07205
X07105
X07005
Y0193
X07105
X07205
X07305
X07405
X07505
X07605
X07705
X07805
T06
X0673336Y0155336
X0996171
X0673336Y0376804
X0996171
M30
